<svg width="172" height="72" viewBox="0 0 172 72" fill="none" xmlns="http://www.w3.org/2000/svg">
<g filter="url(#filter0_d)">
<rect x="16" y="12" width="140" height="40" rx="20" fill="#96FBC4"/>
<path d="M74.2344 29.9531V32.875H81.8125V29.9531H74.2344ZM81.0312 37.9219H83.375C83.6875 37.9219 83.8906 37.7969 83.9844 37.5469C84.0885 37.2656 84.1615 36.6302 84.2031 35.6406C84.4531 35.8385 84.8177 36 85.2969 36.125C85.224 37.4583 85.0156 38.3021 84.6719 38.6562C84.4115 38.9062 84.0156 39.0312 83.4844 39.0312H80.8906C80.0156 39.0312 79.4688 38.8594 79.25 38.5156C79.0938 38.2656 79.0156 37.8854 79.0156 37.375V33.9531H76.6562C76.4271 35.5052 75.9323 36.6615 75.1719 37.4219C74.349 38.2344 73.0625 38.8438 71.3125 39.25C71.1771 38.8958 70.9635 38.5625 70.6719 38.25C70.6615 38.2396 70.651 38.2292 70.6406 38.2188C72.6094 37.8333 73.9323 37.1719 74.6094 36.2344C74.9948 35.6719 75.2552 34.9115 75.3906 33.9531H73.0938V29.3906C72.5521 29.8594 72.0625 30.224 71.625 30.4844C71.125 29.9844 70.8385 29.7031 70.7656 29.6406C70.7344 29.6198 70.7083 29.6042 70.6875 29.5938C72.0729 28.8125 73.2135 27.7917 74.1094 26.5312C74.2865 26.2708 74.4479 26.0104 74.5938 25.75L75.7812 26.125C75.2604 27.0625 74.5469 27.974 73.6406 28.8594H82.5781C81.6927 28.0365 80.9375 27.1354 80.3125 26.1562H76.4375V25.0781H81.0469C81.7031 26.3385 82.6771 27.474 83.9688 28.4844C84.4583 28.8594 84.9427 29.1719 85.4219 29.4219C85.0573 29.6927 84.75 30 84.5 30.3438C84.0729 30.0938 83.5833 29.7344 83.0312 29.2656V33.9531H80.2031V37.375C80.2031 37.6562 80.2969 37.8229 80.4844 37.875C80.6094 37.9062 80.7917 37.9219 81.0312 37.9219ZM97.0469 26.7969H94.3594C94.0052 27.3594 93.599 27.8854 93.1406 28.375H96.1875C96.5625 27.7708 96.849 27.2448 97.0469 26.7969ZM99.5 31.0312V29.3438H97.7656V30.8438C97.7656 31.0104 97.8073 31.1042 97.8906 31.125C97.9531 31.1354 98.0312 31.1406 98.125 31.1406H99.1875C99.375 31.1302 99.4792 31.0938 99.5 31.0312ZM93.2812 29.3438V31.75C94.0104 31.4375 94.4792 30.9427 94.6875 30.2656C94.7604 30.0052 94.8125 29.6979 94.8438 29.3438H93.2812ZM91.5625 32.4531L89.8281 33.0312V37.8438C89.8281 38.4271 89.6719 38.8021 89.3594 38.9688C89.3281 38.9896 89.3021 39.0052 89.2812 39.0156C88.9271 39.1615 88.2656 39.2292 87.2969 39.2188C87.224 38.8333 87.1042 38.4688 86.9375 38.125C87.7188 38.1458 88.224 38.1458 88.4531 38.125C88.6198 38.0729 88.7083 37.9792 88.7188 37.8438V33.375L86.8125 34L86.5156 32.8438C86.6615 32.8021 87.3958 32.5833 88.7188 32.1875V28.9062H86.7188V27.8281H88.7188V24.625H89.8281V27.8281H91.5312V28.4375C92.7917 27.3958 93.7031 26.1198 94.2656 24.6094L95.3906 24.7812C95.3177 24.9792 95.1562 25.3333 94.9062 25.8438H97.5781L97.7656 25.7812L98.5156 26.2656C98.2552 26.8906 97.8698 27.5938 97.3594 28.375H100.547V33.5625H99.5V31.9531H98.0156C97.4427 31.9531 97.0938 31.8281 96.9688 31.5781C96.8854 31.4219 96.8438 31.1771 96.8438 30.8438V29.3438H95.75C95.6562 30.5312 95.2969 31.3854 94.6719 31.9062C94.4219 32.1042 94.1354 32.276 93.8125 32.4219C93.6875 32.1615 93.5104 31.9427 93.2812 31.7656V33.5938H92.2656V29.1875C92.2344 29.2188 92.1354 29.3021 91.9688 29.4375C91.8542 29.2812 91.6771 29.1042 91.4375 28.9062H89.8281V31.8594C90.0573 31.7969 90.3906 31.6875 90.8281 31.5312C91.0885 31.4479 91.2812 31.3854 91.4062 31.3438L91.5625 32.4531ZM101.156 35.2031H97.1406C97.9219 36.7865 99.3385 37.7812 101.391 38.1875C101.182 38.3646 100.943 38.6927 100.672 39.1719C98.5365 38.6302 97.0625 37.5 96.25 35.7812C95.7708 37.0208 94.8698 37.9427 93.5469 38.5469C92.9427 38.8281 92.2292 39.0625 91.4062 39.25C91.2812 38.9167 91.0833 38.6146 90.8125 38.3438C92.7708 37.9479 94.099 37.2448 94.7969 36.2344C95.0052 35.9323 95.1771 35.5885 95.3125 35.2031H91.375V34.1875H95.5781C95.6615 33.7396 95.724 33.2656 95.7656 32.7656H96.8438C96.7917 33.3698 96.7344 33.8438 96.6719 34.1875H101.156V35.2031Z" fill="white"/>
</g>
<defs>
<filter id="filter0_d" x="0" y="0" width="172" height="72" filterUnits="userSpaceOnUse" color-interpolation-filters="sRGB">
<feFlood flood-opacity="0" result="BackgroundImageFix"/>
<feColorMatrix in="SourceAlpha" type="matrix" values="0 0 0 0 0 0 0 0 0 0 0 0 0 0 0 0 0 0 127 0"/>
<feMorphology radius="1" operator="erode" in="SourceAlpha" result="effect1_dropShadow"/>
<feOffset dy="4"/>
<feGaussianBlur stdDeviation="8.5"/>
<feColorMatrix type="matrix" values="0 0 0 0 0.418594 0 0 0 0 0.7125 0 0 0 0 0.695835 0 0 0 0.3 0"/>
<feBlend mode="normal" in2="BackgroundImageFix" result="effect1_dropShadow"/>
<feBlend mode="normal" in="SourceGraphic" in2="effect1_dropShadow" result="shape"/>
</filter>
</defs>
</svg>
