<svg width="172" height="72" viewBox="0 0 172 72" fill="none" xmlns="http://www.w3.org/2000/svg">
<g filter="url(#filter0_d)">
<rect x="16" y="12" width="140" height="40" rx="20" fill="white"/>
<path d="M74.4688 24.5781L75.5781 24.9219C75.1406 26.0156 74.5938 27.125 73.9375 28.25V39.2969H72.7969V29.9688C72.2344 30.75 71.651 31.4427 71.0469 32.0469C70.8594 31.599 70.6354 31.2135 70.375 30.8906C71.75 29.5885 72.9219 27.9323 73.8906 25.9219C74.1094 25.4635 74.3021 25.0156 74.4688 24.5781ZM76.7188 32.4219H79.5469C79.5573 32.2552 79.5625 32.0156 79.5625 31.7031V30.0469H76.7188V32.4219ZM83.6875 30.0469H80.7344V31.7031C80.7344 32.026 80.7292 32.2656 80.7188 32.4219H83.6875V30.0469ZM84.8125 33.4219H80.6562C80.5104 34.6615 80.1562 35.6875 79.5938 36.5C81.1458 37.3438 83.1094 37.9062 85.4844 38.1875C85.2135 38.4688 84.9792 38.8281 84.7812 39.2656C82.4167 38.901 80.4531 38.2552 78.8906 37.3281C78.0365 38.1615 76.8333 38.8125 75.2812 39.2812C75.0729 38.8646 74.8333 38.5365 74.5625 38.2969C76.0417 37.9115 77.1667 37.375 77.9375 36.6875C76.9479 35.9271 76.1719 35.0573 75.6094 34.0781L76.6094 33.7656C77.0885 34.5677 77.7604 35.276 78.625 35.8906C79.0729 35.2344 79.3594 34.4115 79.4844 33.4219H75.6094V29.0469H79.5625V27.4688H75.1562V26.3906H79.5625V24.6719H80.7344V26.3906H85.3438V27.4688H80.7344V29.0469H84.8125V33.4219ZM94.6719 33.2188H98.9688V30.5625H94.6719V33.2188ZM89.5938 33.2188H93.4844V30.5625H89.6562V31.5C89.6562 32.125 89.6354 32.6979 89.5938 33.2188ZM93.4844 26.875H89.6562V29.4375H93.4844V26.875ZM98.9688 29.4375V26.875H94.6719V29.4375H98.9688ZM100.141 25.75V37.6094C100.141 38.2448 99.9583 38.6615 99.5938 38.8594C99.5312 38.8906 99.474 38.9167 99.4219 38.9375C98.9635 39.0833 97.974 39.151 96.4531 39.1406C96.401 38.8073 96.2656 38.4219 96.0469 37.9844C96.5677 38.0052 97.401 38.0156 98.5469 38.0156C98.8073 37.9427 98.9479 37.8021 98.9688 37.5938V34.3594H94.6719V39.0781H93.4844V34.3594H89.4844C89.1927 36.4844 88.526 38.1354 87.4844 39.3125C87.2969 39.0521 87.0156 38.8073 86.6406 38.5781C86.6198 38.5573 86.599 38.5417 86.5781 38.5312C87.7552 37.2083 88.3906 35.224 88.4844 32.5781C88.4948 32.2552 88.5 31.8958 88.5 31.5V25.75H100.141Z" fill="#96FBC4"/>
<rect x="16.5" y="12.5" width="139" height="39" rx="19.5" stroke="#96FBC4"/>
</g>
<defs>
<filter id="filter0_d" x="0" y="0" width="172" height="72" filterUnits="userSpaceOnUse" color-interpolation-filters="sRGB">
<feFlood flood-opacity="0" result="BackgroundImageFix"/>
<feColorMatrix in="SourceAlpha" type="matrix" values="0 0 0 0 0 0 0 0 0 0 0 0 0 0 0 0 0 0 127 0"/>
<feMorphology radius="1" operator="erode" in="SourceAlpha" result="effect1_dropShadow"/>
<feOffset dy="4"/>
<feGaussianBlur stdDeviation="8.5"/>
<feColorMatrix type="matrix" values="0 0 0 0 0.418594 0 0 0 0 0.7125 0 0 0 0 0.695835 0 0 0 0.3 0"/>
<feBlend mode="normal" in2="BackgroundImageFix" result="effect1_dropShadow"/>
<feBlend mode="normal" in="SourceGraphic" in2="effect1_dropShadow" result="shape"/>
</filter>
</defs>
</svg>
