<svg width="171" height="195" viewBox="0 0 171 195" fill="none" xmlns="http://www.w3.org/2000/svg">
<g filter="url(#filter0_d)">
<g clip-path="url(#clip0)">
<rect x="9" y="7" width="151" height="175" rx="10" fill="white"/>
<rect x="2" y="156" width="164" height="30" fill="#96FBC4"/>
<path d="M43.7899 83.4816C47.2915 86.4799 51.4726 88.2788 55.4445 90.5139C58.9461 92.4764 62.5 94.2754 66.472 96.4014C67.465 96.9466 68.4057 97.6552 69.3465 98.3094C70.0259 98.8 70.6008 99.3997 71.3325 99.9993C66.5243 100.49 61.9774 100.926 57.4305 101.308C52.4133 101.689 47.5529 101.035 43.006 98.691C41.3858 97.8188 39.8179 96.892 38.1978 96.0198C38.1978 96.0743 38.1455 96.1833 38.0933 96.2924C42.1175 99.9448 46.8212 101.853 52.0475 102.78C48.5981 104.36 45.0965 105.996 41.3858 107.74C42.6401 108.176 43.5286 107.686 44.4171 107.304C47.7096 105.996 50.8977 104.579 54.1902 103.27C55.0787 102.889 56.0717 102.78 57.0647 102.671C59.2597 102.398 61.4025 102.289 63.5976 102.125C66.263 101.907 68.8761 101.689 71.5415 101.471C72.6913 101.417 73.6638 102.237 74.5 103C76.084 104.439 76.3507 105.459 77.5 107V118C77.5 124 77 128.5 77.5 131.781C77.7613 133.035 85.5 132.779 85.5 131V125V117.5C89.2107 111.558 93.6487 106.65 99.5021 102.889C105.303 99.1271 111.052 95.2566 116.279 90.6229C116.749 90.2413 117.376 90.0233 117.951 89.8052C122.55 87.9517 127.149 86.1528 131.748 84.2993C132.166 84.1358 132.532 83.7542 132.898 83.4271C132.794 83.3181 132.741 83.1545 132.637 83.0455C127.776 83.5906 123.648 86.7524 118.63 87.5156L118.779 87.2793C119.712 85.7929 120.556 84.4491 121.4 83.1545C123.648 79.6656 125.32 75.9042 125.999 71.7611C126.052 71.2705 125.999 70.7253 125.999 70.1802C125.843 70.0712 125.686 70.0167 125.529 69.9621C121.871 83.3181 113.613 92.3129 101.802 98.0913C102.22 96.1834 102.638 94.4389 103.004 92.64C104.363 85.8802 105.199 79.0115 109.171 73.1785C109.537 72.6333 109.641 71.9247 109.85 71.325L109.223 70.8344C109.066 71.1615 108.962 71.5976 108.753 71.9246C105.617 75.9587 103.683 80.5924 102.638 85.6622C101.697 90.1323 101.122 94.766 99.2408 98.9636C98.875 99.7813 98.3001 100.599 97.6207 101.144C93.8577 104.088 90.1993 107.141 87.1158 110.902C86.75 111.338 86.4181 111.618 86 112C85.5 112.5 85.3763 112 85.5 111.5C86.3362 108.12 87 104 88 100.5C89 96.5 92.2232 92.3879 91.8195 92.0948C91 91.5 86.5 97.5 84.5 107V99.9993V92.64C86.7473 89.9688 88.3052 87.0278 90.5 84C93.7403 79.5299 96.0005 74.8684 98.9272 70.1802C102.586 64.3472 105.826 58.2962 108.335 51.8635C108.491 51.4819 108.596 51.0458 108.7 50.6097C108.491 50.5007 108.335 50.4462 108.125 50.3371C104.31 57.9691 100.391 65.601 95.6347 72.6333C96.0528 67.1274 97.4116 61.7305 97.4116 56.1701C97.2548 56.1701 97.1503 56.1156 96.9935 56.1156C96.3663 59.9316 95.7915 63.7476 95.1643 67.5635L94.5 72C94.5 73.5 93 77 90.9833 79.8837C90.1471 80.7559 89.729 81.4701 88.6314 82.6639C87 85 86.6924 85.1108 84.5 88V82.5C84.5 75 84.4574 69.9076 84.2484 63.4205C84.2936 61.0219 84.7064 59.0128 85 58.5C87.2473 54.575 89.3109 52.1906 92.6557 49.2468C95.896 46.3576 97.5872 43.9296 98.9983 39.732C99.3119 38.8598 99.6945 36.8903 99.2764 36.7349C98.8644 36.5817 98.6898 37.3116 98.6348 37.5416L98.6324 37.5515C97.4304 42.5667 95.0598 45.2673 91.5582 48.7562C89.4677 50.8822 87.4295 53.0082 85.3913 55.1341L85.3912 55.1344C84.6072 55.9521 83.98 56.8788 83.2484 57.8055C83.1438 57.6965 83.0393 57.5875 83.0393 57.533C82.569 53.2809 82.0986 49.0833 81.6805 44.8312C81.4714 42.7052 81.2624 40.5246 82.2031 38.5621C83.3529 36.0545 84.6595 33.6559 85.9138 31.2027C86.1228 30.7666 86.3841 30.385 86.5932 30.0034C86.4887 29.8944 86.3319 29.8399 86.2274 29.7309C83.8233 31.8569 82.2554 34.6371 80.792 37.8534C79.9558 32.6201 80.2077 30.5792 78.274 26C78.065 26.0545 77.8559 26.0545 77.6469 26.109C78.0681 29.7309 78.1342 29.6746 78.5 33C78.8658 36.3254 79.1115 39.4805 79.3728 42.8604C79.6864 46.2403 79.7909 49.6201 80 53C78.014 49.6746 75.4612 45.3764 73.4752 42.051C72.9526 41.2333 72.1687 40.5791 71.5415 39.8159C71.437 39.925 71.3325 39.9795 71.2279 40.0885C71.2802 40.3066 71.3847 40.5791 71.4892 40.7427C74.2592 44.6132 76.4542 48.8652 78.3357 53.2264C79.1196 55.0798 79.1864 56.483 79.5 58.5C79.8136 60.5715 79.6045 63.874 79.5 66C79.4477 68.1806 79.5 69 79.5 71C79 71 78.0523 70.0545 78 70C77.5 69.5 77.5749 69.6542 77 69C72.2963 63.7667 67.9876 59.9316 62.4478 55.625C61.1935 54.6982 60.0959 53.608 59.1029 52.4087C55.34 48.1021 53.5108 42.8142 52.0997 37.3083C52.0475 37.0357 51.8384 36.8177 51.7339 36.5996C51.6294 36.5996 51.4726 36.6541 51.3158 36.6541C51.368 37.4718 51.2635 38.3441 51.4726 39.1073C52.7791 43.5229 54.2425 47.8295 57.0124 51.5364C57.8486 52.6267 58.6326 53.7715 59.4165 54.8618L59.4688 54.9163H59.521L59.4165 54.9708C59.3643 54.9708 59.3643 54.9163 59.3643 54.9163C57.3783 53.826 55.34 52.8448 53.4586 51.5364C51.5771 50.2281 49.8002 48.8107 48.2323 47.1753C46.6644 45.5399 45.4101 43.5774 44.0512 41.7239C43.8945 41.7784 43.7377 41.8875 43.6331 41.942C43.7899 42.4871 43.8945 43.0323 44.1035 43.5229C47.3961 50.1191 52.9882 53.8805 59.2597 56.6062C61.9251 57.751 64.3292 59.1684 66.5765 61.0219C71.5415 65.1104 75.8346 69.3944 78.5 75.5C78.5 78 78.1651 81.8274 78.1651 82.8274C78 85.5 77.7538 90.4594 77.5447 96.8375C77.4925 98.8545 77.5 100.265 77.5 102.5C75.9553 100.893 75 99.8038 74 98.5C72.7457 96.8646 72.2387 96.2246 71.3325 94.5L70.2349 91.8767C69.2419 89.6962 68.4057 87.5701 67.6741 85.3896C67.0469 83.4816 66.8807 83.3781 66.2536 81.4701C66.0968 81.0885 65.9491 80.4208 65.4696 80.3798C65.058 80.3446 64.9993 80.489 64.9993 80.6524C66.149 86.9215 67.8831 91.059 70.7053 96.783L70.1026 96.4754C65.4072 94.0788 60.8962 91.7763 56.3853 89.4236C55.9672 89.2056 55.5491 88.7149 55.34 88.2788C54.2425 86.0438 53.145 83.7542 52.152 81.4646C51.8907 80.7559 51.8432 79.2632 52 78.5C52.3217 76.934 52 77.5 53.5 75C54.1407 73.9322 56.3566 71.4992 56.3853 71C56.5 69 52.152 75 50.6886 78.0302C50.5318 77.8122 50.4273 77.5941 50.3228 77.376C49.0685 74.2142 47.7096 71.1069 47.5006 67.618C47.4483 67.1819 47.2915 66.3642 47.0302 66.3642C46.8794 66.2926 46.7012 66.1067 46.6121 66.5278C46.4031 68.3267 46.8734 70.0712 47.2915 71.8156C48.3891 76.5583 50.166 81.0285 52.361 85.2806C52.7791 86.2073 53.1972 87.134 53.6676 88.1698C52.2565 87.4611 51.0545 86.807 49.9047 86.2073C46.2985 84.2993 42.9537 82.0097 41.0723 78.1392C39.2431 74.3778 38.5448 71.9945 37.8654 67.8514C37.8132 67.4153 37.6119 66.6644 37.5519 66.5431C37.4337 66.4785 37.2555 66.4785 37.1338 66.5976C37.0773 66.8503 36.8991 67.0362 37.0773 68.1516C37.4337 71.3118 37.832 72.7969 38.8772 75.7951C39.9225 78.6844 41.4381 81.4101 43.7899 83.4816Z" fill="#CBAF96"/>
<path d="M78.2853 17.1367C74.1005 19.8311 75.5011 24.7284 76.6681 26.7297C81.3922 25.0411 81.78 20.3294 80.9721 17.9478L79.0122 19.5617L78.2853 17.1367Z" fill="#FFE4AF"/>
<path d="M67.2991 26.4206C70.4853 30.2193 75.1498 28.2225 76.9817 26.8189C74.7219 22.3616 70.0171 22.5676 67.7646 23.6639L69.6047 25.399L67.2991 26.4206Z" fill="#FFE4AF"/>
<path d="M43.1948 31.7277C44.073 36.6072 49.1132 37.1915 51.4003 36.8834C51.6534 31.8924 47.4678 29.734 44.9682 29.5664L45.7033 31.9864L43.1948 31.7277Z" fill="#FFE4AF"/>
<path d="M34.571 44.3597C38.7382 47.0458 42.6034 43.7586 43.9381 41.8759C40.461 38.2866 36.0277 39.8751 34.2002 41.5887L36.4713 42.7017L34.571 44.3597Z" fill="#FFE4AF"/>
<path d="M56.9127 29.1883C52.0309 30.054 51.4338 35.0927 51.7361 37.3806C56.7264 37.6464 58.8955 33.4663 59.0694 30.9672L56.6476 31.6961L56.9127 29.1883Z" fill="#FFE4AF"/>
<path d="M62.571 42.3597C66.7382 45.0458 70.6034 41.7586 71.9381 39.8759C68.461 36.2866 64.0277 37.8751 62.2002 39.5887L64.4713 40.7017L62.571 42.3597Z" fill="#FFE4AF"/>
<path d="M66.0485 50.4465C62.9702 54.333 65.8663 58.4993 67.6105 60.0106C71.5206 56.8986 70.3703 52.3319 68.8424 50.3467L67.514 52.4988L66.0485 50.4465Z" fill="#FFE4AF"/>
<path d="M86.7643 72.5293C83.9381 76.6029 87.0921 80.5775 88.9284 81.9754C92.6338 78.6222 91.1968 74.1375 89.5463 72.2529L88.3567 74.4848L86.7643 72.5293Z" fill="#FFE4AF"/>
<path d="M67.4517 71.7851C63.0736 74.1117 64.0568 79.0896 65.0489 81.1733C69.8786 79.8897 70.6554 75.2449 70.0514 72.8136L67.9716 74.2527L67.4517 71.7851Z" fill="#FFE4AF"/>
<path d="M40.7445 56.8134C36.219 58.8385 36.8631 63.8714 37.7119 66.0174C42.6174 65.0636 43.7066 60.482 43.2686 58.0154L41.0962 59.3106L40.7445 56.8134Z" fill="#FFE4AF"/>
<path d="M40.4489 87.1958C36.1657 89.1105 36.7673 93.8509 37.5668 95.8713C42.2079 94.9654 43.245 90.6475 42.8344 88.3244L40.7778 89.5478L40.4489 87.1958Z" fill="#FFE4AF"/>
<path d="M33.8426 112.999C38.8273 114.55 41.8114 110.149 42.6297 107.874C38.088 105.217 34.0464 108.06 32.6808 110.302L35.2978 110.793L33.8426 112.999Z" fill="#FFE4AF"/>
<path d="M64.4549 65.3962C59.6038 63.9797 56.7908 68.29 56.0376 70.506C60.4786 72.9999 64.3419 70.1796 65.6254 67.9866L63.0841 67.556L64.4549 65.3962Z" fill="#FFE4AF"/>
<path d="M52.3174 97.2168C56.7924 99.7835 60.6156 96.1794 61.8934 94.1606C58.0831 90.6228 53.5743 92.497 51.7758 94.3661L54.1947 95.4016L52.3174 97.2168Z" fill="#FFE4AF"/>
<path d="M102.669 105.449C98.9541 102.857 95.3306 105.713 94.0564 107.38C97.1151 110.77 101.204 109.48 102.922 107.984L100.887 106.891L102.669 105.449Z" fill="#FFE4AF"/>
<path d="M25.8819 92.8086C28.5553 98.5152 34.9372 97.5857 37.6458 96.4598C36.3256 90.2466 30.479 88.9632 27.354 89.5743L29.0478 92.3065L25.8819 92.8086Z" fill="#FFE4AF"/>
<path d="M97.4971 82.2963C91.3185 83.5361 90.704 89.956 91.1536 92.8547C97.5026 93.0496 100.139 87.6758 100.289 84.4951L97.2321 85.4907L97.4971 82.2963Z" fill="#FFE4AF"/>
<path d="M88.2449 41.3445C84.1119 45.0399 86.3683 49.9659 87.9353 51.8608C92.8046 49.127 92.5158 44.0427 91.2811 41.6723L89.3983 43.7772L88.2449 41.3445Z" fill="#FFE4AF"/>
<path d="M53.4971 56.2963C47.3185 57.5361 46.704 63.956 47.1536 66.8547C53.5026 67.0496 56.1392 61.6758 56.2887 58.4951L53.2321 59.4907L53.4971 56.2963Z" fill="#FFE4AF"/>
<path d="M109.918 82.7339C106.153 86.3365 108.567 91.092 110.165 92.9171C114.685 90.2409 114.146 85.3203 112.842 83.0329L111.148 85.0821L109.918 82.7339Z" fill="#FFE4AF"/>
<path d="M29.3572 62.8073C30.8117 67.1869 35.5327 67.0586 37.5992 66.4721C37.1722 61.8402 33.0304 60.4052 30.7053 60.5815L31.7026 62.7139L29.3572 62.8073Z" fill="#FFE4AF"/>
<path d="M70.1703 31.6883C67.5688 35.1538 70.1936 38.7283 71.7517 40.0092C75.0976 37.2017 73.9891 33.2378 72.6092 31.5378L71.4972 33.4483L70.1703 31.6883Z" fill="#FFE4AF"/>
<path d="M89.9272 22.1309C85.1234 23.1406 84.7111 28.6838 85.0919 31.1938C90.0434 31.426 92.0429 26.8074 92.1263 24.0596L89.7538 24.8895L89.9272 22.1309Z" fill="#FFE4AF"/>
<path d="M105.212 30.7377C100.286 30.3814 98.3496 35.6275 98.0214 38.1605C102.745 39.7587 105.96 35.847 106.803 33.2129L104.279 33.3572L105.212 30.7377Z" fill="#FFE4AF"/>
<path d="M93.3347 30.4164C91.9113 34.3076 95.6966 37.0795 97.6642 37.9283C100.043 34.4862 97.6288 30.9908 95.6984 29.7033L95.2326 31.7731L93.3347 30.4164Z" fill="#FFE4AF"/>
<path d="M104.051 47.4178C98.658 47.5473 97.103 53.4547 97.012 56.2433C102.316 57.4853 105.401 52.8947 106.041 49.9421L103.312 50.364L104.051 47.4178Z" fill="#FFE4AF"/>
<path d="M119.19 45.797C114.169 43.07 109.624 47.6738 108.069 50.1864C112.284 54.1259 117.539 51.5386 119.685 49.1652L116.956 48.112L119.19 45.797Z" fill="#FFE4AF"/>
<path d="M137.19 65.7843C132.169 63.0573 127.624 67.6611 126.069 70.1737C130.284 74.1132 135.539 71.5259 137.685 69.1525L134.956 68.0993L137.19 65.7843Z" fill="#FFE4AF"/>
<path d="M114.823 61.16C109.182 62.0664 108.394 68.4878 108.697 71.4271C114.44 71.9726 117.022 66.7145 117.272 63.5246L114.468 64.3573L114.823 61.16Z" fill="#FFE4AF"/>
<path d="M120.961 60.8563C118.91 65.7168 123.553 69.4759 126.002 70.677C129.24 66.4467 126.386 61.8522 124.011 60.0956L123.291 62.699L120.961 60.8563Z" fill="#FFE4AF"/>
<path d="M139.111 75.7654C134.062 75.5727 132.265 81.0039 132.018 83.6052C136.904 85.0747 140.054 80.9633 140.825 78.2407L138.248 78.4762L139.111 75.7654Z" fill="#FFE4AF"/>
<path d="M66.75 164.33V167.703C66.7497 168.429 66.9182 169.145 67.2423 169.795C67.5664 170.445 68.0372 171.01 68.6175 171.447C69.1978 171.883 69.8716 172.179 70.5858 172.31C71.3 172.441 72.0349 172.405 72.7325 172.203C72.9166 172.664 73.167 173.089 73.4713 173.47L71.467 175.476C71.3618 175.582 71.3027 175.725 71.3028 175.874C71.3029 176.023 71.3622 176.165 71.4676 176.271C71.573 176.376 71.7159 176.435 71.8649 176.435C72.0139 176.435 72.1567 176.375 72.262 176.27L74.2651 174.265C75.0081 174.859 75.9037 175.231 76.8488 175.338C77.7939 175.446 78.7502 175.284 79.6075 174.872C80.4648 174.46 81.1883 173.814 81.6946 173.009C82.201 172.203 82.4696 171.271 82.4697 170.32V166.649C82.4697 165.887 81.8521 165.271 81.0919 165.271H77.4203C76.7848 165.271 76.1784 165.388 75.6193 165.601C75.2295 164.825 74.6315 164.172 73.892 163.716C73.1526 163.26 72.3009 163.019 71.4322 163.02H68.0603C67.3372 163.02 66.75 163.607 66.75 164.33ZM75.0646 173.464L77.8178 170.71C77.923 170.604 77.9821 170.461 77.982 170.312C77.9819 170.164 77.9226 170.021 77.8172 169.915C77.765 169.863 77.703 169.822 77.6349 169.794C77.5667 169.766 77.4937 169.751 77.4199 169.751C77.2709 169.751 77.1281 169.811 77.0228 169.916L74.273 172.669C73.8373 172.085 73.5725 171.392 73.5084 170.666C73.4443 169.94 73.5833 169.211 73.9098 168.56C74.2364 167.908 74.7377 167.361 75.3576 166.978C75.9775 166.595 76.6917 166.393 77.4203 166.393H81.0931C81.2334 166.393 81.3479 166.507 81.3479 166.647V170.32C81.348 171.049 81.145 171.764 80.7618 172.385C80.3786 173.005 79.8302 173.507 79.178 173.833C78.5259 174.159 77.7958 174.298 77.0695 174.232C76.3432 174.167 75.6494 173.901 75.0657 173.464H75.0646ZM71.4333 164.142C72.0957 164.142 72.745 164.327 73.3082 164.676C73.8713 165.024 74.326 165.523 74.6211 166.116C73.8223 166.649 73.1911 167.397 72.8009 168.274L71.0763 166.552C71.0241 166.5 70.9621 166.459 70.894 166.43C70.8258 166.402 70.7527 166.388 70.679 166.388C70.6052 166.388 70.5322 166.402 70.464 166.431C70.3959 166.459 70.334 166.5 70.2819 166.553C70.2297 166.605 70.1884 166.667 70.1602 166.735C70.1321 166.803 70.1176 166.876 70.1176 166.95C70.1177 167.024 70.1323 167.097 70.1605 167.165C70.1888 167.233 70.2302 167.295 70.2824 167.347L72.436 169.498C72.3482 170.035 72.3471 170.582 72.4327 171.12C71.9019 171.275 71.3422 171.305 70.7979 171.206C70.2537 171.108 69.7399 170.884 69.2974 170.552C68.8548 170.22 68.4956 169.79 68.2484 169.295C68.0011 168.8 67.8725 168.255 67.8728 167.702L67.8717 164.329C67.8728 164.227 67.957 164.142 68.0603 164.142H71.4333Z" fill="white"/>
<path d="M90.6426 174V173.01H92.7627V165.9H91.0742V165.151C91.8529 165.007 92.513 164.779 93.0547 164.466H93.9561V173.01H95.873V174H90.6426ZM100.101 174.165C98.9242 174.157 97.917 173.738 97.0791 172.908L97.6631 172.134C98.4079 172.802 99.1865 173.149 99.999 173.175C100.701 173.175 101.247 172.891 101.637 172.324C101.899 171.935 102.03 171.469 102.03 170.928C102.03 169.98 101.696 169.332 101.027 168.985C100.74 168.833 100.414 168.757 100.05 168.757C99.5674 168.757 99.0765 168.918 98.5771 169.239C98.5348 169.265 98.4967 169.29 98.4629 169.315L97.8281 168.935L98.1328 164.466H102.767V165.481H99.1738L98.9326 168.236C99.3896 167.991 99.8636 167.868 100.354 167.868C101.463 167.868 102.267 168.266 102.767 169.062C103.071 169.561 103.224 170.17 103.224 170.89C103.224 172.041 102.813 172.925 101.992 173.543C101.442 173.958 100.812 174.165 100.101 174.165Z" fill="#7DC49D"/>
<path d="M56.2275 148.203C57.8695 148.11 59.1009 147.89 59.9219 147.543C59.3125 147.348 58.7581 147.188 58.2588 147.061L58.0938 147.302L57.2686 147.048C57.3786 146.887 57.7298 146.345 58.3223 145.423H56.3799V144.636H58.792C59.029 144.229 59.2152 143.899 59.3506 143.646L60.2266 143.849C60.1842 143.916 60.125 144.026 60.0488 144.179C59.9303 144.39 59.8415 144.543 59.7822 144.636H64.4541V145.423H62.8672C62.6725 146.193 62.3213 146.828 61.8135 147.327C62.9391 147.716 63.7686 148.042 64.3018 148.305L63.7305 149.003C63.1465 148.698 62.2536 148.334 61.0518 147.911C60.0785 148.478 58.5804 148.851 56.5576 149.028C56.4984 148.724 56.3883 148.449 56.2275 148.203ZM63.8447 144.103C63.5654 143.629 63.1676 143.121 62.6514 142.579L63.2227 142.224H61.4199L62.1055 142.554C61.7331 143.172 61.2803 143.717 60.7471 144.191C60.6201 144.048 60.4339 143.887 60.1885 143.709C60.6624 143.337 61.0518 142.867 61.3564 142.3L61.3945 142.224H60.7471V137.552H63.9082V142.224H63.2227C63.7728 142.791 64.179 143.277 64.4414 143.684L63.8447 144.103ZM54.2598 140.814H52.7109V139.926H54.3486V137.12H55.2246V139.926H56.583V140.814H55.2246V141.487C55.707 142.088 56.1471 142.681 56.5449 143.265C56.5534 143.273 56.5576 143.282 56.5576 143.29L56.0879 143.988C55.9355 143.65 55.6478 143.146 55.2246 142.478V148.978H54.3486V142.973C53.9001 144.53 53.4261 145.706 52.9268 146.502C52.8083 146.248 52.6475 145.981 52.4443 145.702C53.0452 144.813 53.57 143.519 54.0186 141.817C54.1117 141.47 54.1921 141.136 54.2598 140.814ZM59.3887 142.224C59.7611 142.52 60.0531 142.812 60.2646 143.1L59.7314 143.544C59.5452 143.282 59.2448 142.964 58.8301 142.592L59.3252 142.224H57.6113L58.3223 142.566C57.9414 143.184 57.4886 143.713 56.9639 144.153C56.8285 144.009 56.6423 143.853 56.4053 143.684C56.8708 143.328 57.2516 142.884 57.5479 142.351L57.6113 142.224H57.002V137.552H60.0869V142.224H59.3887ZM60.8359 147.01C61.3268 146.604 61.6823 146.075 61.9023 145.423H59.2998C59.1982 145.601 58.9909 145.931 58.6777 146.413C59.2279 146.549 59.9473 146.747 60.8359 147.01ZM63.1465 141.589V140.853H61.5088V141.589H63.1465ZM63.1465 139.507H61.5088V140.243H63.1465V139.507ZM63.1465 138.187H61.5088V138.897H63.1465V138.187ZM59.3252 140.243V139.507H57.751V140.243H59.3252ZM59.3252 141.589V140.853H57.751V141.589H59.3252ZM59.3252 138.897V138.187H57.751V138.897H59.3252ZM68.9102 140.586L69.8623 140.891C69.5407 141.525 69.181 142.126 68.7832 142.693V148.99H67.8311V143.899C67.2979 144.5 66.752 145.038 66.1934 145.512C66.0579 145.351 65.7998 145.127 65.4189 144.839C66.5954 143.984 67.5983 142.863 68.4277 141.475C68.6055 141.17 68.7663 140.874 68.9102 140.586ZM73.1504 139.24H69.8877V140.586H68.9229V139.24H65.8252V138.301H68.9229V137.12H69.8877V138.301H73.1504V137.12H74.1152V138.301H77.1621V139.24H74.1152V140.662H73.1504V139.24ZM73.3662 147.911H75.7148C76.0111 147.911 76.2057 147.793 76.2988 147.556C76.3919 147.319 76.4596 146.769 76.502 145.905C76.7474 146.091 77.0479 146.227 77.4033 146.312C77.3271 147.412 77.1579 148.118 76.8955 148.432C76.6585 148.694 76.2819 148.825 75.7656 148.825H73.29C72.5537 148.825 72.084 148.677 71.8809 148.381C71.7201 148.152 71.6396 147.78 71.6396 147.264V140.738H72.5791V143.798C74.0094 143.078 75.1605 142.389 76.0322 141.729L76.7305 142.49C75.7148 143.193 74.3311 143.942 72.5791 144.737V147.264C72.5791 147.585 72.6595 147.78 72.8203 147.848C72.9303 147.89 73.1123 147.911 73.3662 147.911ZM81.9102 140.586L82.8623 140.891C82.5407 141.525 82.181 142.126 81.7832 142.693V148.99H80.8311V143.899C80.2979 144.5 79.752 145.038 79.1934 145.512C79.0579 145.351 78.7998 145.127 78.4189 144.839C79.5954 143.984 80.5983 142.863 81.4277 141.475C81.6055 141.17 81.7663 140.874 81.9102 140.586ZM86.1504 139.24H82.8877V140.586H81.9229V139.24H78.8252V138.301H81.9229V137.12H82.8877V138.301H86.1504V137.12H87.1152V138.301H90.1621V139.24H87.1152V140.662H86.1504V139.24ZM86.3662 147.911H88.7148C89.0111 147.911 89.2057 147.793 89.2988 147.556C89.3919 147.319 89.4596 146.769 89.502 145.905C89.7474 146.091 90.0479 146.227 90.4033 146.312C90.3271 147.412 90.1579 148.118 89.8955 148.432C89.6585 148.694 89.2819 148.825 88.7656 148.825H86.29C85.5537 148.825 85.084 148.677 84.8809 148.381C84.7201 148.152 84.6396 147.78 84.6396 147.264V140.738H85.5791V143.798C87.0094 143.078 88.1605 142.389 89.0322 141.729L89.7305 142.49C88.7148 143.193 87.3311 143.942 85.5791 144.737V147.264C85.5791 147.585 85.6595 147.78 85.8203 147.848C85.9303 147.89 86.1123 147.911 86.3662 147.911ZM99.4805 138.834H100.991V137.12H101.867V138.834H103.314V139.659H99.4805V138.834ZM102.362 142.236L101.715 142.059C102.011 141.178 102.206 140.421 102.299 139.786L103.061 139.964C102.747 141.098 102.515 141.855 102.362 142.236ZM100.991 141.995L100.293 142.186C100.259 141.483 100.111 140.764 99.8486 140.027L100.534 139.862C100.822 140.632 100.974 141.343 100.991 141.995ZM95.2656 138.834V139.659H91.6855V138.834H93.082V137.12H93.9453V138.834H95.2656ZM94.3896 142.186L93.7549 141.995C93.9749 141.318 94.1484 140.599 94.2754 139.837L95.0371 140.015C94.7409 141.09 94.5251 141.813 94.3896 142.186ZM93.1328 141.97L92.4092 142.16C92.3923 141.492 92.2653 140.793 92.0283 140.065L92.7012 139.913C92.9551 140.649 93.099 141.335 93.1328 141.97ZM95.1641 145.08L93.9199 145.359C93.8268 146.984 93.2725 148.199 92.2568 149.003C92.0622 148.741 91.8675 148.533 91.6729 148.381C92.4938 147.797 92.9551 146.853 93.0566 145.55L91.6602 145.867L91.4951 145.029C91.6898 144.995 92.0156 144.932 92.4727 144.839C92.7435 144.788 92.9466 144.75 93.082 144.725V143.1H91.584V142.274H95.3164V143.1H93.9326V144.56L95.0879 144.331L95.1641 145.08ZM97.9316 145.207L98.4775 145.105C98.8076 146.341 99.0065 147.416 99.0742 148.33L98.4902 148.444C98.4648 148.123 98.4268 147.788 98.376 147.441C98.1475 147.475 97.8047 147.535 97.3477 147.619C96.6113 147.738 96.0866 147.822 95.7734 147.873L95.6592 146.984C96.04 146.951 96.4886 146.9 97.0049 146.832V138.91H97.6396V146.756L98.2363 146.68C98.1348 146.113 98.0332 145.622 97.9316 145.207ZM98.8711 137.222L99.5693 137.831C99.4593 137.873 99.2985 137.937 99.0869 138.021C99.1885 142.228 99.4508 145.177 99.874 146.87C100.026 147.488 100.204 147.996 100.407 148.394C100.145 148.622 99.9502 148.821 99.8232 148.99C99.1631 147.628 98.7441 145.127 98.5664 141.487C98.5241 140.599 98.4902 139.511 98.4648 138.225C97.6608 138.462 96.9076 138.648 96.2051 138.783V141.614C96.1966 144.813 95.7142 147.264 94.7578 148.965C94.5885 148.753 94.4066 148.605 94.2119 148.521C95.0498 147.031 95.4814 144.868 95.5068 142.033C95.5068 141.898 95.5068 141.758 95.5068 141.614V138.009L95.9385 138.148C97.2588 137.852 98.2363 137.543 98.8711 137.222ZM103.467 143.1H101.867V144.813H103.314V145.639H101.867V148.978H100.991V145.639H99.709V144.813H100.991V143.1H99.4424V142.274H103.467V143.1ZM110.094 140.357V139.228H108.24V138.428H110.094V137.133H110.944V138.428H112.811V139.228H110.944V140.357H112.519V141.145H108.507V140.357H110.094ZM111.566 144.052V142.554H109.446V144.052H111.566ZM112.417 141.855V144.763H108.646V141.855H112.417ZM110.145 147.124L109.332 147.365C109.273 146.781 109.099 146.083 108.812 145.271L109.561 145.08C109.882 145.926 110.077 146.608 110.145 147.124ZM108.393 143.861L107.91 144.585C107.707 144.026 107.436 143.409 107.098 142.731V148.978H106.247V143.049C105.824 144.598 105.384 145.753 104.927 146.515C104.834 146.269 104.677 146.011 104.457 145.74C105.041 144.835 105.54 143.519 105.955 141.792C106.04 141.453 106.112 141.128 106.171 140.814H104.711V139.926H106.247V137.12H107.098V139.926H108.266V140.814H107.098V141.614C107.487 142.207 107.906 142.93 108.354 143.785C108.371 143.819 108.384 143.844 108.393 143.861ZM111.579 147.327L113.001 147.099L113.052 147.911C112.273 148.047 111.122 148.237 109.599 148.482C108.938 148.592 108.469 148.669 108.189 148.711L107.948 147.86C108.278 147.818 108.879 147.733 109.751 147.606C110.267 147.53 110.661 147.471 110.932 147.429L110.716 147.365C111.063 146.502 111.308 145.715 111.452 145.004L112.328 145.232C112.074 146.02 111.825 146.718 111.579 147.327ZM114.372 145.245L113.598 145.512C113.513 144.555 113.272 143.51 112.874 142.376C112.866 142.342 112.857 142.312 112.849 142.287L113.585 142.097C114 143.214 114.258 144.238 114.359 145.169C114.368 145.194 114.372 145.22 114.372 145.245ZM116.441 140.053V140.941H115.654V147.86C115.646 148.36 115.498 148.681 115.21 148.825C114.931 148.944 114.372 149.003 113.534 149.003C113.475 148.681 113.373 148.377 113.229 148.089C113.83 148.114 114.262 148.118 114.524 148.102C114.668 148.068 114.744 147.987 114.753 147.86V140.941H112.798V140.053H114.753V137.158H115.654V140.053H116.441Z" fill="#5C5C5C"/>
</g>
</g>
<defs>
<filter id="filter0_d" x="0" y="0" width="171" height="195" filterUnits="userSpaceOnUse" color-interpolation-filters="sRGB">
<feFlood flood-opacity="0" result="BackgroundImageFix"/>
<feColorMatrix in="SourceAlpha" type="matrix" values="0 0 0 0 0 0 0 0 0 0 0 0 0 0 0 0 0 0 127 0"/>
<feOffset dx="1" dy="3"/>
<feGaussianBlur stdDeviation="5"/>
<feColorMatrix type="matrix" values="0 0 0 0 0.758333 0 0 0 0 0.752014 0 0 0 0 0.752014 0 0 0 0.75 0"/>
<feBlend mode="normal" in2="BackgroundImageFix" result="effect1_dropShadow"/>
<feBlend mode="normal" in="SourceGraphic" in2="effect1_dropShadow" result="shape"/>
</filter>
<clipPath id="clip0">
<rect x="9" y="7" width="151" height="175" rx="10" fill="white"/>
</clipPath>
</defs>
</svg>
