<svg width="20" height="17" viewBox="0 0 20 17" fill="none" xmlns="http://www.w3.org/2000/svg">
<path d="M0.500001 2.39578V6.44337C0.49958 7.31473 0.701829 8.17424 1.09076 8.95399C1.4797 9.73373 2.04466 10.4123 2.74099 10.9361C3.43733 11.46 4.24595 11.8146 5.10295 11.9722C5.95996 12.1297 6.84185 12.0857 7.67894 11.8437C7.89992 12.3962 8.20039 12.9068 8.56553 13.3636L6.16042 15.7714C6.0341 15.8979 5.9632 16.0694 5.96333 16.2482C5.96346 16.427 6.03459 16.5984 6.1611 16.7247C6.2876 16.851 6.4591 16.9219 6.63788 16.9218C6.81666 16.9217 6.98806 16.8505 7.11438 16.724L9.51814 14.3176C10.4097 15.0304 11.4844 15.477 12.6186 15.6059C13.7527 15.7348 14.9003 15.5408 15.929 15.0462C16.9578 14.5516 17.826 13.7765 18.4336 12.8102C19.0412 11.8439 19.3636 10.7256 19.3636 9.58415V5.17816C19.3636 4.26462 18.6225 3.5249 17.7103 3.5249H13.3043C12.5417 3.5249 11.8141 3.66503 11.1431 3.92104C10.6754 2.98944 9.95774 2.20632 9.07042 1.65927C8.18309 1.11221 7.16107 0.822789 6.11865 0.823365H2.07242C1.20469 0.823365 0.500001 1.52805 0.500001 2.39578ZM10.4775 13.3569L13.7813 10.0517C13.9076 9.9252 13.9785 9.7537 13.9784 9.57492C13.9783 9.39614 13.9071 9.22474 13.7806 9.09842C13.718 9.03587 13.6437 8.98627 13.5619 8.95245C13.48 8.91863 13.3924 8.90126 13.3039 8.90132C13.1251 8.90145 12.9537 8.97259 12.8274 9.09909L9.52757 12.4029C9.00471 11.7022 8.68704 10.8699 8.61008 9.99904C8.53312 9.12817 8.69991 8.25305 9.09179 7.47152C9.48367 6.69 10.0852 6.03288 10.8291 5.57362C11.5731 5.11436 12.4301 4.87107 13.3043 4.87095H17.7117C17.8801 4.87095 18.0175 5.00839 18.0175 5.17681V9.58415C18.0176 10.4592 17.774 11.317 17.3142 12.0615C16.8543 12.806 16.1962 13.4077 15.4136 13.7994C14.6311 14.191 13.755 14.357 12.8834 14.2789C12.0118 14.2007 11.1792 13.8815 10.4788 13.3569H10.4775ZM6.12 2.17076C6.91487 2.17055 7.69402 2.39215 8.36981 2.81062C9.0456 3.22909 9.59121 3.82783 9.94527 4.53949C8.9867 5.17851 8.22929 6.07657 7.76113 7.12919L5.69153 5.06228C5.62889 4.99973 5.55455 4.95013 5.47274 4.91632C5.39093 4.8825 5.30327 4.86513 5.21475 4.86519C5.12623 4.86525 5.03859 4.88275 4.95683 4.91668C4.87507 4.95061 4.80079 5.00032 4.73824 5.06296C4.67569 5.12559 4.6261 5.19994 4.59228 5.28174C4.55846 5.36355 4.54109 5.45122 4.54115 5.53974C4.54121 5.62826 4.55871 5.7159 4.59264 5.79766C4.62658 5.87942 4.67628 5.95369 4.73892 6.01624L7.32323 8.59786C7.21786 9.24202 7.21649 9.89891 7.31919 10.5435C6.68224 10.73 6.01059 10.7656 5.35752 10.6473C4.70444 10.5291 4.08791 10.2602 3.55684 9.86215C3.02577 9.46408 2.59478 8.94772 2.29805 8.35405C2.00132 7.76037 1.84702 7.10572 1.8474 6.44202L1.84605 2.39443C1.8474 2.27182 1.94845 2.17076 2.07242 2.17076H6.12Z" fill="#7DC39D"/>
</svg>
