<svg width="172" height="195" viewBox="0 0 172 195" fill="none" xmlns="http://www.w3.org/2000/svg">
<g filter="url(#filter0_d)">
<g clip-path="url(#clip0)">
<rect x="9" y="7" width="152" height="175" rx="10" fill="white"/>
<rect x="2" y="157" width="168" height="30" fill="#96FBC4"/>
<path d="M44.7967 111.314C62.4783 121.289 99.6758 95.5134 109.176 86.3788C120.963 75.0445 127.764 63.2568 125.497 47.3888C124.522 40.5658 119.603 29.2539 103.282 29.2539C97.3677 29.2539 89.013 33.0326 83.2059 43.2308C82.7499 44.0316 81.4374 43.9375 81.0555 43.0988C78.4518 37.3803 71.5625 29.2539 58.3978 29.2539C43.1645 29.2539 35.7894 48.9042 37.5428 58.7231C39.8906 71.8709 46.0474 79.1633 53.8641 86.3788C65.6516 97.2598 80.1597 109.047 111.896 119.475" stroke="#CFE0A9" stroke-width="2" stroke-linejoin="round"/>
<path d="M90.9248 25.9117C89.7529 26.1121 89.5634 26.812 90.0585 27.5609C90.5539 28.3103 92.7989 30.0954 94.1859 29.8579C95.6505 29.607 95.444 28.3082 94.9486 27.5589C94.4533 26.8096 92.3896 25.6611 90.9248 25.9117Z" fill="#DCF3A9"/>
<path d="M90.3415 40.3263C90.9583 41.3427 91.6788 41.2619 92.1936 40.5262C92.7086 39.7903 93.5444 37.0465 92.8141 35.8438C92.0428 34.5736 90.9106 35.2427 90.3956 35.9787C89.8806 36.7147 89.5704 39.0559 90.3415 40.3263Z" fill="#DCF3A9"/>
<path d="M40.9703 76.9031C39.4882 76.8373 39.0718 77.6405 39.4773 78.6849C39.883 79.7298 42.1479 82.5012 43.902 82.5788C45.7544 82.6607 45.8466 81.0222 45.4409 79.9773C45.0352 78.9324 42.8229 76.9855 40.9703 76.9031Z" fill="#DCF3A9"/>
<path d="M44.5067 62.2888C43.809 61.0901 42.9668 61.1688 42.3505 62.0159C41.734 62.8633 40.7001 66.0459 41.5262 67.4645C42.3986 68.9627 43.7336 68.2065 44.3502 67.3591C44.9667 66.5116 45.3788 63.7873 44.5067 62.2888Z" fill="#DCF3A9"/>
<path d="M30.6401 55.9247C29.2943 56.2607 29.1353 57.0915 29.7771 57.9194C30.4192 58.7476 33.1876 60.6274 34.7803 60.2293C36.4622 59.8089 36.108 58.3161 35.4659 57.4878C34.8238 56.6596 32.3222 55.5046 30.6401 55.9247Z" fill="#DCF3A9"/>
<path d="M56.1008 77.6343C55.0358 76.4602 54.113 76.7485 53.6256 77.8419C53.1379 78.9358 52.7388 82.7392 53.9996 84.1287C55.331 85.5959 56.6436 84.4332 57.1313 83.3393C57.619 82.2454 57.432 79.1021 56.1008 77.6343Z" fill="#DCF3A9"/>
<path d="M57.0319 94.239C55.6349 94.8199 55.5981 95.7419 56.4247 96.5308C57.2517 97.32 60.543 98.8984 62.1964 98.2106C63.9424 97.4843 63.3181 95.9314 62.4911 95.1421C61.6641 94.3529 58.7783 93.513 57.0319 94.239Z" fill="#DCF3A9"/>
<path d="M71.4798 92.4958C70.3546 91.6362 69.5905 92.0385 69.3388 93.0778C69.0869 94.1176 69.3505 97.5236 70.6825 98.5407C72.0891 99.6148 73.0546 98.3813 73.3064 97.3415C73.5582 96.3017 72.8864 93.5703 71.4798 92.4958Z" fill="#DCF3A9"/>
<path d="M92.7346 104.979C91.3537 104.2 90.5689 104.765 90.4511 105.956C90.3333 107.148 91.1542 110.883 92.7888 111.804C94.5149 112.777 95.3939 111.259 95.5117 110.068C95.6295 108.876 94.4607 105.952 92.7346 104.979Z" fill="#DCF3A9"/>
<path d="M96.716 117.364C95.3907 118.234 95.5321 119.19 96.5364 119.841C97.5413 120.493 101.237 121.478 102.805 120.449C104.461 119.362 103.517 117.884 102.512 117.232C101.507 116.581 98.3728 116.277 96.716 117.364Z" fill="#DCF3A9"/>
<path d="M58.5966 106.358C58.1734 104.831 57.2196 104.673 56.2925 105.431C55.3649 106.188 53.2981 109.406 53.7993 111.214C54.3287 113.123 56.0239 112.675 56.9515 111.917C57.879 111.16 59.1255 108.268 58.5966 106.358Z" fill="#DCF3A9"/>
<path d="M74.5185 115.473C75.9851 114.871 76.0282 113.905 75.1661 113.075C74.3036 112.244 70.8631 110.574 69.1275 111.286C67.2946 112.039 67.941 113.669 68.8035 114.5C69.666 115.331 72.6853 116.225 74.5185 115.473Z" fill="#DCF3A9"/>
<path d="M38.3439 33.3555C38.9679 32.1168 39.8133 32.1445 40.4796 32.9528C41.1462 33.7615 42.3705 36.8758 41.6316 38.3417C40.8513 39.8898 39.473 39.2157 38.8064 38.4071C38.1398 37.5984 37.5639 34.904 38.3439 33.3555Z" fill="#DCF3A9"/>
<path d="M53.4034 23.8493C54.7735 23.6332 55.2444 24.336 54.9768 25.3487C54.7091 26.3619 52.8943 29.1734 51.2727 29.4288C49.5602 29.6985 49.3033 28.1858 49.5711 27.1726C49.8388 26.1594 51.6908 24.1194 53.4034 23.8493Z" fill="#DCF3A9"/>
<path d="M67.2087 34.6021C67.4213 35.7718 66.8286 36.1893 65.9554 35.9804C65.0818 35.7713 62.6362 34.2727 62.3848 32.8882C62.1193 31.4262 63.4103 31.1757 64.2839 31.3848C65.1575 31.5939 66.9428 33.1399 67.2087 34.6021Z" fill="#DCF3A9"/>
<path d="M79.692 31.9855C80.5182 32.8404 80.257 33.5167 79.4147 33.8276C78.572 34.1387 75.7059 34.2498 74.7282 33.2378C73.6958 32.1691 74.6306 31.2441 75.4733 30.933C76.316 30.622 78.6592 30.9169 79.692 31.9855Z" fill="#DCF3A9"/>
<path d="M42.9501 46.2742C44.2956 45.9372 44.8271 46.5953 44.6506 47.6278C44.4741 48.6608 42.9166 51.6226 41.3241 52.0212C39.6423 52.4421 39.252 50.9583 39.4285 49.9253C39.6051 48.8923 41.2683 46.6956 42.9501 46.2742Z" fill="#DCF3A9"/>
<path d="M109.723 34.7574C108.797 35.7906 109.132 36.5676 110.128 36.8928C111.124 37.2181 114.47 37.2209 115.565 35.9978C116.721 34.7061 115.591 33.6691 114.594 33.3438C113.598 33.0184 110.879 33.4659 109.723 34.7574Z" fill="#DCF3A9"/>
<path d="M104.473 22.9292C103.104 22.7062 102.63 23.4066 102.892 24.4206C103.155 25.4352 104.955 28.2559 106.575 28.5195C108.286 28.7979 108.551 27.2866 108.288 26.272C108.026 25.2575 106.184 23.208 104.473 22.9292Z" fill="#DCF3A9"/>
<path d="M122.58 27.6341C121.73 26.5383 120.906 26.7279 120.407 27.6491C119.908 28.5708 119.305 31.8623 120.312 33.159C121.375 34.5284 122.598 33.602 123.097 32.6804C123.596 31.7587 123.643 29.0038 122.58 27.6341Z" fill="#DCF3A9"/>
<path d="M130.496 38.2766C130.362 36.896 129.564 36.6158 128.651 37.1282C127.736 37.6407 125.468 40.1008 125.626 41.7348C125.793 43.4604 127.322 43.3308 128.236 42.8182C129.15 42.3057 130.662 40.0023 130.496 38.2766Z" fill="#DCF3A9"/>
<path d="M120.392 47.9649C119.025 47.7308 118.545 48.4274 118.799 49.4435C119.054 50.4602 120.831 53.2952 122.449 53.5719C124.158 53.864 124.435 52.3548 124.18 51.3382C123.926 50.3215 122.101 48.2574 120.392 47.9649Z" fill="#DCF3A9"/>
<path d="M118.168 66.091C117.135 65.3426 116.456 65.7222 116.253 66.6639C116.05 67.6059 116.365 70.667 117.588 71.5526C118.879 72.4877 119.72 71.355 119.923 70.413C120.126 69.4709 119.459 67.0266 118.168 66.091Z" fill="#DCF3A9"/>
<path d="M133.233 58.6409C133.813 57.1655 133.145 56.4665 131.949 56.5148C130.752 56.5631 127.167 57.8931 126.481 59.6394C125.757 61.4836 127.381 62.144 128.578 62.0957C129.775 62.0474 132.509 60.4851 133.233 58.6409Z" fill="#DCF3A9"/>
<path d="M123.26 79.496C123.839 78.0206 123.172 77.3216 121.975 77.3699C120.779 77.4182 117.193 78.7482 116.507 80.4945C115.783 82.3387 117.408 82.9991 118.604 82.9508C119.801 82.9025 122.535 81.3402 123.26 79.496Z" fill="#DCF3A9"/>
<path d="M102.93 85.8615C102.508 84.7498 101.785 84.698 101.145 85.3276C100.504 85.9575 99.1829 88.5032 99.682 89.8188C100.209 91.2082 101.444 90.7565 102.085 90.1266C102.725 89.4967 103.456 87.2511 102.93 85.8615Z" fill="#DCF3A9"/>
<path d="M117.431 90.3324C118.983 89.4544 118.896 88.3704 117.816 87.5647C116.737 86.7587 112.661 85.3791 110.824 86.4187C108.885 87.5165 109.836 89.2448 110.915 90.0509C111.995 90.8569 115.491 91.4299 117.431 90.3324Z" fill="#DCF3A9"/>
<path d="M102.173 99.2499C103.12 98.1975 102.781 97.4035 101.765 97.0689C100.749 96.7341 97.333 96.7226 96.212 97.9684C95.0281 99.284 96.1798 100.346 97.196 100.68C98.2121 101.015 100.989 100.565 102.173 99.2499Z" fill="#DCF3A9"/>
<path d="M87.036 95.2831C86.5004 93.868 85.5801 93.8017 84.765 94.6025C83.9496 95.4036 82.266 98.6424 82.9003 100.317C83.5701 102.086 85.1423 101.512 85.9577 100.71C86.7731 99.9092 87.7055 97.0519 87.036 95.2831Z" fill="#DCF3A9"/>
<path d="M71.4717 139.504L71.624 139.453C71.387 139.47 71.0273 139.491 70.5449 139.517C70.0964 139.55 69.762 139.572 69.542 139.58C69.9398 140.054 70.2106 140.511 70.3545 140.951L69.9229 141.129H72.2207C72.1191 140.638 71.8695 140.096 71.4717 139.504ZM67.9805 141.916V143.389H67.0791V141.129H69.4658C69.3135 140.706 69.0384 140.244 68.6406 139.745L69.0215 139.593C68.7168 139.61 68.2725 139.627 67.6885 139.644C67.6546 139.347 67.5869 139.098 67.4854 138.895C71.3617 138.785 74.3281 138.543 76.3848 138.171C76.4779 138.154 76.5625 138.137 76.6387 138.12L77.2734 138.793C75.877 139.064 74.2435 139.263 72.373 139.39C72.7201 139.906 72.9528 140.393 73.0713 140.85L72.2715 141.129H74.6074C75.056 140.511 75.4538 139.876 75.8008 139.225L76.7148 139.58C76.3255 140.164 75.9489 140.68 75.585 141.129H77.9209V143.478H76.9814V141.916H72.0557C72.8682 142.305 73.4225 142.627 73.7188 142.881L73.2109 143.465C72.7539 143.067 72.1149 142.686 71.2939 142.322L71.6621 141.916H67.9805ZM74.9121 142.982L75.585 142.525C76.389 143.135 77.0195 143.74 77.4766 144.341C77.5273 144.409 77.5697 144.468 77.6035 144.519L76.918 145.052C76.5371 144.485 75.9574 143.867 75.1787 143.198C75.0856 143.122 74.9967 143.05 74.9121 142.982ZM68.0693 145.204L67.4092 144.646C68.1201 144.256 68.6491 143.6 68.9961 142.678L69.7197 142.995C69.3389 144.045 68.7887 144.781 68.0693 145.204ZM74.582 146.499H70.4053C70.9554 147.032 71.6621 147.489 72.5254 147.87C73.3717 147.489 74.0573 147.032 74.582 146.499ZM75.3945 145.75L76.0039 146.156C75.4199 147.011 74.6074 147.718 73.5664 148.276C74.9544 148.725 76.5413 149.017 78.3271 149.152C78.1748 149.296 77.9886 149.58 77.7686 150.003C75.7542 149.8 74.0023 149.389 72.5127 148.771C71.1077 149.339 69.3516 149.753 67.2441 150.016C67.1087 149.702 66.9395 149.432 66.7363 149.203C68.5814 149.034 70.1683 148.725 71.4971 148.276C70.8031 147.879 70.2148 147.434 69.7324 146.943C69.1061 147.358 68.3952 147.747 67.5996 148.111C67.4727 147.967 67.2484 147.756 66.9268 147.477C68.5264 146.867 69.7917 146.08 70.7227 145.115C70.8073 145.031 70.8835 144.95 70.9512 144.874C70.5788 144.815 70.3587 144.633 70.291 144.328C70.2656 144.218 70.2529 144.083 70.2529 143.922V142.665H71.1543V143.909C71.1543 144.062 71.2178 144.155 71.3447 144.188C71.4378 144.205 71.5859 144.214 71.7891 144.214H73.6807C73.9092 144.214 74.0531 144.15 74.1123 144.023C74.1546 143.905 74.1885 143.685 74.2139 143.363C74.3577 143.465 74.6159 143.554 74.9883 143.63C74.9375 144.248 74.7894 144.633 74.5439 144.785C74.3831 144.878 74.1335 144.925 73.7949 144.925H71.7002L71.9287 145.014C71.6917 145.318 71.4505 145.576 71.2051 145.788H75.2422L75.3945 145.75ZM88.3564 142.779L89.207 142.348C90.1296 143.524 90.8447 144.802 91.3525 146.182C91.4795 146.529 91.5768 146.85 91.6445 147.146L90.7051 147.591C90.4512 146.482 89.918 145.251 89.1055 143.896C88.86 143.49 88.6104 143.118 88.3564 142.779ZM80.8154 142.779L81.7549 142.957C81.4756 145.301 80.9635 146.977 80.2188 147.984L79.3555 147.451C80.1172 146.461 80.6038 144.904 80.8154 142.779ZM83.0879 138.92L83.6973 138.184C85.043 138.632 86.3844 139.263 87.7217 140.075C87.874 140.16 88.0137 140.244 88.1406 140.329L87.5312 141.18C86.5833 140.494 85.39 139.851 83.9512 139.25C83.6465 139.123 83.3587 139.013 83.0879 138.92ZM82.9863 141.726H83.9639V148.226C83.9639 148.573 84.0485 148.784 84.2178 148.86C84.3447 148.911 84.5479 148.937 84.8271 148.937H87.2139C87.5693 148.937 87.8063 148.797 87.9248 148.518C88.0602 148.196 88.1576 147.43 88.2168 146.22C88.4622 146.431 88.7627 146.579 89.1182 146.664C89.0505 148.001 88.8812 148.869 88.6104 149.267C88.348 149.639 87.8994 149.825 87.2646 149.825H84.751C83.9723 149.825 83.4688 149.673 83.2402 149.368C83.071 149.131 82.9863 148.746 82.9863 148.213V141.726ZM99.8457 148.099C99.3887 148.319 98.9401 148.539 98.5 148.759C98.0599 148.97 97.641 149.169 97.2432 149.355L96.8623 148.632C97.2262 148.496 97.6536 148.323 98.1445 148.111C98.6354 147.9 99.1475 147.675 99.6807 147.438L99.8457 148.099ZM101.344 147.337C101.572 147.447 101.813 147.57 102.067 147.705C102.33 147.84 102.584 147.98 102.829 148.124C103.083 148.268 103.32 148.408 103.54 148.543C103.76 148.678 103.951 148.805 104.111 148.924L103.553 149.495C103.409 149.385 103.231 149.258 103.02 149.114C102.816 148.979 102.592 148.839 102.347 148.695C102.11 148.551 101.864 148.412 101.61 148.276C101.356 148.132 101.111 148.006 100.874 147.896V149.102C100.874 149.296 100.849 149.449 100.798 149.559C100.747 149.669 100.65 149.757 100.506 149.825C100.362 149.893 100.184 149.931 99.9727 149.939C99.7611 149.948 99.4987 149.952 99.1855 149.952C99.1686 149.851 99.1348 149.732 99.084 149.597C99.0332 149.461 98.9782 149.339 98.9189 149.229C99.139 149.237 99.3379 149.241 99.5156 149.241C99.6934 149.241 99.8161 149.241 99.8838 149.241C99.9515 149.241 99.9938 149.229 100.011 149.203C100.036 149.178 100.049 149.14 100.049 149.089V145.128H100.874V147.781L101.344 147.337ZM101.407 143.985C101.255 143.664 101.115 143.321 100.988 142.957H100.214C100.146 143.143 100.074 143.321 99.998 143.49C99.9303 143.66 99.8542 143.825 99.7695 143.985H101.407ZM95.7197 145.598V144.049H94.1836V144.468C94.1836 144.646 94.1836 144.832 94.1836 145.026C94.1836 145.213 94.1751 145.403 94.1582 145.598H95.7197ZM94.1836 141.776V143.262H95.7197V141.776H94.1836ZM102.816 144.696C103.062 144.967 103.328 145.208 103.616 145.42C103.912 145.632 104.234 145.801 104.581 145.928C104.496 145.995 104.399 146.097 104.289 146.232C104.188 146.368 104.107 146.491 104.048 146.601C103.887 146.533 103.73 146.457 103.578 146.372C103.426 146.279 103.278 146.177 103.134 146.067C102.939 146.287 102.744 146.507 102.55 146.728C102.355 146.939 102.173 147.125 102.004 147.286L101.433 146.956C101.517 146.863 101.606 146.761 101.699 146.651C101.801 146.541 101.898 146.427 101.991 146.309C102.084 146.19 102.169 146.072 102.245 145.953C102.33 145.835 102.402 145.729 102.461 145.636L102.791 145.801C102.436 145.496 102.114 145.128 101.826 144.696H99.3506C99.2236 144.891 99.0882 145.073 98.9443 145.242C98.8005 145.403 98.6481 145.564 98.4873 145.725C98.6735 145.894 98.8555 146.097 99.0332 146.334C99.2109 146.571 99.3337 146.783 99.4014 146.969L98.7539 147.35C98.6862 147.18 98.5762 146.99 98.4238 146.778C98.2799 146.567 98.1276 146.368 97.9668 146.182C97.6875 146.393 97.404 146.584 97.1162 146.753C97.0654 146.668 96.9808 146.562 96.8623 146.436C96.7523 146.309 96.6507 146.207 96.5576 146.131V148.987C96.5576 149.207 96.5322 149.381 96.4814 149.508C96.4307 149.635 96.3333 149.736 96.1895 149.812C96.0456 149.872 95.8594 149.906 95.6309 149.914C95.4023 149.931 95.1104 149.939 94.7549 149.939C94.738 149.829 94.7041 149.698 94.6533 149.546C94.611 149.394 94.5602 149.267 94.501 149.165C94.6195 149.174 94.7337 149.178 94.8438 149.178C94.9622 149.178 95.068 149.178 95.1611 149.178C95.2542 149.178 95.3304 149.178 95.3896 149.178C95.4574 149.178 95.5081 149.174 95.542 149.165C95.6097 149.165 95.6562 149.152 95.6816 149.127C95.707 149.102 95.7197 149.051 95.7197 148.975V146.372H94.1074C94.0482 146.998 93.9466 147.633 93.8027 148.276C93.6589 148.92 93.4388 149.495 93.1426 150.003C93.1087 149.969 93.0622 149.931 93.0029 149.889C92.9521 149.846 92.8929 149.8 92.8252 149.749C92.7575 149.707 92.6898 149.669 92.6221 149.635C92.5628 149.601 92.5078 149.571 92.457 149.546C92.6686 149.174 92.8337 148.771 92.9521 148.34C93.0706 147.9 93.1595 147.46 93.2188 147.02C93.2865 146.571 93.3288 146.127 93.3457 145.687C93.3626 145.246 93.3711 144.836 93.3711 144.455V141.002H96.5576V146.105C97.2516 145.742 97.8441 145.272 98.335 144.696H96.9004V143.985H98.8428C98.9443 143.833 99.0374 143.672 99.1221 143.503C99.2067 143.325 99.2829 143.143 99.3506 142.957H97.2559V142.271H98.1953C98.153 142.085 98.0726 141.886 97.9541 141.675C97.8441 141.455 97.7298 141.247 97.6113 141.053L98.3096 140.824C98.4535 141.019 98.5846 141.239 98.7031 141.484C98.8216 141.721 98.902 141.937 98.9443 142.132L98.5381 142.271H99.5918C99.7357 141.772 99.8457 141.247 99.9219 140.697L100.15 140.723V139.796H96.7734V140.761H95.8213V139.796H92.7871V138.996H95.8213V138.082H96.7734V138.996H100.15V138.082H101.115V138.996H104.238V139.796H101.115V140.735H100.341L100.76 140.773C100.717 141.044 100.667 141.302 100.607 141.548C100.557 141.793 100.497 142.035 100.43 142.271H101.928L101.712 142.195C101.83 141.992 101.953 141.755 102.08 141.484C102.215 141.214 102.321 140.981 102.397 140.786L103.223 141.027C103.087 141.247 102.956 141.467 102.829 141.688C102.702 141.908 102.579 142.102 102.461 142.271H103.934V142.957H101.763C101.83 143.143 101.907 143.321 101.991 143.49C102.076 143.66 102.169 143.825 102.271 143.985H104.302V144.696H102.816Z" fill="#5C5C5C"/>
<path d="M66.75 165.33V168.703C66.7497 169.429 66.9182 170.145 67.2423 170.795C67.5664 171.445 68.0372 172.01 68.6175 172.447C69.1978 172.883 69.8716 173.179 70.5858 173.31C71.3 173.441 72.0349 173.405 72.7325 173.203C72.9166 173.664 73.167 174.089 73.4713 174.47L71.467 176.476C71.3618 176.582 71.3027 176.725 71.3028 176.874C71.3029 177.023 71.3622 177.165 71.4676 177.271C71.573 177.376 71.7159 177.435 71.8649 177.435C72.0139 177.435 72.1567 177.375 72.262 177.27L74.2651 175.265C75.0081 175.859 75.9037 176.231 76.8488 176.338C77.7939 176.446 78.7502 176.284 79.6075 175.872C80.4648 175.46 81.1883 174.814 81.6946 174.009C82.201 173.203 82.4696 172.271 82.4697 171.32V167.649C82.4697 166.887 81.8521 166.271 81.0919 166.271H77.4203C76.7848 166.271 76.1784 166.388 75.6193 166.601C75.2295 165.825 74.6315 165.172 73.892 164.716C73.1526 164.26 72.3009 164.019 71.4322 164.02H68.0603C67.3372 164.02 66.75 164.607 66.75 165.33ZM75.0646 174.464L77.8178 171.71C77.923 171.604 77.9821 171.461 77.982 171.312C77.9819 171.164 77.9226 171.021 77.8172 170.915C77.765 170.863 77.703 170.822 77.6349 170.794C77.5667 170.766 77.4937 170.751 77.4199 170.751C77.2709 170.751 77.1281 170.811 77.0228 170.916L74.273 173.669C73.8373 173.085 73.5725 172.392 73.5084 171.666C73.4443 170.94 73.5833 170.211 73.9098 169.56C74.2364 168.908 74.7377 168.361 75.3576 167.978C75.9775 167.595 76.6917 167.393 77.4203 167.393H81.0931C81.2334 167.393 81.3479 167.507 81.3479 167.647V171.32C81.348 172.049 81.145 172.764 80.7618 173.385C80.3786 174.005 79.8302 174.507 79.178 174.833C78.5259 175.159 77.7958 175.298 77.0695 175.232C76.3432 175.167 75.6494 174.901 75.0657 174.464H75.0646ZM71.4333 165.142C72.0957 165.142 72.745 165.327 73.3082 165.676C73.8713 166.024 74.326 166.523 74.6211 167.116C73.8223 167.649 73.1911 168.397 72.8009 169.274L71.0763 167.552C71.0241 167.5 70.9621 167.459 70.894 167.43C70.8258 167.402 70.7527 167.388 70.679 167.388C70.6052 167.388 70.5322 167.402 70.464 167.431C70.3959 167.459 70.334 167.5 70.2819 167.553C70.2297 167.605 70.1884 167.667 70.1602 167.735C70.1321 167.803 70.1176 167.876 70.1176 167.95C70.1177 168.024 70.1323 168.097 70.1605 168.165C70.1888 168.233 70.2302 168.295 70.2824 168.347L72.436 170.498C72.3482 171.035 72.3471 171.582 72.4327 172.12C71.9019 172.275 71.3422 172.305 70.7979 172.206C70.2537 172.108 69.7399 171.884 69.2974 171.552C68.8548 171.22 68.4956 170.79 68.2484 170.295C68.0011 169.8 67.8725 169.255 67.8728 168.702L67.8717 165.329C67.8728 165.227 67.957 165.142 68.0603 165.142H71.4333Z" fill="white"/>
<path d="M92.9277 175.165C91.6921 175.157 90.6764 174.725 89.8809 173.87L90.4775 173.083C91.18 173.802 91.9671 174.166 92.8389 174.175C93.6175 174.175 94.1761 173.904 94.5146 173.362C94.6924 173.083 94.7812 172.766 94.7812 172.41C94.7643 171.149 93.7741 170.514 91.8105 170.506V169.592C93.554 169.575 94.4342 168.97 94.4512 167.776C94.4512 167.091 94.1549 166.625 93.5625 166.38C93.3424 166.295 93.1012 166.249 92.8389 166.24C92.1364 166.274 91.4805 166.591 90.8711 167.192L90.2236 166.431C91.0531 165.669 91.9417 165.288 92.8896 165.288C93.9645 165.288 94.7474 165.618 95.2383 166.278C95.5176 166.676 95.6572 167.142 95.6572 167.675C95.6572 168.674 95.1917 169.401 94.2607 169.858C94.1592 169.901 94.0576 169.943 93.9561 169.985V170.036C94.7686 170.222 95.3525 170.641 95.708 171.293C95.8942 171.648 95.9873 172.034 95.9873 172.448C95.9873 173.413 95.5938 174.149 94.8066 174.657C94.265 174.996 93.6387 175.165 92.9277 175.165ZM100.329 175.165C99.1442 175.165 98.3021 174.509 97.8027 173.197C97.498 172.402 97.3457 171.403 97.3457 170.201C97.3457 167.823 97.9043 166.299 99.0215 165.631C99.4108 165.402 99.8467 165.288 100.329 165.288C101.539 165.288 102.386 165.961 102.868 167.307C103.147 168.085 103.287 169.05 103.287 170.201C103.287 172.529 102.758 174.052 101.7 174.771C101.294 175.034 100.837 175.165 100.329 175.165ZM100.329 174.226C101.184 174.226 101.738 173.506 101.992 172.067C102.085 171.526 102.132 170.904 102.132 170.201C102.132 167.831 101.637 166.528 100.646 166.291C100.536 166.266 100.431 166.253 100.329 166.253C99.3981 166.253 98.8226 167.044 98.6025 168.627C98.5348 169.092 98.501 169.617 98.501 170.201C98.501 172.495 98.958 173.811 99.8721 174.149C100.024 174.2 100.177 174.226 100.329 174.226Z" fill="#7DC49D"/>
</g>
</g>
<defs>
<filter id="filter0_d" x="0" y="0" width="172" height="195" filterUnits="userSpaceOnUse" color-interpolation-filters="sRGB">
<feFlood flood-opacity="0" result="BackgroundImageFix"/>
<feColorMatrix in="SourceAlpha" type="matrix" values="0 0 0 0 0 0 0 0 0 0 0 0 0 0 0 0 0 0 127 0"/>
<feOffset dx="1" dy="3"/>
<feGaussianBlur stdDeviation="5"/>
<feColorMatrix type="matrix" values="0 0 0 0 0.758333 0 0 0 0 0.752014 0 0 0 0 0.752014 0 0 0 0.75 0"/>
<feBlend mode="normal" in2="BackgroundImageFix" result="effect1_dropShadow"/>
<feBlend mode="normal" in="SourceGraphic" in2="effect1_dropShadow" result="shape"/>
</filter>
<clipPath id="clip0">
<rect x="9" y="7" width="152" height="175" rx="10" fill="white"/>
</clipPath>
</defs>
</svg>
