<svg width="172" height="195" viewBox="0 0 172 195" fill="none" xmlns="http://www.w3.org/2000/svg">
<g filter="url(#filter0_d)">
<g clip-path="url(#clip0)">
<rect x="9" y="7" width="152" height="175" rx="10" fill="white"/>
<rect x="2" y="156" width="162" height="30" fill="#96FBC4"/>
<path d="M64.624 144.801L64.04 145.524C63.6846 145.034 63.1979 144.433 62.5801 143.722V148.99H61.6279V144.179C61.0693 144.805 60.5023 145.338 59.9268 145.778C59.766 145.431 59.5882 145.152 59.3936 144.94C60.4854 144.162 61.4714 143.125 62.3516 141.83C62.6901 141.339 62.9736 140.857 63.2021 140.383H59.749V139.494H61.6279V137.133H62.5801V139.494H63.6846L63.8496 139.443L64.3955 139.824C63.9977 140.814 63.4391 141.813 62.7197 142.82L63.2021 143.303C63.5999 142.829 63.9258 142.368 64.1797 141.919L64.8145 142.439C64.7214 142.549 64.5775 142.715 64.3828 142.935C64.0443 143.332 63.7988 143.607 63.6465 143.76C64.1289 144.259 64.4548 144.606 64.624 144.801ZM71.1621 138.313V138.847C71.0605 143.375 70.9209 146.155 70.7432 147.188C70.6585 147.721 70.54 148.085 70.3877 148.279C70.1761 148.592 69.8841 148.779 69.5117 148.838C69.4694 148.838 69.4313 148.842 69.3975 148.851C69.1012 148.884 68.4876 148.884 67.5566 148.851C67.5397 148.537 67.4339 148.207 67.2393 147.86C67.7471 147.903 68.3311 147.924 68.9912 147.924C69.2028 147.924 69.3721 147.848 69.499 147.695C69.7699 147.374 69.9603 145.914 70.0703 143.315C70.1211 142.249 70.1634 140.886 70.1973 139.228H67.5693C67.5016 141.682 67.2773 143.574 66.8965 144.902C66.3633 146.722 65.4577 148.089 64.1797 149.003C63.9342 148.69 63.6846 148.449 63.4307 148.279C64.9456 147.272 65.902 145.571 66.2998 143.176C66.4521 142.211 66.5452 140.895 66.5791 139.228H64.3828V138.313H71.1621ZM77.5859 142.541L77.4844 141.602L78.5127 141.551C79.0967 140.197 79.596 138.72 80.0107 137.12L81.0645 137.336C80.4466 139.122 79.9134 140.51 79.4648 141.5C80.1842 141.458 81.3438 141.386 82.9434 141.284C82.5286 140.573 82.1351 139.981 81.7627 139.507L82.5371 139.126C83.4258 140.26 84.0817 141.314 84.5049 142.287C84.5472 142.389 84.5853 142.486 84.6191 142.579L83.7939 143.049C83.7178 142.829 83.5866 142.52 83.4004 142.122C79.5833 142.401 77.6452 142.541 77.5859 142.541ZM76.4307 140.7H74.7422C74.429 141.987 74.1582 143.091 73.9297 144.014C74.6237 144.42 75.1273 144.737 75.4404 144.966C75.9398 143.764 76.2699 142.342 76.4307 140.7ZM76.8369 139.773L77.4209 139.888C77.2601 142.19 76.8581 144.073 76.2148 145.537C76.8581 146.045 77.3617 146.515 77.7256 146.946L77.1289 147.708C76.7988 147.302 76.3545 146.866 75.7959 146.4C75.1442 147.535 74.3063 148.41 73.2822 149.028C73.0622 148.673 72.8633 148.41 72.6855 148.241C73.6589 147.725 74.446 146.912 75.0469 145.804C74.6491 145.499 74.2005 145.19 73.7012 144.877L73.5488 145.436L72.7363 145.004C72.9733 144.191 73.3372 142.757 73.8281 140.7H72.6094V139.799H74.0312C74.2513 138.758 74.4333 137.865 74.5771 137.12L75.4912 137.222C75.3981 137.696 75.2119 138.555 74.9326 139.799H76.6719L76.8369 139.773ZM82.918 144.648H79.2871V147.543H82.918V144.648ZM78.373 149.003V143.76H83.8828V148.952H82.918V148.419H79.2871V149.003H78.373ZM91.0938 140.357V139.228H89.2402V138.428H91.0938V137.133H91.9443V138.428H93.8105V139.228H91.9443V140.357H93.5186V141.145H89.5068V140.357H91.0938ZM92.5664 144.052V142.554H90.4463V144.052H92.5664ZM93.417 141.855V144.763H89.6465V141.855H93.417ZM91.1445 147.124L90.332 147.365C90.2728 146.781 90.0993 146.083 89.8115 145.271L90.5605 145.08C90.8822 145.926 91.0768 146.608 91.1445 147.124ZM89.3926 143.861L88.9102 144.585C88.707 144.026 88.4362 143.409 88.0977 142.731V148.978H87.2471V143.049C86.8239 144.598 86.3838 145.753 85.9268 146.515C85.8337 146.269 85.6771 146.011 85.457 145.74C86.041 144.835 86.5404 143.519 86.9551 141.792C87.0397 141.453 87.1117 141.128 87.1709 140.814H85.7109V139.926H87.2471V137.12H88.0977V139.926H89.2656V140.814H88.0977V141.614C88.487 142.207 88.9059 142.93 89.3545 143.785C89.3714 143.819 89.3841 143.844 89.3926 143.861ZM92.5791 147.327L94.001 147.099L94.0518 147.911C93.2731 148.047 92.1221 148.237 90.5986 148.482C89.9385 148.592 89.4688 148.669 89.1895 148.711L88.9482 147.86C89.2783 147.818 89.8792 147.733 90.751 147.606C91.2673 147.53 91.6608 147.471 91.9316 147.429L91.7158 147.365C92.0628 146.502 92.3083 145.715 92.4521 145.004L93.3281 145.232C93.0742 146.02 92.8245 146.718 92.5791 147.327ZM95.3721 145.245L94.5977 145.512C94.513 144.555 94.2718 143.51 93.874 142.376C93.8656 142.342 93.8571 142.312 93.8486 142.287L94.585 142.097C94.9997 143.214 95.2578 144.238 95.3594 145.169C95.3678 145.194 95.3721 145.22 95.3721 145.245ZM97.4414 140.053V140.941H96.6543V147.86C96.6458 148.36 96.4977 148.681 96.21 148.825C95.9307 148.944 95.3721 149.003 94.5342 149.003C94.4749 148.681 94.3734 148.377 94.2295 148.089C94.8304 148.114 95.262 148.118 95.5244 148.102C95.6683 148.068 95.7445 147.987 95.7529 147.86V140.941H93.7979V140.053H95.7529V137.158H96.6543V140.053H97.4414ZM103.497 144.242L102.913 145.004C102.71 144.64 102.316 144.107 101.732 143.404V148.965H100.793V143.214C100.175 144.72 99.5488 145.854 98.9141 146.616C98.8464 146.413 98.6855 146.121 98.4316 145.74C99.1341 144.962 99.7816 143.853 100.374 142.414C100.484 142.152 100.581 141.902 100.666 141.665H98.6729V140.764H100.793V138.783C100.158 138.91 99.5277 139.02 98.9014 139.113C98.8421 138.885 98.7406 138.631 98.5967 138.352C100.442 138.064 101.817 137.717 102.723 137.311L103.383 138.047C102.841 138.267 102.291 138.44 101.732 138.567V140.764H103.357V141.665H101.732V142.465C102.139 142.812 102.672 143.341 103.332 144.052C103.408 144.136 103.463 144.2 103.497 144.242ZM104.5 144.471H106.315V143.442H104.5V144.471ZM104.5 141.792V142.795H106.315V141.792H104.5ZM109.121 141.792H107.242V142.795H109.121V141.792ZM109.121 144.471V143.442H107.242V144.471H109.121ZM107.242 147.924H110.492V148.724H102.761V147.924H106.315V146.908H103.497V146.134H106.315V145.207H103.637V141.056H106.315V140.192H103.091V139.393H106.315V138.529C105.503 138.58 104.58 138.622 103.548 138.656C103.531 138.428 103.459 138.182 103.332 137.92C106.176 137.801 108.275 137.59 109.629 137.285L110.226 138.021C109.43 138.191 108.436 138.33 107.242 138.44V139.393H110.251V140.192H107.242V141.056H109.984V145.207H107.242V146.134H110.048V146.908H107.242V147.924Z" fill="#5C5C5C"/>
<path d="M61.2368 58.3818L61.1414 58.4325C61.1414 58.4325 61.1414 58.3818 61.0938 58.3818C61.0938 58.3818 61.1414 58.3818 61.1414 58.4325L61.2368 58.3818Z" fill="#B9BFA9"/>
<path d="M57.7071 91.0293C54.0824 88.9794 50.2669 87.3295 47.0714 84.5797C44.9251 82.6798 43.542 80.1799 42.5881 77.5301C41.6342 74.7802 41.2708 73.4182 40.9455 70.5198C40.7829 69.4969 40.9455 69.3264 40.9971 69.0946C41.1081 68.9854 41.2708 68.9854 41.3786 69.0446C41.4334 69.1559 41.6171 69.8446 41.6648 70.2445C42.2848 74.0443 42.922 76.2302 44.5913 79.68C46.3082 83.2297 49.3607 85.3296 52.6516 87.0795C53.7008 87.6295 54.7978 88.2295 56.0855 88.8794C55.6563 87.9295 55.2747 87.0795 54.8932 86.2296C52.89 82.3298 51.2684 78.23 50.2669 73.8803C49.8853 72.2804 49.4561 70.6805 49.6468 69.0306C49.7281 68.6444 49.8908 68.8149 50.0284 68.8806C50.2669 68.8806 50.4099 69.6305 50.4576 70.0305C50.6484 73.2303 51.8885 76.0802 53.0331 78.98C53.1285 79.18 53.2239 79.38 53.367 79.58C57.7071 71.0805 59.5195 68.6306 61.6657 68.8806C61.2842 69.2806 61.0457 69.5805 60.7119 69.8805C57.7071 72.8304 55.5132 76.3302 54.5593 80.5299C54.4162 81.2299 54.4639 82.0798 54.7024 82.7298C55.6086 84.8297 56.6102 86.9295 57.6117 88.9794C57.8025 89.3794 58.1841 89.8294 58.5656 90.0293C62.8581 92.2792 67.1506 94.4791 71.6338 96.7789C69.0583 91.5293 67.4758 87.7345 66.4266 81.9849C66.4266 81.8351 66.4802 81.7026 66.8558 81.7349C67.2934 81.7725 67.4281 82.3848 67.5712 82.7348C68.1436 84.4847 68.2952 84.5797 68.8675 86.3296C69.5353 88.3294 70.2984 90.2793 71.2046 92.2792C71.4907 89.8793 71.3476 87.4295 72.3492 85.1796C72.4979 85.0119 72.6605 85.1824 72.6831 85.2296C72.6354 86.0296 72.5877 86.7795 72.54 87.5795C72.4446 89.8794 72.0154 92.2792 72.4446 94.4791C72.7785 96.279 73.8277 98.0789 74.9724 99.5788C75.9263 100.779 77.4048 101.529 78.7879 102.579C78.7879 100.529 78.7402 98.6788 78.7879 96.8289C78.9787 90.9793 79.2172 85.1296 79.3602 79.28C79.3602 78.68 79.1695 78.0301 78.931 77.4801C76.4986 71.8804 72.3969 67.7307 67.866 63.9809C65.8151 62.281 63.6212 60.9811 61.1888 59.9311C55.4655 57.4313 50.3622 53.9815 47.3575 47.9318C47.1667 47.4818 47.0714 46.9819 46.9283 46.4819C47.0237 46.4319 47.1667 46.3319 47.3098 46.2819C48.5499 47.9818 49.6945 49.7817 51.1253 51.2816C52.5562 52.7815 54.1778 54.0815 55.8948 55.2814C57.6117 56.4813 59.4718 57.3813 61.2842 58.3812C61.2842 58.3812 61.2842 58.4312 61.3319 58.4312L61.4273 58.3812H61.3796L61.3319 58.3312C60.6165 57.3313 59.9011 56.2813 59.1379 55.2814C56.6102 51.8816 55.2747 47.9318 54.0824 43.8821C53.8916 43.1821 53.987 42.3821 53.9393 41.6322C54.0824 41.6322 54.2255 41.5822 54.3208 41.5822C54.4162 41.7822 54.607 41.9822 54.6547 42.2322C55.9424 47.2819 57.6117 52.1316 61.0457 56.0813C61.9519 57.1813 62.9535 58.1812 64.0981 59.0312C69.1537 62.9809 73.8754 67.3307 78.1679 72.1304C78.6925 72.7304 79.2172 73.3303 79.7418 73.9303C79.7895 73.9803 79.8372 73.9303 79.9803 73.9803C80.1233 71.9804 80.3141 70.0305 80.3618 68.0306C80.4572 66.0808 80.648 64.0809 80.3618 62.181C80.0756 60.3311 79.3125 58.5312 78.5971 56.8313C76.8801 52.8315 74.877 48.9318 72.3492 45.382C72.2538 45.232 72.1584 44.982 72.1107 44.782C72.2061 44.682 72.3015 44.632 72.3969 44.532C72.9692 45.232 73.6846 45.8319 74.1616 46.5819C75.974 49.6317 77.7386 52.6815 79.551 55.7314C79.7895 56.1313 80.028 56.4813 80.2664 56.8313C80.3618 56.8313 80.4572 56.7813 80.5526 56.7813C80.3618 53.6815 80.2664 50.5817 79.9803 47.4818C79.7418 44.382 79.3602 41.3322 79.0264 38.2824C78.6925 35.2326 78.353 35.2826 77.9685 31.9608C78.1593 31.9108 78.3501 31.9108 78.5409 31.8608C80.3055 36.0606 80.0756 37.9324 80.8387 42.7321C82.1742 39.7823 83.605 37.2324 85.7989 35.2826C85.8943 35.3826 86.0374 35.4326 86.1328 35.5325C85.942 35.8825 85.7035 36.2325 85.5128 36.6325C84.3681 38.8824 83.1758 41.0822 82.1265 43.3821C81.268 45.182 81.4588 47.1819 81.6495 49.1318C82.0311 53.0315 82.4603 56.8813 82.8896 60.7811C82.8896 60.8311 82.985 60.9311 83.0804 61.031C83.7481 60.1811 84.3204 59.3312 85.0358 58.5812C86.8959 56.6313 88.756 54.6814 90.6637 52.7315C93.8592 49.5317 96.0226 47.0549 97.1196 42.4552C97.1673 42.2552 97.3257 41.5637 97.7073 41.7062C98.0888 41.8488 97.7396 43.6551 97.4534 44.4551C96.1657 48.3048 94.6223 50.5317 91.6653 53.1815C88.6129 55.8814 86.0851 58.9812 84.0342 62.581C83.4142 63.6809 83.0327 64.8308 83.0804 66.1807C83.2711 72.1304 82.7942 78.0801 82.2219 83.9797C82.0788 85.5796 82.2219 87.1795 82.2219 89.2294C84.2727 87.2795 86.1805 85.5796 87.9929 83.8297C88.756 83.0798 89.376 82.0798 90.1391 81.2799C92.0945 79.18 93.0007 76.4801 92.9053 73.7303C92.7623 70.0305 92.4761 66.2807 91.236 62.7309C91.1407 62.431 91.0453 62.131 90.9499 61.831C90.9499 61.781 90.9976 61.681 91.093 61.431C92.8576 64.0309 93.2392 67.0307 93.6684 69.9805C93.7638 69.9805 93.8592 69.9805 93.9546 69.9805C94.5269 66.4807 95.0516 62.9809 95.6239 59.4811C95.767 59.4811 95.8624 59.5311 96.0055 59.5311C96.0055 64.6308 94.7654 69.5805 94.3839 74.6302C98.724 68.1806 102.301 61.181 105.783 54.1815C105.974 54.2814 106.117 54.3314 106.307 54.4314C106.212 54.8314 106.117 55.2314 105.974 55.5814C103.684 61.481 100.727 67.0307 97.3886 72.3804C94.7177 76.6801 91.9515 80.9299 88.9944 85.0296C87.1344 87.6295 84.845 89.9293 82.7942 92.3792C82.4603 92.7792 82.1265 93.3792 82.1265 93.8791C82.0311 99.2788 82.0311 104.678 83.1281 110.028C83.1758 110.378 83.2711 110.728 83.3188 111.078C83.3665 111.178 83.4619 111.278 83.5096 111.428C84.7974 102.779 88.6606 93.7791 90.9022 92.4792C89.7575 95.429 88.4698 98.3789 87.5159 101.429C86.562 104.429 85.8943 107.578 85.1312 110.678C85.2266 110.728 85.3697 110.778 85.5128 110.828C85.8943 110.478 86.2759 110.128 86.6097 109.728C89.4237 106.278 92.7623 103.479 96.1962 100.779C96.8162 100.279 97.3409 99.5288 97.6747 98.7788C99.3917 94.9291 99.9164 90.6793 100.775 86.5795C101.729 81.9298 103.493 77.6801 106.355 73.9803C106.546 73.6803 106.641 73.2803 106.784 72.9804C106.975 73.1303 107.166 73.2803 107.357 73.4303C107.166 73.9803 107.07 74.6302 106.737 75.1302C103.112 80.4799 102.349 86.7795 101.109 92.9792C100.775 94.6291 100.393 96.229 100.012 97.9789C110.791 92.6792 118.326 84.4297 121.665 72.1804C121.808 72.2304 121.951 72.2804 122.094 72.3804C122.094 72.8804 122.142 73.3803 122.094 73.8303C121.474 77.6301 119.948 81.0799 117.897 84.2797C117.086 85.5296 116.275 86.8295 115.369 88.2794C119.948 87.5795 123.716 84.6797 128.151 84.1797C128.247 84.2797 128.294 84.4297 128.39 84.5297C128.056 84.8296 127.722 85.1796 127.34 85.3296C123.143 87.0295 118.946 88.6794 114.749 90.3793C114.225 90.5793 113.652 90.7793 113.223 91.1293C108.454 95.379 103.207 98.9288 97.9132 102.379C92.5715 105.828 88.4221 110.528 85.0358 115.978C84.7497 116.428 84.6543 117.178 84.7973 117.728C85.5605 120.478 86.3713 123.177 87.2297 125.927C87.3251 126.277 87.5636 126.627 87.5159 126.977C87.4682 127.677 87.8498 128.627 86.8005 128.877C85.4651 129.227 84.5589 128.827 84.3204 127.677C82.7942 120.978 81.3634 114.228 79.8372 107.528C79.6941 106.878 79.3125 106.178 78.8833 105.728C77.6432 104.479 76.3078 103.279 75.0201 102.079C74.257 101.379 73.4462 101.029 72.3969 101.079C69.9645 101.279 67.5798 101.479 65.1474 101.679C63.1443 101.829 61.1888 101.929 59.1856 102.179C58.2795 102.279 57.3733 102.379 56.5625 102.729C53.5577 103.929 50.6484 105.228 47.6437 106.428C46.8329 106.778 46.0221 107.228 44.8774 106.828C48.2637 105.228 51.4592 103.729 54.607 102.279C49.8376 101.429 45.5451 99.6788 41.8727 96.329C41.9204 96.229 41.9681 96.129 41.9681 96.079C43.4466 96.8789 44.8774 97.7289 46.3559 98.5288C50.5053 100.679 54.9409 101.279 59.5195 100.929C63.6689 100.579 67.8183 100.179 72.2061 99.7288C71.5384 99.1788 71.0138 98.6288 70.3938 98.1789C69.5353 97.5789 68.6768 96.9289 67.7706 96.429C64.1458 94.4791 60.9026 92.8292 57.7071 91.0293Z" fill="#B9BFA9"/>
<path d="M106.541 72.7622C106.541 72.7622 105.875 70.961 109.327 67.6692C110.054 66.9859 110.841 66.4891 111.629 66.1785C112.113 65.9922 112.719 65.8059 113.385 65.6816C113.991 65.5574 114.839 65.5574 115.142 65.6195C115.808 65.6816 116.414 65.868 116.898 65.868C116.777 65.9922 116.353 66.4891 116.171 66.6754C115.99 66.9238 114.899 68.4145 114.294 69.1598C113.809 69.9672 109.993 75.2466 106.541 72.7622Z" fill="#DCF3A9"/>
<path d="M121.508 72.4471C121.508 72.4471 120.833 70.7103 124.209 67.5524C124.885 66.9208 125.71 66.4472 126.535 66.1314C127.06 65.9735 127.661 65.8156 128.261 65.6577C128.861 65.5787 129.686 65.5787 130.061 65.5787C130.737 65.6577 131.337 65.8156 131.862 65.8156C131.787 65.9735 131.337 66.3682 131.112 66.605C130.887 66.8419 129.836 68.2629 129.311 68.9735C128.786 69.8419 125.035 74.8155 121.508 72.4471Z" fill="#DCF3A9"/>
<path d="M53.7118 41.517C53.77 41.517 53.8283 41.3979 53.77 41.3383C53.4207 40.564 51.8487 37.2283 50.5095 36.1561C49.1121 35.0244 48.1223 35.0839 45.7934 34.5479C45.7351 34.5479 45.6769 34.6074 45.6769 34.667C45.6187 35.3222 45.6187 38.4196 47.9477 40.6831C49.4615 42.1723 53.0131 41.6362 53.7118 41.517Z" fill="#DCF3A9"/>
<path d="M46.867 46.5946C46.9345 46.5946 47.002 46.4528 46.9345 46.3819C46.5293 45.46 44.7057 41.489 43.1523 40.2126C41.5313 38.8653 40.3831 38.9362 37.6816 38.298C37.614 38.298 37.5465 38.3689 37.5465 38.4398C37.4789 39.2198 37.4789 42.9072 40.1805 45.6019C41.869 47.3747 45.9889 46.7364 46.867 46.5946Z" fill="#DCF3A9"/>
<path d="M72.2432 44.5594C72.3084 44.5594 72.3736 44.4232 72.3084 44.3552C71.9172 43.4702 70.1565 39.658 68.6566 38.4326C67.0916 37.1392 65.983 37.2073 63.3745 36.5946C63.3093 36.5946 63.2441 36.6627 63.2441 36.7308C63.1789 37.4796 63.1789 41.0195 65.7873 43.6063C67.4176 45.3082 71.3955 44.6955 72.2432 44.5594Z" fill="#DCF3A9"/>
<path d="M60.6249 35.3135C60.6249 35.253 60.5628 35.1924 60.5007 35.253C59.8176 35.4347 56.8368 36.343 55.719 37.3725C54.6012 38.4019 54.5391 39.2497 53.7939 41.127C53.7939 41.1875 53.7939 41.2481 53.856 41.2481C54.4149 41.3692 57.0231 41.7325 59.1966 40.037C60.6249 39.0075 60.6249 35.9797 60.6249 35.3135Z" fill="#DCF3A9"/>
<path d="M106.464 33.3039C106.464 33.2164 106.382 33.1289 106.299 33.2164C105.391 33.4788 101.428 34.7909 99.9414 36.2779C98.4552 37.7649 98.3726 38.9895 97.3818 41.7011C97.3818 41.7885 97.3818 41.876 97.4644 41.876C98.2075 42.0509 101.675 42.5758 104.565 40.1266C106.547 38.6396 106.547 34.2661 106.464 33.3039Z" fill="#DCF3A9"/>
<path d="M68.1429 63.0202C68.1962 63.0991 68.2714 63.0433 68.2824 62.976C68.6605 62.2815 70.1523 59.223 70.2232 57.5726C70.2409 55.8433 69.697 55.1221 68.7723 53.0852C68.719 53.0064 68.6547 52.9948 68.6437 53.0622C68.1278 53.3854 65.9228 55.138 65.5568 58.1906C65.3133 60.0872 67.6303 62.5125 68.1429 63.0202Z" fill="#DCF3A9"/>
<path d="M100.695 54.9331C100.695 54.8831 100.647 54.8331 100.599 54.8831C100.074 55.0331 97.7826 55.7831 96.9233 56.633C96.064 57.483 96.0162 58.1829 95.4434 59.7329C95.4434 59.7828 95.4434 59.8328 95.4911 59.8328C95.9208 59.9328 97.9258 60.2328 99.5967 58.8329C100.742 57.933 100.742 55.4331 100.695 54.9331Z" fill="#DCF3A9"/>
<path d="M66.7203 81.7372C66.7809 81.7372 66.8414 81.6067 66.7809 81.5414C66.4176 80.6933 64.7826 77.04 63.3899 75.8657C61.9367 74.6262 60.9073 74.6914 58.4851 74.1042C58.4246 74.1042 58.364 74.1695 58.364 74.2347C58.3035 74.9523 58.3035 78.3448 60.7256 80.8238C62.3 82.4548 65.9937 81.8676 66.7203 81.7372Z" fill="#DCF3A9"/>
<path d="M114.492 94.2821C114.54 94.2321 114.492 94.1821 114.444 94.1322C113.824 93.9822 111.102 93.3322 109.813 93.6822C108.477 94.0322 108.047 94.6821 106.615 95.932C106.567 95.982 106.567 96.032 106.615 96.082C106.997 96.432 108.859 97.9319 111.341 97.582C112.821 97.382 114.206 94.8321 114.492 94.2821Z" fill="#DCF3A9"/>
<path d="M90.6385 93.3266C90.5765 93.3266 90.5145 93.1973 90.5765 93.1327C90.9484 92.2922 92.6223 88.6071 94.1102 87.4434C95.6601 86.2151 96.714 86.2797 99.1938 85.6979C99.2558 85.6979 99.3178 85.7625 99.3178 85.8272C99.3798 86.603 99.3798 89.9648 96.838 92.4862C95.2881 94.0378 91.4444 93.4559 90.6385 93.3266Z" fill="#DCF3A9"/>
<path d="M55.7451 93.6599C55.7451 93.5987 55.8028 93.5376 55.8605 93.5376C56.5531 93.7821 59.6118 95.0048 60.766 96.2276C61.9202 97.5114 62.0934 98.5507 62.9013 100.813C62.9013 100.874 62.9013 100.935 62.8436 100.935C62.2665 101.057 59.7272 101.424 57.4187 99.3455C55.976 98.0616 55.8028 94.3935 55.7451 93.6599Z" fill="#DCF3A9"/>
<path d="M82.1434 50.3251C82.1434 50.3251 81.5178 48.6248 84.7082 45.4205C85.3338 44.7666 86.0845 44.2435 86.8352 43.9819C87.2731 43.7857 87.8361 43.6549 88.3991 43.5241C88.9621 43.3933 89.7128 43.3933 89.963 43.4587C90.526 43.5241 91.089 43.6549 91.5269 43.7203C91.4018 43.8511 91.0265 44.3088 90.8388 44.505C90.6511 44.7012 89.6502 46.1399 89.1498 46.9246C88.7119 47.5785 85.2712 52.6139 82.1434 50.3251Z" fill="#DCF3A9"/>
<path d="M77.9235 32.201C77.9712 32.201 78.019 32.101 77.9712 32.051C77.6848 31.401 76.3958 28.6012 75.2978 27.7012C74.152 26.7513 73.3405 26.8013 71.4309 26.3513C71.3831 26.3513 71.3354 26.4013 71.3354 26.4513C71.2876 27.0013 71.2877 29.6011 73.1972 31.501C74.4385 32.7509 77.3029 32.301 77.9235 32.201Z" fill="#DCF3A9"/>
<path d="M60.7102 69.1283C60.6493 69.1283 60.5883 69.0671 60.6493 69.0059C60.954 68.3326 62.2948 65.5167 63.5138 64.5985C64.7327 63.6191 65.586 63.6803 67.6582 63.1906C67.7191 63.1906 67.78 63.1905 67.78 63.313C67.78 63.8639 67.841 66.4961 65.7688 68.5162C64.428 69.7405 61.3806 69.2508 60.7102 69.1283Z" fill="#DCF3A9"/>
<path d="M94.197 76.1308C94.1289 76.1308 94.1289 75.9913 94.1289 75.9913C94.5374 75.2939 96.5799 72.3646 98.0096 71.5277C99.5074 70.6908 100.461 70.8303 102.775 70.6908C102.843 70.6908 102.912 70.7605 102.912 70.8303C102.843 71.458 102.367 74.457 99.8478 76.3401C98.2819 77.456 94.9459 76.3401 94.197 76.1308Z" fill="#DCF3A9"/>
<path d="M86.1274 73.1325C86.1946 73.0623 86.2619 73.0623 86.3291 73.1325C86.867 73.7642 89.0856 76.5716 89.4218 78.2561C89.8252 80.0107 89.3546 80.853 88.8839 83.2393C88.8839 83.3095 88.8167 83.3095 88.7495 83.3095C88.1444 83.0288 85.5223 81.7654 84.5138 78.7474C83.8415 76.7822 85.724 73.7642 86.1274 73.1325Z" fill="#DCF3A9"/>
<path d="M103.005 83.6858C102.939 83.6858 102.872 83.5467 102.939 83.5467C103.471 82.8512 105.931 79.8609 107.66 79.0264C109.522 78.1919 110.653 78.331 113.512 78.1919C113.579 78.1919 113.645 78.2614 113.645 78.331C113.579 78.9569 112.98 81.9472 109.855 83.8248C107.86 84.9375 103.803 83.8944 103.005 83.6858Z" fill="#DCF3A9"/>
<path d="M52.2615 79.9013C52.3326 79.8888 52.3913 79.7992 52.3079 79.7345C51.8171 78.9483 49.6873 75.6741 48.0816 74.7665C46.4636 73.7816 45.4814 74.0334 42.9675 73.8404C42.8965 73.8528 42.8254 73.8653 42.8501 74.0196C42.961 74.7139 43.42 78.0435 46.2421 80.1652C48.0515 81.4336 51.5048 80.1928 52.2615 79.9013Z" fill="#DCF3A9"/>
<path d="M50.0328 69.3267C49.9617 69.3267 49.8906 69.25 49.8906 69.1734C49.8906 68.2532 50.1749 64.3428 51.0278 62.6559C51.9518 60.969 52.8758 60.5857 54.8659 59.1288C54.937 59.0521 55.0081 59.1288 55.0081 59.2055C55.2924 59.8956 56.4296 62.8859 55.1502 66.183C54.2973 68.2533 50.7435 69.1734 50.0328 69.3267Z" fill="#DCF3A9"/>
<path d="M72.5121 85.9911C72.454 86.0264 72.3909 85.9123 72.3909 85.9123C72.4813 85.095 72.9853 81.6629 73.9143 80.2592C74.9013 78.8202 75.8082 78.4971 77.7491 77.2401C77.8071 77.2048 77.8967 77.2265 77.9282 77.2836C78.1543 77.8321 78.9898 80.6018 77.5165 83.4038C76.5978 85.1063 73.2765 85.831 72.5121 85.9911Z" fill="#DCF3A9"/>
<path d="M86.0381 35.295C86.0381 35.295 85.5204 33.6001 88.1608 30.4061C88.6785 29.7542 89.2997 29.2327 89.921 28.972C90.2834 28.7765 90.7493 28.6461 91.2153 28.5157C91.6812 28.3853 92.3025 28.3853 92.5096 28.4505C92.9755 28.5157 93.4414 28.6461 93.8038 28.7113C93.7003 28.8416 93.3086 29.7466 93.1533 29.9422C92.998 30.1377 92.2663 32.2288 91.8522 33.0111C91.438 33.6629 88.5749 37.6416 86.0381 35.295Z" fill="#DCF3A9"/>
<path d="M94.1391 105.312C94.0825 105.232 94.0919 105.162 94.167 105.101C94.9844 104.504 98.4702 102.004 100.445 101.79C102.494 101.516 103.483 102.161 106.108 103.117C106.173 103.126 106.23 103.206 106.146 103.337C105.78 104.072 103.95 107.243 100.331 108.22C98.046 108.746 94.8639 105.919 94.1391 105.312Z" fill="#DCF3A9"/>
<path d="M135.026 75.2585C135.03 75.1603 134.937 75.1562 134.843 75.152C134.029 75.5586 130.759 77.4793 129.611 79.1498C128.414 80.8673 128.41 82.0966 127.682 84.966C127.678 85.0642 127.723 85.1154 127.768 85.1665C128.423 85.1956 131.331 85.226 133.7 82.3801C135.325 80.534 135.083 76.1463 135.026 75.2585Z" fill="#DCF3A9"/>
<path d="M41.3377 69.0924C41.4052 69.0924 41.4727 68.9449 41.4052 68.8711C41 67.9124 39.1764 63.7825 37.623 62.4551C36.002 61.0539 34.8539 61.1276 32.1523 60.4639C32.0847 60.4639 32.0172 60.5376 32.0172 60.6114C31.9496 61.4226 31.9496 65.2575 34.6512 68.0599C36.4073 69.9036 40.5272 69.2399 41.3377 69.0924Z" fill="#DCF3A9"/>
<path d="M33.9512 88.2267C33.9512 88.1544 34.0194 88.0822 34.0876 88.0822C34.906 88.3712 38.5209 89.8162 39.885 91.2612C41.249 92.7785 41.4536 94.0067 42.4085 96.68C42.4085 96.7523 42.4085 96.8245 42.3403 96.8245C41.6583 96.969 38.6573 97.4025 35.9291 94.946C34.1558 93.4287 33.9512 89.0937 33.9512 88.2267Z" fill="#DCF3A9"/>
<path d="M35.4347 109.779C35.387 109.729 35.3392 109.679 35.387 109.629C35.9121 109.079 38.3946 106.78 39.97 106.33C41.6409 105.83 42.5479 106.18 44.8872 106.48C44.9349 106.48 44.9827 106.53 44.9827 106.63C44.7917 107.23 43.9324 109.779 41.068 110.979C39.2539 111.729 36.1031 110.129 35.4347 109.779Z" fill="#DCF3A9"/>
<path d="M44.2991 57.5746C44.3618 57.524 44.4177 57.5312 44.4602 57.6539C44.5896 58.4913 45.1228 62.1947 44.565 64.058C43.9936 66.0369 43.1655 66.8103 41.4777 69.1151C41.415 69.1657 41.3524 69.2163 41.3032 69.1514C40.9029 68.6897 39.2303 66.4819 39.8716 62.929C40.3155 60.582 43.6166 58.0735 44.2991 57.5746Z" fill="#DCF3A9"/>
<path d="M111.194 43.4409C111.253 43.3802 111.369 43.4409 111.369 43.5017C111.369 44.4133 111.194 48.2419 110.322 50.065C109.391 51.9489 108.403 52.6174 106.251 54.6228C106.192 54.6836 106.134 54.6836 106.076 54.6228C105.727 54.0759 104.448 51.4627 105.785 47.938C106.658 45.7502 110.438 43.8056 111.194 43.4409Z" fill="#DCF3A9"/>
<path d="M78.0183 32.0496C77.9706 32.0496 77.9229 31.9496 77.9229 31.8996C78.257 31.0996 79.7847 27.7498 81.1214 26.6499C82.5059 25.5 83.4607 25.55 85.7999 25C85.8477 25 85.9432 25.05 85.9432 25.1C85.9909 25.8 85.9909 28.8998 83.6994 31.1996C82.2672 32.7495 78.7822 32.1996 78.0183 32.0496Z" fill="#DCF3A9"/>
<path d="M70.25 164.33V167.703C70.2497 168.429 70.4182 169.145 70.7423 169.795C71.0664 170.445 71.5372 171.01 72.1175 171.447C72.6978 171.883 73.3716 172.179 74.0858 172.31C74.8 172.441 75.5349 172.405 76.2325 172.203C76.4166 172.664 76.667 173.089 76.9713 173.47L74.967 175.476C74.8618 175.582 74.8027 175.725 74.8028 175.874C74.8029 176.023 74.8622 176.165 74.9676 176.271C75.073 176.376 75.2159 176.435 75.3649 176.435C75.5139 176.435 75.6567 176.375 75.762 176.27L77.7651 174.265C78.5081 174.859 79.4037 175.231 80.3488 175.338C81.2939 175.446 82.2502 175.284 83.1075 174.872C83.9648 174.46 84.6883 173.814 85.1946 173.009C85.701 172.203 85.9696 171.271 85.9697 170.32V166.649C85.9697 165.887 85.3521 165.271 84.5919 165.271H80.9203C80.2848 165.271 79.6784 165.388 79.1193 165.601C78.7295 164.825 78.1315 164.172 77.392 163.716C76.6526 163.26 75.8009 163.019 74.9322 163.02H71.5603C70.8372 163.02 70.25 163.607 70.25 164.33ZM78.5646 173.464L81.3178 170.71C81.423 170.604 81.4821 170.461 81.482 170.312C81.4819 170.164 81.4226 170.021 81.3172 169.915C81.265 169.863 81.203 169.822 81.1349 169.794C81.0667 169.766 80.9937 169.751 80.9199 169.751C80.7709 169.751 80.6281 169.811 80.5228 169.916L77.773 172.669C77.3373 172.085 77.0725 171.392 77.0084 170.666C76.9443 169.94 77.0833 169.211 77.4098 168.56C77.7364 167.908 78.2377 167.361 78.8576 166.978C79.4775 166.595 80.1917 166.393 80.9203 166.393H84.5931C84.7334 166.393 84.8479 166.507 84.8479 166.647V170.32C84.848 171.049 84.645 171.764 84.2618 172.385C83.8786 173.005 83.3302 173.507 82.678 173.833C82.0259 174.159 81.2958 174.298 80.5695 174.232C79.8432 174.167 79.1494 173.901 78.5657 173.464H78.5646ZM74.9333 164.142C75.5957 164.142 76.245 164.327 76.8082 164.676C77.3713 165.024 77.826 165.523 78.1211 166.116C77.3223 166.649 76.6911 167.397 76.3009 168.274L74.5763 166.552C74.5241 166.5 74.4621 166.459 74.394 166.43C74.3258 166.402 74.2527 166.388 74.179 166.388C74.1052 166.388 74.0322 166.402 73.964 166.431C73.8959 166.459 73.834 166.5 73.7819 166.553C73.7297 166.605 73.6884 166.667 73.6602 166.735C73.6321 166.803 73.6176 166.876 73.6176 166.95C73.6177 167.024 73.6323 167.097 73.6605 167.165C73.6888 167.233 73.7302 167.295 73.7824 167.347L75.936 169.498C75.8482 170.035 75.8471 170.582 75.9327 171.12C75.4019 171.275 74.8422 171.305 74.2979 171.206C73.7537 171.108 73.2399 170.884 72.7974 170.552C72.3548 170.22 71.9956 169.79 71.7484 169.295C71.5011 168.8 71.3725 168.255 71.3728 167.702L71.3717 164.329C71.3728 164.227 71.457 164.142 71.5603 164.142H74.9333Z" fill="white"/>
<path d="M96.6182 174.165C95.4333 174.165 94.5911 173.509 94.0918 172.197C93.7871 171.402 93.6348 170.403 93.6348 169.201C93.6348 166.823 94.1934 165.299 95.3105 164.631C95.6999 164.402 96.1357 164.288 96.6182 164.288C97.8285 164.288 98.6748 164.961 99.1572 166.307C99.4365 167.085 99.5762 168.05 99.5762 169.201C99.5762 171.529 99.0472 173.052 97.9893 173.771C97.583 174.034 97.126 174.165 96.6182 174.165ZM96.6182 173.226C97.473 173.226 98.0273 172.506 98.2812 171.067C98.3743 170.526 98.4209 169.904 98.4209 169.201C98.4209 166.831 97.9258 165.528 96.9355 165.291C96.8255 165.266 96.7197 165.253 96.6182 165.253C95.6872 165.253 95.1117 166.044 94.8916 167.627C94.8239 168.092 94.79 168.617 94.79 169.201C94.79 171.495 95.2471 172.811 96.1611 173.149C96.3135 173.2 96.4658 173.226 96.6182 173.226Z" fill="#7DC49D"/>
</g>
</g>
<defs>
<filter id="filter0_d" x="0" y="0" width="172" height="195" filterUnits="userSpaceOnUse" color-interpolation-filters="sRGB">
<feFlood flood-opacity="0" result="BackgroundImageFix"/>
<feColorMatrix in="SourceAlpha" type="matrix" values="0 0 0 0 0 0 0 0 0 0 0 0 0 0 0 0 0 0 127 0"/>
<feOffset dx="1" dy="3"/>
<feGaussianBlur stdDeviation="5"/>
<feColorMatrix type="matrix" values="0 0 0 0 0.758333 0 0 0 0 0.752014 0 0 0 0 0.752014 0 0 0 0.75 0"/>
<feBlend mode="normal" in2="BackgroundImageFix" result="effect1_dropShadow"/>
<feBlend mode="normal" in="SourceGraphic" in2="effect1_dropShadow" result="shape"/>
</filter>
<clipPath id="clip0">
<rect x="9" y="7" width="152" height="175" rx="10" fill="white"/>
</clipPath>
</defs>
</svg>
