<svg width="172" height="195" viewBox="0 0 172 195" fill="none" xmlns="http://www.w3.org/2000/svg">
<g filter="url(#filter0_d)">
<g clip-path="url(#clip0)">
<rect x="9" y="7" width="152" height="175" rx="10" fill="white"/>
<rect x="2" y="157" width="168" height="30" fill="#96FBC4"/>
<path d="M70.4941 142.005L70.0752 141.84C70.3206 141.112 70.5068 140.422 70.6338 139.771L71.2051 139.974C70.8073 141.142 70.5703 141.819 70.4941 142.005ZM67.9932 139.936L68.4756 139.809C68.7126 140.46 68.8564 141.116 68.9072 141.776L68.3867 141.916C68.3529 141.264 68.2217 140.604 67.9932 139.936ZM67.8027 139.301V142.424H69.2119V139.301H67.8027ZM71.3701 142.424V139.301H69.8721V142.424H71.3701ZM66.7236 146.753L66.6729 145.915C66.8929 145.907 67.2653 145.89 67.79 145.864C68.3656 145.83 68.8057 145.809 69.1104 145.801V144.785H66.9648V144.023H69.1104V143.122H67.0537V138.603H72.1445V143.122H69.9736V144.023H72.2207V144.785H69.9736V145.75C70.5068 145.725 71.3278 145.678 72.4365 145.61L72.4111 146.385C70.1006 146.554 68.2048 146.677 66.7236 146.753ZM67.1172 149.99L66.4697 149.635C66.9098 149.161 67.1934 148.374 67.3203 147.273L68.0186 147.451C67.8493 148.704 67.5488 149.55 67.1172 149.99ZM68.4248 147.312L69.0596 147.248C69.2881 148.035 69.4023 148.78 69.4023 149.482L68.7422 149.571C68.7422 148.92 68.6364 148.166 68.4248 147.312ZM69.6689 147.248L70.2783 147.121C70.6253 147.866 70.8496 148.556 70.9512 149.19L70.291 149.343C70.2233 148.725 70.016 148.027 69.6689 147.248ZM70.9004 147.07L71.4971 146.829C72.0218 147.523 72.3942 148.171 72.6143 148.771L71.9668 149.051C71.7637 148.433 71.4082 147.773 70.9004 147.07ZM77.0195 148.492V145.153H73.7441V148.492H77.0195ZM78.4541 141.853H75.6865V144.252H77.9336V149.927H77.0195V149.368H73.7441V149.978H72.8682V144.252H74.7344V138.146H75.6865V140.938H78.4541V141.853ZM83.4941 142.005L83.0752 141.84C83.3206 141.112 83.5068 140.422 83.6338 139.771L84.2051 139.974C83.8073 141.142 83.5703 141.819 83.4941 142.005ZM80.9932 139.936L81.4756 139.809C81.7126 140.46 81.8564 141.116 81.9072 141.776L81.3867 141.916C81.3529 141.264 81.2217 140.604 80.9932 139.936ZM80.8027 139.301V142.424H82.2119V139.301H80.8027ZM84.3701 142.424V139.301H82.8721V142.424H84.3701ZM79.7236 146.753L79.6729 145.915C79.8929 145.907 80.2653 145.89 80.79 145.864C81.3656 145.83 81.8057 145.809 82.1104 145.801V144.785H79.9648V144.023H82.1104V143.122H80.0537V138.603H85.1445V143.122H82.9736V144.023H85.2207V144.785H82.9736V145.75C83.5068 145.725 84.3278 145.678 85.4365 145.61L85.4111 146.385C83.1006 146.554 81.2048 146.677 79.7236 146.753ZM80.1172 149.99L79.4697 149.635C79.9098 149.161 80.1934 148.374 80.3203 147.273L81.0186 147.451C80.8493 148.704 80.5488 149.55 80.1172 149.99ZM81.4248 147.312L82.0596 147.248C82.2881 148.035 82.4023 148.78 82.4023 149.482L81.7422 149.571C81.7422 148.92 81.6364 148.166 81.4248 147.312ZM82.6689 147.248L83.2783 147.121C83.6253 147.866 83.8496 148.556 83.9512 149.19L83.291 149.343C83.2233 148.725 83.016 148.027 82.6689 147.248ZM83.9004 147.07L84.4971 146.829C85.0218 147.523 85.3942 148.171 85.6143 148.771L84.9668 149.051C84.7637 148.433 84.4082 147.773 83.9004 147.07ZM90.0195 148.492V145.153H86.7441V148.492H90.0195ZM91.4541 141.853H88.6865V144.252H90.9336V149.927H90.0195V149.368H86.7441V149.978H85.8682V144.252H87.7344V138.146H88.6865V140.938H91.4541V141.853ZM98.0938 141.357V140.228H96.2402V139.428H98.0938V138.133H98.9443V139.428H100.811V140.228H98.9443V141.357H100.519V142.145H96.5068V141.357H98.0938ZM99.5664 145.052V143.554H97.4463V145.052H99.5664ZM100.417 142.855V145.763H96.6465V142.855H100.417ZM98.1445 148.124L97.332 148.365C97.2728 147.781 97.0993 147.083 96.8115 146.271L97.5605 146.08C97.8822 146.926 98.0768 147.608 98.1445 148.124ZM96.3926 144.861L95.9102 145.585C95.707 145.026 95.4362 144.409 95.0977 143.731V149.978H94.2471V144.049C93.8239 145.598 93.3838 146.753 92.9268 147.515C92.8337 147.269 92.6771 147.011 92.457 146.74C93.041 145.835 93.5404 144.519 93.9551 142.792C94.0397 142.453 94.1117 142.128 94.1709 141.814H92.7109V140.926H94.2471V138.12H95.0977V140.926H96.2656V141.814H95.0977V142.614C95.487 143.207 95.9059 143.93 96.3545 144.785C96.3714 144.819 96.3841 144.844 96.3926 144.861ZM99.5791 148.327L101.001 148.099L101.052 148.911C100.273 149.047 99.1221 149.237 97.5986 149.482C96.9385 149.592 96.4688 149.669 96.1895 149.711L95.9482 148.86C96.2783 148.818 96.8792 148.733 97.751 148.606C98.2673 148.53 98.6608 148.471 98.9316 148.429L98.7158 148.365C99.0628 147.502 99.3083 146.715 99.4521 146.004L100.328 146.232C100.074 147.02 99.8245 147.718 99.5791 148.327ZM102.372 146.245L101.598 146.512C101.513 145.555 101.272 144.51 100.874 143.376C100.866 143.342 100.857 143.312 100.849 143.287L101.585 143.097C102 144.214 102.258 145.238 102.359 146.169C102.368 146.194 102.372 146.22 102.372 146.245ZM104.441 141.053V141.941H103.654V148.86C103.646 149.36 103.498 149.681 103.21 149.825C102.931 149.944 102.372 150.003 101.534 150.003C101.475 149.681 101.373 149.377 101.229 149.089C101.83 149.114 102.262 149.118 102.524 149.102C102.668 149.068 102.744 148.987 102.753 148.86V141.941H100.798V141.053H102.753V138.158H103.654V141.053H104.441Z" fill="#5C5C5C"/>
<path d="M66.75 165.33V168.703C66.7497 169.429 66.9182 170.145 67.2423 170.795C67.5664 171.445 68.0372 172.01 68.6175 172.447C69.1978 172.883 69.8716 173.179 70.5858 173.31C71.3 173.441 72.0349 173.405 72.7325 173.203C72.9166 173.664 73.167 174.089 73.4713 174.47L71.467 176.476C71.3618 176.582 71.3027 176.725 71.3028 176.874C71.3029 177.023 71.3622 177.165 71.4676 177.271C71.573 177.376 71.7159 177.435 71.8649 177.435C72.0139 177.435 72.1567 177.375 72.262 177.27L74.2651 175.265C75.0081 175.859 75.9037 176.231 76.8488 176.338C77.7939 176.446 78.7502 176.284 79.6075 175.872C80.4648 175.46 81.1883 174.814 81.6946 174.009C82.201 173.203 82.4696 172.271 82.4697 171.32V167.649C82.4697 166.887 81.8521 166.271 81.0919 166.271H77.4203C76.7848 166.271 76.1784 166.388 75.6193 166.601C75.2295 165.825 74.6315 165.172 73.892 164.716C73.1526 164.26 72.3009 164.019 71.4322 164.02H68.0603C67.3372 164.02 66.75 164.607 66.75 165.33ZM75.0646 174.464L77.8178 171.71C77.923 171.604 77.9821 171.461 77.982 171.312C77.9819 171.164 77.9226 171.021 77.8172 170.915C77.765 170.863 77.703 170.822 77.6349 170.794C77.5667 170.766 77.4937 170.751 77.4199 170.751C77.2709 170.751 77.1281 170.811 77.0228 170.916L74.273 173.669C73.8373 173.085 73.5725 172.392 73.5084 171.666C73.4443 170.94 73.5833 170.211 73.9098 169.56C74.2364 168.908 74.7377 168.361 75.3576 167.978C75.9775 167.595 76.6917 167.393 77.4203 167.393H81.0931C81.2334 167.393 81.3479 167.507 81.3479 167.647V171.32C81.348 172.049 81.145 172.764 80.7618 173.385C80.3786 174.005 79.8302 174.507 79.178 174.833C78.5259 175.159 77.7958 175.298 77.0695 175.232C76.3432 175.167 75.6494 174.901 75.0657 174.464H75.0646ZM71.4333 165.142C72.0957 165.142 72.745 165.327 73.3082 165.676C73.8713 166.024 74.326 166.523 74.6211 167.116C73.8223 167.649 73.1911 168.397 72.8009 169.274L71.0763 167.552C71.0241 167.5 70.9621 167.459 70.894 167.43C70.8258 167.402 70.7527 167.388 70.679 167.388C70.6052 167.388 70.5322 167.402 70.464 167.431C70.3959 167.459 70.334 167.5 70.2819 167.553C70.2297 167.605 70.1884 167.667 70.1602 167.735C70.1321 167.803 70.1176 167.876 70.1176 167.95C70.1177 168.024 70.1323 168.097 70.1605 168.165C70.1888 168.233 70.2302 168.295 70.2824 168.347L72.436 170.498C72.3482 171.035 72.3471 171.582 72.4327 172.12C71.9019 172.275 71.3422 172.305 70.7979 172.206C70.2537 172.108 69.7399 171.884 69.2974 171.552C68.8548 171.22 68.4956 170.79 68.2484 170.295C68.0011 169.8 67.8725 169.255 67.8728 168.702L67.8717 165.329C67.8728 165.227 67.957 165.142 68.0603 165.142H71.4333Z" fill="white"/>
<path d="M92.9277 175.165C91.6921 175.157 90.6764 174.725 89.8809 173.87L90.4775 173.083C91.18 173.802 91.9671 174.166 92.8389 174.175C93.6175 174.175 94.1761 173.904 94.5146 173.362C94.6924 173.083 94.7812 172.766 94.7812 172.41C94.7643 171.149 93.7741 170.514 91.8105 170.506V169.592C93.554 169.575 94.4342 168.97 94.4512 167.776C94.4512 167.091 94.1549 166.625 93.5625 166.38C93.3424 166.295 93.1012 166.249 92.8389 166.24C92.1364 166.274 91.4805 166.591 90.8711 167.192L90.2236 166.431C91.0531 165.669 91.9417 165.288 92.8896 165.288C93.9645 165.288 94.7474 165.618 95.2383 166.278C95.5176 166.676 95.6572 167.142 95.6572 167.675C95.6572 168.674 95.1917 169.401 94.2607 169.858C94.1592 169.901 94.0576 169.943 93.9561 169.985V170.036C94.7686 170.222 95.3525 170.641 95.708 171.293C95.8942 171.648 95.9873 172.034 95.9873 172.448C95.9873 173.413 95.5938 174.149 94.8066 174.657C94.265 174.996 93.6387 175.165 92.9277 175.165ZM100.329 175.165C99.1442 175.165 98.3021 174.509 97.8027 173.197C97.498 172.402 97.3457 171.403 97.3457 170.201C97.3457 167.823 97.9043 166.299 99.0215 165.631C99.4108 165.402 99.8467 165.288 100.329 165.288C101.539 165.288 102.386 165.961 102.868 167.307C103.147 168.085 103.287 169.05 103.287 170.201C103.287 172.529 102.758 174.052 101.7 174.771C101.294 175.034 100.837 175.165 100.329 175.165ZM100.329 174.226C101.184 174.226 101.738 173.506 101.992 172.067C102.085 171.526 102.132 170.904 102.132 170.201C102.132 167.831 101.637 166.528 100.646 166.291C100.536 166.266 100.431 166.253 100.329 166.253C99.3981 166.253 98.8226 167.044 98.6025 168.627C98.5348 169.092 98.501 169.617 98.501 170.201C98.501 172.495 98.958 173.811 99.8721 174.149C100.024 174.2 100.177 174.226 100.329 174.226Z" fill="#7DC49D"/>
<path d="M116 104.5C93.4382 128.03 57.6741 119 49.5005 106.5C24.0005 67.5027 51.0005 20.5003 84.5004 22C123 22 138.563 80.9706 116 104.5Z" fill="#CFE0A9"/>
<path d="M84.5 135H79C79.3333 128.283 80.2 112.874 81 104.978C81.8 97.0819 83 100.317 83.5 102.922V117.316C83.5 118.55 83.5 120.195 84 120.195C84.4 120.195 86.3333 118.002 86.5 117.728C88.5 115.672 90.6667 113.615 91 112.792C90.6 115.753 86.5 121.703 84.5 124.307V135Z" fill="#98795E"/>
<circle cx="81.5" cy="31.5" r="3.5" fill="#FFE4AF"/>
<circle cx="70.5" cy="34.5" r="3.5" fill="#FFE4AF"/>
<circle cx="54.5" cy="56.5" r="3.5" fill="#FFE4AF"/>
<circle cx="96.5" cy="39.5" r="3.5" fill="#FFE4AF"/>
<circle cx="58.5" cy="45.5" r="3.5" fill="#FFE4AF"/>
<circle cx="108.5" cy="96.5" r="3.5" fill="#FFE4AF"/>
<circle cx="68.5" cy="53.5" r="3.5" fill="#FFE4AF"/>
<circle cx="72.5" cy="64.5" r="3.5" fill="#FFE4AF"/>
<circle cx="108.5" cy="43.5" r="3.5" fill="#FFE4AF"/>
<circle cx="72.5" cy="78.5" r="3.5" fill="#FFE4AF"/>
<circle cx="116.5" cy="60.5" r="3.5" fill="#FFE4AF"/>
<circle cx="102" cy="67" r="4" fill="#FFE4AF"/>
<circle cx="84.5" cy="64.5" r="3.5" fill="#FFE4AF"/>
<circle cx="95.5" cy="54.5" r="3.5" fill="#FFE4AF"/>
<circle cx="93.5" cy="30.5" r="3.5" fill="#FFE4AF"/>
<circle cx="86.5" cy="78.5" r="3.5" fill="#FFE4AF"/>
<circle cx="54.5" cy="98.5" r="3.5" fill="#FFE4AF"/>
<circle cx="112.5" cy="86.5" r="3.5" fill="#FFE4AF"/>
<circle cx="87.5" cy="92.5" r="3.5" fill="#FFE4AF"/>
<circle cx="74.5" cy="90.5" r="3.5" fill="#FFE4AF"/>
<circle cx="73.5" cy="108.5" r="3.5" fill="#FFE4AF"/>
<circle cx="97.5" cy="88.5" r="3.5" fill="#FFE4AF"/>
<circle cx="61.5" cy="84.5" r="3.5" fill="#FFE4AF"/>
<circle cx="100.5" cy="78.5" r="3.5" fill="#FFE4AF"/>
<circle cx="68.5" cy="98.5" r="3.5" fill="#FFE4AF"/>
<circle cx="95.5" cy="106.5" r="3.5" fill="#FFE4AF"/>
<circle cx="119.5" cy="77.5" r="3.5" fill="#FFE4AF"/>
<circle cx="64.5" cy="73.5" r="3.5" fill="#FFE4AF"/>
<circle cx="50.5" cy="84.5" r="3.5" fill="#FFE4AF"/>
<circle cx="82.5" cy="48.5" r="3.5" fill="#FFE4AF"/>
<circle cx="49.5" cy="70.5" r="3.5" fill="#FFE4AF"/>
</g>
</g>
<defs>
<filter id="filter0_d" x="0" y="0" width="172" height="195" filterUnits="userSpaceOnUse" color-interpolation-filters="sRGB">
<feFlood flood-opacity="0" result="BackgroundImageFix"/>
<feColorMatrix in="SourceAlpha" type="matrix" values="0 0 0 0 0 0 0 0 0 0 0 0 0 0 0 0 0 0 127 0"/>
<feOffset dx="1" dy="3"/>
<feGaussianBlur stdDeviation="5"/>
<feColorMatrix type="matrix" values="0 0 0 0 0.758333 0 0 0 0 0.752014 0 0 0 0 0.752014 0 0 0 0.75 0"/>
<feBlend mode="normal" in2="BackgroundImageFix" result="effect1_dropShadow"/>
<feBlend mode="normal" in="SourceGraphic" in2="effect1_dropShadow" result="shape"/>
</filter>
<clipPath id="clip0">
<rect x="9" y="7" width="152" height="175" rx="10" fill="white"/>
</clipPath>
</defs>
</svg>
