<svg width="40" height="48" viewBox="0 0 40 48" fill="none" xmlns="http://www.w3.org/2000/svg">
<path d="M21.0222 4.92773C19.9382 4.92773 18.8987 5.35661 18.1322 6.12C17.3658 6.8834 16.9352 7.91878 16.9352 8.99839C16.9352 10.078 17.3658 11.1134 18.1322 11.8768C18.8987 12.6402 19.9382 13.069 21.0222 13.069C23.2904 13.069 25.1091 11.2576 25.1091 8.99839C25.1091 7.91878 24.6785 6.8834 23.9121 6.12C23.1456 5.35661 22.1061 4.92773 21.0222 4.92773ZM2.63086 15.1044V19.175H14.8917V31.387L4.53129 41.7061L7.4126 44.6166L21.1448 30.9189L29.1961 35.7222V43.599H33.283V34.5825C33.283 33.8497 32.9152 33.1984 32.2613 32.8321L25.1091 28.5375V19.175H37.37V15.1044H2.63086Z" fill="white"/>
</svg>
