<svg width="40" height="48" viewBox="0 0 40 48" fill="none" xmlns="http://www.w3.org/2000/svg">
<g clip-path="url(#clip0)">
<path d="M23.8047 14.9592H33.3166V18.2383H23.8047V14.9592Z" fill="white"/>
<path d="M23.8047 23.7034H33.3166V26.9824H23.8047V23.7034Z" fill="white"/>
<path d="M23.8047 31.3547H33.3166V34.6338H23.8047V31.3547Z" fill="white"/>
<path d="M5.73193 14.9592H15.2438V18.2383H5.73193V14.9592Z" fill="white"/>
<path d="M5.73193 23.7034H15.2438V26.9824H5.73193V23.7034Z" fill="white"/>
<path d="M5.73193 31.3547H15.2438V34.6338H5.73193V31.3547Z" fill="white"/>
<path d="M36.306 7.30811H3.69376C2.97321 7.30895 2.28237 7.64422 1.77286 8.24035C1.26335 8.83648 0.976794 9.64476 0.976074 10.4878V39.1051C0.976794 39.9482 1.26335 40.7565 1.77286 41.3526C2.28237 41.9487 2.97321 42.284 3.69376 42.2849H36.306C37.0266 42.284 37.7174 41.9487 38.2269 41.3526C38.7364 40.7565 39.023 39.9482 39.0237 39.1051V10.4878C39.023 9.64476 38.7364 8.83648 38.2269 8.24035C37.7174 7.64422 37.0266 7.30895 36.306 7.30811ZM3.69376 10.4878H18.641V39.1051H3.69376V10.4878ZM21.3587 39.1051V10.4878H36.306V39.1051H21.3587Z" fill="white"/>
</g>
<defs>
<clipPath id="clip0">
<rect width="39.95" height="47" fill="white" transform="translate(0.0249023 0.75)"/>
</clipPath>
</defs>
</svg>
