<svg width="40" height="40" viewBox="0 0 40 40" fill="none" xmlns="http://www.w3.org/2000/svg">
<g clip-path="url(#clip0)">
<path d="M32.1345 0.365251C31.9001 0.130912 31.5822 -0.000732422 31.2508 -0.000732422C30.9193 -0.000732422 30.6014 0.130912 30.367 0.365251L26.2495 4.48275L35.517 13.7503L39.6345 9.63525C39.7509 9.51914 39.8433 9.3812 39.9063 9.22934C39.9693 9.07747 40.0018 8.91467 40.0018 8.75025C40.0018 8.58583 39.9693 8.42303 39.9063 8.27117C39.8433 8.11931 39.7509 7.98137 39.6345 7.86525L32.1345 0.365251ZM33.7495 15.5178L24.482 6.25025L8.23202 22.5003H8.74952C9.08104 22.5003 9.39898 22.632 9.6334 22.8664C9.86782 23.1008 9.99952 23.4187 9.99952 23.7503V25.0003H11.2495C11.581 25.0003 11.899 25.132 12.1334 25.3664C12.3678 25.6008 12.4995 25.9187 12.4995 26.2503V27.5003H13.7495C14.081 27.5003 14.399 27.632 14.6334 27.8664C14.8678 28.1008 14.9995 28.4187 14.9995 28.7503V30.0003H16.2495C16.581 30.0003 16.899 30.132 17.1334 30.3664C17.3678 30.6008 17.4995 30.9187 17.4995 31.2503V31.7678L33.7495 15.5178ZM15.0795 34.1878C15.0269 34.0479 14.9998 33.8997 14.9995 33.7503V32.5003H13.7495C13.418 32.5003 13.1001 32.3686 12.8656 32.1341C12.6312 31.8997 12.4995 31.5818 12.4995 31.2503V30.0003H11.2495C10.918 30.0003 10.6001 29.8686 10.3656 29.6341C10.1312 29.3997 9.99952 29.0818 9.99952 28.7503V27.5003H8.74952C8.418 27.5003 8.10005 27.3686 7.86563 27.1341C7.63121 26.8997 7.49952 26.5818 7.49952 26.2503V25.0003H6.24952C6.10007 25 5.95188 24.9729 5.81202 24.9203L5.36452 25.3653C5.24539 25.4852 5.15184 25.6281 5.08952 25.7853L0.0895152 38.2853C-0.00141148 38.5124 -0.0236702 38.7613 0.0254984 39.001C0.074667 39.2407 0.193101 39.4606 0.366117 39.6337C0.539133 39.8067 0.759123 39.9251 0.998814 39.9743C1.2385 40.0234 1.48736 40.0012 1.71452 39.9103L14.2145 34.9103C14.3717 34.8479 14.5146 34.7544 14.6345 34.6353L15.0795 34.1903V34.1878Z" fill="white"/>
</g>
<defs>
<clipPath id="clip0">
<rect width="40" height="40" fill="white"/>
</clipPath>
</defs>
</svg>
