<svg width="33" height="38" viewBox="0 0 33 38" fill="none" xmlns="http://www.w3.org/2000/svg">
<path d="M9.42857 18.1094V15.1406C9.42857 14.6488 9.82435 14.25 10.3125 14.25H13.2589C13.7471 14.25 14.1429 14.6488 14.1429 15.1406V18.1094C14.1429 18.6012 13.7471 19 13.2589 19H10.3125C9.82435 19 9.42857 18.6012 9.42857 18.1094ZM19.7411 19H22.6875C23.1756 19 23.5714 18.6012 23.5714 18.1094V15.1406C23.5714 14.6488 23.1756 14.25 22.6875 14.25H19.7411C19.2529 14.25 18.8571 14.6488 18.8571 15.1406V18.1094C18.8571 18.6012 19.2529 19 19.7411 19ZM14.1429 25.2344V22.2656C14.1429 21.7738 13.7471 21.375 13.2589 21.375H10.3125C9.82435 21.375 9.42857 21.7738 9.42857 22.2656V25.2344C9.42857 25.7262 9.82435 26.125 10.3125 26.125H13.2589C13.7471 26.125 14.1429 25.7262 14.1429 25.2344ZM19.7411 26.125H22.6875C23.1756 26.125 23.5714 25.7262 23.5714 25.2344V22.2656C23.5714 21.7738 23.1756 21.375 22.6875 21.375H19.7411C19.2529 21.375 18.8571 21.7738 18.8571 22.2656V25.2344C18.8571 25.7262 19.2529 26.125 19.7411 26.125ZM33 35.3281V38H0V35.3281C0 34.8363 0.395779 34.4375 0.883929 34.4375H2.32031V6.31119C2.32031 5.44899 3.1118 4.75 4.08817 4.75H10.6071V1.78125C10.6071 0.79748 11.3986 0 12.375 0H20.625C21.6014 0 22.3929 0.79748 22.3929 1.78125V4.75H28.9118C29.8882 4.75 30.6797 5.44899 30.6797 6.31119V34.4375H32.1161C32.6042 34.4375 33 34.8363 33 35.3281ZM5.85603 34.3633H14.1429V29.3906C14.1429 28.8988 14.5386 28.5 15.0268 28.5H17.9732C18.4614 28.5 18.8571 28.8988 18.8571 29.3906V34.3633H27.144V8.3125H22.3929V10.0938C22.3929 11.0775 21.6014 11.875 20.625 11.875H12.375C11.3986 11.875 10.6071 11.0775 10.6071 10.0938V8.3125H5.85603V34.3633ZM19.5938 4.75H17.6786V2.82031C17.6786 2.70221 17.632 2.58894 17.5491 2.50543C17.4662 2.42192 17.3538 2.375 17.2366 2.375H15.7634C15.6462 2.375 15.5338 2.42192 15.4509 2.50543C15.368 2.58894 15.3214 2.70221 15.3214 2.82031V4.75H13.4062C13.289 4.75 13.1766 4.79692 13.0937 4.88043C13.0108 4.96394 12.9643 5.07721 12.9643 5.19531V6.67969C12.9643 6.79779 13.0108 6.91106 13.0937 6.99457C13.1766 7.07808 13.289 7.125 13.4062 7.125H15.3214V9.05469C15.3214 9.17279 15.368 9.28606 15.4509 9.36957C15.5338 9.45308 15.6462 9.5 15.7634 9.5H17.2366C17.3538 9.5 17.4662 9.45308 17.5491 9.36957C17.632 9.28606 17.6786 9.17279 17.6786 9.05469V7.125H19.5938C19.711 7.125 19.8234 7.07808 19.9063 6.99457C19.9892 6.91106 20.0357 6.79779 20.0357 6.67969V5.19531C20.0357 5.07721 19.9892 4.96394 19.9063 4.88043C19.8234 4.79692 19.711 4.75 19.5938 4.75Z" fill="white"/>
</svg>
