<svg width="33" height="38" viewBox="0 0 33 38" fill="none" xmlns="http://www.w3.org/2000/svg">
<path d="M14.451 0C17.9601 0.000240643 21.3493 1.34307 23.9864 3.77803C26.6235 6.21298 28.3284 9.57376 28.7832 13.2335L32.8476 19.9576C33.115 20.4003 33.0608 21.0596 32.4412 21.3408L28.9024 22.933V28.5C28.9024 29.5078 28.5218 30.4744 27.8442 31.187C27.1667 31.8996 26.2477 32.3 25.2896 32.3H21.6785L21.6767 38H5.41892V30.9814C5.41892 28.7394 4.63132 26.6171 3.17173 24.7019C1.46964 22.4666 0.402564 19.771 0.0934434 16.9257C-0.215678 14.0803 0.245731 11.201 1.42451 8.61947C2.60329 6.03792 4.45148 3.85915 6.75616 2.33418C9.06083 0.809202 11.7282 7.06026e-05 14.451 0ZM14.451 3.8C12.409 3.79991 10.4085 4.40657 8.67998 5.55009C6.95145 6.6936 5.56521 8.32746 4.68095 10.2634C3.79669 12.1994 3.4504 14.3588 3.68195 16.4927C3.9135 18.6266 4.71349 20.6484 5.98975 22.325C7.96597 24.9166 9.03176 27.8673 9.03176 30.9814V34.2H18.0639L18.0675 28.5H25.2896V20.4288L28.0895 19.1672L25.3022 14.5597L25.1992 13.7199C24.8573 10.9761 23.5783 8.4568 21.6007 6.63163C19.6231 4.80647 17.082 3.80004 14.451 3.8ZM13.4936 10.9497L14.451 11.9567L15.4084 10.9497C15.7 10.6321 16.0488 10.3787 16.4344 10.2043C16.8201 10.03 17.2349 9.93819 17.6546 9.93427C18.0744 9.93034 18.4906 10.0144 18.8792 10.1815C19.2677 10.3486 19.6207 10.5954 19.9176 10.9075C20.2145 11.2197 20.4493 11.5909 20.6083 11.9995C20.7673 12.408 20.8474 12.8459 20.8438 13.2874C20.8403 13.7288 20.7531 14.1652 20.5876 14.5709C20.422 14.9766 20.1812 15.3435 19.8793 15.6503L14.451 21.3617L9.02273 15.6503C8.72086 15.3435 8.4801 14.9766 8.3145 14.5709C8.1489 14.1652 8.06178 13.7288 8.05822 13.2874C8.05465 12.8459 8.13472 12.408 8.29375 11.9995C8.45278 11.5909 8.68758 11.2197 8.98446 10.9075C9.28133 10.5954 9.63434 10.3486 10.0229 10.1815C10.4114 10.0144 10.8277 9.93034 11.2474 9.93427C11.6672 9.93819 12.082 10.03 12.4676 10.2043C12.8533 10.3787 13.2021 10.6321 13.4936 10.9497Z" fill="white"/>
</svg>
