<svg width="81" height="26" viewBox="0 0 81 26" fill="none" xmlns="http://www.w3.org/2000/svg">
<path d="M16.2656 18H17.625V12.7812C17.625 11.5938 18.4609 10.6328 19.5625 10.6328C20.625 10.6328 21.3125 11.2812 21.3125 12.2812V18H22.6719V12.5859C22.6719 11.5156 23.4453 10.6328 24.6172 10.6328C25.8047 10.6328 26.375 11.25 26.375 12.4922V18H27.7344V12.1797C27.7344 10.4141 26.7734 9.42969 25.0547 9.42969C23.8906 9.42969 22.9297 10.0156 22.4766 10.9062H22.3516C21.9609 10.0312 21.1641 9.42969 20.0234 9.42969C18.9219 9.42969 18.125 9.95312 17.75 10.8594H17.625V9.57812H16.2656V18ZM33.6484 18.1484C36.0469 18.1484 37.5312 16.4922 37.5312 13.7969V13.7812C37.5312 11.0781 36.0469 9.42969 33.6484 9.42969C31.25 9.42969 29.7656 11.0781 29.7656 13.7812V13.7969C29.7656 16.4922 31.25 18.1484 33.6484 18.1484ZM33.6484 16.9453C32.0547 16.9453 31.1562 15.7812 31.1562 13.7969V13.7812C31.1562 11.7891 32.0547 10.6328 33.6484 10.6328C35.2422 10.6328 36.1406 11.7891 36.1406 13.7812V13.7969C36.1406 15.7812 35.2422 16.9453 33.6484 16.9453ZM39.6406 18H41V12.7812C41 11.5469 41.9219 10.7266 43.2188 10.7266C43.5156 10.7266 43.7734 10.7578 44.0547 10.8047V9.48438C43.9219 9.46094 43.6328 9.42969 43.375 9.42969C42.2344 9.42969 41.4453 9.94531 41.125 10.8281H41V9.57812H39.6406V18ZM48.9375 18.1484C50.9219 18.1484 52.125 17.0234 52.4141 15.8828L52.4297 15.8203H51.0703L51.0391 15.8906C50.8125 16.3984 50.1094 16.9375 48.9688 16.9375C47.4688 16.9375 46.5078 15.9219 46.4688 14.1797H52.5312V13.6484C52.5312 11.1328 51.1406 9.42969 48.8516 9.42969C46.5625 9.42969 45.0781 11.2109 45.0781 13.8125V13.8203C45.0781 16.4609 46.5312 18.1484 48.9375 18.1484ZM48.8438 10.6406C50.0859 10.6406 51.0078 11.4297 51.1484 13.0938H46.4922C46.6406 11.4922 47.5938 10.6406 48.8438 10.6406Z" fill="#20E2D7"/>
<path d="M61.5804 10.7515L64.3287 13.4998L61.5804 16.2482C61.3042 16.5244 61.3042 16.9707 61.5804 17.2469C61.8567 17.5232 62.3029 17.5232 62.5792 17.2469L65.8304 13.9957C66.1067 13.7194 66.1067 13.2732 65.8304 12.9969L62.5792 9.74566C62.3029 9.46941 61.8567 9.46941 61.5804 9.74566C61.3112 10.0219 61.3042 10.4752 61.5804 10.7515Z" fill="#20E2D7"/>
</svg>
