<svg width="33" height="29" viewBox="0 0 33 29" fill="none" xmlns="http://www.w3.org/2000/svg">
<path d="M29.9693 0.302246H3.03054C2.43534 0.302927 1.86469 0.573999 1.44382 1.05598C1.02294 1.53795 0.786239 2.19145 0.785645 2.87307V26.0105C0.786239 26.6921 1.02294 27.3456 1.44382 27.8276C1.86469 28.3096 2.43534 28.5806 3.03054 28.5813H29.9693C30.5645 28.5806 31.1352 28.3096 31.556 27.8276C31.9769 27.3456 32.2136 26.6921 32.2142 26.0105V2.87307C32.2136 2.19145 31.9769 1.53795 31.556 1.05598C31.1352 0.573999 30.5645 0.302927 29.9693 0.302246ZM3.03054 2.87307H15.3775V26.0105H3.03054V2.87307ZM17.6224 26.0105V2.87307H29.9693V26.0105H17.6224Z" fill="white"/>
</svg>
