<svg width="29" height="33" viewBox="0 0 29 33" fill="none" xmlns="http://www.w3.org/2000/svg">
<path d="M15.3439 0.37793C14.4486 0.37793 13.5899 0.724677 12.9568 1.34189C12.3236 1.9591 11.968 2.79623 11.968 3.6691C11.968 4.54197 12.3236 5.37909 12.9568 5.99631C13.5899 6.61352 14.4486 6.96027 15.3439 6.96027C17.2176 6.96027 18.7199 5.4957 18.7199 3.6691C18.7199 2.79623 18.3642 1.9591 17.7311 1.34189C17.098 0.724677 16.2393 0.37793 15.3439 0.37793ZM0.1521 8.60585V11.897H10.28V21.7705L1.72192 30.1136L4.10197 32.4668L15.4452 21.392L22.0958 25.2756V31.644H25.4718V24.3541C25.4718 23.7617 25.168 23.2351 24.6278 22.9389L18.7199 19.4667V11.897H28.8478V8.60585H0.1521Z" fill="white"/>
</svg>
