<svg width="229" height="137" viewBox="0 0 229 137" fill="none" xmlns="http://www.w3.org/2000/svg">
<g clip-path="url(#clip0)">
<path d="M175.328 135.451C172.396 132.972 170.615 129.056 171.082 125.243C171.549 121.431 174.442 117.926 178.194 117.117C181.946 116.307 186.223 118.548 187.363 122.216C187.99 115.145 188.713 107.777 192.47 101.756C195.872 96.3033 201.764 92.4018 208.149 91.7038C214.535 91.0058 221.258 93.642 225.241 98.6854C229.223 103.729 230.198 111.061 227.409 116.851C225.354 121.117 221.569 124.291 217.603 126.874C204.786 135.149 189.414 138.514 174.315 136.35L175.328 135.451Z" fill="url(#paint0_linear)"/>
<path d="M218.926 93.7881C213.657 98.0826 208.823 102.886 204.495 108.128C197.721 116.304 192.239 125.47 188.241 135.308C187.948 136.026 189.113 136.338 189.402 135.629C195.944 119.64 206.388 105.547 219.778 94.6403C220.379 94.1504 219.522 93.3022 218.926 93.7881Z" fill="white"/>
<path d="M73.7188 134.777C77.7457 131.372 80.1916 125.994 79.5502 120.757C78.9087 115.521 74.9357 110.707 69.7822 109.596C64.6287 108.484 58.754 111.562 57.1888 116.599C56.3273 106.887 55.3346 96.7679 50.1744 88.4971C45.502 81.0081 37.4092 75.6494 28.6385 74.6907C19.8677 73.732 10.6333 77.3528 5.16331 84.28C-0.306675 91.2072 -1.64598 101.278 2.18506 109.231C5.00724 115.089 10.2067 119.45 15.6545 122.997C33.0346 134.313 54.5948 139.033 75.1095 136.012" fill="url(#paint1_linear)"/>
<path d="M13.8365 77.5536C21.0735 83.452 27.7126 90.049 33.6579 97.2491C39.6041 104.442 44.8391 112.195 49.2894 120.399C51.7769 125.001 54.0115 129.735 55.9832 134.581C56.3852 135.567 54.7855 135.996 54.388 135.021C50.8956 126.478 46.575 118.298 41.4879 110.598C36.4255 102.926 30.6314 95.7634 24.1869 89.211C20.5418 85.5067 16.696 82.0058 12.6668 78.7241C11.8409 78.0511 13.0175 76.8862 13.8365 77.5536L13.8365 77.5536Z" fill="white"/>
<path d="M164.38 136.7H68.3052V38.0601C68.3052 17.0736 85.3676 0 106.34 0H126.345C147.317 0 164.38 17.0736 164.38 38.0601V136.7Z" fill="#F2F2F2"/>
<path d="M144.375 136.7H68.3052V38.06C68.2842 30.0185 70.8289 22.1802 75.5689 15.6864C75.7436 15.4481 75.9179 15.2129 76.0976 14.9802C78.3903 11.9712 81.1187 9.32129 84.1927 7.11782C84.3663 6.99139 84.5406 6.86716 84.7176 6.74292C87.2898 4.96172 90.0723 3.50562 93.0016 2.40777C93.1756 2.34179 93.3527 2.27568 93.5298 2.21228C96.1791 1.26619 98.9255 0.618134 101.718 0.280058C101.891 0.256393 102.069 0.237874 102.247 0.219355C104.968 -0.0718162 107.713 -0.0718162 110.434 0.219355C110.611 0.237874 110.789 0.25639 110.964 0.280312C113.756 0.618409 116.502 1.26639 119.151 2.21229C119.328 2.2757 119.505 2.3418 119.679 2.4079C122.573 3.49191 125.322 4.92628 127.867 6.67901C128.044 6.80055 128.221 6.92478 128.395 7.04902C130.118 8.27978 131.737 9.65092 133.234 11.1484C134.435 12.3496 135.554 13.63 136.583 14.981C136.763 15.2129 136.937 15.4481 137.111 15.686C141.851 22.1799 144.396 30.0183 144.375 38.06V136.7Z" fill="#CCCCCC"/>
<path d="M138.19 92.5821C140.516 92.5821 142.401 90.6953 142.401 88.3678C142.401 86.0404 140.516 84.1536 138.19 84.1536C135.864 84.1536 133.978 86.0404 133.978 88.3678C133.978 90.6953 135.864 92.5821 138.19 92.5821Z" fill="#20E2D7"/>
<path d="M156.509 133.746H153.282L151.747 121.29L156.51 121.291L156.509 133.746Z" fill="#FFB8B8"/>
<path d="M150.977 132.823H157.201V136.744H147.059C147.059 136.229 147.16 135.719 147.357 135.243C147.554 134.768 147.843 134.335 148.206 133.971C148.57 133.607 149.002 133.318 149.478 133.121C149.953 132.924 150.463 132.823 150.977 132.823Z" fill="#2F2E41"/>
<path d="M172.566 133.746H169.339L167.803 121.29L172.566 121.291L172.566 133.746Z" fill="#FFB8B8"/>
<path d="M167.034 132.823H173.257V136.744H163.115C163.115 136.229 163.216 135.719 163.413 135.243C163.61 134.768 163.899 134.335 164.263 133.971C164.627 133.607 165.059 133.318 165.534 133.121C166.009 132.924 166.519 132.823 167.034 132.823Z" fill="#2F2E41"/>
<path d="M140.321 89.2026C140.089 88.8603 139.935 88.4713 139.869 88.0629C139.803 87.6545 139.828 87.2366 139.941 86.8388C140.054 86.4409 140.253 86.0728 140.524 85.7602C140.795 85.4476 141.131 85.1983 141.508 85.0297L152.478 54.7748L157.876 57.7225L145.351 86.6352C145.592 87.2885 145.585 88.0076 145.331 88.6563C145.078 89.3049 144.596 89.8379 143.976 90.1544C143.356 90.4709 142.641 90.5488 141.968 90.3734C141.294 90.1979 140.708 89.7814 140.321 89.2026Z" fill="#FFB8B8"/>
<path d="M170.917 94.8876C170.559 94.6819 170.249 94.4 170.012 94.0617C169.774 93.7235 169.613 93.3371 169.54 92.9299C169.467 92.5227 169.485 92.1044 169.591 91.7047C169.698 91.305 169.89 90.9335 170.156 90.6163L166.757 58.6118L172.9 58.8926L174.313 90.3733C174.816 90.8548 175.125 91.5041 175.181 92.1983C175.237 92.8924 175.037 93.5832 174.619 94.1396C174.2 94.6961 173.592 95.0795 172.91 95.2174C172.228 95.3553 171.519 95.238 170.917 94.8876Z" fill="#FFB8B8"/>
<path d="M161.118 49.1709C164.688 49.1709 167.582 46.2745 167.582 42.7017C167.582 39.1289 164.688 36.2325 161.118 36.2325C157.547 36.2325 154.653 39.1289 154.653 42.7017C154.653 46.2745 157.547 49.1709 161.118 49.1709Z" fill="#FFB8B8"/>
<path d="M170.876 87.6089H151.386L151.409 87.4571C151.444 87.2303 154.883 64.6898 152.346 57.3157C152.092 56.591 152.114 55.7977 152.409 55.0886C152.704 54.3794 153.251 53.8045 153.944 53.4745H153.944C157.569 51.7663 164.527 49.6629 170.401 54.7675C171.265 55.5311 171.94 56.4853 172.372 57.5548C172.804 58.6244 172.981 59.7798 172.89 60.9298L170.876 87.6089Z" fill="#20E2D7"/>
<path d="M155.129 68.021L146.354 66.2397L150.467 56.4863C150.713 55.5417 151.324 54.7333 152.165 54.2384C153.006 53.7436 154.009 53.6028 154.953 53.8468C155.898 54.0908 156.707 54.6998 157.204 55.5401C157.7 56.3805 157.844 57.3836 157.602 58.3294L155.129 68.021Z" fill="#20E2D7"/>
<path d="M166.367 71.3285L165.84 59.2279C165.44 56.9532 166.741 54.8029 168.742 54.4514C170.744 54.1012 172.699 55.6788 173.101 57.9702L175.084 69.277L166.367 71.3285Z" fill="#20E2D7"/>
<path d="M170.228 86.1602C173.364 98.112 173.706 113.308 172.86 129.883L168.648 129.356L161.015 97.7494L156.803 129.883L152.065 129.62C150.65 112.228 149.272 97.2976 151.539 87.4771L170.228 86.1602Z" fill="#2F2E41"/>
<path d="M165.377 47.7012C164.171 48.9868 161.931 48.2967 161.774 46.5404C161.762 46.4041 161.763 46.2668 161.777 46.1307C161.858 45.3527 162.307 44.6464 162.2 43.825C162.175 43.6206 162.099 43.4258 161.978 43.259C161.017 41.9712 158.761 43.835 157.854 42.6692C157.298 41.9544 157.952 40.8289 157.525 40.0299C156.962 38.9754 155.293 39.4956 154.247 38.9181C153.083 38.2755 153.153 36.4882 153.919 35.4011C154.853 34.0753 156.492 33.3678 158.11 33.2659C159.728 33.1639 161.335 33.6016 162.846 34.1908C164.563 34.8601 166.265 35.7852 167.321 37.2955C168.605 39.1322 168.729 41.6014 168.087 43.7491C167.696 45.0555 166.362 46.6514 165.377 47.7012Z" fill="#2F2E41"/>
<path d="M221.099 136.87H26.7661C26.6831 136.869 26.6036 136.836 26.545 136.777C26.4864 136.719 26.4536 136.639 26.4536 136.556C26.4536 136.473 26.4864 136.393 26.545 136.334C26.6036 136.276 26.6831 136.243 26.7661 136.242H221.099C221.182 136.243 221.261 136.276 221.32 136.334C221.378 136.393 221.411 136.473 221.411 136.556C221.411 136.639 221.378 136.719 221.32 136.777C221.261 136.836 221.182 136.869 221.099 136.87Z" fill="#3F3D56"/>
<path d="M123.449 108.122H89.231C88.7804 108.125 88.3472 107.948 88.0264 107.631C87.7057 107.315 87.5236 106.883 87.5201 106.432V30.0043C87.5236 29.5534 87.7057 29.1222 88.0264 28.8055C88.3472 28.4887 88.7804 28.3122 89.231 28.3146H123.449C123.9 28.3122 124.333 28.4887 124.654 28.8055C124.975 29.1222 125.157 29.5534 125.16 30.0043V106.432C125.157 106.883 124.975 107.315 124.654 107.631C124.333 107.948 123.9 108.125 123.449 108.122Z" fill="white"/>
<path d="M125.16 53.0443H87.5201V53.5711H125.16V53.0443Z" fill="#CCCCCC"/>
<path d="M125.292 83.1H87.6517V83.6268H125.292V83.1Z" fill="#CCCCCC"/>
<path d="M99.8914 28.3146H99.3649V108.386H99.8914V28.3146Z" fill="#CCCCCC"/>
<path d="M113.052 28.3146H112.526V108.386H113.052V28.3146Z" fill="#CCCCCC"/>
</g>
<defs>
<linearGradient id="paint0_linear" x1="200.004" y1="61.9464" x2="200.004" y2="164.32" gradientUnits="userSpaceOnUse">
<stop offset="0.436593" stop-color="#96FBC4"/>
<stop offset="0.856357" stop-color="#20E2D7"/>
</linearGradient>
<linearGradient id="paint1_linear" x1="39.8259" y1="33.8096" x2="39.8259" y2="174.452" gradientUnits="userSpaceOnUse">
<stop offset="0.436593" stop-color="#96FBC4"/>
<stop offset="0.856357" stop-color="#20E2D7"/>
</linearGradient>
<clipPath id="clip0">
<rect width="229" height="137" fill="white"/>
</clipPath>
</defs>
</svg>
