<svg width="28" height="26" viewBox="0 0 28 26" fill="none" xmlns="http://www.w3.org/2000/svg">
<path d="M14.0003 25.1428C21.3641 25.1428 27.3337 19.5464 27.3337 12.6428C27.3337 5.73926 21.3641 0.142822 14.0003 0.142822C6.63653 0.142822 0.666992 5.73926 0.666992 12.6428C0.666992 19.5464 6.63653 25.1428 14.0003 25.1428Z" fill="#FFCBBF"/>
<path d="M8.66699 8.95526V8.83026" stroke="#5C5C5C" stroke-width="2.33333" stroke-linecap="round"/>
<path d="M19.334 8.95526V8.83026" stroke="#5C5C5C" stroke-width="2.33333" stroke-linecap="round"/>
<path d="M14.0003 20.1428C15.4148 20.1428 16.7714 19.616 17.7716 18.6783C18.7718 17.7406 19.3337 16.4688 19.3337 15.1428H8.66699C8.66699 16.4688 9.2289 17.7406 10.2291 18.6783C11.2293 19.616 12.5858 20.1428 14.0003 20.1428Z" stroke="#5C5C5C" stroke-linecap="round" stroke-linejoin="round"/>
</svg>
