<svg width="16" height="16" viewBox="0 0 16 16" fill="none" xmlns="http://www.w3.org/2000/svg">
<path fill-rule="evenodd" clip-rule="evenodd" d="M8.00114 10.1288L11.9467 14.1684C12.3425 14.5768 12.6 14.581 13.003 14.1684L13.7947 13.3577C14.1825 12.9608 14.2088 12.7002 13.7947 12.2762L9.61752 8L13.795 3.72381C14.1863 3.32191 14.1939 3.05067 13.795 2.64191L13.0034 1.83162C12.5928 1.41105 12.339 1.43048 11.947 1.83162L8.00114 5.87124L4.05562 1.832C3.66362 1.43086 3.4099 1.41143 2.99924 1.832L2.20762 2.64229C1.80838 3.05105 1.81562 3.32229 2.20762 3.72419L6.38476 8L2.20762 12.2762C1.79352 12.7002 1.81562 12.9608 2.20762 13.3577L2.99885 14.1684C3.39847 14.581 3.656 14.5768 4.05524 14.1684L8.00114 10.1288Z" fill="#C7C7C7"/>
</svg>
