<svg width="37" height="37" viewBox="0 0 37 37" fill="none" xmlns="http://www.w3.org/2000/svg">
<path d="M30.9285 29.8252C32.5891 27.8274 33.744 25.4589 34.2955 22.9203C34.8471 20.3817 34.7792 17.7476 34.0974 15.2408C33.4157 12.734 32.1402 10.4282 30.3789 8.51864C28.6176 6.60904 26.4223 5.15173 23.9786 4.27001C21.535 3.38829 18.9149 3.10809 16.3401 3.45312C13.7652 3.79814 11.3114 4.75824 9.18608 6.2522C7.06078 7.74615 5.32655 9.73001 4.13012 12.0359C2.93368 14.3419 2.31023 16.9021 2.31251 19.4999C2.31338 23.2765 3.64421 26.932 6.07148 29.8252L6.04835 29.8449C6.12929 29.942 6.22179 30.0253 6.30504 30.1212C6.4091 30.2403 6.52126 30.3525 6.62879 30.4681C6.95254 30.8196 7.28554 31.1572 7.63473 31.474C7.7411 31.5712 7.85094 31.6614 7.95847 31.7539C8.32847 32.073 8.70888 32.3759 9.10316 32.658C9.15404 32.6927 9.20029 32.7378 9.25116 32.7737V32.7598C11.9592 34.6655 15.1898 35.6883 18.5012 35.6883C21.8125 35.6883 25.0431 34.6655 27.7512 32.7598V32.7737C27.802 32.7378 27.8471 32.6927 27.8992 32.658C28.2923 32.3748 28.6738 32.073 29.0438 31.7539C29.1514 31.6614 29.2612 31.57 29.3676 31.474C29.7168 31.1561 30.0498 30.8196 30.3735 30.4681C30.4811 30.3525 30.5921 30.2403 30.6973 30.1212C30.7794 30.0253 30.873 29.942 30.954 29.8437L30.9285 29.8252ZM18.5 10.2499C19.5291 10.2499 20.5351 10.5551 21.3907 11.1268C22.2464 11.6985 22.9133 12.5112 23.3071 13.4619C23.7009 14.4126 23.8039 15.4588 23.6032 16.4681C23.4024 17.4774 22.9068 18.4045 22.1792 19.1322C21.4515 19.8599 20.5244 20.3554 19.5151 20.5562C18.5058 20.757 17.4596 20.6539 16.5089 20.2601C15.5581 19.8663 14.7455 19.1994 14.1738 18.3437C13.602 17.4881 13.2969 16.4821 13.2969 15.453C13.2969 14.0731 13.8451 12.7497 14.8208 11.7739C15.7966 10.7981 17.1201 10.2499 18.5 10.2499ZM9.2581 29.8252C9.27816 28.307 9.89513 26.8578 10.9755 25.791C12.056 24.7242 13.5129 24.1257 15.0313 24.1249H21.9688C23.4871 24.1257 24.9441 24.7242 26.0245 25.791C27.1049 26.8578 27.7219 28.307 27.7419 29.8252C25.2061 32.1104 21.9136 33.375 18.5 33.375C15.0865 33.375 11.7939 32.1104 9.2581 29.8252Z" fill="url(#paint0_linear)"/>
<defs>
<linearGradient id="paint0_linear" x1="18.4884" y1="-66.0725" x2="18.4884" y2="44.361" gradientUnits="userSpaceOnUse">
<stop stop-color="#F9FEA5"/>
<stop offset="0.489583" stop-color="#96FBC4"/>
<stop offset="1" stop-color="#20E2D7"/>
</linearGradient>
</defs>
</svg>
