<svg width="20" height="20" viewBox="0 0 20 20" fill="none" xmlns="http://www.w3.org/2000/svg">
<path d="M8.33333 8.66667H3.33333C3.24493 8.66667 3.16014 8.63155 3.09763 8.56904C3.03512 8.50652 3 8.42174 3 8.33333V3.33333C3 3.24493 3.03512 3.16014 3.09763 3.09763C3.16014 3.03512 3.24493 3 3.33333 3H8.33333C8.42174 3 8.50652 3.03512 8.56904 3.09763C8.63155 3.16014 8.66667 3.24493 8.66667 3.33333V8.33333C8.66667 8.42174 8.63155 8.50652 8.56904 8.56904C8.50652 8.63155 8.42174 8.66667 8.33333 8.66667ZM16.6667 8.66667H11.6667C11.5783 8.66667 11.4935 8.63155 11.431 8.56904C11.3685 8.50652 11.3333 8.42174 11.3333 8.33333V3.33333C11.3333 3.24493 11.3685 3.16014 11.431 3.09763C11.4935 3.03512 11.5783 3 11.6667 3H16.6667C16.7551 3 16.8399 3.03512 16.9024 3.09763C16.9649 3.16014 17 3.24493 17 3.33333V8.33333C17 8.42174 16.9649 8.50652 16.9024 8.56904C16.8399 8.63155 16.7551 8.66667 16.6667 8.66667ZM8.33333 17H3.33333C3.24493 17 3.16014 16.9649 3.09763 16.9024C3.03512 16.8399 3 16.7551 3 16.6667V11.6667C3 11.5783 3.03512 11.4935 3.09763 11.431C3.16014 11.3685 3.24493 11.3333 3.33333 11.3333H8.33333C8.42174 11.3333 8.50652 11.3685 8.56904 11.431C8.63155 11.4935 8.66667 11.5783 8.66667 11.6667V16.6667C8.66667 16.7551 8.63155 16.8399 8.56904 16.9024C8.50652 16.9649 8.42174 17 8.33333 17ZM17 14.1667C17 15.7289 15.7289 17 14.1667 17C12.6045 17 11.3333 15.7289 11.3333 14.1667C11.3333 12.6045 12.6045 11.3333 14.1667 11.3333C15.7289 11.3333 17 12.6045 17 14.1667Z" fill="#20E2D7" stroke="#20E2D7"/>
</svg>
