<svg width="28" height="26" viewBox="0 0 28 26" fill="none" xmlns="http://www.w3.org/2000/svg">
<path d="M14.0003 25.1431C21.3641 25.1431 27.3337 19.5466 27.3337 12.6431C27.3337 5.73951 21.3641 0.143066 14.0003 0.143066C6.63653 0.143066 0.666992 5.73951 0.666992 12.6431C0.666992 19.5466 6.63653 25.1431 14.0003 25.1431Z" fill="#E5E5E5"/>
<path d="M8.66699 8.95563V8.83063" stroke="#5C5C5C" stroke-width="2.33333" stroke-linecap="round"/>
<path d="M19.334 8.95563V8.83063" stroke="#5C5C5C" stroke-width="2.33333" stroke-linecap="round"/>
<path d="M17.0651 15.0131C16.1006 14.4103 14.7925 14.0717 13.4285 14.0717C12.0646 14.0717 10.7565 14.4103 9.79199 15.0131" stroke="#5C5C5C" stroke-linecap="round" stroke-linejoin="round"/>
<path d="M21.2593 11.9748C20.994 13.2508 20.8131 15.8428 22.1714 15.6651C23.7621 15.4569 22.3194 13.0739 21.2593 11.9748Z" stroke="#5C5C5C" stroke-linejoin="round"/>
<path d="M7.09909 12.0957C6.12648 13.0223 4.44929 15.0899 5.68646 15.6447C7.13537 16.2945 7.33578 13.5608 7.09909 12.0957Z" stroke="#5C5C5C" stroke-linejoin="round"/>
</svg>
