<svg width="36" height="36" viewBox="0 0 36 36" fill="none" xmlns="http://www.w3.org/2000/svg">
<circle cx="18" cy="18" r="18" fill="#20E2D7"/>
<path d="M17.2105 10H18.7895C18.9298 10 19 10.0625 19 10.1875V26.6875C19 26.8125 18.9298 26.875 18.7895 26.875H17.2105C17.0702 26.875 17 26.8125 17 26.6875V10.1875C17 10.0625 17.0702 10 17.2105 10Z" fill="white"/>
<path d="M10.1875 17H25.9375C26.0625 17 26.125 17.0702 26.125 17.2105V18.7895C26.125 18.9298 26.0625 19 25.9375 19H10.1875C10.0625 19 10 18.9298 10 18.7895V17.2105C10 17.0702 10.0625 17 10.1875 17Z" fill="white"/>
</svg>
