<svg width="59" height="38" viewBox="0 0 59 38" fill="none" xmlns="http://www.w3.org/2000/svg">
<path d="M0.13605 24.0265C-1.06395 16.8265 5.96938 14.3598 9.63605 14.0265C10.4694 12.5264 10.9362 9.82629 14.1362 7.02637C17.3362 4.22645 24.4696 4.85983 26.6362 6.02646C27.4696 3.8598 30.7362 -0.373535 37.1362 0.0264651C43.5362 0.426465 45.8029 7.19313 46.1362 10.5265C50.6362 9.19313 57.3743 12.5263 58.1362 20.5264C58.8981 28.5265 49.9696 32.1931 46.1362 31.5265C45.8029 33.0265 43.8362 36.2265 38.6362 37.0265C33.4362 37.8265 30.1362 34.3598 29.1362 32.5265C27.6362 33.5265 26.6064 36.6236 20.6362 36.0265C15.6362 35.5264 14.6362 32.693 13.1362 30.5264C9.63617 31.5264 1.33605 31.2265 0.13605 24.0265Z" fill="#F0EEEE"/>
</svg>
