<svg width="258" height="286" viewBox="0 0 258 286" fill="none" xmlns="http://www.w3.org/2000/svg">
<path d="M18.9358 154.347C28.3264 162.387 39.5391 167.212 50.1911 173.206C59.5817 178.469 69.1125 183.293 79.7646 188.995C82.4276 190.457 84.9504 192.357 87.4733 194.112C89.2954 195.427 90.8371 197.036 92.7993 198.644C79.9047 199.96 67.7109 201.129 55.5171 202.152C42.0619 203.176 29.0272 201.421 16.8334 195.135C12.4885 192.796 8.28373 190.311 3.93882 187.971C3.93882 188.118 3.79867 188.41 3.65851 188.702C14.4507 198.498 27.065 203.614 41.0808 206.1C31.8304 210.339 22.4397 214.725 12.4885 219.404C15.8523 220.573 18.235 219.257 20.6177 218.234C29.4477 214.725 37.9973 210.924 46.8273 207.416C49.21 206.392 51.873 206.1 54.536 205.807C60.4227 205.076 66.1692 204.784 72.0559 204.345C79.2039 203.761 86.2119 203.176 93.36 202.591C96.4434 202.445 99.0515 204.644 101.294 206.691C105.542 210.549 106.257 213.285 109.339 217.418V246.918C109.339 263.009 107.999 275.077 109.339 283.876C110.04 287.238 130.794 286.553 130.794 281.781V265.691V245.577C140.745 229.642 152.647 216.48 168.345 206.392C183.902 196.305 199.32 185.925 213.336 173.498C214.597 172.475 216.279 171.89 217.821 171.305C230.155 166.335 242.489 161.51 254.823 156.539C255.944 156.101 256.925 155.077 257.906 154.2C257.626 153.908 257.486 153.469 257.205 153.177C244.17 154.639 233.098 163.118 219.643 165.165L220.039 164.533C222.544 160.546 224.807 156.942 227.071 153.469C233.098 144.113 237.583 134.025 239.405 122.914C239.545 121.599 239.405 120.137 239.405 118.675C238.985 118.382 238.564 118.236 238.144 118.09C228.333 153.908 206.187 178.03 174.512 193.527C175.633 188.41 176.754 183.732 177.735 178.907C181.379 160.779 183.622 142.358 194.274 126.716C195.255 125.254 195.535 123.353 196.096 121.745L194.414 120.429C193.994 121.306 193.713 122.476 193.153 123.353C184.743 134.172 179.557 146.598 176.754 160.194C174.231 172.182 172.69 184.609 167.644 195.866C166.663 198.059 165.121 200.252 163.299 201.714C153.208 209.608 143.397 217.795 135.127 227.883C134.146 229.052 133.256 229.804 132.135 230.827C130.794 232.168 130.462 230.827 130.794 229.486C133.036 220.422 134.817 209.373 137.498 199.986C140.18 189.259 148.824 178.231 147.741 177.445C145.544 175.85 133.476 191.941 128.112 217.418V198.644V178.907C134.139 171.744 138.317 163.857 144.203 155.737C152.893 143.749 158.954 131.248 166.803 118.675C176.614 103.032 185.304 86.8042 192.031 69.5531C192.452 68.5298 192.732 67.3602 193.013 66.1907C192.452 65.8983 192.032 65.7521 191.471 65.4597C181.239 85.927 170.727 106.394 157.973 125.254C159.094 110.488 162.738 96.0145 162.738 81.1026C162.318 81.1026 162.038 80.9564 161.617 80.9564C159.935 91.1901 158.393 101.424 156.712 111.657L154.93 123.555C154.93 127.578 150.907 136.964 145.499 144.698C143.256 147.037 142.135 148.952 139.192 152.154C134.817 158.419 133.991 158.716 128.112 166.464V151.714C128.112 131.601 127.998 117.944 127.437 100.547C127.559 94.114 128.665 88.7262 129.453 87.3509C135.48 76.8248 141.014 70.4303 149.984 62.5358C158.674 54.7874 163.209 48.2759 166.994 37.0189C167.834 34.6798 168.861 29.398 167.739 28.9811C166.635 28.5703 166.166 30.5278 166.019 31.1446L166.012 31.1711C162.789 44.621 156.431 51.8635 147.041 61.22C141.434 66.9216 135.968 72.6233 130.502 78.3249C128.4 80.5178 126.718 83.0031 124.755 85.4884C124.475 85.1961 124.195 84.9037 124.195 84.7575C122.933 73.3542 121.672 62.0972 120.551 50.6939C119.99 44.9923 119.429 39.1445 121.952 33.8815C125.036 27.1565 128.54 20.7239 131.904 14.1451C132.464 12.9755 133.165 11.9521 133.726 10.9288C133.445 10.6364 133.025 10.4902 132.744 10.1978C126.297 15.8994 122.092 23.3554 118.168 31.9809C115.925 17.9461 116.601 12.4728 111.415 0.192383C110.855 0.338578 110.294 0.338574 109.733 0.484769C110.863 10.1978 111.04 10.0471 112.021 18.965C113.002 27.8829 113.661 36.3445 114.362 45.4086C115.203 54.4727 115.483 63.5368 116.044 72.601C110.718 63.683 103.872 52.1559 98.5458 43.238C97.1442 41.045 95.0419 39.2907 93.36 37.2439C93.0796 37.5363 92.7993 37.6825 92.519 37.9749C92.6591 38.5597 92.9395 39.2907 93.2198 39.7293C100.648 50.1091 106.535 61.5124 111.581 73.208C113.683 78.1787 113.862 81.9416 114.703 87.3509C115.544 92.9063 114.983 101.763 114.703 107.464C114.563 113.312 114.703 115.51 114.703 120.873C113.362 120.873 110.82 118.338 110.68 118.192C109.339 116.851 109.54 117.264 107.999 115.51C95.3843 101.475 83.8292 91.1901 68.9724 79.6406C65.6086 77.1553 62.6652 74.2314 60.0022 71.0151C49.9108 59.4657 45.0053 45.2847 41.221 30.5189C41.0808 29.788 40.5202 29.2032 40.2399 28.6184C39.9595 28.6184 39.5391 28.7646 39.1186 28.7646C39.2588 30.9575 38.9784 33.2967 39.5391 35.3434C43.043 47.1852 46.9675 58.7347 54.3959 68.676C56.6384 71.5999 58.7408 74.67 60.8432 77.5939L60.9833 77.7401H61.1235L60.8432 77.8863C60.703 77.8863 60.703 77.7401 60.703 77.7401C55.377 74.8162 49.9108 72.1847 44.8651 68.676C39.8194 65.1673 35.054 61.3662 30.8493 56.9803C26.6445 52.5945 23.2807 47.3314 19.6366 42.3608C19.2161 42.507 18.7956 42.7994 18.5153 42.9456C18.9358 44.4075 19.2161 45.8695 19.7767 47.1852C28.6067 64.8749 43.6037 74.9624 60.4227 82.2721C67.5708 85.3423 74.0181 89.1433 80.0449 94.114C93.36 105.079 104.873 116.568 112.021 132.941C112.021 139.646 111.123 149.91 111.123 152.592C110.68 159.759 110.02 173.06 109.459 190.164C109.319 195.574 109.339 199.356 109.339 205.35C105.197 201.041 102.635 198.119 99.9531 194.623C96.5893 190.237 95.2297 188.521 92.7993 183.896L89.856 176.861C87.193 171.013 84.9505 165.311 82.9882 159.463C81.3063 154.347 80.8606 154.069 79.1787 148.952C78.7583 147.929 78.3622 146.138 77.0764 146.028C75.9725 145.934 75.8149 146.321 75.8149 146.759C78.8984 163.572 83.5488 174.668 91.1174 190.018L89.5034 189.194C76.9105 182.767 64.8122 176.592 52.714 170.282C51.5927 169.697 50.4714 168.381 49.9108 167.212C46.9675 161.218 44.0241 155.077 41.3611 148.937C40.6603 147.037 40.5331 143.034 40.9536 140.987C41.8163 136.787 40.9536 138.305 44.9763 131.601C46.6945 128.737 52.6372 122.212 52.714 120.873C53.0217 115.51 41.3611 131.601 37.4367 139.727C37.0162 139.142 36.7359 138.557 36.4556 137.973C33.0918 129.493 29.4477 121.16 28.887 111.804C28.7469 110.634 28.3264 108.441 27.6256 108.441C27.2212 108.249 26.7432 107.75 26.5043 108.88C25.9437 113.704 27.2051 118.382 28.3264 123.061C31.2697 135.78 36.0351 147.768 41.9218 159.171C43.043 161.656 44.1643 164.142 45.4257 166.919C41.6415 165.019 38.4178 163.264 35.3343 161.656C25.6634 156.539 16.6932 150.399 11.6475 140.019C6.74199 129.932 4.86953 123.54 3.04747 112.429C2.90731 111.26 2.36765 109.246 2.20652 108.921C1.88965 108.748 1.4117 108.748 1.08526 109.067C0.933746 109.745 0.455836 110.243 0.933766 113.234C1.88965 121.71 2.95772 125.692 5.76089 133.733C8.56405 141.481 12.6287 148.791 18.9358 154.347Z" fill="#CBAF96"/>
</svg>
