<svg width="249" height="265" viewBox="0 0 249 265" fill="none" xmlns="http://www.w3.org/2000/svg">
<path d="M47.8518 161.441C37.5794 155.85 26.7664 151.35 17.7105 143.85C11.6282 138.668 7.70851 131.85 5.00526 124.623C2.30201 117.123 1.27202 113.408 0.350208 105.503C-0.110685 102.713 0.350189 102.248 0.496299 101.616C0.811107 101.318 1.27202 101.318 1.57759 101.48C1.73298 101.783 2.2534 103.662 2.38857 104.752C4.14568 115.116 5.9514 121.078 10.6821 130.487C15.5479 140.168 24.1983 145.895 33.5245 150.668C36.4981 152.168 39.6069 153.804 43.2562 155.577C42.0398 152.986 40.9585 150.668 39.8772 148.35C34.2004 137.714 29.6048 126.532 26.7664 114.669C25.6851 110.305 24.4687 105.941 25.0093 101.441C25.2397 100.388 25.7006 100.853 26.0906 101.032C26.7664 101.032 27.1719 103.078 27.3071 104.169C27.8477 112.896 31.3619 120.669 34.6058 128.577C34.8762 129.123 35.1465 129.668 35.552 130.214C47.8518 107.032 52.988 100.351 59.0703 101.032C57.989 102.123 57.3131 102.941 56.367 103.76C47.8518 111.805 41.6343 121.35 38.931 132.805C38.5256 134.714 38.6607 137.032 39.3365 138.805C41.9046 144.532 44.743 150.259 47.5814 155.85C48.1221 156.941 49.2034 158.168 50.2847 158.713C62.4493 164.85 74.614 170.85 87.3192 177.122C80.0205 162.804 75.5358 152.455 72.5622 136.773C72.5622 136.364 72.7141 136.003 73.7787 136.091C75.0187 136.194 75.4006 137.864 75.8061 138.818C77.4281 143.591 77.8579 143.85 79.4798 148.623C81.3721 154.077 83.5347 159.395 86.1028 164.85C86.9137 158.304 86.5082 151.623 89.3467 145.486C89.768 145.029 90.2289 145.494 90.2928 145.623C90.1577 147.805 90.0225 149.85 89.8873 152.032C89.617 158.304 88.4005 164.85 89.617 170.85C90.5631 175.759 93.5367 180.668 96.7806 184.759C99.4838 188.031 103.674 190.077 107.594 192.94C107.594 187.349 107.458 182.304 107.594 177.259C108.134 161.304 108.81 145.35 109.216 129.396C109.216 127.759 108.675 125.987 107.999 124.487C101.106 109.214 89.4818 97.8961 76.6414 87.6689C70.8294 83.0326 64.6119 79.4872 57.7186 76.6236C41.4991 69.8055 27.0367 60.3966 18.5215 43.8968C17.9809 42.6695 17.7105 41.3059 17.305 39.9423C17.5754 39.8059 17.9809 39.5332 18.3864 39.3968C21.9006 44.0331 25.1445 48.9422 29.1993 53.033C33.2542 57.1239 37.8497 60.6693 42.7156 63.942C47.5814 67.2146 52.8528 69.6692 57.989 72.3964C57.989 72.3964 57.989 72.5328 58.1241 72.5328L58.3945 72.3964H58.2593L58.1241 72.26C56.0967 69.5328 54.0692 66.6692 51.9066 63.942C44.743 54.6693 40.9585 43.8968 37.5794 32.8515C37.0388 30.9424 37.3091 28.7606 37.1739 26.7152C37.5794 26.7152 37.9849 26.5788 38.2552 26.5788C38.5256 27.1243 39.0662 27.6697 39.2014 28.3515C42.8508 42.1241 47.5814 55.3512 57.3131 66.1238C59.8812 69.1237 62.7197 71.8509 65.9636 74.1691C80.2908 84.9417 93.6719 96.8052 105.837 109.896C107.323 111.532 108.81 113.169 110.297 114.805C110.432 114.941 110.567 114.805 110.973 114.941C111.378 109.487 111.919 104.169 112.054 98.7142C112.324 93.3961 112.865 87.9417 112.054 82.7599C111.243 77.7145 109.08 72.8055 107.053 68.1692C102.187 57.2602 96.5103 46.624 89.3467 36.9423C89.0763 36.5332 88.806 35.8514 88.6708 35.306C88.9412 35.0332 89.2115 34.8969 89.4818 34.6242C91.1038 36.5332 93.1312 38.1696 94.4828 40.215C99.619 48.5331 104.62 56.8511 109.756 65.1692C110.432 66.2601 111.108 67.2147 111.784 68.1692C112.054 68.1692 112.324 68.0328 112.595 68.0328C112.054 59.5784 111.784 51.1239 110.973 42.6695C110.297 34.2151 109.216 25.897 108.269 17.5789C107.323 9.26085 106.361 9.39722 105.272 0.337539C105.812 0.201177 106.353 0.201181 106.893 0.0648193C111.894 11.5192 111.243 16.6244 113.406 29.7151C117.19 21.6698 121.245 14.7153 127.462 9.39722C127.733 9.66994 128.138 9.8063 128.409 10.079C127.868 11.0336 127.192 11.9881 126.651 13.079C123.408 19.2153 120.029 25.2152 117.055 31.4878C114.622 36.3969 115.163 41.8513 115.703 47.1695C116.785 57.8057 118.001 68.3055 119.218 78.9418C119.218 79.0781 119.488 79.3509 119.758 79.6236C121.65 77.3054 123.272 74.9873 125.3 72.9418C130.571 67.6237 135.843 62.3056 141.249 56.9875C150.305 48.2603 156.436 41.5051 159.545 28.9598C159.68 28.4143 160.129 26.5283 161.21 26.9171C162.291 27.306 161.302 32.2325 160.491 34.4142C156.841 44.9141 152.468 50.9876 144.087 58.2148C135.437 65.5783 128.273 74.0327 122.461 83.8508C120.704 86.8508 119.623 89.9871 119.758 93.6688C120.299 109.896 118.947 126.123 117.325 142.214C116.92 146.577 117.325 150.941 117.325 156.532C123.137 151.214 128.544 146.577 133.68 141.805C135.843 139.759 137.6 137.032 139.762 134.85C145.304 129.123 147.872 121.759 147.602 114.259C147.196 104.169 146.385 93.9416 142.871 84.2599C142.601 83.4417 142.33 82.6235 142.06 81.8054C142.06 81.669 142.195 81.3963 142.465 80.7145C147.467 87.8053 148.548 95.987 149.764 104.032C150.035 104.032 150.305 104.032 150.575 104.032C152.197 94.487 153.684 84.9417 155.306 75.3964C155.711 75.3964 155.982 75.5327 156.387 75.5327C156.387 89.4416 152.873 102.941 151.792 116.714C164.092 99.1233 174.229 80.0327 184.096 60.942C184.636 61.2147 185.042 61.3511 185.582 61.6238C185.312 62.7147 185.042 63.8056 184.636 64.7601C178.148 80.8508 169.768 95.987 160.307 110.578C152.738 122.305 144.898 133.896 136.518 145.077C131.247 152.168 124.759 158.441 118.947 165.122C118.001 166.213 117.055 167.85 117.055 169.213C116.785 183.94 116.785 198.667 119.893 213.258C120.029 214.213 120.299 215.167 120.434 216.122C120.569 216.395 120.84 216.667 120.975 217.076C124.624 193.486 135.572 168.941 141.925 165.395C138.681 173.441 135.032 181.486 132.328 189.804C129.625 197.986 127.733 206.576 125.57 215.031C125.841 215.167 126.246 215.304 126.651 215.44C127.733 214.485 128.814 213.531 129.76 212.44C137.735 203.031 147.196 195.395 156.928 188.031C158.685 186.668 160.172 184.622 161.118 182.577C165.984 172.077 167.471 160.486 169.903 149.304C172.607 136.623 177.608 125.032 185.717 114.941C186.258 114.123 186.528 113.032 186.934 112.214C187.475 112.623 188.015 113.032 188.556 113.441C188.015 114.941 187.745 116.714 186.799 118.078C176.526 132.668 174.364 149.85 170.85 166.759C169.903 171.259 168.822 175.622 167.741 180.395C198.288 165.941 219.643 143.441 229.105 110.032C229.51 110.169 229.916 110.305 230.321 110.578C230.321 111.941 230.456 113.305 230.321 114.532C228.564 124.896 224.239 134.305 218.427 143.032C216.129 146.441 213.831 149.986 211.263 153.941C224.239 152.032 234.917 144.123 247.487 142.759C247.757 143.032 247.892 143.441 248.163 143.714C247.216 144.532 246.27 145.486 245.189 145.895C233.295 150.532 221.4 155.032 209.506 159.668C208.019 160.213 206.397 160.759 205.181 161.713C191.665 173.304 176.797 182.986 161.794 192.395C146.656 201.804 134.896 214.622 125.3 229.485C124.489 230.713 124.219 232.758 124.624 234.258C126.787 241.758 129.084 249.121 131.517 256.621C131.788 257.576 132.463 258.53 132.328 259.485C132.193 261.394 133.274 263.985 130.301 264.667C126.516 265.621 123.948 264.53 123.272 261.394C118.947 243.121 114.892 224.713 110.567 206.44C110.162 204.667 109.08 202.758 107.864 201.531C104.35 198.122 100.565 194.849 96.9158 191.577C94.7532 189.668 92.4554 188.713 89.4818 188.849C82.5885 189.395 75.8304 189.94 68.9371 190.486C63.2603 190.895 57.7186 191.168 52.0418 191.849C49.4737 192.122 46.9056 192.395 44.6079 193.349C36.0926 196.622 27.8477 200.167 19.3325 203.44C17.0347 204.395 14.737 205.622 11.4931 204.531C21.0896 200.167 30.1455 196.077 39.0662 192.122C25.55 189.804 13.3853 185.031 2.97783 175.895C3.11299 175.622 3.24815 175.35 3.24815 175.213C7.43818 177.395 11.4931 179.713 15.6831 181.895C27.4422 187.759 40.0123 189.395 52.9879 188.44C64.7471 187.486 76.5062 186.395 88.9412 185.168C87.0489 183.668 85.5621 182.168 83.805 180.94C81.3721 179.304 78.9392 177.531 76.3711 176.168C66.0987 170.85 56.9076 166.35 47.8518 161.441Z" fill="#B9BFA9"/>
</svg>
