<svg width="36" height="36" viewBox="0 0 36 36" fill="none" xmlns="http://www.w3.org/2000/svg">
<circle cx="18" cy="18" r="17.5" fill="white" stroke="#20E2D7"/>
<path fill-rule="evenodd" clip-rule="evenodd" d="M18 7C11.925 7 7 11.925 7 18C7 24.075 11.925 29 18 29C24.075 29 29 24.075 29 18C29 11.925 24.075 7 18 7ZM16.892 14.935C17.122 14.482 17.292 14.267 17.433 14.155C17.539 14.071 17.683 14 18 14C18.625 14 19 14.47 19 14.978C19 15.256 18.946 15.394 18.798 15.57C18.591 15.816 18.208 16.115 17.45 16.616L17 16.912V19C17 19.2652 17.1054 19.5196 17.2929 19.7071C17.4804 19.8946 17.7348 20 18 20C18.2652 20 18.5196 19.8946 18.7071 19.7071C18.8946 19.5196 19 19.2652 19 19V17.983C19.542 17.609 19.997 17.251 20.327 16.859C20.804 16.293 21 15.689 21 14.978C21 13.508 19.867 12 18 12C17.316 12 16.711 12.176 16.192 12.587C15.708 12.97 15.378 13.497 15.108 14.032C15.0453 14.1495 15.0066 14.2783 14.9943 14.4109C14.982 14.5435 14.9964 14.6772 15.0365 14.8042C15.0766 14.9312 15.1416 15.0489 15.2278 15.1504C15.314 15.2519 15.4196 15.3352 15.5385 15.3953C15.6573 15.4555 15.7869 15.4913 15.9198 15.5006C16.0526 15.51 16.186 15.4927 16.3121 15.4499C16.4381 15.407 16.5544 15.3394 16.654 15.2509C16.7536 15.1625 16.8345 15.0551 16.892 14.935ZM19 22.5C19 22.2348 18.8946 21.9804 18.7071 21.7929C18.5196 21.6054 18.2652 21.5 18 21.5C17.7348 21.5 17.4804 21.6054 17.2929 21.7929C17.1054 21.9804 17 22.2348 17 22.5V23C17 23.2652 17.1054 23.5196 17.2929 23.7071C17.4804 23.8946 17.7348 24 18 24C18.2652 24 18.5196 23.8946 18.7071 23.7071C18.8946 23.5196 19 23.2652 19 23V22.5Z" fill="#20E2D7"/>
</svg>
