<svg width="39" height="25" viewBox="0 0 39 25" fill="none" xmlns="http://www.w3.org/2000/svg">
<path d="M38.9088 16.171C39.7132 11.325 34.9987 9.66486 32.5409 9.44051C31.9822 8.43091 31.6693 6.61358 29.5244 4.72909C27.3794 2.84461 22.5978 3.27091 21.1455 4.05611C20.5869 2.59784 18.3972 -0.251408 14.1072 0.0178123C9.81726 0.287032 8.2979 4.84133 8.07446 7.08483C5.05807 6.18743 0.541462 8.4308 0.0307465 13.8153C-0.479965 19.1997 5.50494 21.6676 8.07446 21.2189C8.2979 22.2284 9.61617 24.3822 13.1018 24.9206C16.5874 25.4591 18.7994 23.1258 19.4697 21.8919C20.4752 22.565 21.1655 24.6495 25.1673 24.2476C28.5189 23.911 29.1892 22.004 30.1947 20.5458C32.5408 21.2188 38.1044 21.017 38.9088 16.171Z" fill="#F0EEEE"/>
</svg>
