<svg width="85" height="32" viewBox="0 0 85 32" fill="none" xmlns="http://www.w3.org/2000/svg">
<path d="M9.87481 15.8634C12.5919 13.8496 13.8716 11.0424 17.1672 10.8648C19.3023 10.7514 21.5671 10.7363 23.3762 9.50839C25.8549 7.82709 28.9086 6.60295 31.1734 4.60428C33.028 2.96832 35.5278 2.53762 37.8978 2.16358C41.7719 1.55151 45.6494 0.939447 49.5235 0.331156C50.9469 0.108242 52.3878 -0.118474 53.8147 0.070436C59.0526 0.75807 62.4884 6.59162 67.551 8.19358C69.9421 8.94922 72.5961 8.71496 74.8153 9.93154C77.6867 11.4995 79.0856 15.0624 79.7868 18.4514C80.2145 20.5257 84.0956 21.7271 84.9721 25.8416C85.3086 26.6501 82.5074 25.46 81.8027 25.9172C81.098 26.3743 80.2355 26.4348 79.4151 26.4801C59.4284 32.1698 49.017 32.422 28.3635 31.723C25.8673 31.6399 1.8883 28.679 0.251023 26.2194C-1.6527 23.3555 7.83085 17.3746 9.87481 15.8634Z" fill="#B8AB91"/>
</svg>
