<svg width="36" height="36" viewBox="0 0 36 36" fill="none" xmlns="http://www.w3.org/2000/svg">
<circle cx="18" cy="18" r="17.5" fill="white" stroke="#20E2D7"/>
<g clip-path="url(#clip0)">
<path d="M19 9C21.5 9 23.625 9.8912 25.375 11.6736C27.125 13.456 28 15.6204 28 18.1667C28 20.713 27.125 22.8773 25.375 24.6597C23.625 26.4421 21.5 27.3333 19 27.3333C16.5312 27.3333 14.4062 26.4421 12.625 24.6597L14.0781 23.1797C15.4219 24.5802 17.0625 25.2804 19 25.2804C20.9375 25.2804 22.5859 24.5881 23.9453 23.2036C25.3047 21.819 25.9844 20.14 25.9844 18.1667C25.9844 16.1933 25.3047 14.5143 23.9453 13.1298C22.5859 11.7452 20.9375 11.053 19 11.053C17.0625 11.053 15.4141 11.7452 14.0547 13.1298C12.6953 14.5143 12.0156 16.1933 12.0156 18.1667H15.0156L10.9375 22.2726L10.8906 22.1293L7 18.1667H10C10 15.6204 10.875 13.456 12.625 11.6736C14.375 9.8912 16.5 9 19 9ZM18.0156 14.1085H19.5156V18.4054L22.9844 20.5538L22.2812 21.7951L18.0156 19.1693V14.1085Z" fill="#20E2D7"/>
</g>
<defs>
<clipPath id="clip0">
<rect width="21" height="18.3333" fill="white" transform="translate(7 9)"/>
</clipPath>
</defs>
</svg>
