<svg width="36" height="36" viewBox="0 0 36 36" fill="none" xmlns="http://www.w3.org/2000/svg">
<circle cx="18" cy="18" r="17.5" fill="white" stroke="#20E2D7"/>
<path d="M10.8442 10.625C9.99894 10.625 9.3125 11.3114 9.3125 12.1567V16.0994C9.31241 16.8343 9.46029 17.5616 9.74732 18.238C10.0343 18.9145 10.4547 19.5262 10.9832 20.0367C11.5117 20.5472 12.1376 20.9461 12.8236 21.2095C13.5096 21.4729 14.2416 21.5955 14.9759 21.5699C14.7014 20.7949 14.5616 19.9785 14.5625 19.1563C14.5625 18.4423 14.6675 17.7519 14.8591 17.0996L13.4416 15.6821C13.3789 15.6215 13.329 15.5491 13.2946 15.4691C13.2602 15.389 13.2421 15.3029 13.2413 15.2157C13.2405 15.1286 13.2572 15.0422 13.2901 14.9615C13.3231 14.8809 13.3719 14.8076 13.4335 14.746C13.4951 14.6844 13.5684 14.6356 13.649 14.6027C13.7297 14.5697 13.8161 14.5531 13.9032 14.5538C13.9904 14.5546 14.0765 14.5727 14.1565 14.6071C14.2366 14.6415 14.309 14.6914 14.3696 14.7541L15.3986 15.7818C16.1707 14.3249 17.4166 13.1749 18.9305 12.5216C18.4171 11.9257 17.7811 11.4478 17.066 11.1205C16.3508 10.7931 15.5734 10.6241 14.7869 10.625H10.8442Z" fill="#20E2D7"/>
<path d="M17.1669 22.8444L14.8268 25.1859C14.7037 25.3091 14.6346 25.4762 14.6348 25.6503C14.6349 25.8245 14.7042 25.9914 14.8274 26.1145C14.9506 26.2375 15.1177 26.3066 15.2918 26.3065C15.466 26.3063 15.633 26.237 15.756 26.1138L18.0962 23.771C18.9652 24.4649 20.0124 24.8994 21.1174 25.0245C22.2224 25.1496 23.3402 24.9601 24.3423 24.478C25.3444 23.9959 26.1901 23.2406 26.7819 22.2992C27.3738 21.3577 27.6878 20.2683 27.6879 19.1562V14.8604C27.6879 13.9719 26.9661 13.25 26.0775 13.25H21.7817C20.6692 13.2497 19.5792 13.5636 18.6373 14.1556C17.6954 14.7476 16.9398 15.5936 16.4576 16.5962C15.9753 17.5987 15.7861 18.7171 15.9116 19.8225C16.0371 20.9279 16.4722 21.9754 17.1669 22.8444ZM22.2503 19.6143L19.0294 22.8352C18.6774 22.5712 18.3649 22.2583 18.1014 21.9059L21.3223 18.6864C21.3829 18.6237 21.4553 18.5737 21.5353 18.5393C21.6154 18.5049 21.7015 18.4868 21.7886 18.4861C21.8758 18.4853 21.9622 18.5019 22.0429 18.5349C22.1235 18.5679 22.1968 18.6166 22.2584 18.6782C22.32 18.7399 22.3687 18.8131 22.4017 18.8938C22.4347 18.9744 22.4513 19.0608 22.4506 19.148C22.4498 19.2351 22.4317 19.3212 22.3973 19.4013C22.3629 19.4814 22.3129 19.5538 22.2503 19.6143Z" fill="#20E2D7"/>
</svg>
