<svg width="61" height="91" viewBox="0 0 61 91" fill="none" xmlns="http://www.w3.org/2000/svg">
<path d="M2.66633 5.00501H2.66652H57.6995C58.1517 5.0057 58.5904 5.13836 58.9559 5.38178C59.3212 5.625 59.594 5.96567 59.7422 6.35418C59.8249 6.5714 59.8667 6.7999 59.8663 7.02962V7.03049V47.0283C59.8655 47.5564 59.6439 48.0686 59.2404 48.4507C58.836 48.8338 58.2822 49.0537 57.6992 49.0545H2.66718C2.08417 49.0537 1.53037 48.8338 1.12594 48.4507C0.722506 48.0686 0.500889 47.5566 0.5 47.0286L0.5 7.02875C0.5 7.02873 0.5 7.02857 0.5 7.02855C0.500117 6.76659 0.554667 6.50665 0.661319 6.26306C0.768015 6.01936 0.925136 5.79613 1.12511 5.60688C1.32515 5.41757 1.56405 5.26609 1.82883 5.16233C2.09364 5.05856 2.3783 5.0049 2.66633 5.00501Z" fill="white" stroke="#C7C7C7"/>
<path d="M23.4257 9.16106V15.1656C23.4257 15.2057 23.397 15.2442 23.3459 15.2725C23.2949 15.3009 23.2256 15.3168 23.1533 15.3168H4.77741C4.76433 15.3169 4.75126 15.3163 4.73836 15.3151C4.67354 15.31 4.61425 15.292 4.57137 15.2645C4.52849 15.2371 4.50488 15.202 4.50488 15.1656V9.16106C4.50487 9.14121 4.51191 9.12156 4.52559 9.10322C4.53927 9.08489 4.55932 9.06822 4.58461 9.05419C4.6099 9.04015 4.63993 9.02901 4.67298 9.02141C4.70603 9.01381 4.74145 9.00989 4.77723 9.00989H23.1531C23.1889 9.00988 23.2243 9.01378 23.2574 9.02137C23.2905 9.02896 23.3205 9.04009 23.3458 9.05411C23.3711 9.06814 23.3912 9.0848 23.4049 9.10313C23.4186 9.12146 23.4257 9.14111 23.4257 9.16096V9.16106Z" fill="#E6E6E6"/>
<path d="M55.8615 9.16106V15.1656C55.8615 15.2057 55.8178 15.2442 55.74 15.2725C55.6622 15.3009 55.5566 15.3168 55.4465 15.3168H27.4451C27.4251 15.3169 27.4052 15.3163 27.3856 15.3151C27.2868 15.31 27.1964 15.292 27.1311 15.2645C27.0658 15.2371 27.0298 15.202 27.0298 15.1656V9.16106C27.0298 9.14121 27.0405 9.12156 27.0613 9.10322C27.0822 9.08489 27.1127 9.06822 27.1513 9.05419C27.1898 9.04015 27.2356 9.02901 27.2859 9.02141C27.3363 9.01381 27.3903 9.00989 27.4448 9.00989H55.4462C55.5007 9.00988 55.5547 9.01378 55.6051 9.02137C55.6554 9.02896 55.7012 9.04009 55.7398 9.05411C55.7783 9.06814 55.8089 9.0848 55.8298 9.10313C55.8507 9.12146 55.8615 9.14111 55.8615 9.16096V9.16106Z" fill="#E6E6E6"/>
<path d="M55.8613 18.063V19.7786C55.8614 19.79 55.7835 19.801 55.6449 19.8091C55.5063 19.8172 55.3182 19.8218 55.1221 19.8218H5.24461C5.2091 19.8218 5.17363 19.8216 5.1386 19.8213C4.96266 19.8198 4.80174 19.8147 4.68535 19.8068C4.56896 19.799 4.50489 19.7889 4.50488 19.7786V18.063C4.50485 18.0573 4.52394 18.0517 4.56108 18.0464C4.59821 18.0412 4.65265 18.0364 4.72129 18.0324C4.78994 18.0284 4.87144 18.0252 4.96114 18.0231C5.05085 18.0209 5.147 18.0198 5.24411 18.0198H55.1216C55.2187 18.0198 55.3149 18.0209 55.4046 18.0231C55.4943 18.0252 55.5759 18.0284 55.6446 18.0324C55.7132 18.0364 55.7677 18.0412 55.8049 18.0464C55.8421 18.0517 55.8613 18.0573 55.8613 18.0629V18.063Z" fill="#E6E6E6"/>
<path d="M55.8613 22.568V24.2836C55.8614 24.295 55.7835 24.306 55.6449 24.3141C55.5063 24.3222 55.3182 24.3268 55.1221 24.3268H5.24461C5.2091 24.3268 5.17363 24.3266 5.1386 24.3263C4.96266 24.3248 4.80174 24.3197 4.68535 24.3118C4.56896 24.304 4.50489 24.2939 4.50488 24.2836V22.568C4.50485 22.5623 4.52394 22.5567 4.56108 22.5514C4.59821 22.5462 4.65265 22.5414 4.72129 22.5374C4.78994 22.5334 4.87144 22.5302 4.96114 22.5281C5.05085 22.5259 5.147 22.5248 5.24411 22.5248H55.1216C55.2187 22.5248 55.3149 22.5259 55.4046 22.5281C55.4943 22.5302 55.5759 22.5334 55.6446 22.5374C55.7132 22.5414 55.7677 22.5462 55.8049 22.5514C55.8421 22.5567 55.8613 22.5623 55.8613 22.5679V22.568Z" fill="#E6E6E6"/>
<path d="M21.6237 26.1719V27.8874C21.6237 27.8989 21.5978 27.9099 21.5516 27.918C21.5054 27.9261 21.4427 27.9306 21.3773 27.9306H4.75146C4.73962 27.9307 4.7278 27.9305 4.71612 27.9302C4.65747 27.9287 4.60384 27.9235 4.56504 27.9157C4.52624 27.9079 4.50488 27.8978 4.50488 27.8874V26.1719C4.50487 26.1662 4.51124 26.1606 4.52361 26.1553C4.53599 26.1501 4.55414 26.1453 4.57702 26.1413C4.5999 26.1373 4.62707 26.1341 4.65697 26.132C4.68687 26.1298 4.71892 26.1287 4.75129 26.1287H21.3771C21.4095 26.1287 21.4415 26.1298 21.4715 26.1319C21.5014 26.1341 21.5285 26.1373 21.5514 26.1413C21.5743 26.1453 21.5925 26.1501 21.6049 26.1553C21.6173 26.1605 21.6237 26.1662 21.6237 26.1718V26.1719Z" fill="#E6E6E6"/>
<path d="M21.6237 36.9621V37.8199C21.6237 37.8257 21.5978 37.8312 21.5516 37.8352C21.5054 37.8393 21.4427 37.8415 21.3773 37.8415H4.75146C4.73962 37.8415 4.7278 37.8415 4.71612 37.8413C4.65747 37.8406 4.60384 37.838 4.56504 37.8341C4.52624 37.8302 4.50488 37.8251 4.50488 37.8199V36.9621C4.50487 36.9593 4.51124 36.9565 4.52361 36.9539C4.53599 36.9513 4.55414 36.9489 4.57702 36.9469C4.5999 36.9449 4.62707 36.9433 4.65697 36.9422C4.68687 36.9411 4.71892 36.9406 4.75129 36.9406H21.3771C21.4095 36.9406 21.4415 36.9411 21.4715 36.9422C21.5014 36.9433 21.5285 36.9449 21.5514 36.9469C21.5743 36.9489 21.5925 36.9513 21.6049 36.9539C21.6173 36.9565 21.6237 36.9593 21.6237 36.9621V36.9621Z" fill="#E6E6E6"/>
<path d="M50.4554 41.4672V42.3249C50.4554 42.3307 50.3858 42.3362 50.2618 42.3402C50.1377 42.3443 49.9695 42.3465 49.794 42.3465H5.16674C5.13497 42.3466 5.10324 42.3465 5.07189 42.3463C4.91447 42.3456 4.77049 42.343 4.66635 42.3391C4.56221 42.3352 4.50489 42.3301 4.50488 42.325V41.4672C4.50485 41.4643 4.52194 41.4615 4.55516 41.4589C4.58838 41.4563 4.6371 41.4539 4.69851 41.4519C4.75993 41.4499 4.83285 41.4483 4.91311 41.4472C4.99338 41.4461 5.07941 41.4456 5.16629 41.4456H49.7935C49.8804 41.4456 49.9664 41.4461 50.0467 41.4472C50.127 41.4483 50.2 41.4499 50.2614 41.4519C50.3229 41.4539 50.3717 41.4563 50.4049 41.4589C50.4382 41.4615 50.4553 41.4643 50.4554 41.4671V41.4672Z" fill="#E6E6E6"/>
<path d="M28.8311 88.297L26.3892 88.2968L25.2275 77.4851L28.8315 77.4853L28.8311 88.297Z" fill="#FFB8B8"/>
<path d="M29.7325 91L19.8218 90.9996V90.8862C19.8218 90.4279 19.9215 89.974 20.1154 89.5505C20.3093 89.1271 20.5934 88.7423 20.9516 88.4182C21.3098 88.0941 21.7351 87.837 22.2031 87.6616C22.6711 87.4862 23.1727 87.396 23.6793 87.396H23.6796L29.7327 87.3962L29.7325 91Z" fill="#2F2E41"/>
<path d="M37.8414 88.297L35.3994 88.2968L34.2378 77.4851L37.8418 77.4853L37.8414 88.297Z" fill="#FFB8B8"/>
<path d="M38.7425 91L30.6338 90.9996V90.8862C30.6338 90.4279 30.7154 89.974 30.874 89.5505C31.0326 89.1271 31.2651 88.7423 31.5582 88.4182C31.8513 88.0941 32.1992 87.837 32.5821 87.6616C32.9651 87.4862 33.3755 87.396 33.79 87.396H33.7902L38.7427 87.3962L38.7425 91Z" fill="#2F2E41"/>
<path d="M34.8206 83.8455L31.0205 56.9975C31.0099 56.9231 30.9736 56.8545 30.9177 56.8032C30.8618 56.7519 30.7896 56.721 30.7132 56.7157C30.6369 56.7105 30.561 56.7311 30.4983 56.7742C30.4356 56.8173 30.3899 56.8803 30.3688 56.9525L27.823 65.6874C27.6305 66.3456 27.5675 67.0338 27.6372 67.7151L29.6843 83.5012C29.6978 83.6346 29.6834 83.7693 29.6419 83.897C29.6004 84.0247 29.5328 84.1428 29.4431 84.2439C29.3535 84.345 29.2437 84.4271 29.1206 84.485C28.9974 84.543 28.8635 84.5756 28.727 84.5809L26.1211 84.6639C25.8813 84.6731 25.6461 84.5976 25.4583 84.4509C25.2706 84.3043 25.1427 84.0963 25.0981 83.8649L21.7978 66.7969C21.6145 65.8494 21.5755 64.8805 21.6821 63.9218L24.1786 41.4456L36.6137 41.8873L36.6431 41.9455C40.3991 49.3495 39.7926 65.8224 39.2061 81.7529L39.133 83.745C39.1247 83.9996 39.0156 84.241 38.8288 84.4179C38.642 84.5948 38.3923 84.6933 38.1328 84.6924L35.8128 84.6931H35.8123C35.5708 84.6922 35.3378 84.6061 35.1557 84.4505C34.9736 84.2948 34.8546 84.0801 34.8206 83.8455Z" fill="#2F2E41"/>
<path d="M34.2375 18.9208C37.2231 18.9208 39.6434 16.5004 39.6434 13.5148C39.6434 10.5292 37.2231 8.10889 34.2375 8.10889C31.2519 8.10889 28.8315 10.5292 28.8315 13.5148C28.8315 16.5004 31.2519 18.9208 34.2375 18.9208Z" fill="#FFB8B8"/>
<path d="M23.6544 41.9914C23.5615 41.8804 23.4943 41.7504 23.4577 41.6105C23.4211 41.4707 23.4159 41.3246 23.4426 41.1825L26.4454 25.0708L27.157 23.5632C27.7497 22.3056 28.7312 21.2699 29.9578 20.6079C31.1843 19.9459 32.5915 19.6923 33.9734 19.8841C34.9432 20.016 35.8711 20.3624 36.6889 20.8979C37.5068 21.4334 38.1939 22.1444 38.6998 22.9788C39.2057 23.8131 39.5176 24.7497 39.6126 25.7197C39.7077 26.6898 39.5834 27.6687 39.2489 28.5846L36.0092 37.4573L36.5609 41.2197C36.5814 41.3595 36.5714 41.5021 36.5316 41.6378C36.4919 41.7734 36.4232 41.899 36.3304 42.0059C36.2376 42.1128 36.1227 42.1985 35.9936 42.2573C35.8646 42.3161 35.7243 42.3465 35.5824 42.3465H24.4148C24.2696 42.3467 24.1262 42.315 23.9947 42.2536C23.8633 42.1922 23.7471 42.1027 23.6544 41.9914Z" fill="#20E2D7"/>
<path d="M48.3759 53.0906C48.0334 53.0093 47.7125 52.8521 47.4358 52.6301C47.159 52.4082 46.9333 52.127 46.7744 51.8061C46.6154 51.4853 46.5272 51.1328 46.5159 50.7733C46.5047 50.4139 46.5706 50.0563 46.709 49.7257L37.8418 29.2373L42.9143 27.9307L50.0355 48.481C50.5631 48.7557 50.9738 49.2188 51.1899 49.7825C51.4059 50.3462 51.4123 50.9714 51.2077 51.5396C51.0031 52.1078 50.6019 52.5796 50.08 52.8654C49.5581 53.1513 48.9517 53.2314 48.3759 53.0906V53.0906Z" fill="#FFB8B8"/>
<path d="M38.2542 33.2451C38.125 33.1838 38.0098 33.0935 37.9164 32.9805C37.823 32.8675 37.7537 32.7345 37.7132 32.5905L36.2971 27.5609C35.9904 26.8645 35.9562 26.0675 36.202 25.3445C36.4478 24.6214 36.9535 24.0313 37.6084 23.7034C38.2632 23.3754 39.0138 23.3365 39.6956 23.595C40.3775 23.8535 40.935 24.3884 41.2461 25.0826L43.9847 29.4737C44.0629 29.5991 44.1147 29.7408 44.1366 29.8893C44.1585 30.0378 44.15 30.1895 44.1117 30.3342C44.0734 30.4789 44.0061 30.6132 43.9145 30.7278C43.823 30.8424 43.7092 30.9347 43.581 30.9984L39.0746 33.2379C38.9464 33.3017 38.8068 33.3354 38.6652 33.3366C38.5236 33.3379 38.3834 33.3067 38.2542 33.2451Z" fill="#20E2D7"/>
<path d="M11.8245 1.68457C11.7199 2.01709 11.6883 2.36887 11.7319 2.71514C11.7756 3.06142 11.8934 3.39376 12.0771 3.68875C12.2608 3.98374 12.5058 4.23421 12.7951 4.42252C13.0843 4.61083 13.4106 4.7324 13.7511 4.77866L26.1234 22.5248L29.7327 18.8489L16.4362 2.56095C16.4748 1.9745 16.3003 1.39404 15.9459 0.929586C15.5915 0.465128 15.0818 0.148929 14.5134 0.0409044C13.9449 -0.0671202 13.3572 0.0405375 12.8616 0.343474C12.3661 0.646411 11.997 1.12358 11.8245 1.68457Z" fill="#FFB8B8"/>
<path d="M23.8788 19.3769L28.1924 16.3987C28.3151 16.3139 28.4544 16.2572 28.6006 16.2322C28.7468 16.2073 28.8965 16.2147 29.0396 16.2541C29.1828 16.2934 29.3159 16.3638 29.4299 16.4603C29.544 16.5568 29.6363 16.6773 29.7005 16.8134L31.9519 21.5847C32.3736 22.2272 32.5282 23.014 32.3817 23.7725C32.2353 24.531 31.7997 25.1993 31.1705 25.631C30.5413 26.0627 29.7698 26.2224 29.0253 26.0752C28.2807 25.928 27.6238 25.4859 27.1986 24.8458L23.6972 20.9582C23.597 20.8469 23.5215 20.7149 23.4759 20.5711C23.4302 20.4273 23.4155 20.2752 23.4328 20.1252C23.45 19.9751 23.4988 19.8306 23.5758 19.7014C23.6527 19.5723 23.7561 19.4616 23.8788 19.3769V19.3769Z" fill="#20E2D7"/>
<path d="M31.9412 12.3029C30.8352 13.5774 29.3157 14.9865 27.6948 14.3541C26.6304 13.9388 26.0421 12.8118 26.1393 11.6639C26.3142 9.5996 27.905 8.29882 29.4664 7.21318C31.4961 5.80185 33.7682 4.50887 36.2327 4.50501C38.6972 4.50115 41.316 6.23319 41.5012 8.71453C41.6502 10.71 40.2706 12.7597 41.0117 14.6156C41.7576 16.4834 44.1701 16.9435 46.1594 16.7968C48.1487 16.65 50.3048 16.21 52.0216 17.2352C54.2118 18.543 54.5751 21.8002 53.4066 24.0824C52.238 26.3646 49.9765 27.8476 47.7232 29.0411C44.7377 30.6224 41.4016 31.9111 38.0635 31.4341C34.7255 30.9571 31.5161 28.1775 31.5835 24.7742C31.612 23.3366 32.194 21.9772 32.7544 20.6554C33.3148 19.3336 33.873 17.9586 33.8497 16.521C33.8302 15.3229 33.2995 14.0635 32.343 13.4088C32.1705 13.2955 32.038 13.1299 31.9645 12.9358C31.8911 12.7418 31.8804 12.5292 31.934 12.3286L31.9412 12.3029Z" fill="#2F2E41"/>
</svg>
