<svg width="375" height="308" viewBox="0 0 375 308" fill="none" xmlns="http://www.w3.org/2000/svg">
<g clip-path="url(#clip0)" filter="url(#filter0_d)">
<rect width="375" height="342" fill="#F7FFFF"/>
<rect x="-7" y="258" width="385" height="50" fill="#E6FFF1"/>
<path opacity="0.3" fill-rule="evenodd" clip-rule="evenodd" d="M355.398 137.579V159.227H375V258H319.243H243.013H202.502H146.745H90.9874H35.2304H-41V125.739H-27.9319V100.708H21.7267V125.739H35.2304V200.834H52.6544V176.479H73.5634V200.834H90.9874V159.227H91.8586V137.579H108.412V159.227H146.745V191.701H168.089V181.553H181.157V191.701H202.502V95.634H230.38V80.4122H235.172V95.634H243.013V125.739H256.952V100.708H268.713V75H293.107V100.708H304.868V125.739H319.243V159.227H338.845V137.579H355.398Z" fill="#3EEDE3"/>
<path opacity="0.4" d="M8.22302 149.578H26.5183V139.138H8.22302V149.578Z" fill="white"/>
<path opacity="0.4" d="M8.22302 170.021H26.5183V159.582H8.22302V170.021Z" fill="white"/>
<path opacity="0.4" d="M8.22302 190.465H26.5183V180.026H8.22302V190.465Z" fill="white"/>
<path opacity="0.4" d="M8.22302 210.909H26.5183V200.469H8.22302V210.909Z" fill="white"/>
<path opacity="0.4" d="M8.22302 231.353H26.5183V220.913H8.22302V231.353Z" fill="white"/>
<path opacity="0.4" d="M84.4534 210.909H41.7644V216.129H84.4534V210.909Z" fill="white"/>
<path opacity="0.4" d="M195.968 197.86H153.279V203.079H195.968V197.86Z" fill="white"/>
<path opacity="0.4" d="M195.968 205.689H153.279V210.909H195.968V205.689Z" fill="white"/>
<path opacity="0.4" d="M195.968 213.519H153.279V218.738H195.968V213.519Z" fill="white"/>
<path opacity="0.4" d="M84.4534 218.738H41.7644V223.958H84.4534V218.738Z" fill="white"/>
<path opacity="0.4" d="M84.4534 226.568H41.7644V231.788H84.4534V226.568Z" fill="white"/>
<path opacity="0.4" d="M84.4534 234.398H41.7644V239.617H84.4534V234.398Z" fill="white"/>
<path opacity="0.4" d="M125.836 156.537H137.597V141.313H125.836V156.537Z" fill="white"/>
<path opacity="0.4" d="M111.896 165.672H100.135V180.896H111.896V165.672Z" fill="white"/>
<path opacity="0.4" d="M125.836 180.896H137.597V165.672H125.836V180.896Z" fill="white"/>
<path opacity="0.4" d="M111.896 190.03H100.135V205.254H111.896V190.03Z" fill="white"/>
<path opacity="0.4" d="M125.836 205.254H137.597V190.03H125.836V205.254Z" fill="white"/>
<path opacity="0.4" d="M111.896 214.389H100.135V229.613H111.896V214.389Z" fill="white"/>
<path opacity="0.4" d="M125.836 229.613H137.597V214.389H125.836V229.613Z" fill="white"/>
<path opacity="0.4" d="M218.183 59.5378H202.501V79.5467H218.183V59.5378Z" fill="white"/>
<path opacity="0.4" d="M218.183 116.954H202.501V136.963H218.183V116.954Z" fill="white"/>
<path opacity="0.4" d="M218.183 145.663H202.501V165.672H218.183V145.663Z" fill="white"/>
<path opacity="0.4" d="M218.183 174.371H202.501V194.38H218.183V174.371Z" fill="white"/>
<path opacity="0.4" d="M218.183 203.079H202.501V223.088H218.183V203.079Z" fill="white"/>
<path opacity="0.4" d="M310.531 136.963H252.16V153.927H310.531V136.963Z" fill="white"/>
<path opacity="0.4" d="M310.749 173.501H252.378V190.465H310.749V173.501Z" fill="white"/>
<path opacity="0.4" d="M310.966 210.039H252.596V227.003H310.966V210.039Z" fill="white"/>
<path opacity="0.4" d="M375 177.851H355.398V203.079H375V177.851Z" fill="white"/>
<path opacity="0.4" d="M375 214.389H355.398V239.617H375V214.389Z" fill="white"/>
<path d="M-19.3637 231.592C-19.3637 231.592 -53.6586 252.253 9.56029 284.063C9.56029 284.063 23.4996 258.243 8.08796 237.19C5.09894 233.086 0.706474 230.22 -4.25734 229.134C-9.22116 228.047 -14.4116 228.817 -18.8453 231.296L-19.3637 231.592Z" fill="#20E2D7"/>
<path d="M-18.9673 231.157C-18.9673 231.157 10.3792 253.58 9.5603 284.063" stroke="#535461" stroke-miterlimit="10"/>
<path d="M11.1546 285.237C11.1546 285.237 0.408305 248.804 13.1714 221.988C18.5294 210.735 20.3066 198.099 17.8324 185.885C16.6493 180.086 14.936 174.407 12.7141 168.921" stroke="#535461" stroke-width="2" stroke-miterlimit="10"/>
<path d="M20.6378 151.996C20.6378 156.463 12.54 169.395 12.54 169.395C12.54 169.395 4.44212 156.446 4.44212 151.996C4.41709 150.919 4.60798 149.847 5.00358 148.844C5.39918 147.842 5.9915 146.928 6.74573 146.157C7.49996 145.387 8.40088 144.774 9.39554 144.356C10.3902 143.938 11.4586 143.722 12.5378 143.722C13.617 143.722 14.6853 143.938 15.68 144.356C16.6747 144.774 17.5756 145.387 18.3298 146.157C19.0841 146.928 19.6764 147.842 20.072 148.844C20.4676 149.847 20.6585 150.919 20.6334 151.996H20.6378Z" fill="#20E2D7"/>
<path d="M34.0368 176.729C31.6061 180.478 17.7627 186.951 17.7627 186.951C17.7627 186.951 18.0153 171.687 20.446 167.938C21.6383 166.196 23.4647 164.989 25.5358 164.574C27.6069 164.158 29.7586 164.567 31.5318 165.714C33.305 166.86 34.5595 168.653 35.0275 170.71C35.4955 172.767 35.1399 174.925 34.0368 176.724V176.729Z" fill="#20E2D7"/>
<path d="M33.4488 218.995C29.4543 221.005 14.2344 219.617 14.2344 219.617C14.2344 219.617 22.1667 206.568 26.1612 204.558C28.0724 203.643 30.267 203.512 32.2736 204.195C34.2801 204.877 35.9388 206.318 36.8934 208.208C37.8479 210.098 38.0224 212.286 37.3791 214.303C36.7359 216.32 35.3264 218.004 33.4532 218.995H33.4488Z" fill="#20E2D7"/>
<path d="M25.7951 250.874C22.2014 253.528 6.95972 254.728 6.95972 254.728C6.95972 254.728 12.5703 240.531 16.164 237.873C17.0182 237.231 17.9912 236.765 19.0268 236.501C20.0623 236.237 21.1401 236.18 22.1978 236.333C23.2555 236.487 24.2723 236.848 25.1895 237.396C26.1067 237.944 26.9062 238.668 27.5418 239.526C28.1775 240.385 28.6367 241.36 28.8931 242.396C29.1494 243.432 29.1978 244.509 29.0354 245.564C28.873 246.619 28.5031 247.631 27.947 248.543C27.3908 249.454 26.6595 250.247 25.7951 250.874Z" fill="#20E2D7"/>
<path d="M0.761173 187.816C3.9672 190.926 18.9127 194.149 18.9127 194.149C18.9127 194.149 15.2537 179.33 12.0476 176.215C11.2914 175.446 10.3887 174.835 9.39261 174.419C8.39653 174.003 7.32721 173.79 6.24753 173.793C5.16785 173.796 4.09962 174.014 3.10566 174.435C2.11171 174.856 1.21212 175.471 0.459783 176.245C-0.292551 177.018 -0.882428 177.934 -1.27515 178.938C-1.66787 179.942 -1.8555 181.015 -1.82701 182.092C-1.79853 183.17 -1.55449 184.231 -1.10926 185.214C-0.664037 186.196 -0.0266043 187.079 0.765533 187.812L0.761173 187.816Z" fill="#20E2D7"/>
<path d="M-7.71566 225.211C-3.72119 227.22 11.4987 225.833 11.4987 225.833C11.4987 225.833 3.56643 212.784 -0.428041 210.774C-2.33932 209.859 -4.53384 209.728 -6.54042 210.41C-8.547 211.093 -10.2056 212.534 -11.1602 214.424C-12.1148 216.313 -12.2892 218.502 -11.646 220.519C-11.0028 222.536 -9.59326 224.22 -7.72002 225.211H-7.71566Z" fill="#20E2D7"/>
<path d="M-10.9609 262.688C-7.36719 265.342 7.87452 266.542 7.87452 266.542C7.87452 266.542 2.26397 252.34 -1.33411 249.687C-3.06183 248.432 -5.2162 247.91 -7.32788 248.234C-9.43956 248.558 -11.3374 249.702 -12.608 251.417C-13.8785 253.132 -14.4188 255.279 -14.1111 257.391C-13.8034 259.502 -12.6727 261.406 -10.9653 262.688H-10.9609Z" fill="#20E2D7"/>
<path opacity="0.25" d="M20.6378 151.996C20.6378 156.463 12.54 169.395 12.54 169.395C12.54 169.395 4.44212 156.446 4.44212 151.996C4.41709 150.919 4.60798 149.847 5.00358 148.844C5.39918 147.842 5.9915 146.928 6.74573 146.157C7.49996 145.387 8.40088 144.774 9.39554 144.356C10.3902 143.938 11.4586 143.722 12.5378 143.722C13.617 143.722 14.6853 143.938 15.68 144.356C16.6747 144.774 17.5756 145.387 18.3298 146.157C19.0841 146.928 19.6764 147.842 20.072 148.844C20.4676 149.847 20.6585 150.919 20.6334 151.996H20.6378Z" fill="black"/>
<path opacity="0.25" d="M34.0368 176.729C31.6061 180.478 17.7627 186.951 17.7627 186.951C17.7627 186.951 18.0153 171.687 20.446 167.938C21.6383 166.196 23.4647 164.989 25.5358 164.574C27.6069 164.158 29.7586 164.567 31.5318 165.714C33.305 166.86 34.5595 168.653 35.0275 170.71C35.4955 172.767 35.1399 174.925 34.0368 176.724V176.729Z" fill="black"/>
<path opacity="0.25" d="M33.4488 218.995C29.4543 221.005 14.2344 219.617 14.2344 219.617C14.2344 219.617 22.1667 206.568 26.1612 204.558C28.0724 203.643 30.267 203.512 32.2736 204.195C34.2801 204.877 35.9388 206.318 36.8934 208.208C37.8479 210.098 38.0224 212.286 37.3791 214.303C36.7359 216.32 35.3264 218.004 33.4532 218.995H33.4488Z" fill="black"/>
<path opacity="0.25" d="M25.7951 250.874C22.2014 253.528 6.95972 254.728 6.95972 254.728C6.95972 254.728 12.5703 240.531 16.164 237.873C17.0182 237.231 17.9912 236.765 19.0268 236.501C20.0623 236.237 21.1401 236.18 22.1978 236.333C23.2555 236.487 24.2723 236.848 25.1895 237.396C26.1067 237.944 26.9062 238.668 27.5418 239.526C28.1775 240.385 28.6367 241.36 28.8931 242.396C29.1494 243.432 29.1978 244.509 29.0354 245.564C28.873 246.619 28.5031 247.631 27.947 248.543C27.3908 249.454 26.6595 250.247 25.7951 250.874Z" fill="black"/>
<path opacity="0.25" d="M0.761173 187.816C3.9672 190.926 18.9127 194.149 18.9127 194.149C18.9127 194.149 15.2537 179.33 12.0476 176.215C11.2914 175.446 10.3887 174.835 9.39261 174.419C8.39653 174.003 7.32721 173.79 6.24753 173.793C5.16785 173.796 4.09962 174.014 3.10566 174.435C2.11171 174.856 1.21212 175.471 0.459783 176.245C-0.292551 177.018 -0.882428 177.934 -1.27515 178.938C-1.66787 179.942 -1.8555 181.015 -1.82701 182.092C-1.79853 183.17 -1.55449 184.231 -1.10926 185.214C-0.664037 186.196 -0.0266043 187.079 0.765533 187.812L0.761173 187.816Z" fill="black"/>
<path opacity="0.25" d="M-7.71566 225.211C-3.72119 227.22 11.4987 225.833 11.4987 225.833C11.4987 225.833 3.56643 212.784 -0.428041 210.774C-2.33932 209.859 -4.53384 209.728 -6.54042 210.41C-8.547 211.093 -10.2056 212.534 -11.1602 214.424C-12.1148 216.313 -12.2892 218.502 -11.646 220.519C-11.0028 222.536 -9.59326 224.22 -7.72002 225.211H-7.71566Z" fill="black"/>
<path opacity="0.25" d="M-10.9609 262.688C-7.36719 265.342 7.87452 266.542 7.87452 266.542C7.87452 266.542 2.26397 252.34 -1.33411 249.687C-3.06183 248.432 -5.2162 247.91 -7.32788 248.234C-9.43956 248.558 -11.3374 249.702 -12.608 251.417C-13.8785 253.132 -14.4188 255.279 -14.1111 257.391C-13.8034 259.502 -12.6727 261.406 -10.9653 262.688H-10.9609Z" fill="black"/>
<path d="M354.177 267C354.177 267 346.106 239.75 355.692 219.682C359.765 211.293 360.993 201.816 359.192 192.674C358.303 188.342 357.018 184.099 355.351 180" stroke="#535461" stroke-width="2" stroke-miterlimit="10"/>
<path d="M361 167.03C361 170.358 355 180 355 180C355 180 349 170.352 349 167.03C349 165.431 349.632 163.897 350.757 162.766C351.883 161.635 353.409 161 355 161C356.591 161 358.117 161.635 359.243 162.766C360.368 163.897 361 165.431 361 167.03Z" fill="#20E2D7"/>
<path d="M370.897 185.451C369.119 188.218 359 193 359 193C359 193 359.184 181.727 360.961 178.96C361.365 178.262 361.905 177.655 362.549 177.174C363.192 176.693 363.926 176.349 364.705 176.162C365.484 175.975 366.292 175.95 367.081 176.087C367.87 176.224 368.624 176.521 369.296 176.96C369.968 177.399 370.545 177.971 370.992 178.642C371.439 179.312 371.746 180.067 371.896 180.86C372.045 181.654 372.034 182.47 371.862 183.259C371.69 184.048 371.362 184.794 370.897 185.451Z" fill="#20E2D7"/>
<path d="M370.805 217.196C367.726 218.679 356 217.656 356 217.656C356 217.656 362.113 208.014 365.185 206.531C366.652 205.896 368.318 205.828 369.836 206.342C371.354 206.855 372.606 207.911 373.331 209.287C374.056 210.664 374.198 212.256 373.727 213.731C373.256 215.205 372.209 216.449 370.805 217.202V217.196Z" fill="#20E2D7"/>
<path d="M364.818 241.038C362.178 243.079 351 244 351 244C351 244 355.114 233.087 357.754 231.046C359.025 230.159 360.572 229.818 362.076 230.093C363.581 230.367 364.926 231.237 365.834 232.522C366.742 233.806 367.143 235.407 366.954 236.993C366.765 238.578 366 240.027 364.818 241.038Z" fill="#20E2D7"/>
<path d="M346.097 194.051C348.581 196.478 360 199 360 199C360 199 357.2 187.426 354.741 184.999C354.166 184.375 353.474 183.876 352.704 183.533C351.935 183.189 351.105 183.008 350.265 183C349.425 182.993 348.593 183.158 347.817 183.488C347.042 183.817 346.341 184.303 345.755 184.917C345.17 185.53 344.713 186.258 344.412 187.056C344.111 187.855 343.973 188.707 344.004 189.561C344.036 190.416 344.238 191.255 344.598 192.028C344.958 192.8 345.468 193.491 346.097 194.057V194.051Z" fill="#20E2D7"/>
<path d="M340.018 222.196C342.925 223.679 354 222.656 354 222.656C354 222.656 348.227 213.014 345.325 211.531C343.94 210.896 342.366 210.828 340.933 211.342C339.499 211.855 338.317 212.911 337.632 214.287C336.947 215.664 336.813 217.256 337.258 218.731C337.702 220.205 338.691 221.449 340.018 222.202V222.196Z" fill="#20E2D7"/>
<path d="M337.22 250.046C339.852 252.082 351 253 351 253C351 253 346.873 242.109 344.264 240.074C342.997 239.172 341.446 238.819 339.935 239.088C338.425 239.357 337.072 240.227 336.161 241.517C335.251 242.806 334.852 244.414 335.049 246.004C335.247 247.594 336.024 249.043 337.22 250.046Z" fill="#20E2D7"/>
<path d="M132.182 177.933C131.847 178.177 131.664 178.312 131.664 178.312C131.854 178.212 132.029 178.084 132.182 177.933Z" fill="url(#paint0_linear)"/>
<path d="M132.587 178.342C132.252 178.586 132.069 178.721 132.069 178.721C132.259 178.621 132.434 178.493 132.587 178.342Z" fill="url(#paint1_linear)"/>
<path d="M132.587 177.933C132.252 178.177 132.069 178.312 132.069 178.312C132.259 178.212 132.434 178.084 132.587 177.933Z" fill="url(#paint2_linear)"/>
<g opacity="0.1">
<path opacity="0.1" d="M177.433 220.531C177.433 220.531 173.077 217.951 173.26 213.571L167.897 187.581C167.897 187.581 173.125 182.553 170.197 176.272C170.049 175.95 169.878 175.625 169.683 175.298C167.758 172.027 163.21 171.226 159.042 171.274C163.04 171.309 167.248 172.183 169.086 175.298C169.281 175.625 169.452 175.95 169.6 176.272C172.515 182.57 167.301 187.581 167.301 187.581L172.663 213.584C172.462 217.934 176.836 220.544 176.836 220.544C181.009 226.098 195.907 266.964 195.907 266.964L177.341 269.944C177.341 269.974 177.341 270.009 177.341 270.039L196.508 266.964C196.508 266.964 181.606 226.085 177.433 220.531Z" fill="black"/>
</g>
<g opacity="0.1">
<path opacity="0.1" d="M141.273 170.735C141.273 170.735 128.162 189.186 122.978 207.834C122.978 207.834 118.409 215.768 119.005 223.902L110.677 264.176L125.975 269.931C125.975 269.931 125.182 264.972 128.153 262.192C131.124 259.413 138.085 231.244 137.492 226.881C137.492 226.881 147.028 203.075 156.563 193.749C166.098 184.423 170.846 182.275 172.245 174.223C172.253 174.223 149.816 163.392 141.273 170.735Z" fill="black"/>
</g>
<g opacity="0.1">
<path opacity="0.1" d="M149.345 167.986C159.194 168.103 171.461 174.023 171.461 174.023C170.058 182.074 165.314 184.223 155.779 193.549C146.244 202.875 136.704 226.677 136.704 226.677C137.301 231.026 130.348 259.213 127.365 261.988C124.751 264.406 125.039 268.473 125.147 269.491L125.775 269.726C125.775 269.726 124.982 264.767 127.953 261.988C130.923 259.208 137.897 231.026 137.301 226.677C137.301 226.677 146.836 202.871 156.371 193.545C165.907 184.219 170.655 182.07 172.053 174.019C172.057 174.045 159.286 167.864 149.345 167.986Z" fill="black"/>
</g>
<g opacity="0.1">
<path opacity="0.1" d="M153.095 88.107C152.782 86.5063 153.043 86.3671 153.392 84.6272C154.781 77.6676 136.307 92.9613 136.307 92.9613C136.307 92.9613 137.335 94.2097 138.612 96.0452C139.553 96.2391 140.512 96.3368 141.474 96.3367C146.527 96.341 150.599 92.0826 153.095 88.107Z" fill="black"/>
</g>
<g opacity="0.1">
<path opacity="0.1" d="M142.563 88.5028C146.402 88.5028 149.515 85.3947 149.515 81.5606C149.515 77.7265 146.402 74.6184 142.563 74.6184C138.723 74.6184 135.611 77.7265 135.611 81.5606C135.611 85.3947 138.723 88.5028 142.563 88.5028Z" fill="black"/>
</g>
<path opacity="0.05" d="M149.309 62.3255L143.849 61.2609L143.811 61.4572L149.27 62.5219L149.309 62.3255Z" fill="black"/>
</g>
<defs>
<filter id="filter0_d" x="0" y="0" width="375" height="308" filterUnits="userSpaceOnUse" color-interpolation-filters="sRGB">
<feFlood flood-opacity="0" result="BackgroundImageFix"/>
<feColorMatrix in="SourceAlpha" type="matrix" values="0 0 0 0 0 0 0 0 0 0 0 0 0 0 0 0 0 0 127 0"/>
<feOffset dy="1"/>
<feColorMatrix type="matrix" values="0 0 0 0 0 0 0 0 0 0 0 0 0 0 0 0 0 0 0.1 0"/>
<feBlend mode="normal" in2="BackgroundImageFix" result="effect1_dropShadow"/>
<feBlend mode="normal" in="SourceGraphic" in2="effect1_dropShadow" result="shape"/>
</filter>
<linearGradient id="paint0_linear" x1="400.637" y1="354.42" x2="401.254" y2="354.42" gradientUnits="userSpaceOnUse">
<stop stop-color="#808080" stop-opacity="0.25"/>
<stop offset="0.54" stop-color="#808080" stop-opacity="0.12"/>
<stop offset="1" stop-color="#808080" stop-opacity="0.1"/>
</linearGradient>
<linearGradient id="paint1_linear" x1="401.524" y1="355.181" x2="402.146" y2="355.181" gradientUnits="userSpaceOnUse">
<stop stop-color="#808080" stop-opacity="0.25"/>
<stop offset="0.54" stop-color="#808080" stop-opacity="0.12"/>
<stop offset="1" stop-color="#808080" stop-opacity="0.1"/>
</linearGradient>
<linearGradient id="paint2_linear" x1="401.524" y1="354.42" x2="402.146" y2="354.42" gradientUnits="userSpaceOnUse">
<stop stop-color="#808080" stop-opacity="0.25"/>
<stop offset="0.54" stop-color="#808080" stop-opacity="0.12"/>
<stop offset="1" stop-color="#808080" stop-opacity="0.1"/>
</linearGradient>
<clipPath id="clip0">
<rect width="375" height="307" fill="white"/>
</clipPath>
</defs>
</svg>
