<svg width="316" height="132" viewBox="0 0 316 132" fill="none" xmlns="http://www.w3.org/2000/svg">
<rect x="25.5" y="19.5" width="290" height="112" rx="9.5" fill="white"/>
<path d="M82.4074 62.8887H79.8938C79.2727 63.8496 78.6692 64.6172 78.0832 65.1914C77.7785 64.8633 77.4387 64.5879 77.0637 64.3652C78.2824 63.3105 79.2258 61.8867 79.8938 60.0938C79.9172 60.0469 79.9348 60 79.9465 59.9531L81.177 60.252C81.0363 60.6387 80.8254 61.125 80.5442 61.7109H87.3469L87.5578 61.6758L88.507 61.9219C87.7336 63.7148 87.259 64.7812 87.0832 65.1211L86.1692 64.9453C86.9309 66.0352 87.511 67.1016 87.9094 68.1445L86.7317 68.6895C86.2746 67.4707 85.6184 66.2285 84.7629 64.9629C84.7278 64.9043 84.6985 64.8574 84.675 64.8223L85.7649 64.3652L86.011 64.6992C86.3625 63.9609 86.6203 63.3574 86.7844 62.8887H83.6731V68.7422C83.6731 69.3164 83.5266 69.6914 83.2336 69.8672C83.175 69.9023 83.1164 69.9316 83.0578 69.9551C82.6477 70.0957 81.8684 70.166 80.7199 70.166C80.6496 69.7793 80.509 69.3867 80.2981 68.9883C80.8488 69 81.4465 69.0059 82.091 69.0059C82.2903 68.9473 82.3957 68.8594 82.4074 68.7422V62.8887ZM82.5305 71.8887L81.5637 72.7676C80.966 72.0645 80.0813 71.3906 78.9094 70.7461C78.7453 70.6523 78.593 70.5703 78.4524 70.5L79.3488 69.709C80.509 70.2598 81.4875 70.9043 82.2844 71.6426C82.3781 71.7363 82.4602 71.8184 82.5305 71.8887ZM79.8762 64.4531L81.1242 64.752C80.55 66.2051 79.7707 67.4414 78.7863 68.4609C78.7746 68.4727 78.7629 68.4844 78.7512 68.4961C78.4934 68.2969 78.1242 68.0625 77.6438 67.793C78.593 66.9258 79.3371 65.8125 79.8762 64.4531ZM73.3723 75.791L72.2824 75.0352C73.4778 74.2734 74.3039 73.0137 74.761 71.2559L75.9387 71.6602C75.3879 73.6406 74.5324 75.0176 73.3723 75.791ZM76.4836 59.9355L77.6438 60.3223C77.175 61.2129 76.6594 62.0449 76.0969 62.8184V70.166H74.7961V64.4004C74.2336 65.0332 73.6242 65.6191 72.968 66.1582C72.757 65.8301 72.4699 65.4844 72.1067 65.1211C73.6301 63.9727 74.9192 62.543 75.9738 60.832C76.1613 60.5273 76.3313 60.2285 76.4836 59.9355ZM79.3488 74.8594H82.6535C83.052 74.8594 83.3098 74.7422 83.427 74.5078C83.5324 74.25 83.6028 73.6934 83.6379 72.8379C83.9309 73.0723 84.3352 73.248 84.8508 73.3652C84.757 74.5723 84.5285 75.3398 84.1653 75.668C83.8723 75.9258 83.3977 76.0547 82.7414 76.0547H79.261C78.1711 76.0547 77.4856 75.873 77.2043 75.5098C77.0168 75.252 76.9231 74.8477 76.9231 74.2969V71.0449H78.259V74.2969C78.259 74.5781 78.3586 74.7422 78.5578 74.7891C78.7102 74.8359 78.9738 74.8594 79.3488 74.8594ZM84.341 71.5898L85.4309 70.957C86.7082 72.0586 87.7043 73.1895 88.4192 74.3496C88.5363 74.5488 88.636 74.7363 88.718 74.9121L87.5227 75.5977C87.0891 74.6016 86.3098 73.5293 85.1848 72.3809C84.8918 72.0879 84.6106 71.8242 84.341 71.5898ZM103.027 62.7129V61.4648H94.0266V62.7129H103.027ZM103.027 64.8574V63.6094H94.0266V64.8574H103.027ZM104.345 60.5156V65.8242H92.761V60.5156H104.345ZM104.169 70.1133H100.46C100.905 71.1328 101.491 72.0176 102.218 72.7676C103.05 71.9824 103.7 71.0977 104.169 70.1133ZM93.3938 72.4336V73.8574C93.6399 73.834 94.0266 73.793 94.5539 73.7344C95.4914 73.6406 96.1945 73.5703 96.6633 73.5234V72.4336H93.3938ZM93.3938 70.166V71.4141H96.6633V70.166H93.3938ZM96.6633 67.9512H93.3938V69.1465H96.6633V67.9512ZM104.995 69.0234L105.804 69.3398C105.253 71.0039 104.368 72.416 103.15 73.5762C104.216 74.3965 105.429 74.9707 106.788 75.2988C106.484 75.5684 106.214 75.9199 105.98 76.3535C104.562 75.9316 103.308 75.2695 102.218 74.3672C101.187 75.1523 99.9914 75.7852 98.632 76.2656C98.4445 75.8672 98.2102 75.5273 97.9289 75.2461V76.3711H96.6633V74.6133C94.05 74.9297 92.0227 75.1699 90.5813 75.334L90.4582 74.1562C90.9856 74.1211 91.5598 74.0684 92.1809 73.998V67.9512H90.6164V66.8262H106.349V67.9512H97.9289V75.2285C99.1828 74.8535 100.314 74.2852 101.322 73.5234C100.489 72.6094 99.8274 71.5547 99.3352 70.3594L100.109 70.1133H98.5617V69.0586H104.749L104.995 69.0234ZM119.937 66.5625H116.421C116.269 69.6445 115.437 72.0059 113.925 73.6465C113.726 73.3301 113.445 73.0488 113.081 72.8027C113.034 72.7676 112.993 72.7383 112.958 72.7148C114.353 71.2266 115.085 69.041 115.155 66.1582C115.155 65.9473 115.155 65.7363 115.155 65.5254V61.3418L116.245 61.5879C119.105 61.0488 121.15 60.5215 122.38 60.0059L123.523 61.0078C121.835 61.6289 119.474 62.1914 116.439 62.6953V65.332H124.577V66.5625H121.255V73.9453H119.937V66.5625ZM113.029 62.3086L112.097 63.2227C111.558 62.5664 110.685 61.8809 109.478 61.166C109.372 61.0957 109.273 61.0371 109.179 60.9902L110.058 60.1641C111.37 60.8672 112.337 61.5527 112.958 62.2207C112.982 62.2559 113.005 62.2852 113.029 62.3086ZM112.519 65.8242L111.587 66.7734C110.954 66.1055 110.023 65.4434 108.792 64.7871C108.675 64.7285 108.57 64.6758 108.476 64.6289L109.355 63.7676C110.562 64.3184 111.552 64.9453 112.325 65.6484C112.407 65.7188 112.472 65.7773 112.519 65.8242ZM112.062 68.25V72.75C112.894 74.0156 114.405 74.6953 116.597 74.7891C119.339 74.8594 121.97 74.8242 124.489 74.6836C124.607 74.6836 124.712 74.6777 124.806 74.666C124.583 75.041 124.431 75.4805 124.349 75.9844C121.583 76.0781 119.005 76.0957 116.614 76.0371C114.376 75.9316 112.718 75.2812 111.64 74.0859C111.581 74.0273 111.529 73.9688 111.482 73.9102C110.861 74.5078 109.993 75.2754 108.88 76.2129L108.177 74.8945C109.009 74.3203 109.87 73.6348 110.761 72.8379V69.498H108.405V68.25H112.062ZM130.484 62.1504H128.093V64.6641H130.484V62.1504ZM128.093 72.1348H130.484V69.5156H128.093V72.1348ZM128.093 65.8066V68.3379H130.484V65.8066H128.093ZM131.697 60.9727V73.3301H128.093V74.8945H126.898V60.9727H131.697ZM139.8 71.1504V68.5137H137.831V71.1504H139.8ZM134.738 71.1504H136.618V68.5137H134.738V71.1504ZM134.738 64.9277V67.3535H136.618V64.9277H134.738ZM139.8 64.9277H137.831V67.3535H139.8V64.9277ZM142.753 68.5137H140.96V71.1504H142.366V72.2754H137.831V74.7715H142.753V75.9492H131.749V74.7715H136.618V72.2754H132.259V71.1504H133.63V68.5137H131.943V67.3535H133.63V64.9277H132.277V63.8027H136.618V61.9043C135.083 62.0215 133.788 62.0977 132.734 62.1328C132.687 61.8047 132.57 61.459 132.382 61.0957C136.238 60.8965 139.138 60.5684 141.083 60.1113L141.997 61.0957C140.697 61.3887 139.308 61.6113 137.831 61.7637V63.8027H142.349V64.9277H140.96V67.3535H142.753V68.5137ZM148.659 62.0801H146.146V64.6113H148.659V62.0801ZM146.146 65.7539V68.373H148.659V65.7539H146.146ZM146.146 72.1875H148.659V69.5332H146.146V72.1875ZM149.925 73.418H146.146V74.8945H144.898V60.8848H149.925V73.418ZM152.825 68.3906H155.779C155.697 67.6406 155.638 66.7793 155.603 65.8066H152.825V68.3906ZM158.855 61.9746H152.825V64.6113H158.855V61.9746ZM160.7 69.6387H157.202C157.554 72.123 158.081 73.7812 158.784 74.6133C159.03 74.8828 159.271 75.0234 159.505 75.0352C159.81 75.0234 159.991 74.2441 160.05 72.6973C160.05 72.6152 160.05 72.5332 160.05 72.4512C160.343 72.6855 160.7 72.8848 161.122 73.0488C160.993 74.6777 160.7 75.6738 160.243 76.0371C160.021 76.2012 159.739 76.2832 159.4 76.2832C158.216 76.2715 157.273 75.0469 156.57 72.6094C156.323 71.7305 156.118 70.7402 155.954 69.6387H152.825V74.3496C153.212 74.2793 153.81 74.1738 154.618 74.0332C155.427 73.8809 156.03 73.7695 156.429 73.6992L156.517 74.877C155.017 75.1816 152.896 75.6094 150.154 76.1602L149.767 74.877C149.896 74.8535 150.107 74.8184 150.4 74.7715C150.904 74.6895 151.284 74.625 151.542 74.5781V60.7617H160.138V65.8066H156.904C156.927 66.7324 156.98 67.5938 157.062 68.3906H160.7V69.6387ZM175.677 66.3516H171.704C172.489 68.0859 173.544 69.4922 174.868 70.5703C175.22 70.8516 175.572 71.0918 175.923 71.291C175.595 71.5488 175.308 71.8711 175.062 72.2578C173.691 71.3672 172.501 69.9961 171.493 68.1445C171.341 67.8633 171.2 67.5879 171.072 67.3184V73.3652H169.841V67.3711C168.927 69.3281 167.779 70.8691 166.396 71.9941C166.243 72.1113 166.097 72.2227 165.956 72.3281C165.71 71.9883 165.429 71.6777 165.113 71.3965C166.366 70.6465 167.491 69.416 168.488 67.7051C168.757 67.248 168.991 66.7969 169.191 66.3516H165.482V65.1914H169.841V62.7129H171.072V65.1914H175.677V66.3516ZM164.409 74.332H176.609V62.0449H164.409V74.332ZM163.073 60.7793H177.98V76.4062H176.609V75.5625H164.409V76.4062H163.073V60.7793ZM190.53 71.748V74.2266H192.763V71.748H190.53ZM192.763 66.9668V64.5762H190.53V66.9668H192.763ZM192.763 70.5703V68.1445H190.53V70.5703H192.763ZM186.716 67.6348V66.0352H184.923V67.6348H186.716ZM182.093 66.0352V67.6348H183.816V66.0352H182.093ZM183.13 62.3789V63.416H185.644V62.3789H183.13ZM196.771 74.2266V75.4395H190.53V76.3887H189.3V66.2988C189.066 66.709 188.861 67.0371 188.685 67.2832C188.462 67.0371 188.175 66.791 187.823 66.5449V68.5664H184.993V69.5332H187.841V70.4824H184.993C184.993 70.7754 184.964 71.1328 184.905 71.5547H188.333V72.5742H184.695L184.607 72.8027C185.896 73.5527 186.991 74.2559 187.894 74.9121C187.917 74.9238 187.935 74.9355 187.947 74.9473L187.173 75.9668C186.341 75.2754 185.339 74.5312 184.167 73.7344C183.488 74.8125 182.474 75.6855 181.126 76.3535C180.904 76.0488 180.622 75.7559 180.282 75.4746C181.818 74.7832 182.849 73.8164 183.376 72.5742H180.458V71.5547H183.675C183.722 71.2969 183.757 70.9453 183.78 70.5V70.4824H180.986V69.5332H183.78V68.5664H181.038V65.1035H183.816V64.2246H181.988V62.3789H180.335V61.377H181.988V59.9355H183.13V61.377H185.644V59.9355H186.839V61.377H188.579V62.3789H186.839V64.2246H184.923V65.1035H187.823V66.2109C188.925 64.7109 189.822 62.625 190.513 59.9531L191.726 60.2344C191.398 61.4297 191.058 62.4668 190.706 63.3457H192.693C193.103 62.4434 193.484 61.3711 193.835 60.1289L195.118 60.4453C194.708 61.5703 194.31 62.5371 193.923 63.3457H196.577V64.5762H193.976V66.9668H196.454V68.1445H193.976V70.5703H196.454V71.748H193.976V74.2266H196.771ZM204.136 67.7754V64.0137H200.357V67.7754H204.136ZM200.357 73.2949H204.136V68.9707H200.357V73.2949ZM201.868 59.9004L203.31 60.1641C202.935 61.2656 202.618 62.1504 202.361 62.8184H205.349V74.4902H200.357V75.9141H199.126V62.8184H201.148C201.523 61.5879 201.763 60.6152 201.868 59.9004ZM214.155 62.7656V63.4512C213.956 69.0996 213.722 72.5977 213.452 73.9453C213.312 74.5898 213.136 75.041 212.925 75.2988C212.597 75.7207 212.146 75.9609 211.572 76.0195C211.536 76.0195 211.513 76.0195 211.501 76.0195C210.986 76.0781 210.095 76.0723 208.829 76.002C208.782 75.5449 208.63 75.1113 208.372 74.7012C209.157 74.7715 210.048 74.8066 211.044 74.8066C211.396 74.7949 211.642 74.7012 211.782 74.5254C212.181 74.1035 212.468 72.375 212.644 69.3398C212.726 67.9922 212.802 66.2109 212.872 63.9961H208.302C207.716 65.3789 207.154 66.4336 206.614 67.1602C206.439 66.9961 206.075 66.7441 205.525 66.4043C206.685 64.8926 207.599 62.7129 208.267 59.8652L209.55 60.1641C209.339 61.0312 209.081 61.8984 208.777 62.7656H214.155ZM211.308 70.8516L210.183 71.5547C209.632 70.4883 208.718 69.1055 207.441 67.4062L208.495 66.791C209.796 68.4668 210.734 69.8203 211.308 70.8516ZM230.345 61.9746H224.755V65.332H230.345V61.9746ZM231.663 66.5098H223.507V60.8145H231.663V66.5098ZM221.784 70.7461C221.726 70.6055 221.644 70.4355 221.538 70.2363C221.433 70.0371 221.316 69.8262 221.187 69.6035C221.058 69.3809 220.923 69.1523 220.782 68.918C220.654 68.6836 220.525 68.4609 220.396 68.25V76.3535H219.113V68.2852C218.784 69.2344 218.409 70.1484 217.988 71.0273C217.577 71.9062 217.161 72.6387 216.739 73.2246C216.681 73.0254 216.581 72.8027 216.441 72.5566C216.3 72.3105 216.177 72.0996 216.072 71.9238C216.318 71.6074 216.57 71.2324 216.827 70.7988C217.097 70.3535 217.349 69.8848 217.583 69.3926C217.829 68.9004 218.058 68.3906 218.269 67.8633C218.491 67.3242 218.679 66.8027 218.831 66.2988H216.353V65.0332H219.113V62.1504C218.749 62.2324 218.386 62.3086 218.023 62.3789C217.659 62.4375 217.302 62.4961 216.95 62.5547C216.927 62.3906 216.88 62.209 216.81 62.0098C216.739 61.8105 216.663 61.6289 216.581 61.4648C217.027 61.3945 217.484 61.3066 217.952 61.2012C218.421 61.0957 218.878 60.9844 219.323 60.8672C219.769 60.7383 220.185 60.6035 220.572 60.4629C220.97 60.3223 221.316 60.1816 221.609 60.041L222.4 61.1484C222.118 61.2773 221.808 61.3945 221.468 61.5C221.128 61.6055 220.771 61.7168 220.396 61.834V65.0332H222.681V66.2988H220.396V66.7559C220.501 66.8965 220.659 67.1016 220.87 67.3711C221.081 67.6406 221.298 67.9277 221.521 68.2324C221.755 68.5254 221.966 68.8066 222.154 69.0762C222.353 69.334 222.488 69.5215 222.558 69.6387L221.784 70.7461ZM232.648 74.7012V75.8965H222.329V74.7012H226.917V72.3105H223.331V71.1328H226.917V68.9883C225.898 69.0938 224.884 69.1816 223.876 69.252C223.853 69.0879 223.806 68.9121 223.736 68.7246C223.665 68.5254 223.595 68.3496 223.525 68.1973C224.146 68.1504 224.79 68.0977 225.458 68.0391C226.126 67.9688 226.777 67.8926 227.409 67.8105C228.042 67.7168 228.64 67.6172 229.202 67.5117C229.765 67.4062 230.251 67.2949 230.661 67.1777L231.558 68.1621C231.089 68.291 230.573 68.4141 230.011 68.5312C229.46 68.6484 228.868 68.7422 228.236 68.8125V71.1328H231.892V72.3105H228.236V74.7012H232.648ZM250.437 62.9414H237.007V66.8613C237.007 71.1387 236.415 74.3203 235.232 76.4062C234.927 76.1133 234.564 75.8613 234.142 75.6504C235.185 73.8574 235.718 71.0801 235.741 67.3184C235.741 67.166 235.741 67.0137 235.741 66.8613V61.7109H242.351V59.9531H243.722V61.7109H250.437V62.9414ZM246.113 66.0527H241.753V67.9512H246.113V66.0527ZM247.413 69.0234H240.47V66.0527H237.605V64.9629H240.47V63.3984H241.753V64.9629H246.113V63.3984H247.413V64.9629H250.296V66.0527H247.413V69.0234ZM247.114 71.2559H241.155C241.823 72.1348 242.796 72.8965 244.073 73.541C245.421 72.8965 246.435 72.1348 247.114 71.2559ZM248.239 70.0957L249.083 70.5527C248.31 72.0059 247.103 73.2012 245.462 74.1387C246.997 74.6895 248.761 75.0645 250.753 75.2637C250.437 75.5684 250.179 75.9492 249.98 76.4062C247.659 76.1016 245.685 75.5742 244.056 74.8242C242.239 75.5742 240.13 76.0898 237.728 76.3711C237.634 76.0312 237.447 75.6562 237.165 75.2461C239.31 75.0352 241.155 74.6543 242.702 74.1035C241.554 73.4121 240.611 72.5508 239.872 71.5195L240.593 71.2559H237.833V70.166H247.993L248.239 70.0957ZM259.525 70.6406C259.337 69.6562 259.7 68.7246 260.614 67.8457C260.814 67.6582 261.124 67.3945 261.546 67.0547C262.308 66.4336 262.788 65.9473 262.988 65.5957C263.14 65.3262 263.216 65.0566 263.216 64.7871C263.216 63.8262 262.747 63.1816 261.81 62.8535C261.411 62.7246 260.966 62.6602 260.474 62.6602C259.197 62.6719 258.06 63.2168 257.064 64.2949L256.097 63.3984C257.445 62.0156 258.962 61.3184 260.65 61.3066C262.314 61.3066 263.509 61.7988 264.236 62.7832C264.622 63.3223 264.816 63.9492 264.816 64.6641C264.816 65.4609 264.388 66.2402 263.532 67.002C263.38 67.1309 263.146 67.3242 262.829 67.582C262.044 68.2031 261.534 68.707 261.3 69.0938C261.007 69.5742 260.907 70.0898 261.001 70.6406H259.525ZM259.314 72.6621H261.388V74.7363H259.314V72.6621ZM60.593 98.7227C58.2141 96.2969 57.0246 93.4434 57.0246 90.1621C57.0363 86.8574 58.2258 83.998 60.593 81.584L61.6828 82.1465C59.4445 84.4668 58.3254 87.1387 58.3254 90.1621C58.3371 93.1973 59.4563 95.8691 61.6828 98.1777L60.593 98.7227ZM76.8 83.9746H73.7063C74.0461 84.502 74.257 84.9062 74.3391 85.1875L73.9699 85.3105H76.466L76.1848 85.2227C76.466 84.6953 76.6711 84.2793 76.8 83.9746ZM74.6203 87.0156V86.1895H71.052V85.3105H73.302C73.1965 84.959 73.0031 84.5488 72.7219 84.0801L73.0735 83.9746H71.6848V83.0957H74.6203V81.9531H75.886V83.0957H79.0852V83.9746H77.5559L77.8723 84.0801C77.4973 84.7363 77.2629 85.1465 77.1692 85.3105H79.6125V86.1895H75.886V87.0156H79.1028V87.877H75.886V89.0547H74.6203V87.877H71.5969V87.0156H74.6203ZM66.4641 90.1445V89.3711H76.5891V90.1445H66.4641ZM69.3996 83.3418H65.6379V84.3613H69.3996V83.3418ZM66.218 86.7695V87.877H69.5227V86.7695H66.218ZM65.1633 88.6855V87.877C64.9524 88.5684 64.6242 89.1953 64.1789 89.7578C63.9797 89.5 63.6926 89.2539 63.3176 89.0195C63.2824 88.9961 63.2531 88.9785 63.2297 88.9668C64.05 87.9004 64.4602 86.3945 64.4602 84.4492V82.5332H70.5774V85.1875H65.6203C65.5969 85.5391 65.5735 85.7969 65.55 85.9609H70.6477V88.6855H65.1633ZM75.675 95.9453H67.3078V97.0879H75.675V95.9453ZM66.0422 98.3711V95.1367H76.9934V98.3535H75.675V97.8965H67.3078V98.3711H66.0422ZM66.2356 94.4512V93.6953H76.8V94.4512H66.2356ZM76.8 92.2715V93.0273H66.2356V92.2715H76.8ZM63.4055 90.7949H79.6301V91.6211H63.4055V90.7949ZM87.5227 86.8574H84.5695C83.7844 89.916 83.3918 91.4512 83.3918 91.4629C84.3293 91.9785 85.1731 92.4883 85.9231 92.9922C86.7317 91.3281 87.2649 89.2832 87.5227 86.8574ZM88.1028 85.5742L88.9113 85.7324C88.6535 89.0137 88.0207 91.6855 87.0129 93.748C88.0324 94.498 88.8176 95.1777 89.3684 95.7871L88.5774 96.9297C88.0266 96.3086 87.2824 95.6289 86.3449 94.8906C85.3606 96.4023 84.0539 97.5684 82.425 98.3887C82.1672 97.9316 81.8918 97.5625 81.5988 97.2812C83.1106 96.6016 84.3352 95.541 85.2727 94.0996C84.593 93.6191 83.8488 93.1387 83.0403 92.6582L82.8117 93.4668L81.6692 92.9043C82.0793 91.6152 82.6242 89.5996 83.3039 86.8574H81.3528V85.6094H83.5852C84.007 83.7578 84.2766 82.5332 84.3938 81.9355L85.6945 82.0938C85.6008 82.5508 85.4367 83.2715 85.2024 84.2559C85.0617 84.8652 84.9563 85.3164 84.886 85.6094H87.8567L88.1028 85.5742ZM91.3371 95.3125H95.7492V85.1348H91.3371V95.3125ZM90.0891 83.8867H97.05V97.6504H95.7492V96.5605H91.3371V97.9141H90.0891V83.8867ZM109.53 93.748V96.2266H111.763V93.748H109.53ZM111.763 88.9668V86.5762H109.53V88.9668H111.763ZM111.763 92.5703V90.1445H109.53V92.5703H111.763ZM105.716 89.6348V88.0352H103.923V89.6348H105.716ZM101.093 88.0352V89.6348H102.816V88.0352H101.093ZM102.13 84.3789V85.416H104.644V84.3789H102.13ZM115.771 96.2266V97.4395H109.53V98.3887H108.3V88.2988C108.066 88.709 107.861 89.0371 107.685 89.2832C107.462 89.0371 107.175 88.791 106.823 88.5449V90.5664H103.993V91.5332H106.841V92.4824H103.993C103.993 92.7754 103.964 93.1328 103.905 93.5547H107.333V94.5742H103.695L103.607 94.8027C104.896 95.5527 105.991 96.2559 106.894 96.9121C106.917 96.9238 106.935 96.9355 106.947 96.9473L106.173 97.9668C105.341 97.2754 104.339 96.5312 103.167 95.7344C102.488 96.8125 101.474 97.6855 100.126 98.3535C99.9035 98.0488 99.6223 97.7559 99.2824 97.4746C100.818 96.7832 101.849 95.8164 102.376 94.5742H99.4582V93.5547H102.675C102.722 93.2969 102.757 92.9453 102.78 92.5V92.4824H99.9856V91.5332H102.78V90.5664H100.038V87.1035H102.816V86.2246H100.988V84.3789H99.3352V83.377H100.988V81.9355H102.13V83.377H104.644V81.9355H105.839V83.377H107.579V84.3789H105.839V86.2246H103.923V87.1035H106.823V88.2109C107.925 86.7109 108.822 84.625 109.513 81.9531L110.726 82.2344C110.398 83.4297 110.058 84.4668 109.706 85.3457H111.693C112.103 84.4434 112.484 83.3711 112.835 82.1289L114.118 82.4453C113.708 83.5703 113.31 84.5371 112.923 85.3457H115.577V86.5762H112.976V88.9668H115.454V90.1445H112.976V92.5703H115.454V93.748H112.976V96.2266H115.771ZM125.861 89.125C125.743 88.8086 125.585 88.4688 125.386 88.1055C125.187 87.7305 124.964 87.3496 124.718 86.9629C124.472 86.5645 124.208 86.1777 123.927 85.8027C123.646 85.416 123.364 85.0586 123.083 84.7305L124.261 84.1328C124.566 84.4609 124.859 84.8125 125.14 85.1875C125.433 85.5625 125.702 85.9434 125.948 86.3301C126.195 86.7051 126.417 87.0742 126.616 87.4375C126.827 87.8008 126.991 88.1348 127.109 88.4395L125.861 89.125ZM124.859 93.2031C124.238 93.4844 123.605 93.7715 122.96 94.0645C122.327 94.3457 121.7 94.627 121.079 94.9082C120.458 95.1777 119.861 95.4414 119.286 95.6992C118.712 95.9453 118.179 96.1738 117.687 96.3848L117.195 94.9961C117.546 94.8672 117.927 94.7207 118.337 94.5566C118.759 94.3809 119.204 94.1934 119.673 93.9941L119.374 82.8672L120.745 82.8145L121.009 93.4316C121.595 93.1973 122.181 92.9512 122.767 92.6934C123.364 92.4355 123.962 92.1777 124.56 91.9199L124.859 93.2031ZM132.786 98.2832C132.575 97.9668 132.318 97.6152 132.013 97.2285C131.72 96.8535 131.392 96.4609 131.029 96.0508C130.665 95.6406 130.29 95.2188 129.904 94.7852C129.517 94.3516 129.13 93.9355 128.743 93.5371C128.04 94.6035 127.191 95.5293 126.195 96.3145C125.198 97.0996 123.991 97.791 122.573 98.3887C122.527 98.3184 122.462 98.2305 122.38 98.125C122.298 98.0312 122.204 97.9258 122.099 97.8086C121.993 97.7031 121.888 97.5977 121.782 97.4922C121.689 97.3867 121.601 97.2988 121.519 97.2285C123.066 96.666 124.361 95.9629 125.404 95.1191C126.447 94.2754 127.302 93.2676 127.97 92.0957C128.65 90.9238 129.171 89.5762 129.534 88.0527C129.909 86.5176 130.197 84.7773 130.396 82.832L131.855 82.9727C131.632 84.918 131.333 86.6582 130.958 88.1934C130.595 89.7285 130.097 91.0996 129.464 92.3066C129.874 92.7051 130.29 93.127 130.712 93.5723C131.134 94.0176 131.544 94.457 131.943 94.8906C132.341 95.3242 132.71 95.7461 133.05 96.1562C133.39 96.5547 133.671 96.918 133.894 97.2461L132.786 98.2832ZM138.657 83.0254H144.37C144.37 88.0879 145.888 92.0723 148.923 94.9785C149.79 95.8105 150.763 96.5488 151.841 97.1934C151.525 97.416 151.179 97.7734 150.804 98.2656C150.792 98.2891 150.78 98.3066 150.769 98.3184C147.054 96.0566 144.669 92.7109 143.614 88.2812C142.419 92.4531 140.415 95.5527 137.603 97.5801C137.228 97.8496 136.841 98.1016 136.443 98.3359C135.997 97.8672 135.593 97.5098 135.23 97.2637C138.464 95.5762 140.714 92.7051 141.98 88.6504C142.179 87.9824 142.361 87.2793 142.525 86.541L143.316 86.6641C143.187 85.7852 143.105 85.0176 143.07 84.3613H138.657V83.0254ZM157.484 84.1504H155.093V86.6641H157.484V84.1504ZM155.093 94.1348H157.484V91.5156H155.093V94.1348ZM155.093 87.8066V90.3379H157.484V87.8066H155.093ZM158.697 82.9727V95.3301H155.093V96.8945H153.898V82.9727H158.697ZM166.8 93.1504V90.5137H164.831V93.1504H166.8ZM161.738 93.1504H163.618V90.5137H161.738V93.1504ZM161.738 86.9277V89.3535H163.618V86.9277H161.738ZM166.8 86.9277H164.831V89.3535H166.8V86.9277ZM169.753 90.5137H167.96V93.1504H169.366V94.2754H164.831V96.7715H169.753V97.9492H158.749V96.7715H163.618V94.2754H159.259V93.1504H160.63V90.5137H158.943V89.3535H160.63V86.9277H159.277V85.8027H163.618V83.9043C162.083 84.0215 160.788 84.0977 159.734 84.1328C159.687 83.8047 159.57 83.459 159.382 83.0957C163.238 82.8965 166.138 82.5684 168.083 82.1113L168.997 83.0957C167.697 83.3887 166.308 83.6113 164.831 83.7637V85.8027H169.349V86.9277H167.96V89.3535H169.753V90.5137ZM178.085 87.7539C179.445 88.8555 180.734 90.1211 181.952 91.5508C182.011 91.6211 182.064 91.6855 182.111 91.7441L180.898 92.7637C179.597 91.1934 178.273 89.8633 176.925 88.7734L178.085 87.7539ZM193.202 86.7168V88.5098H202.044V86.7168H193.202ZM193.202 83.8867V85.6621H202.044V83.8867H193.202ZM194.345 91.1465H204.611C204.611 91.1582 204.593 91.3633 204.558 91.7617C204.288 95.0195 203.931 96.9883 203.486 97.668C203.427 97.75 203.374 97.8203 203.327 97.8789C203.011 98.1953 202.607 98.3652 202.114 98.3887C201.552 98.4355 200.814 98.4297 199.9 98.3711C199.876 97.9375 199.759 97.5449 199.548 97.1934C200.122 97.252 200.79 97.2812 201.552 97.2812C201.868 97.2695 202.085 97.2051 202.202 97.0879C202.613 96.7012 202.947 95.125 203.204 92.3594H201.007C200.116 94.7266 198.839 96.666 197.175 98.1777C197.058 98.2832 196.941 98.3828 196.823 98.4766C196.402 98.1016 196.044 97.8262 195.751 97.6504C197.392 96.4082 198.669 94.6914 199.583 92.5C199.595 92.4531 199.613 92.4062 199.636 92.3594H197.21C196.073 94.3633 194.503 96.0859 192.499 97.5273C192.265 97.6914 192.03 97.8496 191.796 98.002C191.445 97.627 191.105 97.3105 190.777 97.0527C192.605 96.0332 194.122 94.6738 195.329 92.9746C195.47 92.7637 195.605 92.5586 195.734 92.3594H193.22C192.294 93.2734 191.322 94.0527 190.302 94.6973C189.986 94.334 189.64 94.0234 189.265 93.7656C191.011 92.7812 192.458 91.5273 193.607 90.0039C193.7 89.875 193.788 89.752 193.87 89.6348H191.902V82.7617H203.398V89.6348H195.417C195.206 89.998 194.849 90.502 194.345 91.1465ZM221.679 85.2578V83.7109H217.021V85.2578H221.679ZM221.679 87.8066V86.2422H217.021V87.8066H221.679ZM222.909 82.6562V88.8613H215.861V82.6562H222.909ZM208.812 95.9629H213.716V94.1523H208.812V95.9629ZM209.954 87.2441H208.812V91.4453C209.573 90.7422 209.954 89.7871 209.954 88.5801V87.2441ZM210.71 83.8516V86.1016H211.747V83.8516H210.71ZM213.716 90.2324V87.2441H212.503V90.0215C212.573 90.1738 212.655 90.2559 212.749 90.2676H213.435C213.575 90.2676 213.669 90.2559 213.716 90.2324ZM210.728 87.2441V88.5977C210.716 90.0977 210.253 91.2344 209.339 92.0078C209.222 91.8672 209.046 91.7207 208.812 91.5684V93.0977H213.716V91.0762H212.679C212.21 91.0762 211.929 90.959 211.835 90.7246C211.765 90.5723 211.73 90.3438 211.73 90.0391V87.2441H210.728ZM220.062 96.8066H223.788V97.9141H215.228V96.8066H218.849V94.7324H216.089V93.6777H218.849V91.9199H216.599C216.271 92.5293 215.919 93.0508 215.544 93.4844C215.474 93.4141 215.234 93.25 214.823 92.9922V98.0371H213.716V97.0527H208.812V98.2832H207.757V86.1016H209.761V83.8516H207.441V82.709H214.999V83.8516H212.714V86.1016H214.823V92.623C215.585 91.709 216.159 90.5547 216.546 89.1602L217.654 89.3711C217.56 89.7227 217.384 90.209 217.126 90.8301H218.849V89.2305H220.062V90.8301H223.279V91.9199H220.062V93.6777H222.997V94.7324H220.062V96.8066ZM240.804 83.8516L239.978 84.8008C239.345 84.1797 238.384 83.5469 237.095 82.9023C237.036 82.8789 236.984 82.8555 236.937 82.832L237.71 82.0059C239.093 82.6387 240.124 83.2539 240.804 83.8516ZM233.597 94.1875L233.702 95.4531C228.839 96.5078 226.249 97.0703 225.933 97.1406L225.687 95.7871C229.284 95.0723 231.921 94.5391 233.597 94.1875ZM231.716 91.9902V88.8789H228.06V91.9902H231.716ZM226.812 87.7188H233.017V93.1504H226.812V87.7188ZM239.257 87.4023L240.575 87.7363C239.79 90.1855 238.73 92.2832 237.394 94.0293C238.12 95.998 238.905 96.9883 239.749 97C240.101 97 240.335 96.4434 240.452 95.3301C240.499 94.8965 240.54 94.3457 240.575 93.6777C240.927 94.041 241.32 94.293 241.753 94.4336C241.613 96.2969 241.308 97.4688 240.839 97.9492C240.546 98.2422 240.142 98.3887 239.626 98.3887C238.325 98.3652 237.247 97.3281 236.392 95.2773C235.302 96.4844 234.036 97.5156 232.595 98.3711C232.279 97.9844 231.927 97.6387 231.54 97.334C233.228 96.4316 234.669 95.2598 235.864 93.8184C235.267 91.8145 234.845 89.2539 234.599 86.1367H225.775V84.8184H234.529C234.493 84.1855 234.464 83.2422 234.441 81.9883H235.847C235.847 82.9609 235.864 83.9043 235.9 84.8184H241.296V86.1367H235.988C236.175 88.6094 236.491 90.7012 236.937 92.4121C237.909 90.9355 238.683 89.2656 239.257 87.4023ZM246.605 87.0508V88.9844H256.29V87.0508H246.605ZM246.605 83.9922V85.9082H256.29V83.9922H246.605ZM259.665 92.8516V94.1348H252.124V98.3887H250.771V94.1348H243.423V92.8516H250.771V90.1973H245.304V82.7793H257.644V90.1973H252.124V92.8516H259.665ZM275.679 85.2578V83.7109H271.021V85.2578H275.679ZM275.679 87.8066V86.2422H271.021V87.8066H275.679ZM276.909 82.6562V88.8613H269.861V82.6562H276.909ZM262.812 95.9629H267.716V94.1523H262.812V95.9629ZM263.954 87.2441H262.812V91.4453C263.573 90.7422 263.954 89.7871 263.954 88.5801V87.2441ZM264.71 83.8516V86.1016H265.747V83.8516H264.71ZM267.716 90.2324V87.2441H266.503V90.0215C266.573 90.1738 266.655 90.2559 266.749 90.2676H267.435C267.575 90.2676 267.669 90.2559 267.716 90.2324ZM264.728 87.2441V88.5977C264.716 90.0977 264.253 91.2344 263.339 92.0078C263.222 91.8672 263.046 91.7207 262.812 91.5684V93.0977H267.716V91.0762H266.679C266.21 91.0762 265.929 90.959 265.835 90.7246C265.765 90.5723 265.73 90.3438 265.73 90.0391V87.2441H264.728ZM274.062 96.8066H277.788V97.9141H269.228V96.8066H272.849V94.7324H270.089V93.6777H272.849V91.9199H270.599C270.271 92.5293 269.919 93.0508 269.544 93.4844C269.474 93.4141 269.234 93.25 268.823 92.9922V98.0371H267.716V97.0527H262.812V98.2832H261.757V86.1016H263.761V83.8516H261.441V82.709H268.999V83.8516H266.714V86.1016H268.823V92.623C269.585 91.709 270.159 90.5547 270.546 89.1602L271.654 89.3711C271.56 89.7227 271.384 90.209 271.126 90.8301H272.849V89.2305H274.062V90.8301H277.279V91.9199H274.062V93.6777H276.997V94.7324H274.062V96.8066ZM280.425 81.584C282.804 84.0098 283.993 86.8691 283.993 90.1621C283.982 93.4551 282.792 96.3086 280.425 98.7227L279.335 98.1777C281.573 95.8574 282.693 93.1855 282.693 90.1621C282.681 87.127 281.562 84.4551 279.335 82.1465L280.425 81.584Z" fill="#4F4F4F"/>
<rect x="25.5" y="19.5" width="290" height="112" rx="9.5" stroke="#20E2D7"/>
<rect width="50" height="50" rx="25" fill="#20E2D7"/>
<path d="M25.1506 34.618C26.2666 34.618 27.1666 34.402 27.6886 34.168L27.1846 32.206C26.7346 32.35 26.1766 32.494 25.4926 32.494C24.1066 32.494 22.5766 32.044 21.8926 31.036C24.8806 30.388 26.8786 27.904 26.8786 24.25C26.8786 19.93 24.1246 17.41 20.2726 17.41C16.4026 17.41 13.6846 19.93 13.6846 24.25C13.6846 28.084 15.8266 30.586 19.0486 31.126C20.0566 33.16 22.0366 34.618 25.1506 34.618ZM20.2726 29.074C17.9146 29.074 16.4026 27.256 16.4026 24.25C16.4026 21.424 17.9146 19.696 20.2726 19.696C22.5946 19.696 24.1606 21.406 24.1606 24.25C24.1606 27.256 22.5946 29.074 20.2726 29.074ZM35.2764 31V19.0029H32.9824C32.0508 19.5566 31.0049 20.207 30.082 20.8574V23.0283C30.9346 22.4395 32.1035 21.71 32.8418 21.2529H32.9209V31H35.2764Z" fill="white"/>
</svg>
