<svg width="242" height="89" viewBox="0 0 242 89" fill="none" xmlns="http://www.w3.org/2000/svg">
<g filter="url(#filter0_d)">
<rect x="16" y="12" width="210" height="57" rx="28.5" fill="#20E2D7"/>
<path d="M86.9082 33.7285H82.9707V35.1875H86.9082V33.7285ZM82.9707 37.7012H86.9082V36.1543H82.9707V37.7012ZM88.1738 38.7207H82.9707V48.3887H81.6523V32.709H88.1738V38.7207ZM87.6641 42.9043H90.1953V40.9531H87.6641V42.9043ZM93.8164 44.0293H91.373V48.0371H90.1953V44.0293H87.6289C87.5117 45.4238 86.9902 46.6016 86.0645 47.5625C85.8066 47.832 85.5254 48.0723 85.2207 48.2832C84.9277 47.9434 84.6348 47.6797 84.3418 47.4922C85.4902 46.8008 86.1875 45.752 86.4336 44.3457C86.4453 44.2285 86.457 44.123 86.4688 44.0293H84.2188V42.9043H86.5039V40.9531H84.5527V39.8457H93.4297V40.9531H91.373V42.9043H93.8164V44.0293ZM91.0391 37.7188H95.1172V36.1543H91.0391V37.7188ZM95.1172 33.7285H91.0391V35.1875H95.1172V33.7285ZM96.4355 32.709V46.6484C96.4355 47.3633 96.2363 47.8262 95.8379 48.0371C95.8027 48.0605 95.7676 48.0781 95.7324 48.0898C95.252 48.2656 94.3203 48.3477 92.9375 48.3359C92.8789 47.8672 92.7383 47.4219 92.5156 47C93.5938 47.0352 94.3379 47.041 94.748 47.0176C94.9824 46.9707 95.1055 46.8359 95.1172 46.6133V38.7383H89.7559V32.709H96.4355ZM105.734 39.4414L105.594 38.1406L107.018 38.0703C107.826 36.1953 108.518 34.1504 109.092 31.9355L110.551 32.2344C109.695 34.707 108.957 36.6289 108.336 38C109.332 37.9414 110.938 37.8418 113.152 37.7012C112.578 36.7168 112.033 35.8965 111.518 35.2402L112.59 34.7129C113.82 36.2832 114.729 37.7422 115.314 39.0898C115.373 39.2305 115.426 39.3652 115.473 39.4941L114.33 40.1445C114.225 39.8398 114.043 39.4121 113.785 38.8613C108.5 39.248 105.816 39.4414 105.734 39.4414ZM104.135 36.8926H101.797C101.363 38.6738 100.988 40.2031 100.672 41.4805C101.633 42.043 102.33 42.4824 102.764 42.7988C103.455 41.1348 103.912 39.166 104.135 36.8926ZM104.697 35.6094L105.506 35.7676C105.283 38.9551 104.727 41.5625 103.836 43.5898C104.727 44.293 105.424 44.9434 105.928 45.541L105.102 46.5957C104.645 46.0332 104.029 45.4297 103.256 44.7852C102.354 46.3555 101.193 47.5684 99.7754 48.4238C99.4707 47.9316 99.1953 47.5684 98.9492 47.334C100.297 46.6191 101.387 45.4941 102.219 43.959C101.668 43.5371 101.047 43.1094 100.355 42.6758L100.145 43.4492L99.0195 42.8516C99.3477 41.7266 99.8516 39.7402 100.531 36.8926H98.8438V35.6445H100.812C101.117 34.2031 101.369 32.9668 101.568 31.9355L102.834 32.0762C102.705 32.7324 102.447 33.9219 102.061 35.6445H104.469L104.697 35.6094ZM113.117 42.3594H108.09V46.3672H113.117V42.3594ZM106.824 48.3887V41.1289H114.453V48.3184H113.117V47.5801H108.09V48.3887H106.824ZM127.303 37.8066V36.0137H124.156V37.8066H127.303ZM127.303 40.7422V38.9316H124.156V40.7422H127.303ZM127.303 43.748V41.8672H124.156V43.748H127.303ZM122.855 45.7168V37.1211C122.633 37.4023 122.299 37.7539 121.854 38.1758C121.584 37.8594 121.238 37.543 120.816 37.2266C122.211 36.0547 123.342 34.5195 124.209 32.6211C124.314 32.3984 124.408 32.1816 124.49 31.9707L125.773 32.3223C125.422 33.1895 124.994 34.0391 124.49 34.8711H127.373C127.854 33.8398 128.211 32.9082 128.445 32.0762L129.852 32.3926C129.477 33.3301 129.096 34.1562 128.709 34.8711H132.646V36.0137H128.586V37.8066H132.102V38.9316H128.586V40.7422H132.066V41.8672H128.586V43.748H133.016V44.873H124.156V45.7168H122.855ZM121.52 34.3086L120.588 35.2227C120.049 34.5664 119.176 33.8809 117.969 33.166C117.863 33.0957 117.764 33.0371 117.67 32.9902L118.549 32.1641C119.861 32.8672 120.828 33.5527 121.449 34.2207C121.473 34.2559 121.496 34.2852 121.52 34.3086ZM121.01 37.8242L120.078 38.7734C119.445 38.1055 118.514 37.4434 117.283 36.7871C117.166 36.7285 117.061 36.6758 116.967 36.6289L117.846 35.7676C119.053 36.3184 120.043 36.9453 120.816 37.6484C120.898 37.7188 120.963 37.7773 121.01 37.8242ZM120.553 40.25V44.75C121.385 46.0156 122.896 46.6953 125.088 46.7891C127.83 46.8594 130.461 46.8242 132.98 46.6836C133.098 46.6836 133.203 46.6777 133.297 46.666C133.074 47.041 132.922 47.4805 132.84 47.9844C130.074 48.0781 127.496 48.0957 125.105 48.0371C122.867 47.9316 121.209 47.2812 120.131 46.0859C120.072 46.0273 120.02 45.9688 119.973 45.9102C119.352 46.5078 118.484 47.2754 117.371 48.2129L116.668 46.8945C117.5 46.3203 118.361 45.6348 119.252 44.8379V41.498H116.896V40.25H120.553ZM150.611 33.0254V34.291H141.822V33.0254H150.611ZM138.816 31.9355L140.1 32.4453C139.045 33.8633 137.715 35.1992 136.109 36.4531C135.898 36.6172 135.693 36.7695 135.494 36.9102C135.107 36.3477 134.844 35.9902 134.703 35.8379C136.016 34.959 137.188 33.916 138.219 32.709C138.453 32.4277 138.652 32.1699 138.816 31.9355ZM139.555 35.7676L140.803 36.2422C140.275 37.0977 139.613 38 138.816 38.9492V48.4238H137.498V40.4258C136.725 41.2109 136.045 41.8379 135.459 42.3066C135.107 41.8262 134.797 41.4512 134.527 41.1816C136.133 40.0332 137.568 38.5859 138.834 36.8398C139.104 36.4766 139.344 36.1191 139.555 35.7676ZM151.139 37.9473V39.2305H148.414V46.666C148.414 47.3457 148.227 47.791 147.852 48.002C147.781 48.0371 147.705 48.0723 147.623 48.1074C147.154 48.248 146.029 48.3184 144.248 48.3184C144.189 47.9199 144.043 47.4863 143.809 47.0176C145.18 47.0527 146.117 47.0586 146.621 47.0352C146.891 46.9414 147.037 46.8125 147.061 46.6484V39.2305H141.049V37.9473H151.139ZM158.803 37.2441V39.459H161.65V37.2441H158.803ZM158.803 40.5664V42.8164H161.65V40.5664H158.803ZM158.803 33.9395V36.1367H161.65V33.9395H158.803ZM157.66 32.7441H162.846V43.9941H157.66V32.7441ZM160.824 44.873L161.826 44.3105C162.717 45.3301 163.402 46.25 163.883 47.0703L162.811 47.7383C162.354 46.8828 161.691 45.9277 160.824 44.873ZM158.398 44.3633L159.629 44.6973C159.031 46.0566 158.234 47.2402 157.238 48.248C157.168 48.3066 157.104 48.3652 157.045 48.4238C156.857 48.2598 156.506 48.0137 155.99 47.6855C156.963 46.8301 157.736 45.7871 158.311 44.5566C158.346 44.4863 158.375 44.4219 158.398 44.3633ZM167.328 31.9531H168.541V46.7012C168.541 47.3809 168.359 47.8262 167.996 48.0371C167.938 48.0605 167.885 48.084 167.838 48.1074C167.393 48.2832 166.449 48.3711 165.008 48.3711C164.926 47.8672 164.797 47.4453 164.621 47.1055C165.629 47.1406 166.391 47.1406 166.906 47.1055C167.176 47.0586 167.316 46.9297 167.328 46.7188V31.9531ZM164.199 33.7812H165.395V44.0117H164.199V33.7812ZM153.512 33.0781L154.285 32.1289C155.492 32.7031 156.424 33.2949 157.08 33.9043C157.104 33.9277 157.121 33.9453 157.133 33.957L156.342 35.0117C155.768 34.4141 154.889 33.8047 153.705 33.1836C153.635 33.1367 153.57 33.1016 153.512 33.0781ZM152.738 37.8945L153.494 36.9277C154.83 37.4785 155.814 38.0293 156.447 38.5801L155.691 39.6699C155.059 39.0957 154.086 38.5098 152.773 37.9121C152.762 37.9004 152.75 37.8945 152.738 37.8945ZM153.107 47.4395C154.033 45.6582 154.865 43.7539 155.604 41.7266L156.658 42.4297C155.908 44.5273 155.129 46.4375 154.32 48.1602L153.107 47.4395ZM181.602 32.0059H182.85C183.705 33.4355 184.83 34.6719 186.225 35.7148C186.646 36.0312 187.062 36.2949 187.473 36.5059C187.227 36.7988 186.992 37.1855 186.77 37.666C185.387 36.8223 184.15 35.709 183.061 34.3262C182.756 33.9395 182.492 33.5645 182.27 33.2012C181.531 34.5371 180.482 35.7559 179.123 36.8574C178.713 37.1973 178.303 37.4902 177.893 37.7363C177.74 37.3613 177.523 36.998 177.242 36.6465C178.566 35.8848 179.732 34.8125 180.74 33.4297C181.092 32.9375 181.379 32.4629 181.602 32.0059ZM184.836 36.2422V37.2793H179.914V36.2422H184.836ZM179.316 39.3359V41.6035H180.986V39.3359H179.316ZM178.367 42.5352V38.4219H181.971V42.5352H178.367ZM185.574 41.6035V39.3359H183.816V41.6035H185.574ZM186.559 38.4219V42.5352H182.85V38.4219H186.559ZM171.354 47.3867L170.615 46.9648C171.084 46.25 171.365 44.9199 171.459 42.9746L172.268 43.1152C172.15 45.2129 171.857 46.6191 171.389 47.334C171.377 47.3574 171.365 47.375 171.354 47.3867ZM172.602 43.291L173.287 43.2031C173.498 44.4453 173.592 45.5234 173.568 46.4375L172.83 46.543C172.865 45.6172 172.789 44.5332 172.602 43.291ZM172.672 39.1426V40.8125H174.254V39.1426H172.672ZM174.254 33.7461H172.672V35.416H174.254V33.7461ZM174.254 38.0879V36.4531H172.672V38.0879H174.254ZM175.326 40.8125H177.682C177.682 40.8242 177.676 40.9883 177.664 41.3047C177.547 44.7383 177.365 46.7949 177.119 47.4746C177.061 47.6504 176.99 47.7852 176.908 47.8789C176.686 48.1602 176.375 48.3184 175.977 48.3535C175.672 48.3887 175.162 48.3945 174.447 48.3711C174.412 47.9492 174.318 47.5918 174.166 47.2988C174.658 47.3574 175.104 47.3867 175.502 47.3867C175.725 47.375 175.883 47.3047 175.977 47.1758C176.164 46.9297 176.305 46.1914 176.398 44.9609L175.836 45.207C175.648 44.5156 175.303 43.7305 174.799 42.8516L175.396 42.6406C175.865 43.3906 176.205 44.0879 176.416 44.7324C176.475 43.9238 176.527 42.9688 176.574 41.8672H171.564V32.6562H177.559V33.7461H175.326V35.416H177.225V36.4531H175.326V38.0879H177.242V39.1426H175.326V40.8125ZM175.098 45.8398L174.412 45.998C174.307 45.0488 174.072 44.082 173.709 43.0977L174.342 42.9746C174.752 43.9473 175.004 44.9023 175.098 45.8398ZM179.721 43.0273L180.846 43.0977C180.764 43.6953 180.641 44.2812 180.477 44.8555C181.297 45.5938 181.906 46.2324 182.305 46.7715L181.549 47.5449C181.209 47.0762 180.723 46.5254 180.09 45.8926C179.598 46.9473 178.947 47.791 178.139 48.4238C177.916 48.1426 177.635 47.8789 177.295 47.6328C178.607 46.707 179.416 45.1719 179.721 43.0273ZM184.168 43.0098L185.328 43.0801C185.234 43.748 185.094 44.375 184.906 44.9609C185.984 46.0273 186.793 46.9355 187.332 47.6855L186.471 48.3711C186.049 47.7617 185.387 46.9766 184.484 46.0156C184.004 46.9883 183.371 47.7734 182.586 48.3711C182.258 48.0078 181.971 47.7441 181.725 47.5801C183.061 46.6309 183.875 45.1074 184.168 43.0098Z" fill="white"/>
<path d="M69.4 32.8H73V46.3C73 47.0161 72.7155 47.7028 72.2092 48.2092C71.7028 48.7155 71.0161 49 70.3 49H57.7C56.9839 49 56.2972 48.7155 55.7908 48.2092C55.2845 47.7028 55 47.0161 55 46.3V31H69.4V32.8ZM69.4 34.6V46.3C69.4 46.5387 69.4948 46.7676 69.6636 46.9364C69.8324 47.1052 70.0613 47.2 70.3 47.2C70.5387 47.2 70.7676 47.1052 70.9364 46.9364C71.1052 46.7676 71.2 46.5387 71.2 46.3V34.6H69.4ZM56.8 32.8V46.3C56.8 46.5387 56.8948 46.7676 57.0636 46.9364C57.2324 47.1052 57.4613 47.2 57.7 47.2H67.753C67.6509 46.9109 67.5992 46.6065 67.6 46.3V32.8H56.8ZM58.6 40H65.8V41.8H58.6V40ZM58.6 43.6H65.8V45.4H58.6V43.6ZM58.6 34.6H65.8V38.2H58.6V34.6Z" fill="white"/>
</g>
<defs>
<filter id="filter0_d" x="0" y="0" width="242" height="89" filterUnits="userSpaceOnUse" color-interpolation-filters="sRGB">
<feFlood flood-opacity="0" result="BackgroundImageFix"/>
<feColorMatrix in="SourceAlpha" type="matrix" values="0 0 0 0 0 0 0 0 0 0 0 0 0 0 0 0 0 0 127 0"/>
<feMorphology radius="1" operator="erode" in="SourceAlpha" result="effect1_dropShadow"/>
<feOffset dy="4"/>
<feGaussianBlur stdDeviation="8.5"/>
<feColorMatrix type="matrix" values="0 0 0 0 0.418594 0 0 0 0 0.7125 0 0 0 0 0.695835 0 0 0 0.51 0"/>
<feBlend mode="normal" in2="BackgroundImageFix" result="effect1_dropShadow"/>
<feBlend mode="normal" in="SourceGraphic" in2="effect1_dropShadow" result="shape"/>
</filter>
</defs>
</svg>
