<svg width="327" height="126" viewBox="0 0 327 126" fill="none" xmlns="http://www.w3.org/2000/svg">
<g clip-path="url(#clip0)">
<path d="M144.145 126H65.3219C64.935 126 64.564 125.846 64.2904 125.571C64.0167 125.297 63.8628 124.926 63.8623 124.538V57.0108C63.8628 56.6232 64.0167 56.2515 64.2904 55.9774C64.564 55.7033 64.935 55.5491 65.3219 55.5486H144.145C144.532 55.5491 144.903 55.7033 145.176 55.9774C145.45 56.2515 145.604 56.6232 145.605 57.0108V124.538C145.604 124.925 145.45 125.297 145.177 125.571C144.903 125.845 144.532 126 144.145 126V126ZM65.3219 56.1323C65.09 56.1328 64.8677 56.2254 64.7037 56.3896C64.5398 56.5539 64.4474 56.7766 64.4469 57.0089V124.538C64.4474 124.77 64.5398 124.993 64.7037 125.157C64.8677 125.321 65.09 125.414 65.3219 125.414H144.145C144.377 125.414 144.599 125.321 144.763 125.157C144.927 124.993 145.019 124.77 145.02 124.538V57.0108C145.019 56.7785 144.927 56.5558 144.763 56.3916C144.599 56.2273 144.377 56.1348 144.145 56.1343L65.3219 56.1323Z" fill="#E6E6E6"/>
<path d="M77.5692 119.949C80.853 119.949 83.5151 117.282 83.5151 113.992C83.5151 110.702 80.853 108.035 77.5692 108.035C74.2854 108.035 71.6233 110.702 71.6233 113.992C71.6233 117.282 74.2854 119.949 77.5692 119.949Z" fill="#E6E6E6"/>
<path d="M91.3017 110.021C91.0389 110.021 90.7869 110.125 90.601 110.312C90.4152 110.498 90.3108 110.75 90.3108 111.013C90.3108 111.277 90.4152 111.529 90.601 111.715C90.7869 111.902 91.0389 112.006 91.3017 112.006H138.02C138.283 112.006 138.535 111.902 138.721 111.715C138.907 111.529 139.011 111.277 139.011 111.013C139.011 110.75 138.907 110.498 138.721 110.312C138.535 110.125 138.283 110.021 138.02 110.021H91.3017Z" fill="#E6E6E6"/>
<path d="M91.3017 115.978C91.0389 115.978 90.7869 116.082 90.601 116.269C90.4152 116.455 90.3108 116.707 90.3108 116.971C90.3108 117.234 90.4152 117.486 90.601 117.673C90.7869 117.859 91.0389 117.963 91.3017 117.963H111.405C111.668 117.963 111.92 117.859 112.106 117.673C112.291 117.486 112.396 117.234 112.396 116.971C112.396 116.707 112.291 116.455 112.106 116.269C111.92 116.082 111.668 115.978 111.405 115.978H91.3017Z" fill="#E6E6E6"/>
<path d="M162.872 102.448H84.049C83.662 102.447 83.291 102.293 83.0174 102.019C82.7437 101.745 82.5898 101.373 82.5894 100.985V66.3307C82.5898 65.943 82.7437 65.5713 83.0174 65.2972C83.291 65.023 83.662 64.8688 84.049 64.8684H162.872C163.259 64.8688 163.63 65.023 163.904 65.2972C164.178 65.5713 164.331 65.943 164.332 66.3307V100.985C164.331 101.373 164.178 101.745 163.904 102.019C163.63 102.293 163.259 102.447 162.872 102.448Z" fill="url(#paint0_linear)"/>
<path d="M100.102 76.9473C99.8387 76.9473 99.5867 77.0519 99.4008 77.238C99.215 77.4242 99.1106 77.6767 99.1106 77.94C99.1106 78.2033 99.215 78.4558 99.4008 78.642C99.5867 78.8282 99.8387 78.9328 100.102 78.9328H146.82C147.083 78.9328 147.335 78.8282 147.521 78.642C147.707 78.4558 147.811 78.2033 147.811 77.94C147.811 77.6767 147.707 77.4242 147.521 77.238C147.335 77.0519 147.083 76.9473 146.82 76.9473H100.102Z" fill="white"/>
<path d="M100.102 82.7C99.8387 82.7 99.5867 82.8045 99.4008 82.9907C99.215 83.1769 99.1106 83.4294 99.1106 83.6927C99.1106 83.956 99.215 84.2085 99.4008 84.3947C99.5867 84.5809 99.8387 84.6855 100.102 84.6855H146.82C147.083 84.6855 147.335 84.5809 147.521 84.3947C147.707 84.2085 147.811 83.956 147.811 83.6927C147.811 83.4294 147.707 83.1769 147.521 82.9907C147.335 82.8045 147.083 82.7 146.82 82.7H100.102Z" fill="white"/>
<path d="M100.102 88.3831C99.8387 88.3831 99.5867 88.4877 99.4008 88.6738C99.215 88.86 99.1106 89.1125 99.1106 89.3758C99.1106 89.6391 99.215 89.8916 99.4008 90.0778C99.5867 90.264 99.8387 90.3686 100.102 90.3686H120.205C120.467 90.3686 120.72 90.264 120.905 90.0778C121.091 89.8916 121.196 89.6391 121.196 89.3758C121.196 89.1125 121.091 88.86 120.905 88.6738C120.72 88.4877 120.467 88.3831 120.205 88.3831H100.102Z" fill="white"/>
<path d="M283 125.336H45V125.884H283V125.336Z" fill="#3F3D56"/>
<path d="M251.606 125.337H172.783C172.396 125.336 172.025 125.182 171.751 124.908C171.477 124.634 171.324 124.262 171.323 123.874V104.286C171.324 103.898 171.477 103.526 171.751 103.252C172.025 102.978 172.396 102.824 172.783 102.823H251.606C251.993 102.824 252.364 102.978 252.637 103.252C252.911 103.526 253.065 103.898 253.065 104.286V123.874C253.065 124.262 252.911 124.633 252.637 124.908C252.364 125.182 251.993 125.336 251.606 125.337ZM172.783 103.407C172.551 103.408 172.328 103.5 172.164 103.665C172 103.829 171.908 104.052 171.908 104.284V123.872C171.908 124.104 172 124.327 172.164 124.491C172.328 124.656 172.551 124.748 172.783 124.749H251.606C251.838 124.748 252.06 124.656 252.224 124.491C252.388 124.327 252.48 124.104 252.481 123.872V104.286C252.48 104.053 252.388 103.831 252.224 103.666C252.06 103.502 251.838 103.41 251.606 103.409L172.783 103.407Z" fill="#E6E6E6"/>
<path d="M185.03 119.285C188.314 119.285 190.976 116.618 190.976 113.328C190.976 110.038 188.314 107.372 185.03 107.372C181.746 107.372 179.084 110.038 179.084 113.328C179.084 116.618 181.746 119.285 185.03 119.285Z" fill="#E6E6E6"/>
<path d="M198.762 109.357C198.5 109.357 198.248 109.462 198.062 109.648C197.876 109.834 197.771 110.087 197.771 110.35C197.771 110.613 197.876 110.866 198.062 111.052C198.248 111.238 198.5 111.343 198.762 111.343H245.481C245.744 111.343 245.996 111.238 246.182 111.052C246.367 110.866 246.472 110.613 246.472 110.35C246.472 110.087 246.367 109.834 246.182 109.648C245.996 109.462 245.744 109.357 245.481 109.357H198.762Z" fill="#E6E6E6"/>
<path d="M198.762 115.314C198.5 115.314 198.248 115.419 198.062 115.605C197.876 115.791 197.771 116.044 197.771 116.307C197.771 116.57 197.876 116.823 198.062 117.009C198.248 117.195 198.5 117.3 198.762 117.3H218.866C219.128 117.3 219.38 117.195 219.566 117.009C219.752 116.823 219.856 116.57 219.856 116.307C219.856 116.044 219.752 115.791 219.566 115.605C219.38 115.419 219.128 115.314 218.866 115.314H198.762Z" fill="#E6E6E6"/>
<path d="M233.785 102.438L165.633 74.3091C165.299 74.1704 165.068 73.8686 164.992 73.4697C164.916 73.0709 165.001 72.6077 165.227 72.1815L176.698 50.6586C176.925 50.2328 177.276 49.8794 177.673 49.6758C178.07 49.4723 178.481 49.4353 178.816 49.5729L246.968 77.7015C247.302 77.8401 247.532 78.142 247.608 78.5408C247.684 78.9396 247.6 79.4029 247.373 79.829L235.903 101.352C235.676 101.777 235.325 102.131 234.928 102.334C234.531 102.538 234.12 102.575 233.785 102.437L233.785 102.438ZM178.474 50.2143C178.273 50.1321 178.027 50.1544 177.789 50.2764C177.551 50.3984 177.341 50.6101 177.204 50.8652L165.734 72.3877C165.598 72.6432 165.548 72.9208 165.593 73.1598C165.639 73.3989 165.777 73.5798 165.977 73.6631L234.129 101.792C234.33 101.874 234.576 101.852 234.814 101.73C235.052 101.608 235.262 101.396 235.399 101.141L246.868 79.6204C247.003 79.3649 247.054 79.0873 247.008 78.8483C246.963 78.6093 246.825 78.4283 246.625 78.345L178.474 50.2143Z" fill="#E6E6E6"/>
<path d="M178.609 70.1881C181.197 71.2502 184.714 69.4492 186.464 66.1654C188.214 62.8817 187.534 59.3587 184.946 58.2966C182.358 57.2345 178.842 59.0355 177.092 62.3193C175.342 65.6031 176.021 69.1261 178.609 70.1881Z" fill="#E6E6E6"/>
<path d="M196.357 66.1999C196.119 66.0959 195.826 66.1229 195.542 66.2748C195.259 66.4267 195.008 66.6911 194.845 67.0099C194.682 67.3287 194.62 67.6757 194.673 67.9747C194.726 68.2736 194.889 68.5 195.127 68.604L237.422 87.0877C237.66 87.1916 237.953 87.1647 238.237 87.0128C238.52 86.8609 238.771 86.5965 238.934 86.2777C239.097 85.9589 239.159 85.6118 239.106 85.3129C239.053 85.0139 238.89 84.7876 238.652 84.6836L196.357 66.1999Z" fill="#E6E6E6"/>
<path d="M193.91 71.633C193.675 71.5321 193.385 71.5584 193.105 71.7063C192.825 71.8542 192.577 72.1114 192.416 72.4215C192.256 72.7315 192.195 73.0689 192.248 73.3595C192.3 73.6501 192.462 73.8701 192.698 73.971L210.703 81.6916C210.938 81.7925 211.227 81.7661 211.508 81.6183C211.788 81.4704 212.035 81.2132 212.196 80.9031C212.357 80.5931 212.418 80.2556 212.365 79.965C212.312 79.6744 212.15 79.4545 211.915 79.3535L193.91 71.633Z" fill="#E6E6E6"/>
<path d="M178.563 50.3924L101.519 54.8478C101.14 54.8691 100.754 54.7193 100.444 54.4313C100.134 54.1432 99.9266 53.7404 99.8664 53.3112L96.8449 31.6222C96.7856 31.193 96.8788 30.7728 97.1039 30.4538C97.3291 30.1348 97.6679 29.9431 98.0461 29.9207L175.091 25.4653C175.469 25.444 175.855 25.5938 176.165 25.8818C176.475 26.1698 176.682 26.5726 176.743 27.0018L179.764 48.6905C179.824 49.1198 179.73 49.5401 179.505 49.8592C179.28 50.1782 178.941 50.37 178.563 50.3924ZM98.1361 30.567C97.9095 30.5807 97.7065 30.6957 97.5716 30.8869C97.4366 31.078 97.3807 31.3298 97.4161 31.5871L100.437 53.2758C100.474 53.533 100.598 53.7743 100.784 53.9469C100.97 54.1196 101.201 54.2094 101.428 54.1969L178.472 49.7415C178.699 49.7279 178.902 49.6129 179.037 49.4218C179.172 49.2306 179.228 48.9787 179.192 48.7215L176.171 27.0349C176.135 26.7776 176.01 26.5363 175.825 26.3636C175.639 26.191 175.408 26.1011 175.181 26.1138L98.1361 30.567Z" fill="#E6E6E6"/>
<path d="M112.058 47.9159C115.132 47.7444 117.232 44.8561 116.75 41.4648C116.267 38.0734 113.384 35.4631 110.31 35.6346C107.236 35.8061 105.136 38.6943 105.618 42.0857C106.101 45.4771 108.984 48.0874 112.058 47.9159Z" fill="#E6E6E6"/>
<path d="M124.513 35.9104C124.252 35.9293 124.019 36.0901 123.865 36.3571C123.711 36.6242 123.648 36.9758 123.691 37.3345C123.734 37.6932 123.879 38.0297 124.094 38.2699C124.309 38.5101 124.576 38.6344 124.837 38.6155L171.224 35.2415C171.485 35.2225 171.718 35.0618 171.872 34.7947C172.026 34.5277 172.089 34.1761 172.046 33.8174C172.003 33.4587 171.858 33.1222 171.643 32.882C171.428 32.6417 171.161 32.5174 170.9 32.5364L124.513 35.9104Z" fill="#E6E6E6"/>
<path d="M125.027 42.0861C124.767 42.1032 124.535 42.2496 124.38 42.4933C124.226 42.7369 124.163 43.0578 124.205 43.3853C124.247 43.7128 124.391 44.0201 124.604 44.2397C124.818 44.4592 125.084 44.5729 125.344 44.5559L145.235 43.2518C145.495 43.2348 145.728 43.0883 145.882 42.8447C146.037 42.601 146.1 42.2802 146.058 41.9527C146.016 41.6251 145.872 41.3178 145.659 41.0983C145.445 40.8788 145.179 40.765 144.919 40.782L125.027 42.0861Z" fill="#E6E6E6"/>
<path d="M272.852 113.073C272.743 117.146 272.062 121.184 270.829 125.067C270.801 125.157 270.771 125.246 270.741 125.336H263.191C263.199 125.255 263.207 125.165 263.215 125.067C263.718 119.269 260.842 84.4008 257.372 78.366C257.676 78.8555 273.437 94.6498 272.852 113.073Z" fill="url(#paint1_linear)"/>
<path d="M272.285 125.067C272.222 125.157 272.157 125.248 272.089 125.336H266.425C266.468 125.26 266.517 125.17 266.575 125.067C267.511 123.376 270.281 118.317 272.851 113.073C275.613 107.438 278.149 101.589 277.935 99.4717C278.002 99.9489 279.914 114.504 272.285 125.067Z" fill="url(#paint2_linear)"/>
<path d="M167.641 45.8948C176.884 45.8948 184.376 38.3887 184.376 29.1295C184.376 19.8703 176.884 12.3643 167.641 12.3643C158.399 12.3643 150.906 19.8703 150.906 29.1295C150.906 38.3887 158.399 45.8948 167.641 45.8948Z" fill="#2F2E41"/>
<path d="M167.981 47.3756C174.86 47.3756 180.436 41.789 180.436 34.8976C180.436 28.0062 174.86 22.4197 167.981 22.4197C161.102 22.4197 155.526 28.0062 155.526 34.8976C155.526 41.789 161.102 47.3756 167.981 47.3756Z" fill="#FEB8B8"/>
<path d="M186.912 53.0074C186.912 53.0074 164.092 48.9431 149.385 54.0235L153.696 88.3161L152.682 93.9045L183.108 92.8885L181.08 87.3L186.912 53.0074Z" fill="#FEB8B8"/>
<path d="M171.054 90.0139C165.8 89.9512 160.553 89.6181 155.333 89.0161C154.261 88.898 153.273 88.3812 152.563 87.568C151.853 86.7547 151.473 85.7042 151.499 84.6241L151.869 68.5868L151.912 68.5243C156.321 62.1266 154.174 57.4536 152.521 54.9378C152.172 54.4065 151.987 53.7844 151.987 53.1485C151.734 52.7929 151.677 53.3543 151.835 52.956C151.913 52.7583 152.039 52.5833 152.202 52.4469C152.364 52.3104 152.558 52.2168 152.766 52.1746L155.284 51.6706C155.586 51.6102 155.899 51.662 156.166 51.8163C156.433 51.9707 156.634 52.2171 156.733 52.5094C157.579 55.0379 160.876 63.1737 168.43 63.1716C174.741 63.1716 177.096 54.2245 177.237 52.1568C177.26 51.8365 177.403 51.5367 177.638 51.3179C177.872 51.099 178.181 50.9773 178.501 50.9772H181.646C181.845 50.9725 182.042 51.0127 182.223 51.0948C182.405 51.177 182.565 51.2989 182.693 51.4517C182.85 51.6461 182.945 51.8828 182.967 52.1316C182.989 52.3805 182.937 52.6303 182.817 52.8493C179.229 59.4589 184.473 69.9194 184.526 70.021L184.559 70.0871L183.08 85.4771C182.99 86.38 182.62 87.232 182.022 87.9134C181.424 88.5948 180.628 89.0712 179.746 89.2757C177.458 89.8137 174.366 90.0139 171.054 90.0139Z" fill="#CCCCCC"/>
<path d="M142.094 125.723C138.686 125.723 135.566 125.347 133.088 124.458C130.141 123.402 128.291 121.694 127.588 119.378C127.256 118.394 127.157 117.346 127.299 116.317C127.44 115.288 127.818 114.306 128.403 113.448C132.762 106.909 147.887 105.065 149.916 104.847L150.991 95.8717C151.119 94.8359 151.615 93.8809 152.389 93.1822C153.163 92.4835 154.162 92.0881 155.204 92.0685L180.677 91.6702C181.701 91.6454 182.699 91.9897 183.49 92.6403C184.281 93.2909 184.813 94.2045 184.988 95.2148L186.435 103.191L169.732 111.307L172.257 118.391L172.093 118.502C167.204 121.766 153.145 125.723 142.094 125.723Z" fill="#2F2E41"/>
<path d="M184.226 101.384C184.226 101.384 207.443 97.931 205.929 111.741C204.415 125.552 186.75 135.334 160 111.741L163.028 104.836C163.028 104.836 178.17 109.44 184.226 105.987V101.384Z" fill="#2F2E41"/>
<path d="M163.331 106.605C163.331 106.605 163.331 100.509 158.26 101.017C153.189 101.525 144.061 102.033 144.061 102.033C144.061 102.033 141.018 104.065 145.075 105.081C149.132 106.097 161.303 111.178 161.303 111.178L163.331 106.605Z" fill="#FEB8B8"/>
<path d="M171.952 105.589C171.952 105.589 171.952 99.4927 177.023 100.001C182.094 100.509 191.222 101.017 191.222 101.017C191.222 101.017 194.265 103.049 190.208 104.065C186.151 105.081 173.98 110.162 173.98 110.162L171.952 105.589Z" fill="#FEB8B8"/>
<path d="M202.339 104.434L194.773 78.1551C194.773 78.1551 193.251 69.0104 191.73 60.3738C190.208 51.7371 184.63 52.7532 184.63 52.7532L183.616 53.2612V66.9783L184.63 79.6792L194.755 107.571C194.457 108.538 194.44 109.57 194.705 110.547C194.971 111.523 195.508 112.404 196.255 113.086C197.002 113.768 197.927 114.223 198.922 114.398C199.917 114.573 200.941 114.461 201.875 114.075C202.809 113.688 203.614 113.044 204.196 112.216C204.778 111.388 205.112 110.412 205.161 109.401C205.21 108.39 204.97 107.386 204.471 106.506C203.971 105.626 203.232 104.907 202.339 104.432V104.434Z" fill="#FEB8B8"/>
<path d="M151.16 53.7693C151.16 53.7693 145.582 52.7532 144.06 61.3899C142.539 70.0265 141.018 79.1712 141.018 79.1712L133.451 105.451C132.559 105.925 131.819 106.644 131.32 107.524C130.82 108.404 130.581 109.408 130.629 110.419C130.678 111.43 131.013 112.407 131.595 113.234C132.176 114.062 132.981 114.706 133.915 115.093C134.849 115.479 135.873 115.591 136.869 115.416C137.864 115.241 138.789 114.786 139.535 114.104C140.282 113.422 140.819 112.541 141.085 111.565C141.351 110.588 141.334 109.556 141.036 108.589L151.16 80.6974L152.174 67.9964V55.4133C152.174 55.072 152.079 54.7373 151.9 54.447C151.721 54.1566 151.465 53.9219 151.16 53.7693Z" fill="#FEB8B8"/>
<path d="M155.652 27.2325C160.516 30.2072 166 32.0174 171.677 32.5222L169.988 30.4946C171.217 30.9499 172.512 31.2071 173.822 31.2567C174.478 31.2757 175.129 31.1405 175.724 30.8618C176.318 30.5831 176.839 30.1687 177.245 29.6518C177.576 29.1151 177.773 28.506 177.819 27.8766C177.864 27.2472 177.757 26.616 177.507 26.0371C176.992 24.8822 176.191 23.8784 175.179 23.1214C173.387 21.7007 171.271 20.7463 169.021 20.3435C166.771 19.9406 164.456 20.1017 162.283 20.8124C160.792 21.2582 159.456 22.116 158.429 23.2875C157.924 23.8775 157.574 24.5837 157.409 25.3428C157.244 26.102 157.27 26.8902 157.484 27.6369" fill="#2F2E41"/>
<path d="M169.217 14.2251C165.288 10.2342 160.534 7.15453 155.29 5.20285C151.923 3.95358 148.258 3.18138 144.739 3.89111C141.22 4.60084 137.893 7.04095 136.909 10.4997C136.106 13.3284 136.936 16.3746 138.182 19.0378C139.428 21.7009 141.091 24.169 142.099 26.9327C143.128 29.7515 143.437 32.7829 142.999 35.7519C142.562 38.7209 141.391 41.5334 139.593 43.934C137.795 46.3346 135.427 48.2472 132.704 49.4983C129.981 50.7494 126.989 51.2993 124 51.0981C127.458 51.5624 130.646 53.1907 134.026 54.0574C137.407 54.9241 141.396 54.8652 143.908 52.4393C146.566 49.8727 146.619 45.6991 146.49 42.0032L145.917 25.5198C145.82 22.718 145.737 19.8257 146.745 17.2104C147.754 14.595 150.151 12.3047 152.95 12.3286C155.071 12.3469 156.948 13.6337 158.649 14.9033C160.351 16.1729 162.148 17.5274 164.264 17.7158C166.379 17.9043 168.789 16.3386 168.63 14.219" fill="#2F2E41"/>
</g>
<defs>
<linearGradient id="paint0_linear" x1="123.461" y1="-15.6585" x2="123.461" y2="112.513" gradientUnits="userSpaceOnUse">
<stop stop-color="#F9FEA5"/>
<stop offset="0.489583" stop-color="#96FBC4"/>
<stop offset="1" stop-color="#20E2D7"/>
</linearGradient>
<linearGradient id="paint1_linear" x1="265.12" y1="-22.2846" x2="265.12" y2="137.918" gradientUnits="userSpaceOnUse">
<stop stop-color="#F9FEA5"/>
<stop offset="0.489583" stop-color="#96FBC4"/>
<stop offset="1" stop-color="#20E2D7"/>
</linearGradient>
<linearGradient id="paint2_linear" x1="272.31" y1="44.0474" x2="272.31" y2="132.264" gradientUnits="userSpaceOnUse">
<stop stop-color="#F9FEA5"/>
<stop offset="0.489583" stop-color="#96FBC4"/>
<stop offset="1" stop-color="#20E2D7"/>
</linearGradient>
<clipPath id="clip0">
<rect width="327" height="126" fill="white"/>
</clipPath>
</defs>
</svg>
