<svg width="375" height="221" viewBox="0 0 375 221" fill="none" xmlns="http://www.w3.org/2000/svg">
<g filter="url(#filter0_d)">
<rect width="375" height="220" fill="#EFFFFD"/>
<g clip-path="url(#clip0)">
<path opacity="0.1" d="M172.927 104.286C175.753 115.206 181.732 124.647 191.179 129.223C210.82 138.733 255.115 133.828 288.175 128.198C305.275 125.286 320.306 117.25 331.225 105.94L172.927 104.286Z" fill="#2D6461"/>
<path opacity="0.1" d="M346.287 52.8805H328.148C327.287 52.8805 326.581 52.2428 326.581 51.4636C326.581 50.6844 327.287 50.045 328.148 50.045H331.285C330.423 50.045 329.718 49.4073 329.718 48.6265C329.718 47.8456 330.423 47.2095 331.285 47.2095H329.046C328.184 47.2095 327.477 46.5718 327.477 45.791C327.477 45.0101 328.184 44.374 329.046 44.374H338.513C336.413 43.4907 333.957 42.8627 331.127 42.5325C305.311 39.5343 296.094 41.5174 292.843 43.5557C288.791 46.1281 284.289 47.913 279.575 48.8168C263.647 51.789 233.86 55.3647 206.863 47.678C193.445 43.8502 183.471 50.3102 177.494 61.1089H349.437C349.212 57.9708 348.54 55.0718 347.307 52.5357C347.015 52.7611 346.656 52.8825 346.287 52.8805Z" fill="#2D6461"/>
<path opacity="0.1" d="M171.389 81.491C170.692 87.8423 170.929 94.2613 172.092 100.544L331.347 105.813C335.731 101.268 339.455 96.1302 342.412 90.5506L171.389 81.491ZM234.376 95.0829H231.241C232.103 95.0829 232.809 95.7222 232.809 96.5014C232.809 97.2807 232.103 97.9184 231.241 97.9184H213.102C212.241 97.9184 211.535 97.2807 211.535 96.5014C211.535 95.7222 212.241 95.0829 213.102 95.0829H216.239C215.377 95.0829 214.672 94.4452 214.672 93.6659C214.672 92.8867 215.377 92.2474 216.239 92.2474H213.998C213.136 92.2474 212.43 91.6097 212.43 90.8304C212.43 90.0512 213.136 89.4118 213.998 89.4118H232.137C233 89.4118 233.704 90.0496 233.704 90.8304C233.704 91.6113 233 92.2474 232.137 92.2474H234.376C235.239 92.2474 235.943 92.8851 235.943 93.6659C235.943 94.4468 235.239 95.0829 234.376 95.0829Z" fill="#2D6461"/>
<path opacity="0.1" d="M349.443 61.2064L175.576 65.0294C173.46 69.9472 172.058 75.5076 171.412 81.2697H346.397C347.536 77.8985 348.381 74.4352 348.923 70.9184C349.445 67.533 349.653 64.2583 349.443 61.2064ZM206.713 73.7409H203.577C204.44 73.7409 205.146 74.3802 205.146 75.1595C205.146 75.9387 204.44 76.578 203.577 76.578H185.439C184.578 76.578 183.871 75.9387 183.871 75.1595C183.871 74.3802 184.578 73.7409 185.439 73.7409H188.576C187.713 73.7409 187.009 73.1032 187.009 72.3239C187.009 71.5447 187.713 70.9054 188.576 70.9054H186.335C185.473 70.9054 184.766 70.2677 184.766 69.4884C184.766 68.7092 185.473 68.0699 186.335 68.0699H204.474C205.336 68.0699 206.041 68.7076 206.041 69.4884C206.041 70.2693 205.336 70.9054 204.474 70.9054H206.713C207.576 70.9054 208.28 71.5447 208.28 72.3239C208.28 73.1032 207.576 73.7409 206.713 73.7409Z" fill="#2D6461"/>
<path opacity="0.1" d="M259.698 168.066C299.868 168.066 332.432 165.071 332.432 161.377C332.432 157.682 299.868 154.687 259.698 154.687C219.528 154.687 186.963 157.682 186.963 161.377C186.963 165.071 219.528 168.066 259.698 168.066Z" fill="#2D6461"/>
<path d="M333.828 106.124C333.828 106.113 333.828 106.101 333.828 106.09C333.828 106.072 333.828 106.056 333.828 106.039C333.796 105.853 333.725 105.675 333.622 105.517C333.249 104.921 332.731 104.431 332.115 104.092C331.041 103.503 329.565 103.251 329.135 102.127C329.004 101.779 329 101.4 328.935 101.035C328.821 100.468 328.56 99.9398 328.178 99.5049C327.795 99.07 327.305 98.7434 326.756 98.5578C326.245 98.3869 325.694 98.3398 325.198 98.1283C324.088 97.6565 323.502 96.4933 323.006 95.418C322.363 94.0298 321.721 92.6411 321.079 91.2518C320.591 91.4975 319.959 91.382 319.502 91.0745C319.062 90.7465 318.711 90.313 318.482 89.8137C317.82 88.5285 317.535 87.0726 316.757 85.8492C315.979 84.6259 314.425 83.6595 313.052 84.1915C312.784 84.3254 312.506 84.4401 312.222 84.5348C311.045 84.8097 309.744 83.466 308.736 84.1183C308.569 84.2256 308.433 84.3748 308.341 84.551C308.34 84.5402 308.34 84.5293 308.341 84.5185C308.21 84.7831 308.137 85.0726 308.126 85.3677C308.126 85.4279 308.126 85.4864 308.126 85.5434C308.126 85.5531 308.126 85.5629 308.126 85.5727C308.126 85.8069 308.141 86.0444 308.144 86.2819C308.148 86.4814 308.132 86.6808 308.098 86.8773V86.8611C308.079 86.9717 308.051 87.0805 308.014 87.1864C307.752 87.8892 307.026 88.3496 306.686 89.0101V88.9775C306.648 89.0494 306.615 89.1239 306.587 89.2004C306.526 89.3735 306.495 89.5555 306.494 89.7389C306.465 90.9801 307.781 92.1482 307.934 93.4805C308.043 94.4241 308.26 94.7266 309.062 95.2602L309.238 95.3774C309.168 95.3774 309.096 95.3871 309.016 95.3888C308.985 95.3893 308.954 95.3926 308.923 95.3985C308.782 95.3596 308.633 95.3525 308.489 95.3778C308.344 95.4031 308.207 95.4602 308.087 95.5449C307.472 96.033 306.017 95.6572 305.371 95.5449C304.725 95.4327 302.512 95.7353 302.203 96.9619C301.894 98.1885 301.363 100.72 301.363 100.72C301.363 100.72 301.363 102.325 301.166 102.625C301.159 102.646 301.159 102.669 301.166 102.69C301.166 103.14 301.183 105.849 300.747 106.547C300.639 106.71 300.647 107.069 300.727 107.512C300.268 108.102 299.837 108.792 299.913 109.244C300.053 110.17 301.931 113.08 304.623 111.522C304.623 111.522 306.154 108.722 304.227 107.233L304.31 106.908C304.893 107.624 305.324 108.138 305.324 108.138C305.324 108.138 305.347 108.198 305.383 108.301H305.324C305.575 108.985 305.728 109.701 305.776 110.429C305.769 110.695 305.721 110.959 305.633 111.211H305.684C305.669 111.266 305.653 111.322 305.633 111.374C305.539 111.648 305.362 111.887 305.127 112.059C303.781 113.012 302.24 119.82 302.24 119.82C302.24 119.82 299.188 130.825 298.577 131.452C298.073 131.966 301.243 133.414 303.622 133.241C303.954 133.221 304.282 133.159 304.598 133.056C304.613 133.218 304.629 133.381 304.645 133.529C304.696 134.017 304.748 134.469 304.781 134.611C304.865 134.965 305.033 138.587 305.033 138.587C305.033 138.587 304.689 140.939 304.772 142.576C304.772 142.688 304.787 142.795 304.797 142.901L304.501 142.947C304.052 143.955 305.902 152.371 306.154 153.078C306.321 153.636 306.415 154.213 306.434 154.795C306.434 154.795 306.271 155.393 306.406 155.72C306.49 155.92 306.545 156.131 306.569 156.347C306.569 156.347 306.458 156.89 306.626 157.244C306.793 157.599 306.598 158.221 306.598 158.221C306.598 158.221 306.543 160.672 306.038 162.006C305.901 162.365 305.861 162.754 305.922 163.133C305.984 163.513 306.145 163.869 306.388 164.167C306.423 164.213 306.461 164.257 306.502 164.298C306.502 164.298 309.285 164.321 309.775 164.298H309.838C310.035 164.271 310.539 162.065 310.09 161.002C309.641 159.94 310.035 158.632 310.035 158.632V156.7C310.035 156.7 310.539 156.234 310.035 155.235C309.53 154.237 309.613 153.934 309.613 153.934C309.613 153.934 310.175 152.327 309.586 151.809C308.997 151.292 309.698 149.33 309.698 149.33L309.897 142.79C309.793 142.757 309.687 142.729 309.579 142.709C309.568 142.602 309.556 142.491 309.545 142.374C309.43 141.19 309.33 139.579 309.587 139.12C309.844 138.662 309.968 134.656 310.009 131.873L312.573 131.971C312.627 133.272 312.684 134.46 312.72 134.611C312.804 134.965 312.974 138.587 312.974 138.587C312.974 138.587 312.629 140.939 312.712 142.576C312.712 142.688 312.726 142.795 312.736 142.901L312.44 142.947C311.991 143.955 313.841 152.371 314.093 153.078C314.26 153.636 314.355 154.213 314.375 154.795C314.375 154.795 314.212 155.393 314.345 155.72C314.43 155.92 314.484 156.131 314.508 156.347C314.508 156.347 314.398 156.89 314.565 157.244C314.733 157.599 314.537 158.221 314.537 158.221C314.537 158.221 314.482 160.672 313.978 162.006C313.842 162.366 313.805 162.754 313.868 163.133C313.932 163.512 314.094 163.867 314.339 164.163C314.374 164.21 314.412 164.254 314.453 164.295C314.453 164.295 317.235 164.318 317.725 164.295H317.789C317.986 164.267 318.49 162.061 318.041 160.999C317.592 159.937 317.986 158.629 317.986 158.629V156.7C317.986 156.7 318.49 156.234 317.986 155.235C317.481 154.237 317.564 153.934 317.564 153.934C317.564 153.934 318.126 152.327 317.536 151.809C316.947 151.292 317.649 149.33 317.649 149.33L317.851 142.79C317.744 142.756 317.635 142.729 317.525 142.709C317.514 142.602 317.502 142.491 317.491 142.374C317.375 141.19 317.276 139.579 317.533 139.12C317.74 138.745 317.859 136.324 317.912 133.96C317.912 133.797 317.912 133.635 317.925 133.472C319.104 133.423 320.277 133.292 321.437 133.078C321.437 133.078 320.065 128.229 320.485 127.44C320.666 127.1 320.405 125.289 320.049 123.339C320.546 123.741 321.164 123.964 321.803 123.973C322.417 125.153 324.283 127.866 325.334 128.284C326.568 128.772 325.642 124.445 325.054 123.819C324.776 123.477 324.542 123.101 324.358 122.701C324.374 122.682 324.392 122.665 324.408 122.647C324.425 122.629 324.438 118.044 324.156 118.127C323.875 118.209 323.539 117.445 323.539 117.445L322.67 109.82L322.306 106.628C322.61 106.853 322.971 106.996 323.282 107.219C324.128 107.839 324.405 108.927 324.776 109.89C325.082 110.682 325.512 111.468 326.216 111.966C326.921 112.464 327.954 112.595 328.657 112.091C329.308 111.618 329.5 110.764 329.643 109.984C330.825 110.399 332.258 109.29 332.105 108.078C332.068 107.778 331.957 107.451 332.113 107.19C332.426 106.672 333.415 106.973 333.741 106.462C333.795 106.374 333.824 106.272 333.822 106.168C333.827 106.145 333.828 106.135 333.828 106.124ZM318.026 110.318C318.008 110.609 318.409 112.948 318.734 114.8C318.467 113.646 317.932 112.415 316.877 111.571C316.877 111.571 316.877 111.512 316.864 111.408H316.877C316.877 111.408 316.834 110.943 316.827 110.28C316.829 109.694 316.872 109.108 316.957 108.527V108.512H316.936C316.936 108.463 316.949 108.413 316.957 108.364C317.022 107.874 317.155 107.395 317.353 106.942C317.44 106.765 317.541 106.594 317.654 106.431C317.828 108.005 318.043 110.023 318.026 110.318ZM318.902 115.738C319.045 116.537 319.147 117.098 319.147 117.098L320.012 123.03V123.057C319.546 120.554 318.952 117.915 318.952 117.915C319.013 117.19 318.996 116.46 318.902 115.738Z" fill="url(#paint0_linear)"/>
<path d="M308.312 93.8059C308.149 92.3027 306.522 91.0062 307.01 89.5762C307.275 88.797 308.105 88.3203 308.385 87.546C308.57 87.0351 308.487 86.4739 308.489 85.9306C308.491 85.3872 308.618 84.7804 309.07 84.4794C310.046 83.8287 311.302 85.1676 312.442 84.8943C312.717 84.8001 312.985 84.6859 313.244 84.5527C314.573 84.0239 316.077 84.987 316.824 86.2039C317.571 87.4207 317.851 88.8718 318.492 90.1505C318.711 90.6442 319.05 91.0754 319.478 91.4047C319.92 91.7106 320.526 91.8261 321.004 91.582L322.867 95.7304C323.355 96.7992 323.915 97.9575 324.983 98.4276C325.461 98.6375 325.995 98.6846 326.49 98.8555C327.027 99.045 327.506 99.3725 327.877 99.805C328.248 100.238 328.499 100.76 328.605 101.32C328.668 101.684 328.67 102.062 328.799 102.408C329.214 103.528 330.641 103.778 331.68 104.361C332.282 104.7 332.786 105.188 333.145 105.777C333.308 106.059 333.448 106.428 333.274 106.705C332.959 107.212 332.004 106.913 331.702 107.429C331.549 107.689 331.656 108.014 331.702 108.314C331.85 109.519 330.462 110.624 329.319 110.211C329.181 110.986 328.994 111.837 328.366 112.307C327.69 112.812 326.69 112.678 326.008 112.184C325.326 111.689 324.913 110.907 324.617 110.118C324.257 109.158 323.988 108.075 323.17 107.458C322.874 107.237 322.519 107.094 322.229 106.871C321.579 106.373 321.253 105.551 321.02 104.756C320.719 103.764 320.48 102.744 320.044 101.806C319.608 100.869 318.918 99.9975 317.973 99.5696C317.086 99.1711 316.064 99.1971 315.148 98.8734C313.571 98.317 312.404 96.9911 310.835 96.3665C310.334 96.1557 309.859 95.8871 309.42 95.5661C308.631 95.0471 308.416 94.7462 308.312 93.8059Z" fill="#3F3D56"/>
<g opacity="0.1">
<path opacity="0.1" d="M308.458 87.2271C308.492 87.1635 308.521 87.0977 308.546 87.0303C308.73 86.5195 308.648 85.9582 308.65 85.4149C308.65 85.2336 308.667 85.0528 308.701 84.8748C308.55 85.1962 308.477 85.5483 308.487 85.9029C308.486 86.3405 308.538 86.7993 308.458 87.2271Z" fill="black"/>
<path opacity="0.1" d="M328.519 111.797C327.843 112.299 326.843 112.168 326.161 111.671C325.479 111.175 325.064 110.396 324.776 109.604C324.416 108.644 324.15 107.56 323.329 106.944C323.035 106.723 322.679 106.578 322.391 106.357C321.74 105.859 321.414 105.037 321.18 104.25C320.879 103.258 320.641 102.238 320.204 101.301C319.766 100.364 319.079 99.4916 318.132 99.0637C317.247 98.6652 316.225 98.6912 315.309 98.3675C313.73 97.8111 312.564 96.4853 310.997 95.8606C310.495 95.6492 310.019 95.3806 309.579 95.0602C308.808 94.5282 308.603 94.2273 308.489 93.2886C308.326 91.8798 306.894 90.6516 307.117 89.3241C307.081 89.3959 307.049 89.4698 307.021 89.5453C306.533 90.9769 308.16 92.2735 308.323 93.775C308.429 94.7137 308.648 95.0146 309.413 95.5466C309.853 95.8671 310.329 96.1356 310.831 96.347C312.398 96.9717 313.564 98.2991 315.143 98.8539C316.059 99.1792 317.081 99.1516 317.966 99.5501C318.913 99.978 319.593 100.852 320.038 101.787C320.482 102.722 320.719 103.739 321.014 104.736C321.253 105.524 321.567 106.345 322.225 106.843C322.519 107.064 322.875 107.209 323.163 107.43C323.977 108.047 324.25 109.13 324.61 110.09C324.906 110.879 325.321 111.66 326.003 112.155C326.685 112.649 327.686 112.783 328.361 112.28C328.792 111.954 329.012 111.458 329.157 110.926C329.028 111.269 328.807 111.571 328.519 111.797Z" fill="black"/>
<path opacity="0.1" d="M331.863 106.918C331.8 107.035 331.773 107.167 331.785 107.299C332.152 106.936 332.982 107.149 333.272 106.682C333.339 106.567 333.366 106.432 333.347 106.3C332.969 106.658 332.139 106.444 331.863 106.918Z" fill="black"/>
<path opacity="0.1" d="M329.472 109.7C329.441 109.862 329.41 110.036 329.371 110.206C330.367 110.516 331.518 109.718 331.68 108.709C331.285 109.485 330.309 110.004 329.472 109.7Z" fill="black"/>
</g>
<path d="M310.414 94.5883C310.414 94.5883 310.956 95.6815 309.356 95.7043C307.757 95.7271 310.386 102.804 310.386 102.804L313.045 106.187L316.353 104.398L316.544 99.4622L316.788 96.4803C316.788 96.4803 313.696 95.4765 314.266 94.1491C314.835 92.8216 310.414 94.5883 310.414 94.5883Z" fill="#FBBEBE"/>
<path d="M320.016 123.441C320.016 123.441 321.969 125.363 324.247 122.813L322.498 120.957H320.285L320.016 123.441Z" fill="#575A89"/>
<path opacity="0.1" d="M320.228 120.957L319.959 123.441C319.959 123.441 321.912 125.363 324.19 122.813" fill="black"/>
<path d="M323.513 121.296C323.513 121.296 324.299 123.357 324.869 123.98C325.438 124.603 326.333 128.914 325.141 128.426C323.948 127.938 321.67 124.305 321.533 123.682C321.396 123.059 321.344 121.296 321.344 121.296H323.513Z" fill="#FBBEBE"/>
<path d="M306.455 131.87L316.977 132.276L315.756 127.829L310.456 127.721L306.455 131.87Z" fill="#575A89"/>
<path opacity="0.1" d="M307.918 131.87L318.441 132.276L317.221 127.829L311.919 127.721L307.918 131.87Z" fill="black"/>
<path d="M309.898 139.211C309.649 139.675 309.745 141.279 309.858 142.465C309.929 143.22 310.007 143.801 310.007 143.801C310.007 143.801 306.074 145.021 305.479 143.963C305.327 143.695 305.252 143.225 305.226 142.673C305.145 141.046 305.479 138.702 305.479 138.702C305.479 138.702 305.316 135.097 305.235 134.744C305.202 134.603 305.152 134.154 305.103 133.667C305.031 132.945 304.963 132.141 304.963 132.141L310.333 129.294C310.333 129.294 310.333 129.828 310.323 130.65C310.294 133.23 310.207 138.642 309.898 139.211Z" fill="#FBBEBE"/>
<path opacity="0.1" d="M310.007 143.801C310.007 143.801 306.074 145.021 305.479 143.963C305.327 143.695 305.252 143.225 305.226 142.673C306.04 142.55 308.517 142.208 309.858 142.465C309.929 143.22 310.007 143.801 310.007 143.801Z" fill="black"/>
<path d="M310.142 164.298H310.08C309.607 164.316 306.915 164.298 306.915 164.298C306.876 164.257 306.839 164.214 306.805 164.168C306.567 163.87 306.41 163.516 306.349 163.14C306.287 162.764 306.324 162.379 306.455 162.021C306.943 160.692 306.997 158.251 306.997 158.251C306.997 158.251 307.187 157.628 307.024 157.275C306.862 156.922 306.969 156.381 306.969 156.381C306.944 156.166 306.889 155.957 306.806 155.758C306.671 155.432 306.834 154.835 306.834 154.835C306.815 154.257 306.724 153.683 306.562 153.127C306.318 152.423 304.528 144.045 304.963 143.041C304.963 143.041 308.759 142.39 310.198 142.878L310.007 149.385C310.007 149.385 309.329 151.338 309.898 151.853C310.468 152.369 309.926 153.968 309.926 153.968C309.926 153.968 309.844 154.266 310.333 155.269C310.821 156.273 310.333 156.734 310.333 156.734V158.658C310.333 158.658 309.954 159.96 310.386 161.017C310.819 162.074 310.333 164.264 310.142 164.298Z" fill="#3F3D56"/>
<path d="M317.593 139.211C317.345 139.675 317.441 141.279 317.553 142.465C317.624 143.22 317.703 143.801 317.703 143.801C317.703 143.801 313.769 145.021 313.174 143.963C313.023 143.695 312.948 143.225 312.922 142.673C312.84 141.047 313.174 138.702 313.174 138.702C313.174 138.702 313.011 135.097 312.93 134.744C312.886 134.554 312.809 132.738 312.749 131.11C312.699 129.721 312.658 128.465 312.658 128.465L318.028 129.295C318.028 129.295 318.028 131.655 317.961 134.081C317.903 136.433 317.794 138.844 317.593 139.211Z" fill="#FBBEBE"/>
<path opacity="0.1" d="M317.702 143.801C317.702 143.801 313.769 145.021 313.174 143.963C313.023 143.695 312.948 143.225 312.922 142.673C313.735 142.55 316.212 142.208 317.553 142.465C317.624 143.22 317.702 143.801 317.702 143.801Z" fill="black"/>
<path d="M317.838 164.298H317.776C317.302 164.316 314.611 164.298 314.611 164.298C314.571 164.257 314.534 164.214 314.5 164.168C314.262 163.87 314.105 163.516 314.044 163.14C313.983 162.764 314.019 162.379 314.15 162.021C314.638 160.685 314.687 158.245 314.687 158.245C314.687 158.245 314.878 157.622 314.715 157.269C314.552 156.916 314.66 156.374 314.66 156.374C314.635 156.16 314.58 155.95 314.497 155.751C314.362 155.426 314.524 154.829 314.524 154.829C314.506 154.25 314.415 153.676 314.253 153.121C314.009 152.416 312.219 144.038 312.653 143.034C312.653 143.034 316.45 142.384 317.888 142.872L317.698 149.379C317.698 149.379 317.019 151.331 317.589 151.847C318.158 152.362 317.616 153.962 317.616 153.962C317.616 153.962 317.535 154.259 318.023 155.263C318.511 156.267 318.023 156.727 318.023 156.727V158.652C318.023 158.652 317.644 159.953 318.077 161.01C318.51 162.068 318.028 164.264 317.838 164.298Z" fill="#3F3D56"/>
<path opacity="0.1" d="M312.529 95.867C314.641 95.867 316.353 94.1554 316.353 92.044C316.353 89.9327 314.641 88.2211 312.529 88.2211C310.418 88.2211 308.705 89.9327 308.705 92.044C308.705 94.1554 310.418 95.867 312.529 95.867Z" fill="black"/>
<path d="M312.529 95.7043C314.641 95.7043 316.353 93.9927 316.353 91.8813C316.353 89.77 314.641 88.0583 312.529 88.0583C310.418 88.0583 308.705 89.77 308.705 91.8813C308.705 93.9927 310.418 95.7043 312.529 95.7043Z" fill="#FBBEBE"/>
<path opacity="0.1" d="M304.963 132.141L310.333 129.294C310.333 129.294 310.333 129.828 310.323 130.65C309.539 131.118 308.356 131.822 307.218 132.488C306.6 132.851 305.996 133.202 305.479 133.496C305.358 133.562 305.233 133.616 305.103 133.659C305.031 132.945 304.963 132.141 304.963 132.141Z" fill="black"/>
<path opacity="0.1" d="M318.028 129.288C318.028 129.288 318.028 131.648 317.961 134.074H317.942C317.54 134.088 317.139 134.076 316.739 134.037C316.038 133.962 315.476 133.776 315.275 133.409C314.866 132.693 313.722 131.782 312.756 131.103C312.705 129.714 312.665 128.458 312.665 128.458L318.028 129.288Z" fill="black"/>
<path d="M317.029 108.613C316.893 109.672 316.866 110.742 316.951 111.806C319.418 113.84 318.957 118.123 318.957 118.123C318.957 118.123 320.856 126.801 320.449 127.586C320.042 128.372 321.37 133.199 321.37 133.199C320.238 133.413 319.093 133.545 317.942 133.592C317.54 133.607 317.139 133.594 316.739 133.555C316.038 133.48 315.476 133.295 315.275 132.927C314.516 131.6 311.234 129.62 311.234 129.62C311.234 129.62 309.155 130.866 307.218 132C306.6 132.363 305.996 132.714 305.479 133.008C305.059 133.231 304.595 133.358 304.12 133.381C301.817 133.552 298.75 132.11 299.238 131.6C299.835 130.975 302.792 120.022 302.792 120.022C302.792 120.022 304.283 113.243 305.584 112.294C305.813 112.122 305.983 111.884 306.073 111.613C306.518 110.375 305.773 108.39 305.773 108.39C305.773 108.39 301.57 103.212 301.759 102.913C301.948 102.613 301.949 101.016 301.949 101.016C301.949 101.016 302.465 98.4942 302.763 97.2741C303.061 96.054 305.204 95.7547 305.827 95.8637C306.45 95.9727 307.859 96.3518 308.455 95.8637C309.05 95.3757 310.056 96.054 310.056 96.054L312.526 96.7341L314.747 95.4326C314.747 95.4326 316.973 95.5465 317.164 95.8442C317.354 96.1419 320.283 96.7129 320.283 96.7129C321.774 97.715 321.72 102.488 321.72 102.488C321.72 102.488 318.14 105.605 317.408 107.206C317.218 107.655 317.091 108.129 317.029 108.613Z" fill="#575A89"/>
<path d="M320.91 101.828L321.723 102.478L322.565 110.043L323.404 117.635C323.404 117.635 323.73 118.395 324.002 118.314C324.273 118.232 324.246 122.813 324.246 122.813C324.246 122.813 321.131 120.899 320.015 123.441L319.146 117.31C319.146 117.31 318.033 111.047 318.061 110.559C318.088 110.071 317.491 104.784 317.491 104.784L320.91 101.828Z" fill="#575A89"/>
<path d="M302.359 102.181L301.762 102.913C301.762 102.913 301.817 106.057 301.355 106.817C300.893 107.577 302.631 112.023 303.282 111.751C303.933 111.479 305.397 104.54 305.397 104.458C305.397 104.377 302.359 102.181 302.359 102.181Z" fill="#575A89"/>
<path d="M302.305 106.654C302.305 106.654 300.406 108.579 300.542 109.501C300.677 110.424 302.494 113.321 305.098 111.764C305.098 111.764 307.513 107.224 302.305 106.654Z" fill="#575A89"/>
<path opacity="0.1" d="M310.08 164.303C309.607 164.321 306.915 164.303 306.915 164.303C306.876 164.262 306.839 164.219 306.805 164.173C307.493 163.939 308.98 163.587 310.08 164.303Z" fill="black"/>
<path opacity="0.1" d="M317.779 164.303C317.305 164.321 314.614 164.303 314.614 164.303C314.575 164.262 314.538 164.219 314.503 164.173C315.188 163.939 316.676 163.587 317.779 164.303Z" fill="black"/>
<path opacity="0.1" d="M307.41 116.617C306.995 120.596 307.132 128.492 307.218 132C306.6 132.363 305.996 132.714 305.479 133.008C305.059 133.231 304.595 133.358 304.12 133.381C303.947 132.32 306.336 121.426 307.41 116.617Z" fill="black"/>
<path opacity="0.1" d="M307.918 114.359C307.906 114.416 307.71 115.281 307.41 116.617C307.527 115.476 307.69 114.658 307.918 114.359Z" fill="black"/>
<path opacity="0.1" d="M314.524 113.929C314.524 113.929 316.83 128.408 310.002 130.197C310.001 130.191 314.726 129.473 314.524 113.929Z" fill="black"/>
<path opacity="0.1" d="M317.942 133.592C317.54 133.607 317.139 133.594 316.739 133.555L314.897 113.759C316.072 114.526 317.478 128.575 317.942 133.592Z" fill="black"/>
<path opacity="0.1" d="M309.682 89.6331C309.804 89.6234 309.927 89.6361 310.045 89.6706C310.217 89.7566 310.373 89.8735 310.504 90.0154C310.716 90.1927 310.969 90.3133 311.241 90.366C311.512 90.4186 311.793 90.4015 312.056 90.3164C312.241 90.2335 312.438 90.1787 312.64 90.1537C312.951 90.1537 313.219 90.3815 313.38 90.6418C313.542 90.9021 313.625 91.2111 313.763 91.4893C313.901 91.7675 314.123 92.031 314.427 92.0994C314.573 92.105 314.716 92.1382 314.85 92.197C314.932 92.2635 314.995 92.3505 315.032 92.4491C315.286 92.9974 315.488 93.6448 316.03 93.9133C316.229 94.0056 316.446 94.0528 316.666 94.0515C316.889 94.0679 317.113 94.0276 317.317 93.9344C317.517 93.8226 317.683 93.6576 317.795 93.4578C318.134 92.8981 318.173 92.2051 318.093 91.556C317.994 90.7372 317.702 89.9534 317.242 89.2687C316.757 88.5762 316.097 88.0248 315.33 87.6707C314.562 87.3165 313.714 87.1724 312.873 87.2531C312.579 87.2862 312.288 87.3405 312.002 87.4158C310.967 87.6924 309.952 88.2097 309.324 89.0768C309.172 89.2932 309.005 89.4987 308.824 89.6917C309.109 89.6641 309.395 89.6397 309.682 89.6331Z" fill="black"/>
<path d="M309.682 89.4704C309.804 89.4607 309.927 89.4734 310.045 89.5078C310.217 89.5939 310.373 89.7108 310.504 89.8527C310.716 90.03 310.969 90.1506 311.241 90.2033C311.512 90.2559 311.793 90.2388 312.056 90.1537C312.241 90.0708 312.438 90.0159 312.64 89.991C312.951 89.991 313.219 90.2188 313.38 90.479C313.542 90.7393 313.625 91.0484 313.763 91.3266C313.901 91.6048 314.123 91.8683 314.427 91.9366C314.573 91.9423 314.716 91.9754 314.85 92.0343C314.932 92.1008 314.995 92.1878 315.032 92.2864C315.286 92.8346 315.488 93.4821 316.03 93.7505C316.229 93.8429 316.446 93.8901 316.666 93.8888C316.889 93.9052 317.113 93.8649 317.317 93.7717C317.517 93.6598 317.683 93.4949 317.795 93.295C318.134 92.7354 318.173 92.0424 318.093 91.3933C317.994 90.5745 317.702 89.7907 317.242 89.106C316.757 88.4135 316.097 87.8621 315.33 87.5079C314.562 87.1538 313.714 87.0097 312.873 87.0904C312.579 87.1234 312.288 87.1778 312.002 87.2531C310.967 87.5296 309.952 88.047 309.324 88.9141C309.172 89.1305 309.005 89.336 308.824 89.529C309.109 89.5013 309.395 89.4769 309.682 89.4704Z" fill="#3F3D56"/>
<path opacity="0.1" d="M305.532 98.574C305.532 98.574 305.723 100.093 305.072 100.472C304.421 100.851 305.532 98.574 305.532 98.574Z" fill="black"/>
<path opacity="0.1" d="M319.336 110.342C319.336 110.342 320.882 108.065 321.1 108.715C321.318 109.366 319.336 110.342 319.336 110.342Z" fill="black"/>
<path opacity="0.1" d="M319.445 111.1C319.445 111.1 320.97 109.23 321.116 109.962C321.263 110.694 319.445 111.1 319.445 111.1Z" fill="black"/>
<path opacity="0.1" d="M314.967 108.873C314.414 108.881 313.874 108.704 313.434 108.369H313.301C312.844 108.786 312.245 109.011 311.626 108.999C311.305 109.006 310.985 108.948 310.687 108.828C310.388 108.709 310.117 108.53 309.89 108.302H309.713C309.244 108.684 308.656 108.887 308.052 108.876C307.448 108.865 306.867 108.64 306.413 108.242L305.776 108.231C305.776 108.231 306.522 110.215 306.076 111.453L316.951 111.647C316.867 110.583 316.893 109.513 317.029 108.454V108.439L316.432 108.428C316.002 108.725 315.49 108.881 314.967 108.873Z" fill="black"/>
<path opacity="0.1" d="M314.967 109.199C314.414 109.206 313.874 109.029 313.434 108.694H313.301C312.844 109.111 312.245 109.337 311.626 109.324C311.305 109.331 310.985 109.273 310.687 109.154C310.388 109.034 310.117 108.855 309.89 108.628H309.713C309.244 109.009 308.656 109.212 308.052 109.201C307.448 109.19 306.867 108.966 306.413 108.567L305.776 108.556C305.776 108.556 306.522 110.541 306.076 111.779L316.951 111.972C316.867 110.908 316.893 109.838 317.029 108.779V108.764L316.432 108.753C316.002 109.051 315.49 109.207 314.967 109.199Z" fill="black"/>
<path d="M314.967 109.036C314.414 109.044 313.874 108.866 313.434 108.532H313.301C312.844 108.949 312.245 109.174 311.626 109.161C311.305 109.169 310.985 109.111 310.687 108.991C310.388 108.871 310.117 108.692 309.89 108.465H309.713C309.244 108.846 308.656 109.05 308.052 109.039C307.448 109.028 306.867 108.803 306.413 108.405L305.776 108.393C305.776 108.393 306.522 110.378 306.076 111.616L316.951 111.81C316.867 110.745 316.893 109.675 317.029 108.616V108.602L316.432 108.59C316.002 108.888 315.49 109.044 314.967 109.036Z" fill="#3F3D56"/>
<path opacity="0.1" d="M314.484 98.1885C314.484 98.1885 316.773 98.3349 316.788 98.6603C316.803 98.9856 314.484 98.1885 314.484 98.1885Z" fill="black"/>
<path opacity="0.1" d="M308.922 96.8008C308.922 96.8008 306.632 96.9472 306.618 97.2725C306.603 97.5979 308.922 96.8008 308.922 96.8008Z" fill="black"/>
<path opacity="0.1" d="M317.672 103.453C317.649 103.436 317.626 103.423 317.603 103.409C318.189 103.936 318.091 105.088 317.372 106.038C316.653 106.988 315.561 107.383 314.897 106.957C314.918 106.975 314.936 106.994 314.959 107.012C315.61 107.51 316.749 107.12 317.501 106.137C318.252 105.154 318.326 103.952 317.672 103.453Z" fill="black"/>
<path opacity="0.1" d="M305.095 105.916C304.515 104.871 304.59 103.718 305.246 103.28C305.221 103.292 305.195 103.301 305.171 103.314C304.452 103.715 304.357 104.914 304.953 105.994C305.549 107.074 306.623 107.621 307.342 107.227C307.366 107.213 307.388 107.198 307.41 107.181C306.693 107.507 305.674 106.96 305.095 105.916Z" fill="black"/>
<path opacity="0.1" d="M305.869 97.1082L305.659 97.4336L305.124 97.1489L305.405 96.7162C305.592 96.8042 305.751 96.9393 305.869 97.1082Z" fill="black"/>
<path d="M302.468 109.148C302.468 109.148 302.945 106.906 302.305 106.194C301.666 105.481 301.871 101.746 302.847 101.828C303.824 101.909 305.288 104.863 305.044 105.488C304.8 106.113 303.877 109.311 303.877 109.311L302.468 109.148Z" fill="#FBBEBE"/>
<path opacity="0.1" d="M317.779 92.9746C317.666 93.1744 317.501 93.3394 317.301 93.4512C317.097 93.5445 316.873 93.5847 316.65 93.5684C316.43 93.5696 316.213 93.5224 316.013 93.4301C315.472 93.16 315.27 92.5126 315.016 91.966C314.984 91.8674 314.927 91.7788 314.85 91.7089C314.718 91.649 314.576 91.6143 314.432 91.6064C314.127 91.5381 313.908 91.2729 313.768 90.9964C313.628 90.7198 313.545 90.414 313.385 90.1488C313.226 89.8837 312.956 89.651 312.645 89.6608C312.443 89.6876 312.246 89.7452 312.061 89.8316C311.798 89.9161 311.517 89.9326 311.246 89.8797C310.974 89.8268 310.721 89.7062 310.508 89.529C310.378 89.3871 310.222 89.2702 310.05 89.1841C309.932 89.1497 309.809 89.137 309.687 89.1467C309.5 89.1467 309.314 89.1646 309.127 89.1793C309.034 89.3008 308.935 89.417 308.829 89.5274C309.114 89.503 309.4 89.4786 309.687 89.4721C309.809 89.4624 309.932 89.475 310.05 89.5095C310.222 89.5955 310.378 89.7124 310.508 89.8544C310.721 90.0315 310.974 90.1522 311.246 90.2051C311.517 90.258 311.798 90.2414 312.061 90.157C312.246 90.0706 312.443 90.013 312.645 89.9861C312.956 89.9861 313.224 90.2139 313.385 90.4742C313.546 90.7345 313.629 91.0436 313.768 91.3217C313.906 91.5999 314.127 91.8635 314.432 91.9318C314.576 91.9396 314.718 91.9744 314.85 92.0343C314.932 92.1008 314.995 92.1878 315.032 92.2864C315.286 92.8347 315.488 93.4821 316.03 93.7506C316.229 93.8429 316.446 93.8901 316.666 93.8888C316.889 93.9052 317.113 93.8649 317.317 93.7717C317.517 93.6599 317.683 93.4949 317.795 93.2951C318.048 92.8352 318.161 92.3117 318.121 91.7886C318.108 92.2064 317.991 92.6143 317.779 92.9746Z" fill="black"/>
<path d="M303.189 110.926C303.998 110.926 304.654 110.482 304.654 109.934C304.654 109.386 303.998 108.942 303.189 108.942C302.38 108.942 301.725 109.386 301.725 109.934C301.725 110.482 302.38 110.926 303.189 110.926Z" fill="#575A89"/>
<path d="M255.452 165.172C283.177 165.172 305.653 142.703 305.653 114.985C305.653 87.2678 283.177 64.7985 255.452 64.7985C227.727 64.7985 205.252 87.2678 205.252 114.985C205.252 142.703 227.727 165.172 255.452 165.172Z" fill="#73F7EF"/>
<path d="M281.792 140.205C281.792 148.128 269.334 140.882 255.978 140.882C242.622 140.882 229.112 147.829 229.112 139.906C229.112 135.389 233.418 129.106 239.595 124.543C244.249 121.104 249.964 118.641 255.705 118.641C261.608 118.641 267.391 121.307 272.005 124.967C277.827 129.582 281.792 135.784 281.792 140.205Z" fill="#444053"/>
<path d="M272.003 124.964C264.903 123.895 252.063 122.592 239.595 124.539C244.249 121.1 249.964 118.637 255.704 118.637C261.607 118.637 267.39 121.304 272.003 124.964Z" fill="#F6F8FB"/>
<path d="M305.633 52.2624C305.633 52.2624 291.932 51.4376 293.548 61.0357C293.548 61.0357 293.222 62.7308 294.765 63.5019C294.765 63.5019 294.789 62.791 296.169 63.0318C296.661 63.114 297.161 63.1381 297.658 63.1034C298.33 63.0577 298.969 62.7938 299.477 62.3518C299.477 62.3518 303.329 60.7624 304.828 54.4683C304.828 54.4683 305.936 53.0953 305.892 52.7439L303.58 53.7297C303.58 53.7297 304.369 55.3972 303.742 56.7832C303.742 56.7832 303.667 53.7916 303.223 53.855C303.134 53.8696 302.022 54.4325 302.022 54.4325C302.022 54.4325 303.381 57.338 302.348 59.4479C302.348 59.4479 302.737 55.869 301.589 54.6424L299.962 55.5924C299.962 55.5924 301.55 58.5922 300.473 61.0406C300.473 61.0406 300.75 57.2859 299.62 55.8234L298.145 56.9736C298.145 56.9736 299.637 59.9311 298.727 61.9613C298.727 61.9613 298.608 57.5901 297.826 57.2599C297.826 57.2599 296.535 58.3987 296.338 58.8655C296.338 58.8655 297.36 61.0113 296.727 62.1435C296.727 62.1435 296.338 59.2316 296.019 59.2153C296.019 59.2153 294.734 61.1447 294.599 62.4689C294.599 62.4689 294.656 60.5005 295.707 59.0315C295.707 59.0315 294.464 59.2446 293.74 60.0515C293.74 60.0515 293.94 58.6866 296.018 58.5678C296.018 58.5678 297.08 57.1037 297.365 57.0159C297.365 57.0159 295.29 56.8418 294.033 57.3998C294.033 57.3998 295.139 56.113 297.744 56.697L299.209 55.5095C299.209 55.5095 296.478 55.1353 295.32 55.5485C295.32 55.5485 296.652 54.4097 299.601 55.2394L301.188 54.291C301.188 54.291 298.859 53.7899 297.471 53.9656C297.471 53.9656 298.935 53.1766 301.651 54.0323L302.79 53.5231C302.79 53.5231 301.083 53.188 300.584 53.136C300.084 53.0839 300.058 52.944 300.058 52.944C301.142 52.7678 302.254 52.8968 303.269 53.3165C303.269 53.3165 305.674 52.4137 305.633 52.2624Z" fill="#20E2D7"/>
<path d="M291.58 47.9952C291.58 47.9952 285.397 47.621 286.119 51.958C286.119 51.958 285.975 52.7243 286.669 53.0724C286.669 53.0724 286.679 52.747 287.304 52.8609C287.526 52.8974 287.751 52.9084 287.976 52.8935C288.28 52.8718 288.569 52.7525 288.799 52.5534C288.799 52.5534 290.539 51.8344 291.216 48.9908C291.216 48.9908 291.717 48.371 291.704 48.2115L290.659 48.6573C290.659 48.6573 291.017 49.4105 290.736 50.0368C290.736 50.0368 290.702 48.6849 290.501 48.7175C290.461 48.7175 289.958 48.9777 289.958 48.9777C289.958 48.9777 290.573 50.2906 290.109 51.2439C290.109 51.2439 290.285 49.6268 289.768 49.0721L289.032 49.5016C289.032 49.5016 289.75 50.8583 289.263 51.9645C289.263 51.9645 289.387 50.2678 288.877 49.6073L288.21 50.1263C288.21 50.1263 288.884 51.4619 288.474 52.3794C288.474 52.3794 288.42 50.4044 288.066 50.2548C288.066 50.2548 287.483 50.7689 287.393 50.9803C287.393 50.9803 287.856 51.9564 287.569 52.4623C287.569 52.4623 287.393 51.1463 287.244 51.1414C287.244 51.1414 286.663 52.0117 286.603 52.6055C286.631 52.0529 286.803 51.5173 287.102 51.0519C286.767 51.1152 286.458 51.2753 286.214 51.5123C286.214 51.5123 286.303 50.8957 287.245 50.8421C287.245 50.8421 287.725 50.1816 287.854 50.1409C287.854 50.1409 286.917 50.0628 286.349 50.315C286.349 50.315 286.848 49.7326 288.026 49.9896L288.677 49.4544C288.677 49.4544 287.444 49.2917 286.92 49.4707C286.92 49.4707 287.522 48.9566 288.855 49.3324L289.571 48.9029C289.571 48.9029 288.52 48.6768 287.891 48.7581C287.891 48.7581 288.554 48.4019 289.781 48.789L290.293 48.558C290.293 48.558 289.522 48.4067 289.297 48.384C289.073 48.3612 289.058 48.2977 289.058 48.2977C289.547 48.2165 290.048 48.2728 290.506 48.4604C290.506 48.4604 291.598 48.0635 291.58 47.9952Z" fill="#20E2D7"/>
<path opacity="0.1" d="M345.618 159.758C348.038 159.758 350 159.426 350 159.018C350 158.609 348.038 158.277 345.618 158.277C343.198 158.277 341.236 158.609 341.236 159.018C341.236 159.426 343.198 159.758 345.618 159.758Z" fill="#2D6461"/>
<path opacity="0.1" d="M178.611 172.071C181.031 172.071 182.993 171.74 182.993 171.331C182.993 170.922 181.031 170.591 178.611 170.591C176.19 170.591 174.228 170.922 174.228 171.331C174.228 171.74 176.19 172.071 178.611 172.071Z" fill="#2D6461"/>
<path opacity="0.1" d="M204.049 173C206.469 173 208.431 172.669 208.431 172.26C208.431 171.851 206.469 171.52 204.049 171.52C201.629 171.52 199.667 171.851 199.667 172.26C199.667 172.669 201.629 173 204.049 173Z" fill="#2D6461"/>
<path d="M336.027 168.056C339.641 168.056 342.57 167.561 342.57 166.95C342.57 166.339 339.641 165.844 336.027 165.844C332.413 165.844 329.484 166.339 329.484 166.95C329.484 167.561 332.413 168.056 336.027 168.056Z" fill="#20E2D7"/>
<path d="M338.731 165.143C339.03 164.899 339.248 164.571 339.356 164.201C339.436 163.828 339.277 163.379 338.92 163.243C338.52 163.09 338.092 163.368 337.768 163.648C337.444 163.927 337.072 164.246 336.647 164.188C336.865 163.99 337.029 163.739 337.121 163.459C337.213 163.18 337.232 162.881 337.174 162.592C337.156 162.472 337.105 162.36 337.028 162.266C336.805 162.029 336.403 162.13 336.136 162.317C335.29 162.912 335.054 164.061 335.049 165.095C334.964 164.723 335.036 164.334 335.034 163.957C335.033 163.579 334.927 163.143 334.605 162.943C334.405 162.836 334.18 162.784 333.954 162.79C333.573 162.776 333.15 162.813 332.89 163.091C332.564 163.438 332.65 164.017 332.932 164.393C333.213 164.768 333.64 165.013 334.032 165.274C334.347 165.462 334.617 165.718 334.819 166.024C334.843 166.067 334.863 166.113 334.878 166.159H337.262C337.795 165.888 338.29 165.546 338.731 165.143Z" fill="#20E2D7"/>
<path d="M180.656 151.502C180.656 151.502 181.549 152.67 180.243 154.43C178.936 156.19 177.859 157.684 178.29 158.783C178.29 158.783 180.261 155.507 181.87 155.46C183.479 155.413 182.42 153.472 180.656 151.502Z" fill="#20E2D7"/>
<path opacity="0.1" d="M180.656 151.502C180.734 151.615 180.795 151.738 180.838 151.868C182.404 153.706 183.237 155.422 181.733 155.465C180.331 155.505 178.642 158.011 178.246 158.643C178.26 158.693 178.276 158.741 178.295 158.788C178.295 158.788 180.266 155.512 181.875 155.465C183.484 155.418 182.42 153.472 180.656 151.502Z" fill="black"/>
<path d="M182.317 152.99C182.317 153.402 182.27 153.736 182.213 153.736C182.156 153.736 182.111 153.41 182.111 152.99C182.111 152.571 182.168 152.772 182.226 152.772C182.285 152.772 182.317 152.579 182.317 152.99Z" fill="#FFD037"/>
<path d="M182.881 153.482C182.519 153.679 182.205 153.797 182.178 153.747C182.15 153.696 182.422 153.498 182.783 153.301C183.144 153.104 183.001 153.247 183.029 153.301C183.056 153.355 183.248 153.285 182.881 153.482Z" fill="#FFD037"/>
<path d="M175.934 151.502C175.934 151.502 175.04 152.67 176.345 154.43C177.651 156.19 178.729 157.684 178.298 158.783C178.298 158.783 176.326 155.507 174.718 155.46C173.111 155.413 174.168 153.472 175.934 151.502Z" fill="#20E2D7"/>
<path opacity="0.1" d="M175.934 151.502C175.856 151.614 175.794 151.738 175.752 151.868C174.186 153.706 173.351 155.422 174.857 155.465C176.258 155.505 177.948 158.011 178.342 158.643C178.329 158.693 178.313 158.741 178.295 158.788C178.295 158.788 176.323 155.512 174.715 155.465C173.107 155.418 174.168 153.472 175.934 151.502Z" fill="black"/>
<path d="M174.272 152.99C174.272 153.402 174.318 153.736 174.375 153.736C174.432 153.736 174.477 153.41 174.477 152.99C174.477 152.571 174.42 152.772 174.364 152.772C174.307 152.772 174.272 152.579 174.272 152.99Z" fill="#FFD037"/>
<path d="M173.701 153.482C174.062 153.679 174.378 153.797 174.406 153.747C174.433 153.696 174.162 153.498 173.8 153.301C173.439 153.104 173.581 153.247 173.555 153.301C173.529 153.355 173.34 153.285 173.701 153.482Z" fill="#FFD037"/>
<path d="M174.557 158.635C174.557 158.635 177.057 158.559 177.812 158.022C178.567 157.485 181.657 156.846 181.844 157.697C182.031 158.548 185.6 161.975 182.778 161.998C179.956 162.021 176.222 161.557 175.47 161.1C174.718 160.643 174.557 158.635 174.557 158.635Z" fill="#A8A8A8"/>
<path opacity="0.2" d="M182.825 161.707C180.004 161.73 176.269 161.266 175.517 160.809C174.944 160.461 174.717 159.21 174.64 158.632H174.557C174.557 158.632 174.72 160.648 175.467 161.105C176.214 161.562 179.953 162.026 182.775 162.003C183.588 162.003 183.87 161.705 183.855 161.277C183.741 161.539 183.432 161.702 182.825 161.707Z" fill="black"/>
<path d="M237.605 108.405C238.56 108.351 243.056 108.013 245.912 106.384C246.37 106.114 246.889 105.962 247.42 105.94C248.328 105.914 249.373 106.293 248.704 108.414C247.62 111.884 241.328 115.789 237.422 115.572C233.667 115.364 229.211 113.851 226.269 108.532C225.987 108.02 225.849 107.442 225.867 106.858C225.902 105.784 226.292 104.439 228.308 105.938C231.032 107.964 236.2 108.348 237.237 108.405C237.359 108.411 237.482 108.411 237.605 108.405Z" fill="#444053"/>
<path d="M273.729 108.405C274.685 108.351 279.181 108.013 282.037 106.384C282.495 106.114 283.013 105.962 283.545 105.94C284.453 105.914 285.498 106.293 284.829 108.414C283.745 111.884 277.453 115.789 273.547 115.572C269.792 115.364 265.336 113.851 262.394 108.532C262.112 108.02 261.973 107.442 261.992 106.858C262.026 105.784 262.417 104.439 264.433 105.938C267.157 107.964 272.325 108.348 273.362 108.405C273.484 108.411 273.607 108.411 273.729 108.405Z" fill="#444053"/>
</g>
<g clip-path="url(#clip1)">
<path d="M72.3453 87C71.6723 87 71.1268 87.5456 71.1268 88.2186V98.7304C71.1268 104.403 75.3864 109 80.6376 109C85.8887 109 90.1483 104.401 90.1483 98.7304V88.2186C90.1483 87.5456 89.6028 87 88.9298 87H72.3453Z" fill="url(#paint1_linear)"/>
<path fill-rule="evenodd" clip-rule="evenodd" d="M112.262 107.09C112.819 107.899 112.24 109 111.258 109H94.0623C93.3941 109 92.8505 108.462 92.8437 107.794L92.7997 103.441C92.7996 103.432 92.7916 103.424 92.7817 103.424C92.7718 103.424 92.7638 103.416 92.7638 103.406V88.2186C92.7638 87.5456 93.3094 87 93.9824 87H103.053C108.032 87 111.768 90.6784 111.768 95.2133C111.768 97.4433 111.003 99.4648 109.486 100.944C109.007 101.411 108.863 102.157 109.242 102.707L112.262 107.09ZM100.58 96.9733C99.9075 96.9733 99.3619 96.4277 99.3619 95.7547V93.4985C99.3619 92.8256 99.9075 92.28 100.58 92.28L102.373 92.28C103.828 92.28 105.009 93.331 105.009 94.6266C105.009 95.9223 103.829 96.9733 102.373 96.9733H100.58Z" fill="url(#paint2_linear)"/>
<path d="M45.9035 109C44.9633 109 44.3773 107.98 44.8506 107.168L56.4021 87.3405C56.8722 86.5336 58.0379 86.5336 58.508 87.3405L70.0595 107.168C70.5328 107.98 69.9468 109 69.0066 109H62.1658C61.7321 109 61.3312 108.769 61.1129 108.395L58.508 103.924C58.0379 103.117 56.8722 103.117 56.4021 103.924L53.7972 108.395C53.5789 108.769 53.178 109 52.7443 109H45.9035Z" fill="url(#paint3_linear)"/>
<path d="M116.071 109C115.131 109 114.545 107.98 115.019 107.168L126.57 87.3405C127.04 86.5336 128.206 86.5336 128.676 87.3405L140.227 107.168C140.701 107.98 140.115 109 139.175 109H132.334C131.9 109 131.499 108.769 131.281 108.395L128.676 103.924C128.206 103.117 127.04 103.117 126.57 103.924L123.965 108.395C123.747 108.769 123.346 109 122.912 109H116.071Z" fill="url(#paint4_linear)"/>
</g>
<path d="M40.1943 121.644V122.684H32.0205V121.644H35.5215V119.446H36.6201V121.644H40.1943ZM37.0889 123.577L37.9531 123.094C38.959 124.1 39.7451 125.076 40.3115 126.023C40.3701 126.111 40.4189 126.194 40.458 126.272L39.5205 126.814C39.1006 125.955 38.4219 125.018 37.4844 124.002C37.3477 123.846 37.2158 123.704 37.0889 123.577ZM33.9834 123.138L34.9941 123.533C34.3398 124.842 33.5098 125.95 32.5039 126.858C32.4746 126.888 32.4502 126.912 32.4307 126.932C32.2354 126.697 31.9814 126.468 31.6689 126.243C32.5088 125.54 33.2119 124.646 33.7783 123.562C33.8564 123.416 33.9248 123.274 33.9834 123.138ZM32.0205 127.576L31.3906 128.426C31.1855 127.996 30.7461 127.239 30.0723 126.155V133.128H29.0176V126.155C28.4512 127.972 27.8213 129.363 27.1279 130.33C27.001 130.027 26.8057 129.7 26.542 129.349C27.3135 128.323 27.9873 126.873 28.5635 124.998C28.7002 124.549 28.8174 124.114 28.915 123.694H26.8203V122.654H29.0176V119.446H30.0723V122.654H31.874V123.694H30.0723V124.837C30.5605 125.442 31.1807 126.312 31.9326 127.444C31.9717 127.503 32.001 127.547 32.0205 127.576ZM37.4697 125.76L38.583 125.994C38.1338 127.41 37.5186 128.636 36.7373 129.671C37.8213 130.843 39.0664 131.688 40.4727 132.205C40.1895 132.439 39.9453 132.742 39.7402 133.113C39.7305 133.143 39.7207 133.162 39.7109 133.172C38.334 132.596 37.1084 131.717 36.0342 130.535C34.9404 131.697 33.6025 132.581 32.0205 133.187C31.8252 132.835 31.6299 132.547 31.4346 132.322C32.9971 131.727 34.3105 130.848 35.375 129.686C34.584 128.611 33.959 127.425 33.5 126.126L34.4668 125.848C34.8867 127 35.4141 127.996 36.0488 128.836C36.6934 127.928 37.167 126.902 37.4697 125.76ZM52.8799 123.885V124.603H44.0762V123.885H47.9434V122.947H44.9404V122.244H47.9434V121.409H48.9541V122.244H52.0889V122.947H48.9541V123.885H52.8799ZM51.6348 127.825H49.0713C49.3936 128.187 49.7793 128.528 50.2285 128.851C50.7949 128.46 51.2637 128.118 51.6348 127.825ZM45.9658 125.95V127.137H51.0049V125.95H45.9658ZM52.001 127.532L52.7188 127.972C52.2109 128.392 51.5859 128.816 50.8438 129.246C51.5957 129.676 52.3867 129.998 53.2168 130.213C52.9922 130.389 52.7871 130.633 52.6016 130.945C51.2051 130.506 49.9941 129.803 48.9688 128.836C48.8906 128.768 48.8174 128.699 48.749 128.631V131.077H47.7529V128.851C46.7373 129.544 45.6387 130.12 44.457 130.579C44.3203 130.364 44.1006 130.115 43.7979 129.832C45.4287 129.305 46.7471 128.636 47.7529 127.825H45.0283V125.291H52.001V127.532ZM43.3438 131.502H53.627V121.131H43.3438V131.502ZM42.2744 120.105H54.7256V133.143H53.627V132.513H43.3438V133.143H42.2744V120.105ZM66.7959 124.822L67.7773 124.324C68.8418 125.682 69.667 127.156 70.2529 128.748C70.3994 129.148 70.5117 129.52 70.5898 129.861L69.5059 130.374C69.2129 129.095 68.5977 127.674 67.6602 126.111C67.377 125.643 67.0889 125.213 66.7959 124.822ZM58.0947 124.822L59.1787 125.027C58.8564 127.732 58.2656 129.666 57.4062 130.828L56.4102 130.213C57.2891 129.07 57.8506 127.273 58.0947 124.822ZM60.7168 120.369L61.4199 119.52C62.9727 120.037 64.5205 120.765 66.0635 121.702C66.2393 121.8 66.4004 121.897 66.5469 121.995L65.8438 122.977C64.75 122.186 63.373 121.443 61.7129 120.75C61.3613 120.604 61.0293 120.477 60.7168 120.369ZM60.5996 123.606H61.7275V131.106C61.7275 131.507 61.8252 131.751 62.0205 131.839C62.167 131.897 62.4014 131.927 62.7236 131.927H65.4775C65.8877 131.927 66.1611 131.766 66.2979 131.443C66.4541 131.072 66.5664 130.188 66.6348 128.792C66.918 129.036 67.2646 129.207 67.6748 129.305C67.5967 130.848 67.4014 131.849 67.0889 132.308C66.7861 132.737 66.2686 132.952 65.5361 132.952H62.6357C61.7373 132.952 61.1562 132.776 60.8926 132.425C60.6973 132.151 60.5996 131.707 60.5996 131.092V123.606ZM76.2881 128.982L76.4932 130.052C74.7939 130.628 73.2412 131.146 71.835 131.604L71.5859 130.491C72.0645 130.354 72.7334 130.145 73.5928 129.861V125.818H71.8789V124.764H73.5928V121.512H71.7324V120.472H76.3906V121.512H74.6621V124.764H76.1709V125.818H74.6621V129.524L76.2881 128.982ZM78.1338 123.914V125.833H80.4189V123.914H78.1338ZM78.1338 121.116V123.006H80.4189V121.116H78.1338ZM83.6709 123.006V121.116H81.3857V123.006H83.6709ZM83.6709 125.833V123.914H81.3857V125.833H83.6709ZM81.4736 131.634H85.4434V132.659H75.79V131.634H80.3457V129.583H76.9473V128.572H80.3457V126.814H77.123V120.135H84.7402V126.814H81.4736V128.572H84.96V129.583H81.4736V131.634ZM94.3936 121.102V121.995H91.9473V121.102H94.3936ZM91.2295 119.974V120.867H87.3477V119.974H91.2295ZM91.625 121.937V122.845H86.6299V121.937H91.625ZM90.3506 128.865H88.1973V131.37H90.3506V128.865ZM91.2881 127.957V132.264H88.1973V132.981H87.2451V127.957H91.2881ZM87.2598 126.844V125.936H91.2881V126.844H87.2598ZM87.2598 124.852V123.958H91.2881V124.852H87.2598ZM94.4082 123.812L94.6279 124.646C93.9541 124.979 93.0996 125.374 92.0645 125.833L91.5957 124.939C91.8496 124.852 92.7871 124.476 94.4082 123.812ZM98.2607 128.572H93.9834V131.429H98.2607V128.572ZM92.9434 133.172V127.562H99.3301V133.113H98.2607V132.41H93.9834V133.172H92.9434ZM97.6748 121.951V122.874C97.6748 123.665 97.9629 124.388 98.5391 125.042C99.0371 125.589 99.6963 126.009 100.517 126.302C100.282 126.604 100.082 126.883 99.916 127.137C98.7734 126.717 97.9336 125.984 97.3965 124.939C97.2793 124.705 97.1914 124.485 97.1328 124.28C96.9961 124.876 96.6055 125.457 95.9609 126.023C95.4141 126.492 94.7695 126.863 94.0273 127.137C93.8613 126.824 93.6758 126.565 93.4707 126.36C95.1016 125.774 96.1025 124.881 96.4736 123.68C96.5615 123.406 96.6055 123.143 96.6055 122.889V121.951H95.8291C95.4482 122.781 95.082 123.421 94.7305 123.87C94.5742 123.714 94.2959 123.523 93.8955 123.299C94.6572 122.342 95.2236 121.058 95.5947 119.446L96.5908 119.651C96.4834 120.062 96.3418 120.521 96.166 121.028H99.5791L99.7402 120.984L100.414 121.16C100.111 122.195 99.8281 123.025 99.5645 123.65L98.7295 123.445C98.9443 122.898 99.1104 122.4 99.2275 121.951H97.6748ZM110.375 128.748H106.728V130.667H110.375V128.748ZM111.4 131.531H106.728V132.454H105.746V127.869H111.4V131.531ZM106.845 123.46H110.038C110.409 122.806 110.673 122.283 110.829 121.893H106.142C106.464 122.469 106.698 122.991 106.845 123.46ZM114.945 121.893H112.133C111.967 122.234 111.679 122.757 111.269 123.46H114.447V131.766C114.447 132.371 114.267 132.757 113.905 132.923C113.866 132.942 113.832 132.957 113.803 132.967C113.432 133.084 112.582 133.143 111.254 133.143C111.186 132.732 111.063 132.371 110.888 132.059C111.767 132.098 112.479 132.103 113.026 132.073C113.241 132.034 113.354 131.932 113.363 131.766V124.441H110.229V125.921C110.229 126.106 110.282 126.214 110.39 126.243C110.448 126.253 110.536 126.258 110.653 126.258H111.972C112.157 126.258 112.27 126.185 112.309 126.038C112.348 125.901 112.377 125.643 112.396 125.262C112.562 125.408 112.851 125.525 113.261 125.613C113.192 126.355 113.017 126.81 112.733 126.976C112.577 127.063 112.362 127.107 112.089 127.107H110.536C109.911 127.107 109.525 126.98 109.379 126.727C109.281 126.551 109.232 126.287 109.232 125.936V124.441H107.445C107.338 125.535 106.991 126.326 106.405 126.814C105.946 127.186 105.277 127.479 104.398 127.693C104.271 127.391 104.096 127.132 103.871 126.917C104.994 126.683 105.731 126.282 106.083 125.716C106.269 125.394 106.391 124.969 106.449 124.441H103.754V133.128H102.714V123.46H105.644C105.497 123.021 105.263 122.498 104.94 121.893H102.084V120.867H107.885V119.461H109.013V120.867H114.945V121.893ZM126.708 119.52C127.89 120.125 128.783 120.696 129.389 121.233L128.7 121.995H130.209V123.094H125.434C125.59 125.203 125.863 126.937 126.254 128.294C127.064 127.083 127.704 125.735 128.173 124.251L129.301 124.529C128.637 126.512 127.758 128.201 126.664 129.598C127.26 131.141 127.929 131.917 128.671 131.927C128.964 131.927 129.164 131.463 129.271 130.535C129.311 130.174 129.345 129.71 129.374 129.144C129.667 129.437 129.989 129.637 130.341 129.744C130.214 131.297 129.96 132.273 129.579 132.674C129.345 132.918 129.013 133.04 128.583 133.04C127.489 133.021 126.576 132.2 125.844 130.579C124.945 131.565 123.915 132.396 122.753 133.069C122.47 132.688 122.201 132.391 121.947 132.176C123.275 131.453 124.423 130.53 125.39 129.407C124.862 127.728 124.496 125.623 124.291 123.094H119.12V125.042H122.943V125.525C122.885 128.172 122.772 129.744 122.606 130.242C122.558 130.369 122.509 130.467 122.46 130.535C122.255 130.779 121.957 130.921 121.566 130.96C121.146 130.989 120.551 130.989 119.779 130.96C119.76 130.569 119.657 130.223 119.472 129.92C120.048 129.969 120.575 129.993 121.054 129.993C121.278 129.983 121.43 129.93 121.508 129.832C121.664 129.656 121.771 128.66 121.83 126.844C121.83 126.609 121.835 126.355 121.845 126.082H119.12V126.199C119.11 129.383 118.583 131.736 117.538 133.26C117.304 132.996 117.016 132.757 116.674 132.542L116.615 132.513C117.504 131.194 117.958 129.183 117.978 126.478V121.995H124.232C124.193 121.438 124.164 120.599 124.145 119.476H125.302C125.302 120.442 125.321 121.282 125.36 121.995H128.7C128.075 121.419 127.211 120.828 126.107 120.223L126.049 120.193L126.708 119.52ZM143.583 127.723L144.506 128.323C143.49 129.065 142.362 129.744 141.122 130.359C142.274 131.238 143.7 131.854 145.399 132.205C145.136 132.449 144.906 132.776 144.711 133.187C141.332 132.396 139.008 130.53 137.738 127.591H135.6V131.546C136.098 131.468 136.874 131.336 137.929 131.15C138.651 131.033 139.188 130.945 139.54 130.887L139.584 131.883C137.074 132.332 134.828 132.718 132.846 133.04L132.553 132.015C132.67 131.995 133.31 131.902 134.472 131.736V127.591H131.835V126.58H134.472V120.047H143.7V120.984H135.6V122.229H143.261V123.152H135.6V124.397H143.261V125.306H135.6V126.58H145.165V127.591H138.881C139.291 128.431 139.804 129.148 140.419 129.744C141.845 128.963 142.899 128.289 143.583 127.723ZM152.65 122.42V123.445H146.908V122.42H149.281V119.637H150.321V122.42H152.65ZM149.062 129.29L148.08 129.451C148.08 127.908 147.885 126.199 147.494 124.324C147.494 124.285 147.489 124.256 147.479 124.236L148.402 124.061C148.803 125.838 149.022 127.581 149.062 129.29ZM151.127 129.393L152.768 129.012L152.885 130.052C152.26 130.198 151.317 130.418 150.058 130.711C148.534 131.062 147.47 131.312 146.864 131.458L146.63 130.345C146.767 130.315 147.929 130.071 150.116 129.612C150.507 127.894 150.78 126.033 150.937 124.031C150.946 123.982 150.951 123.938 150.951 123.899L152.05 124.104C151.776 126.058 151.469 127.82 151.127 129.393ZM158.583 131.385V127.62H154.086V131.385H158.583ZM160.355 123.606H156.649V126.565H159.726V133.069H158.583V132.425H154.086V133.128H153.017V126.565H155.507V119.446H156.649V122.552H160.355V123.606Z" fill="#5C5C5C"/>
</g>
<defs>
<filter id="filter0_d" x="0" y="0" width="375" height="221" filterUnits="userSpaceOnUse" color-interpolation-filters="sRGB">
<feFlood flood-opacity="0" result="BackgroundImageFix"/>
<feColorMatrix in="SourceAlpha" type="matrix" values="0 0 0 0 0 0 0 0 0 0 0 0 0 0 0 0 0 0 127 0"/>
<feOffset dy="1"/>
<feColorMatrix type="matrix" values="0 0 0 0 0 0 0 0 0 0 0 0 0 0 0 0 0 0 0.1 0"/>
<feBlend mode="normal" in2="BackgroundImageFix" result="effect1_dropShadow"/>
<feBlend mode="normal" in="SourceGraphic" in2="effect1_dropShadow" result="shape"/>
</filter>
<linearGradient id="paint0_linear" x1="316.173" y1="164.31" x2="316.173" y2="83.9393" gradientUnits="userSpaceOnUse">
<stop stop-color="#808080" stop-opacity="0.25"/>
<stop offset="0.54" stop-color="#808080" stop-opacity="0.12"/>
<stop offset="1" stop-color="#808080" stop-opacity="0.1"/>
</linearGradient>
<linearGradient id="paint1_linear" x1="80.6376" y1="64.8233" x2="80.6376" y2="114.893" gradientUnits="userSpaceOnUse">
<stop stop-color="#F9FEA5"/>
<stop offset="0.489583" stop-color="#96FBC4"/>
<stop offset="1" stop-color="#20E2D7"/>
</linearGradient>
<linearGradient id="paint2_linear" x1="102.621" y1="64.8233" x2="102.621" y2="114.893" gradientUnits="userSpaceOnUse">
<stop stop-color="#F9FEA5"/>
<stop offset="0.489583" stop-color="#96FBC4"/>
<stop offset="1" stop-color="#20E2D7"/>
</linearGradient>
<linearGradient id="paint3_linear" x1="57.4551" y1="61.8781" x2="57.4551" y2="115.286" gradientUnits="userSpaceOnUse">
<stop stop-color="#F9FEA5"/>
<stop offset="0.489583" stop-color="#96FBC4"/>
<stop offset="1" stop-color="#20E2D7"/>
</linearGradient>
<linearGradient id="paint4_linear" x1="127.623" y1="61.8781" x2="127.623" y2="115.286" gradientUnits="userSpaceOnUse">
<stop stop-color="#F9FEA5"/>
<stop offset="0.489583" stop-color="#96FBC4"/>
<stop offset="1" stop-color="#20E2D7"/>
</linearGradient>
<clipPath id="clip0">
<rect width="179" height="132" fill="white" transform="translate(171 41)"/>
</clipPath>
<clipPath id="clip1">
<rect width="100" height="22" fill="white" transform="translate(42 87)"/>
</clipPath>
</defs>
</svg>
