<svg width="375" height="220" viewBox="0 0 375 220" fill="none" xmlns="http://www.w3.org/2000/svg">
<g clip-path="url(#clip0)">
<rect width="375" height="226" fill="#EAFEF3"/>
<path d="M195.137 79.125L197.402 79.8477C196.751 81.4753 196.172 82.7448 195.664 83.6562V97.6992H193.32V87.3867C192.734 88.1549 192.233 88.7539 191.816 89.1836C191.556 88.4674 191.159 87.6862 190.625 86.8398C190.599 86.7878 190.573 86.7487 190.547 86.7227C192.135 85.1341 193.464 83.1094 194.531 80.6484C194.766 80.1406 194.967 79.6328 195.137 79.125ZM209.18 85.668V87.9922H204.258V97.7383H201.777V87.9922H196.641V85.668H201.777V79.3594H204.258V85.668H209.18ZM217.207 82.6016H214.16V86.6641C214.16 91.7031 213.555 95.4141 212.344 97.7969C211.927 97.3542 211.406 96.957 210.781 96.6055C210.677 96.5404 210.592 96.4948 210.527 96.4688C211.478 94.4896 211.96 91.3646 211.973 87.0938C211.973 86.9505 211.973 86.8073 211.973 86.6641V80.6289H219.375V79.0859H221.855V80.6289H229.082V82.6016H225.723V83.6953H228.691V85.3359H225.723V89.7891H223.965V85.3359H221.758V83.6953H223.965V82.6016H218.965V83.6953H221.172V85.3359H218.965V89.6328H217.207V85.3359H215V83.6953H217.207V82.6016ZM223.32 85.7656V86.5859C223.307 88.0703 222.962 89.1641 222.285 89.8672C222.038 89.5547 221.68 89.2682 221.211 89.0078C221.172 88.9948 221.139 88.9818 221.113 88.9688C221.712 88.4479 222.012 87.6276 222.012 86.5078V85.7656H223.32ZM220.918 88.7539H219.609V85.8047H220.918V88.7539ZM216.582 85.7852V86.6055C216.569 88.1159 216.23 89.2487 215.566 90.0039C215.319 89.7044 214.948 89.4049 214.453 89.1055C215 88.5586 215.273 87.7122 215.273 86.5664V85.7852H216.582ZM223.672 93.6758L225.547 92.7773C226.927 93.9883 228.034 95.1797 228.867 96.3516C228.971 96.5078 229.062 96.6445 229.141 96.7617L227.148 97.7578C227.005 97.5234 226.829 97.2565 226.621 96.957C222.389 97.1133 218.411 97.237 214.688 97.3281L214.512 95.3555C214.785 95.3555 215.221 95.3555 215.82 95.3555C216.523 95.3424 217.064 95.3359 217.441 95.3359C217.598 95.2448 217.826 95.0951 218.125 94.8867C218.398 94.6914 218.6 94.5482 218.73 94.457C217.806 93.7018 216.68 92.9401 215.352 92.1719L216.855 90.8047C217.09 90.9349 217.448 91.1237 217.93 91.3711C218.698 90.6419 219.368 89.9062 219.941 89.1641L221.855 90.1797C220.931 91.026 220.111 91.7422 219.395 92.3281C219.694 92.5234 220.072 92.7904 220.527 93.1289C221.777 92.1393 222.839 91.2018 223.711 90.3164L225.723 91.3906C223.991 92.875 222.292 94.1706 220.625 95.2773C222.63 95.2513 224.141 95.2253 225.156 95.1992C224.596 94.5872 224.102 94.0794 223.672 93.6758ZM227.949 88.5586H228.125C228.19 88.5586 228.242 88.5456 228.281 88.5195C228.32 88.4935 228.366 88.4154 228.418 88.2852C228.457 88.1159 228.477 87.8034 228.477 87.3477C228.763 87.582 229.108 87.7578 229.512 87.875C229.46 88.5651 229.395 88.9818 229.316 89.125C229.186 89.3333 229.03 89.4831 228.848 89.5742C228.704 89.6523 228.496 89.6914 228.223 89.6914H227.598C227.181 89.6784 226.882 89.5677 226.699 89.3594C226.517 89.0599 226.419 88.5846 226.406 87.9336V85.7656H227.773V88.4805C227.826 88.5326 227.884 88.5586 227.949 88.5586ZM244.512 82.4258V81.3906H235.352V82.4258H244.512ZM244.512 85.0234V83.9883H235.352V85.0234H244.512ZM246.934 79.7305V86.6836H233.047V79.7305H246.934ZM241.426 93.2266V95.1602C241.96 95.1992 242.493 95.2188 243.027 95.2188C246.309 95.2188 248.431 95.1992 249.395 95.1602C249.004 95.8503 248.737 96.612 248.594 97.4453H242.891C240.299 97.4453 238.366 97.0938 237.09 96.3906C236.296 95.9479 235.625 95.349 235.078 94.5938C234.349 95.9219 233.418 96.9831 232.285 97.7773C231.934 97.2956 231.439 96.8138 230.801 96.332C230.684 96.2409 230.579 96.1693 230.488 96.1172C232.467 94.8672 233.704 92.849 234.199 90.0625L236.582 90.4141C236.53 90.6354 236.374 91.2409 236.113 92.2305C236.699 93.4805 237.663 94.3138 239.004 94.7305V89.6523H231.191V87.5625H248.848V89.6523H241.426V91.1562H247.578V93.2266H241.426ZM263.867 86.4883L266.035 85.375C267.428 87.1719 268.503 89.138 269.258 91.2734C269.427 91.7422 269.564 92.1784 269.668 92.582L267.246 93.7734C266.934 92.1328 266.165 90.2643 264.941 88.168C264.59 87.556 264.232 86.9961 263.867 86.4883ZM252.402 86.1758L254.746 86.6641C254.355 90.2969 253.639 92.8815 252.598 94.418L250.371 93.1484C251.426 91.5859 252.103 89.2617 252.402 86.1758ZM256.055 80.9805L257.578 79.125C259.661 79.8672 261.66 80.8633 263.574 82.1133C263.835 82.2826 264.069 82.4453 264.277 82.6016L262.715 84.6914C261.374 83.5716 259.564 82.5039 257.285 81.4883C256.855 81.306 256.445 81.1367 256.055 80.9805ZM255.977 84.7695H258.457V94.2617C258.457 94.8086 258.548 95.1341 258.73 95.2383C258.887 95.3164 259.154 95.3555 259.531 95.3555H262.285C262.741 95.3555 263.047 95.1602 263.203 94.7695C263.359 94.3268 263.477 93.2721 263.555 91.6055C264.128 92.0482 264.87 92.3932 265.781 92.6406C265.638 94.6849 265.306 96.0326 264.785 96.6836C264.316 97.2565 263.548 97.543 262.48 97.543H259.219C257.839 97.543 256.934 97.25 256.504 96.6641C256.152 96.1823 255.977 95.3815 255.977 94.2617V84.7695ZM277.188 91.5078L277.578 93.7344C276.641 94.0729 274.466 94.7956 271.055 95.9023L270.527 93.4805C270.827 93.4023 271.641 93.181 272.969 92.8164V88.1289H270.938V85.9414H272.969V82.4258H270.762V80.1992H277.363V82.4258H275.215V85.9414H277.012V88.1289H275.215V92.1133C276.1 91.8529 276.758 91.651 277.188 91.5078ZM280.254 85.4531V87.1719H282.324V85.4531H280.254ZM280.254 81.918V83.5781H282.324V81.918H280.254ZM286.309 83.5781V81.918H284.316V83.5781H286.309ZM286.309 87.1719V85.4531H284.316V87.1719H286.309ZM284.531 94.9648H289.453V97.1133H276.602V94.9648H282.129V93.0508H277.988V90.9219H282.129V89.2031H278.125V79.9062H288.555V89.2031H284.531V90.9219H288.789V93.0508H284.531V94.9648ZM297.031 79.6719V81.4883H291.66V79.6719H297.031ZM297.578 82.3672V84.2422H290.664V82.3672H297.578ZM297.07 85.1406V86.957H291.543V85.1406H297.07ZM291.543 89.6523V87.875H297.07V89.6523H291.543ZM295.176 92.5039H293.418V94.8086H295.176V92.5039ZM297.129 90.6484V96.6641H293.418V97.4648H291.484V90.6484H297.129ZM300.996 84.7891L301.445 86.5273C301.029 86.7227 300.397 87.0221 299.551 87.4258C298.926 87.7122 298.47 87.9271 298.184 88.0703L297.266 86.2148C297.63 86.0846 298.874 85.6094 300.996 84.7891ZM305.586 92.0938H301.191V94.8086H305.586V92.0938ZM299.004 97.7578V90.0234H307.891V97.6992H305.586V96.8984H301.191V97.7578H299.004ZM305.996 82.875V83.8906C305.996 84.9844 306.471 85.9414 307.422 86.7617C308.008 87.2565 308.724 87.6536 309.57 87.9531C308.958 88.7604 308.555 89.3464 308.359 89.7109C307.07 89.2552 306.068 88.4349 305.352 87.25C305.13 86.8724 304.974 86.5273 304.883 86.2148C304.648 86.9961 304.082 87.7513 303.184 88.4805C302.52 89.0143 301.79 89.418 300.996 89.6914C300.736 89.1706 300.358 88.6172 299.863 88.0312C301.803 87.3542 303.021 86.3125 303.516 84.9062C303.646 84.5547 303.711 84.2161 303.711 83.8906V82.875H303.359C302.969 83.7865 302.5 84.5938 301.953 85.2969C301.367 84.8151 300.794 84.418 300.234 84.1055C300.534 83.7539 300.814 83.3307 301.074 82.8359H297.871V81H301.172V82.6602C301.758 81.5664 302.181 80.3685 302.441 79.0664L304.492 79.457C304.388 79.9388 304.251 80.4596 304.082 81.0195H307.734L308.047 80.9609L309.453 81.1953C309.115 82.7578 308.776 84.0143 308.438 84.9648L306.719 84.6328C306.888 84.0208 307.031 83.4349 307.148 82.875H305.996ZM318.086 84.3008H321.699C322.168 83.3242 322.415 82.8034 322.441 82.7383H317.441C317.78 83.4544 317.995 83.9753 318.086 84.3008ZM325.996 87.543V86.332H322.676V87.6016C322.676 87.875 322.747 88.0247 322.891 88.0508C322.943 88.0638 323.008 88.0703 323.086 88.0703H324.121C324.329 88.0703 324.46 87.9596 324.512 87.7383C324.551 87.582 324.583 87.3281 324.609 86.9766C324.935 87.1979 325.397 87.3867 325.996 87.543ZM314.199 86.332V88.8516C315.462 88.6042 316.263 88.181 316.602 87.582C316.771 87.2695 316.882 86.8529 316.934 86.332H314.199ZM321.855 93.9883V92.3086H318.262V93.9883H321.855ZM328.77 82.7383H325.195C325.13 82.8555 324.837 83.3763 324.316 84.3008H328.301V95.1406C328.301 96.1432 328.06 96.8203 327.578 97.1719C327.487 97.237 327.389 97.2956 327.285 97.3477C326.673 97.6081 325.521 97.7383 323.828 97.7383C323.737 97.1914 323.509 96.5208 323.145 95.7266H318.262V96.8203H316.152V90.5312H324.004V95.4922C324.473 95.5052 324.993 95.5117 325.566 95.5117C325.827 95.4336 325.97 95.3034 325.996 95.1211V88.9883C325.723 89.5221 325.189 89.7891 324.395 89.7891H322.773C321.784 89.7891 321.159 89.5677 320.898 89.125C320.729 88.8125 320.645 88.3112 320.645 87.6211V86.332H319.023C318.919 87.6862 318.522 88.6693 317.832 89.2812C317.233 89.8281 316.309 90.2448 315.059 90.5312C314.889 90.0625 314.603 89.6003 314.199 89.1445V97.6992H311.934V84.3008H315.508C315.378 83.8841 315.169 83.3633 314.883 82.7383H311.27V80.5703H318.691V79.0859H321.113V80.5703H328.77V82.7383ZM338.477 90.8633C338.333 89.7956 338.77 88.806 339.785 87.8945C339.967 87.7122 340.26 87.4648 340.664 87.1523C341.445 86.5534 341.927 86.0846 342.109 85.7461C342.24 85.5247 342.305 85.2969 342.305 85.0625C342.305 84.151 341.816 83.5651 340.84 83.3047C340.514 83.2266 340.163 83.1875 339.785 83.1875C338.587 83.2005 337.52 83.7279 336.582 84.7695L334.941 83.2461C336.348 81.6315 338.066 80.8177 340.098 80.8047C342.103 80.8047 343.535 81.3711 344.395 82.5039C344.876 83.1419 345.117 83.9102 345.117 84.8086C345.117 85.694 344.655 86.5273 343.73 87.3086C343.574 87.4388 343.327 87.6341 342.988 87.8945C342.155 88.5195 341.621 89.0273 341.387 89.418C341.113 89.8737 341.003 90.3555 341.055 90.8633H338.477ZM338.223 93.0117H341.309V96.0977H338.223V93.0117Z" fill="#4F4F4F"/>
<path d="M200.796 113.822L201.777 113.324C202.842 114.682 203.667 116.156 204.253 117.748C204.399 118.148 204.512 118.52 204.59 118.861L203.506 119.374C203.213 118.095 202.598 116.674 201.66 115.111C201.377 114.643 201.089 114.213 200.796 113.822ZM192.095 113.822L193.179 114.027C192.856 116.732 192.266 118.666 191.406 119.828L190.41 119.213C191.289 118.07 191.851 116.273 192.095 113.822ZM194.717 109.369L195.42 108.52C196.973 109.037 198.521 109.765 200.063 110.702C200.239 110.8 200.4 110.897 200.547 110.995L199.844 111.977C198.75 111.186 197.373 110.443 195.713 109.75C195.361 109.604 195.029 109.477 194.717 109.369ZM194.6 112.606H195.728V120.106C195.728 120.507 195.825 120.751 196.021 120.839C196.167 120.897 196.401 120.927 196.724 120.927H199.478C199.888 120.927 200.161 120.766 200.298 120.443C200.454 120.072 200.566 119.188 200.635 117.792C200.918 118.036 201.265 118.207 201.675 118.305C201.597 119.848 201.401 120.849 201.089 121.308C200.786 121.737 200.269 121.952 199.536 121.952H196.636C195.737 121.952 195.156 121.776 194.893 121.425C194.697 121.151 194.6 120.707 194.6 120.092V112.606ZM210.288 117.982L210.493 119.052C208.794 119.628 207.241 120.146 205.835 120.604L205.586 119.491C206.064 119.354 206.733 119.145 207.593 118.861V114.818H205.879V113.764H207.593V110.512H205.732V109.472H210.391V110.512H208.662V113.764H210.171V114.818H208.662V118.524L210.288 117.982ZM212.134 112.914V114.833H214.419V112.914H212.134ZM212.134 110.116V112.006H214.419V110.116H212.134ZM217.671 112.006V110.116H215.386V112.006H217.671ZM217.671 114.833V112.914H215.386V114.833H217.671ZM215.474 120.634H219.443V121.659H209.79V120.634H214.346V118.583H210.947V117.572H214.346V115.814H211.123V109.135H218.74V115.814H215.474V117.572H218.96V118.583H215.474V120.634ZM228.394 110.102V110.995H225.947V110.102H228.394ZM225.229 108.974V109.867H221.348V108.974H225.229ZM225.625 110.937V111.845H220.63V110.937H225.625ZM224.351 117.865H222.197V120.37H224.351V117.865ZM225.288 116.957V121.264H222.197V121.981H221.245V116.957H225.288ZM221.26 115.844V114.936H225.288V115.844H221.26ZM221.26 113.852V112.958H225.288V113.852H221.26ZM228.408 112.812L228.628 113.646C227.954 113.979 227.1 114.374 226.064 114.833L225.596 113.939C225.85 113.852 226.787 113.476 228.408 112.812ZM232.261 117.572H227.983V120.429H232.261V117.572ZM226.943 122.172V116.562H233.33V122.113H232.261V121.41H227.983V122.172H226.943ZM231.675 110.951V111.874C231.675 112.665 231.963 113.388 232.539 114.042C233.037 114.589 233.696 115.009 234.517 115.302C234.282 115.604 234.082 115.883 233.916 116.137C232.773 115.717 231.934 114.984 231.396 113.939C231.279 113.705 231.191 113.485 231.133 113.28C230.996 113.876 230.605 114.457 229.961 115.023C229.414 115.492 228.77 115.863 228.027 116.137C227.861 115.824 227.676 115.565 227.471 115.36C229.102 114.774 230.103 113.881 230.474 112.68C230.562 112.406 230.605 112.143 230.605 111.889V110.951H229.829C229.448 111.781 229.082 112.421 228.73 112.87C228.574 112.714 228.296 112.523 227.896 112.299C228.657 111.342 229.224 110.058 229.595 108.446L230.591 108.651C230.483 109.062 230.342 109.521 230.166 110.028H233.579L233.74 109.984L234.414 110.16C234.111 111.195 233.828 112.025 233.564 112.65L232.729 112.445C232.944 111.898 233.11 111.4 233.228 110.951H231.675ZM244.375 117.748H240.728V119.667H244.375V117.748ZM245.4 120.531H240.728V121.454H239.746V116.869H245.4V120.531ZM240.845 112.46H244.038C244.409 111.806 244.673 111.283 244.829 110.893H240.142C240.464 111.469 240.698 111.991 240.845 112.46ZM248.945 110.893H246.133C245.967 111.234 245.679 111.757 245.269 112.46H248.447V120.766C248.447 121.371 248.267 121.757 247.905 121.923C247.866 121.942 247.832 121.957 247.803 121.967C247.432 122.084 246.582 122.143 245.254 122.143C245.186 121.732 245.063 121.371 244.888 121.059C245.767 121.098 246.479 121.103 247.026 121.073C247.241 121.034 247.354 120.932 247.363 120.766V113.441H244.229V114.921C244.229 115.106 244.282 115.214 244.39 115.243C244.448 115.253 244.536 115.258 244.653 115.258H245.972C246.157 115.258 246.27 115.185 246.309 115.038C246.348 114.901 246.377 114.643 246.396 114.262C246.562 114.408 246.851 114.525 247.261 114.613C247.192 115.355 247.017 115.81 246.733 115.976C246.577 116.063 246.362 116.107 246.089 116.107H244.536C243.911 116.107 243.525 115.98 243.379 115.727C243.281 115.551 243.232 115.287 243.232 114.936V113.441H241.445C241.338 114.535 240.991 115.326 240.405 115.814C239.946 116.186 239.277 116.479 238.398 116.693C238.271 116.391 238.096 116.132 237.871 115.917C238.994 115.683 239.731 115.282 240.083 114.716C240.269 114.394 240.391 113.969 240.449 113.441H237.754V122.128H236.714V112.46H239.644C239.497 112.021 239.263 111.498 238.94 110.893H236.084V109.867H241.885V108.461H243.013V109.867H248.945V110.893ZM255.522 114.979V111.845H252.373V114.979H255.522ZM252.373 119.579H255.522V115.976H252.373V119.579ZM253.633 108.417L254.834 108.637C254.521 109.555 254.258 110.292 254.043 110.849H256.533V120.575H252.373V121.762H251.348V110.849H253.032C253.345 109.823 253.545 109.013 253.633 108.417ZM263.872 110.805V111.376C263.706 116.083 263.511 118.998 263.286 120.121C263.169 120.658 263.022 121.034 262.847 121.249C262.573 121.601 262.197 121.801 261.719 121.85C261.689 121.85 261.67 121.85 261.66 121.85C261.23 121.898 260.488 121.894 259.434 121.835C259.395 121.454 259.268 121.093 259.053 120.751C259.707 120.81 260.449 120.839 261.279 120.839C261.572 120.829 261.777 120.751 261.895 120.604C262.227 120.253 262.466 118.812 262.612 116.283C262.681 115.16 262.744 113.676 262.803 111.83H258.994C258.506 112.982 258.037 113.861 257.588 114.467C257.441 114.33 257.139 114.12 256.68 113.837C257.646 112.577 258.408 110.761 258.965 108.388L260.034 108.637C259.858 109.359 259.644 110.082 259.39 110.805H263.872ZM261.499 117.543L260.562 118.129C260.103 117.24 259.341 116.088 258.276 114.672L259.155 114.159C260.239 115.556 261.021 116.684 261.499 117.543ZM271.973 108.666H273.159V120.59C273.159 121.234 272.983 121.654 272.632 121.85C272.563 121.889 272.49 121.923 272.412 121.952C271.963 122.099 271.006 122.162 269.541 122.143C269.453 121.771 269.302 121.386 269.087 120.985C270.112 121.024 270.928 121.029 271.533 121C271.816 120.961 271.963 120.824 271.973 120.59V108.666ZM275.562 112.445L276.616 112.05C277.778 113.896 278.652 115.707 279.238 117.484C279.375 117.914 279.482 118.305 279.561 118.656L278.389 119.154C278.086 117.689 277.407 115.932 276.353 113.881C276.089 113.363 275.825 112.885 275.562 112.445ZM268.062 112.152L269.292 112.372C268.628 115.312 267.729 117.489 266.597 118.905C266.255 118.661 265.903 118.466 265.542 118.319C266.587 117.079 267.378 115.272 267.915 112.899C267.964 112.646 268.013 112.396 268.062 112.152ZM290.693 111.537L289.932 112.255C289.482 111.649 288.721 110.966 287.646 110.204C287.607 110.175 287.573 110.15 287.544 110.131L288.247 109.486C289.253 110.131 290.034 110.771 290.591 111.405C290.63 111.454 290.664 111.498 290.693 111.537ZM290.342 115.478L289.595 116.21C289.087 115.585 288.306 114.921 287.251 114.218C287.144 114.149 287.046 114.086 286.958 114.027L287.646 113.368C288.77 114.042 289.634 114.706 290.239 115.36C290.278 115.409 290.312 115.448 290.342 115.478ZM286.387 116.547L285.713 117.411C285.498 116.991 285.034 116.249 284.321 115.185V122.128H283.223V115.492C282.5 117.23 281.777 118.534 281.055 119.403C280.957 119.13 280.771 118.798 280.498 118.407C281.318 117.489 282.061 116.234 282.725 114.643C282.852 114.311 282.969 113.993 283.076 113.69H280.703V112.65H283.223V110.38C282.324 110.556 281.641 110.673 281.172 110.731C281.104 110.458 280.991 110.165 280.835 109.853C282.954 109.521 284.546 109.12 285.61 108.651L286.284 109.545C285.649 109.789 284.995 109.989 284.321 110.146V112.65H286.519V113.69H284.321V113.969C284.556 114.232 285.244 115.092 286.387 116.547ZM294.414 117.895L292.495 118.217V122.128H291.396V118.393L286.504 119.198L286.328 118.129L291.396 117.323V108.446H292.495V117.147L294.253 116.869L294.414 117.895ZM305.869 116.854H299.16V118.334H305.869V116.854ZM299.16 120.722H305.869V119.198H299.16V120.722ZM298.032 122.128V115.976H307.041V122.069H305.869V121.615H299.16V122.128H298.032ZM301.475 111.186V114.13H303.394V111.186H301.475ZM304.434 114.13H309.209V115.053H295.82V114.13H300.449V111.186H296.67V110.263H299.482C299.209 109.706 298.887 109.218 298.516 108.798L299.468 108.432C300.015 108.988 300.396 109.54 300.61 110.087L300.186 110.263H304.785L304.272 110.087C304.702 109.53 305.059 108.979 305.342 108.432L306.426 108.769C305.986 109.442 305.63 109.94 305.356 110.263H308.462V111.186H304.434V114.13ZM297.417 111.742L298.311 111.405C298.867 112.069 299.277 112.802 299.541 113.603C299.551 113.632 299.561 113.656 299.57 113.676L298.589 114.071C298.423 113.388 298.057 112.646 297.49 111.845C297.461 111.806 297.437 111.771 297.417 111.742ZM306.147 114.027L305.283 113.72C305.869 112.88 306.318 112.084 306.631 111.332L307.627 111.669C307.07 112.665 306.577 113.451 306.147 114.027Z" fill="#4F4F4F"/>
<g filter="url(#filter0_d)">
<circle cx="258" cy="160" r="24" fill="url(#paint0_linear)"/>
</g>
<path d="M259.083 167.583L266.667 160L259.083 152.417" stroke="white" stroke-width="3" stroke-linecap="round" stroke-linejoin="round"/>
<path d="M266.667 160L249.333 160" stroke="white" stroke-width="3" stroke-linecap="round" stroke-linejoin="round"/>
<g clip-path="url(#clip1)">
<path d="M77.2529 165.115C77.207 170.357 76.823 175.59 76.1035 180.783C76.0783 180.965 76.0509 181.147 76.0256 181.33L26.9374 181.055C26.7933 180.874 26.6514 180.691 26.514 180.506C26.0557 179.892 25.6262 179.261 25.2318 178.608C23.3366 175.462 22.469 171.779 23.3384 169.238L23.354 169.198C23.5417 168.642 23.8374 168.128 24.2243 167.686C26.2067 165.455 30.2148 165.827 33.8522 167.628C30.5897 164.057 27.992 159.55 27.7946 155.528C27.601 151.605 29.6525 148.802 31.8776 146.42C31.9506 146.342 32.0236 146.265 32.0966 146.188C32.1321 146.149 32.1696 146.112 32.2049 146.072C33.941 144.257 35.9649 142.468 38.8944 142.684C42.1073 142.922 45.6695 145.613 48.1671 148.749C50.6648 151.883 52.3245 155.443 54.0068 158.917C55.6913 162.39 57.5138 165.95 60.2169 168.918C56.5558 164.287 53.6039 159.019 52.5135 153.894C51.4231 148.77 52.3827 143.848 55.6457 141.435C56.6363 140.725 57.7825 140.262 58.9885 140.086C59.1293 140.063 59.2723 140.044 59.4175 140.027C62.4381 139.683 66.0445 140.728 69.113 143.225C72.4922 145.974 74.835 150.05 76.0007 153.92C77.1663 157.789 77.2906 161.514 77.2529 165.115Z" fill="#96FBC4" fill-opacity="0.51"/>
<path d="M81.6733 168.066C81.7104 172.314 82.0201 176.555 82.6005 180.763C82.6208 180.911 82.6429 181.059 82.6633 181.206L122.261 180.984C122.378 180.837 122.492 180.689 122.603 180.538C122.973 180.041 123.319 179.529 123.637 179C125.166 176.451 125.866 173.466 125.164 171.407L125.152 171.375C125.001 170.924 124.762 170.507 124.45 170.149C122.851 168.341 119.617 168.642 116.683 170.102C119.315 167.208 121.411 163.556 121.57 160.296C121.726 157.116 120.071 154.845 118.276 152.914C118.217 152.851 118.158 152.789 118.1 152.727C118.071 152.695 118.041 152.664 118.012 152.633C116.612 151.162 114.979 149.711 112.616 149.887C110.024 150.08 107.151 152.261 105.136 154.802C103.121 157.342 101.782 160.227 100.425 163.043C99.0664 165.857 97.5962 168.742 95.4157 171.148C98.3691 167.395 100.75 163.125 101.63 158.972C102.509 154.819 101.735 150.83 99.1032 148.874C98.3041 148.298 97.3795 147.924 96.4066 147.781C96.2931 147.762 96.1777 147.746 96.0606 147.733C93.624 147.454 90.7147 148.301 88.2395 150.325C85.5136 152.553 83.6237 155.856 82.6834 158.992C81.7431 162.128 81.6429 165.147 81.6733 168.066Z" fill="#96FBC4" fill-opacity="0.51"/>
<path d="M23.9701 169.433L23.9268 169.454M23.9701 169.433L23.8873 169.474M23.9701 169.433L23.9268 169.454M23.9701 169.433L23.8873 169.474M23.9268 169.454L23.8873 169.474M23.9268 169.454L23.8873 169.474M23.9981 169.419L24.0287 169.403L24.0186 169.423L23.9981 169.419Z" fill="white" stroke="white" stroke-width="11.175"/>
<mask id="path-10-inside-1" fill="white">
<path d="M107.744 181.206L108.474 181.202C108.707 181.057 108.94 180.913 109.174 180.771C109.319 180.68 109.466 180.592 109.612 180.502C112.036 179.019 114.475 177.597 116.929 176.236C119.381 174.873 121.846 173.573 124.322 172.336C124.388 172.308 124.441 172.257 124.474 172.193C124.506 172.129 124.515 172.056 124.498 171.986C124.496 171.977 124.492 171.968 124.486 171.96C124.452 171.895 124.374 171.868 124.262 171.924C123.958 172.076 123.652 172.229 123.349 172.385C120.865 173.643 118.393 174.964 115.93 176.348C113.47 177.731 111.024 179.175 108.591 180.68C108.54 180.712 108.489 180.744 108.438 180.776C108.206 180.919 107.976 181.063 107.744 181.206Z"/>
</mask>
<path d="M107.744 181.206L108.474 181.202C108.707 181.057 108.94 180.913 109.174 180.771C109.319 180.68 109.466 180.592 109.612 180.502C112.036 179.019 114.475 177.597 116.929 176.236C119.381 174.873 121.846 173.573 124.322 172.336C124.388 172.308 124.441 172.257 124.474 172.193C124.506 172.129 124.515 172.056 124.498 171.986C124.496 171.977 124.492 171.968 124.486 171.96C124.452 171.895 124.374 171.868 124.262 171.924C123.958 172.076 123.652 172.229 123.349 172.385C120.865 173.643 118.393 174.964 115.93 176.348C113.47 177.731 111.024 179.175 108.591 180.68C108.54 180.712 108.489 180.744 108.438 180.776C108.206 180.919 107.976 181.063 107.744 181.206Z" fill="white"/>
<path d="M107.744 181.206L107.806 192.381L68.0945 192.603L101.863 171.704L107.744 181.206ZM108.474 181.202L114.405 190.674L111.713 192.359L108.537 192.377L108.474 181.202ZM109.174 180.771L115.145 190.218L115.054 190.275L114.963 190.33L109.174 180.771ZM109.612 180.502L103.772 170.974L103.782 170.968L109.612 180.502ZM116.929 176.236L122.358 186.004L122.35 186.008L116.929 176.236ZM124.322 172.336L119.329 162.339L119.589 162.209L119.856 162.093L124.322 172.336ZM124.498 171.986L135.231 168.873L135.315 169.164L135.384 169.459L124.498 171.986ZM124.486 171.96L115.292 178.313L114.924 177.78L114.62 177.208L124.486 171.96ZM124.262 171.924L119.247 161.937L119.286 161.917L119.326 161.898L124.262 171.924ZM123.349 172.385L128.453 182.326L128.426 182.34L128.399 182.353L123.349 172.385ZM115.93 176.348L110.454 166.607L110.455 166.606L115.93 176.348ZM108.591 180.68L114.472 190.183L114.438 190.204L114.403 190.226L108.591 180.68ZM108.438 180.776L102.557 171.273L102.592 171.252L102.627 171.231L108.438 180.776ZM107.681 170.031L108.412 170.027L108.537 192.377L107.806 192.381L107.681 170.031ZM102.544 171.73C102.823 171.556 103.103 171.383 103.385 171.213L114.963 190.33C114.776 190.443 114.59 190.558 114.405 190.674L102.544 171.73ZM103.203 171.325C103.435 171.179 103.731 170.999 103.772 170.974L115.452 190.029C115.2 190.184 115.203 190.181 115.145 190.218L103.203 171.325ZM103.782 170.968C106.339 169.404 108.914 167.903 111.508 166.464L122.35 186.008C120.036 187.292 117.734 188.634 115.443 190.035L103.782 170.968ZM111.501 166.468C114.094 165.027 116.704 163.65 119.329 162.339L129.316 182.334C126.988 183.497 124.668 184.72 122.358 186.004L111.501 166.468ZM119.856 162.093C117.524 163.109 115.626 164.91 114.487 167.179L134.46 177.207C133.257 179.604 131.252 181.506 128.788 182.58L119.856 162.093ZM114.487 167.179C113.348 169.447 113.039 172.042 113.613 174.513L135.384 169.459C135.99 172.07 135.664 174.811 134.46 177.207L114.487 167.179ZM113.766 175.099C114.099 176.248 114.615 177.333 115.292 178.313L133.68 165.608C134.368 166.603 134.892 167.705 135.231 168.873L113.766 175.099ZM114.62 177.208C116.022 179.844 118.628 182.102 122.103 182.832C125.268 183.498 127.821 182.627 129.198 181.949L119.326 161.898C120.815 161.165 123.463 160.28 126.703 160.961C130.254 161.708 132.916 164.012 134.352 166.712L114.62 177.208ZM129.276 181.911C128.94 182.079 128.699 182.2 128.453 182.326L118.244 162.444C118.606 162.258 118.976 162.073 119.247 161.937L129.276 181.911ZM128.399 182.353C126.061 183.538 123.73 184.783 121.406 186.089L110.455 166.606C113.055 165.145 115.669 163.748 118.298 162.416L128.399 182.353ZM121.407 186.089C119.085 187.394 116.773 188.759 114.472 190.183L102.711 171.178C105.274 169.591 107.855 168.068 110.454 166.607L121.407 186.089ZM114.403 190.226C114.427 190.211 114.444 190.2 114.449 190.197C114.453 190.195 114.454 190.194 114.439 190.204C114.428 190.21 114.401 190.227 114.372 190.245C114.342 190.264 114.299 190.29 114.249 190.321L102.627 171.231C102.602 171.245 102.585 171.256 102.58 171.259C102.577 171.261 102.576 171.262 102.591 171.252C102.601 171.246 102.628 171.229 102.657 171.211C102.688 171.192 102.73 171.166 102.78 171.135L114.403 190.226ZM114.319 190.278C114.212 190.344 114.104 190.411 113.987 190.484C113.873 190.555 113.75 190.631 113.625 190.709L101.863 171.704C101.97 171.638 102.078 171.57 102.195 171.498C102.309 171.427 102.432 171.351 102.557 171.273L114.319 190.278Z" fill="white" mask="url(#path-10-inside-1)"/>
<mask id="path-12-inside-2" fill="white">
<path d="M57.2394 181.225L56.659 181.221C56.5281 181.038 56.3994 180.855 56.2685 180.672C53.1927 176.359 50.1176 172.045 47.0431 167.732C42.0082 160.671 36.9748 153.61 31.9429 146.548C31.9131 146.51 31.8909 146.467 31.8776 146.42C31.8346 146.264 31.9495 146.172 32.0967 146.188C32.1587 146.197 32.2182 146.219 32.271 146.253C32.3239 146.287 32.369 146.331 32.4033 146.384C35.2262 150.344 38.0483 154.302 40.8697 158.259C45.8783 165.285 50.8863 172.311 55.8935 179.335C56.212 179.781 56.5305 180.229 56.849 180.675C56.9799 180.858 57.1108 181.042 57.2394 181.225Z"/>
</mask>
<path d="M57.2394 181.225L56.659 181.221C56.5281 181.038 56.3994 180.855 56.2685 180.672C53.1927 176.359 50.1176 172.045 47.0431 167.732C42.0082 160.671 36.9748 153.61 31.9429 146.548C31.9131 146.51 31.8909 146.467 31.8776 146.42C31.8346 146.264 31.9495 146.172 32.0967 146.188C32.1587 146.197 32.2182 146.219 32.271 146.253C32.3239 146.287 32.369 146.331 32.4033 146.384C35.2262 150.344 38.0483 154.302 40.8697 158.259C45.8783 165.285 50.8863 172.311 55.8935 179.335C56.212 179.781 56.5305 180.229 56.849 180.675C56.9799 180.858 57.1108 181.042 57.2394 181.225Z" fill="white"/>
<path d="M57.2394 181.225L57.1769 192.4L78.8285 192.521L66.3844 174.802L57.2394 181.225ZM56.659 181.221L47.5672 187.719L50.887 192.364L56.5964 192.396L56.659 181.221ZM56.2685 180.672L47.17 187.16L47.1761 187.169L56.2685 180.672ZM47.0431 167.732L56.1428 161.246L56.142 161.245L47.0431 167.732ZM31.9429 146.548L41.0437 140.063L40.8936 139.852L40.734 139.649L31.9429 146.548ZM31.8776 146.42L21.1033 149.386L21.1187 149.442L21.1346 149.497L31.8776 146.42ZM32.0967 146.188L33.6771 135.126L33.499 135.1L33.3202 135.081L32.0967 146.188ZM32.4033 146.384L23.0505 152.5L23.1733 152.687L23.3036 152.87L32.4033 146.384ZM40.8697 158.259L49.9692 151.773L49.9686 151.772L40.8697 158.259ZM55.8935 179.335L46.7937 185.822L46.8 185.83L55.8935 179.335ZM56.849 180.675L47.7554 187.17L47.7562 187.171L56.849 180.675ZM57.302 170.05L56.7216 170.047L56.5964 192.396L57.1769 192.4L57.302 170.05ZM65.7508 174.724C65.7011 174.654 65.6495 174.581 65.5825 174.487C65.5199 174.399 65.4418 174.288 65.3609 174.175L47.1761 187.169C47.2261 187.239 47.2778 187.312 47.345 187.406C47.4078 187.495 47.486 187.606 47.5672 187.719L65.7508 174.724ZM65.367 174.184C62.2917 169.871 59.2169 165.558 56.1428 161.246L37.9433 174.219C41.0182 178.533 44.0938 182.846 47.17 187.16L65.367 174.184ZM56.142 161.245C51.1077 154.184 46.075 147.124 41.0437 140.063L22.8422 153.033C27.8747 160.096 32.9086 167.158 37.9441 174.22L56.142 161.245ZM40.734 139.649C41.5958 140.747 42.2365 142.002 42.6207 143.344L21.1346 149.497C21.5454 150.932 22.2304 152.273 23.1519 153.447L40.734 139.649ZM42.652 143.455C43.5289 146.641 43.0511 151.01 39.6925 154.265C36.7534 157.113 33.1955 157.552 30.8731 157.296L33.3202 135.081C30.8506 134.809 27.1616 135.286 24.1391 138.214C20.6971 141.55 20.1833 146.043 21.1033 149.386L42.652 143.455ZM30.5162 157.251C29.0049 157.035 27.5577 156.5 26.2709 155.681L38.2712 136.825C36.8786 135.939 35.3125 135.359 33.6771 135.126L30.5162 157.251ZM26.2709 155.681C24.9839 154.861 23.8859 153.777 23.0505 152.5L41.7562 140.268C40.8522 138.885 39.664 137.712 38.2712 136.825L26.2709 155.681ZM23.3036 152.87C26.1267 156.831 28.949 160.789 31.7707 164.747L49.9686 151.772C47.1475 147.815 44.3256 143.857 41.5031 139.897L23.3036 152.87ZM31.7701 164.746C36.7787 171.772 41.7866 178.797 46.7937 185.822L64.9933 172.849C59.986 165.824 54.9779 158.799 49.9692 151.773L31.7701 164.746ZM46.8 185.83C46.9549 186.047 47.1104 186.266 47.2702 186.49C47.4288 186.713 47.5918 186.941 47.7554 187.17L65.9426 174.18C65.7877 173.963 65.6321 173.745 65.4722 173.52C65.3136 173.298 65.1506 173.069 64.987 172.84L46.8 185.83ZM47.7562 187.171C47.8917 187.361 47.9962 187.507 48.0945 187.647L66.3844 174.802C66.2254 174.576 66.068 174.356 65.9417 174.179L47.7562 187.171Z" fill="white" mask="url(#path-12-inside-2)"/>
<path d="M117.867 153.611L117.88 153.63L117.867 153.611Z" fill="white" stroke="white" stroke-width="11.175"/>
<mask id="path-15-inside-3" fill="white">
<path d="M70.1705 177.854C70.1409 178.832 70.0761 179.795 69.9916 180.749C69.9752 180.931 69.9588 181.113 69.9424 181.296L69.3334 181.292C69.352 181.11 69.3706 180.928 69.387 180.745C69.5157 179.367 69.607 177.974 69.6194 176.543C69.6356 172.575 69.2489 168.615 68.4652 164.726C67.6323 160.537 66.4363 156.429 64.8907 152.449C63.2686 148.25 61.3129 144.188 59.0423 140.302C58.9995 140.238 58.9805 140.162 58.9886 140.086C59.0137 139.912 59.2448 139.861 59.4176 140.027C59.4517 140.059 59.4811 140.097 59.5049 140.137C59.7858 140.62 60.0616 141.105 60.3323 141.591C62.5191 145.499 64.3909 149.575 65.9299 153.78C67.3957 157.774 68.5108 161.888 69.2623 166.076C69.9663 169.96 70.2706 173.907 70.1705 177.854Z"/>
</mask>
<path d="M70.1705 177.854C70.1409 178.832 70.0761 179.795 69.9916 180.749C69.9752 180.931 69.9588 181.113 69.9424 181.296L69.3334 181.292C69.352 181.11 69.3706 180.928 69.387 180.745C69.5157 179.367 69.607 177.974 69.6194 176.543C69.6356 172.575 69.2489 168.615 68.4652 164.726C67.6323 160.537 66.4363 156.429 64.8907 152.449C63.2686 148.25 61.3129 144.188 59.0423 140.302C58.9995 140.238 58.9805 140.162 58.9886 140.086C59.0137 139.912 59.2448 139.861 59.4176 140.027C59.4517 140.059 59.4811 140.097 59.5049 140.137C59.7858 140.62 60.0616 141.105 60.3323 141.591C62.5191 145.499 64.3909 149.575 65.9299 153.78C67.3957 157.774 68.5108 161.888 69.2623 166.076C69.9663 169.96 70.2706 173.907 70.1705 177.854Z" fill="white"/>
<path d="M69.9916 180.749L81.1219 181.747L81.1229 181.735L69.9916 180.749ZM69.9424 181.296L69.88 192.471L80.1501 192.528L81.0722 182.299L69.9424 181.296ZM69.3334 181.292L58.2162 180.157L56.966 192.398L69.271 192.467L69.3334 181.292ZM69.387 180.745L58.2604 179.706L58.2585 179.726L58.2567 179.746L69.387 180.745ZM69.6194 176.543L80.794 176.64L80.7942 176.614L80.7943 176.588L69.6194 176.543ZM68.4652 164.726L57.5049 166.905L57.5076 166.919L57.5103 166.933L68.4652 164.726ZM64.8907 152.449L54.4667 156.476L54.47 156.484L54.4733 156.493L64.8907 152.449ZM59.0423 140.302L68.6912 134.664L68.5073 134.35L68.3033 134.048L59.0423 140.302ZM58.9886 140.086L47.9288 138.485L47.8983 138.696L47.8758 138.908L58.9886 140.086ZM59.4176 140.027L51.6788 148.089L51.6921 148.101L51.7054 148.114L59.4176 140.027ZM59.5049 140.137L69.165 134.519L69.1589 134.509L69.1528 134.498L59.5049 140.137ZM60.3323 141.591L50.5696 147.029L50.575 147.038L50.5803 147.048L60.3323 141.591ZM65.9299 153.78L55.4355 157.62L55.4392 157.63L65.9299 153.78ZM69.2623 166.076L58.263 168.05L58.2647 168.059L58.2664 168.068L69.2623 166.076ZM59.0006 177.516C58.9791 178.225 58.9309 178.965 58.8602 179.762L81.1229 181.735C81.2214 180.625 81.3026 179.439 81.3404 178.192L59.0006 177.516ZM58.8613 179.75C58.8451 179.93 58.8288 180.111 58.8125 180.292L81.0722 182.299C81.0888 182.115 81.1053 181.931 81.1218 181.747L58.8613 179.75ZM70.0048 170.121L69.3958 170.117L69.271 192.467L69.88 192.471L70.0048 170.121ZM80.4505 182.428C80.468 182.256 80.4937 182.006 80.5173 181.744L58.2567 179.746C58.2475 179.849 58.236 179.963 58.2162 180.157L80.4505 182.428ZM80.5136 181.784C80.6612 180.204 80.778 178.48 80.794 176.64L58.4448 176.446C58.4359 177.468 58.3702 178.531 58.2604 179.706L80.5136 181.784ZM80.7943 176.588C80.8136 171.864 80.3532 167.15 79.4202 162.519L57.5103 166.933C58.1446 170.081 58.4576 173.286 58.4445 176.497L80.7943 176.588ZM79.4256 162.546C78.4661 157.721 77.0884 152.99 75.3082 148.404L54.4733 156.493C55.7841 159.869 56.7984 163.353 57.5049 166.905L79.4256 162.546ZM75.3148 148.421C73.4777 143.666 71.2627 139.066 68.6912 134.664L49.3934 145.939C51.3631 149.31 53.0596 152.834 54.4667 156.476L75.3148 148.421ZM68.3033 134.048C69.7341 136.166 70.3707 138.722 70.1013 141.264L47.8758 138.908C47.5903 141.602 48.265 144.311 49.7813 146.556L68.3033 134.048ZM70.0483 141.687C69.2764 147.019 65.0678 150.268 60.9949 150.95C57.1342 151.597 53.7844 150.11 51.6788 148.089L67.1563 131.965C64.878 129.778 61.3262 128.233 57.3004 128.908C53.0626 129.618 48.7258 132.979 47.9288 138.485L70.0483 141.687ZM51.7054 148.114C50.9831 147.425 50.3608 146.638 49.8569 145.776L69.1528 134.498C68.6013 133.555 67.9202 132.693 67.1297 131.94L51.7054 148.114ZM49.8447 145.755C50.091 146.179 50.3327 146.603 50.5696 147.029L70.0949 136.153C69.7905 135.606 69.4805 135.062 69.165 134.519L49.8447 145.755ZM50.5803 147.048C52.4771 150.437 54.1006 153.973 55.4355 157.62L76.4242 149.94C74.6812 145.176 72.5611 140.56 70.0842 136.134L50.5803 147.048ZM55.4392 157.63C56.6813 161.015 57.6262 164.501 58.263 168.05L80.2616 164.102C79.3953 159.275 78.1102 154.533 76.4206 149.93L55.4392 157.63ZM58.2664 168.068C58.8343 171.202 59.0798 174.386 58.9991 177.571L81.3419 178.137C81.4613 173.428 81.0982 168.719 80.2582 164.083L58.2664 168.068Z" fill="white" mask="url(#path-15-inside-3)"/>
<path d="M96.5673 147.811L96.3226 147.847M96.3226 147.847V147.847Z" fill="white" stroke="white" stroke-width="11.175"/>
<path d="M107.276 115.754C107.029 115.38 106.703 115.065 106.322 114.831C105.94 114.597 105.512 114.45 105.067 114.399C104.622 114.348 104.172 114.396 103.748 114.538C103.323 114.681 102.935 114.914 102.611 115.223L92.942 110.232L93.5431 115.854L102.633 119.731C103.187 120.242 103.909 120.531 104.663 120.545C105.416 120.558 106.149 120.295 106.721 119.805C107.293 119.315 107.666 118.631 107.768 117.885C107.87 117.138 107.695 116.38 107.276 115.754H107.276Z" fill="#FFB8B8"/>
<path d="M98.683 118.017C98.508 118.097 98.3181 118.139 98.1257 118.141C97.9332 118.144 97.7425 118.105 97.5658 118.029L88.3819 114.045C85.2417 112.683 82.703 110.227 81.2381 107.134L76.4099 96.9421C76.0535 96.4843 75.7909 95.9608 75.6371 95.4015C75.4832 94.8421 75.4412 94.258 75.5132 93.6824C75.5853 93.1068 75.7702 92.551 76.0572 92.0469C76.3443 91.5428 76.7278 91.1002 77.186 90.7444C77.6443 90.3886 78.1681 90.1267 78.7276 89.9735C79.2871 89.8204 79.8714 89.779 80.4469 89.8518C81.0224 89.9246 81.5779 90.1101 82.0817 90.3978C82.5855 90.6854 83.0276 91.0695 83.3828 91.5282L91.8696 107.274L99.7061 113.194C99.9304 113.364 100.097 113.599 100.183 113.867C100.27 114.135 100.272 114.423 100.189 114.692L99.4201 117.177C99.3374 117.443 99.1756 117.678 98.9561 117.85C98.8719 117.916 98.7803 117.972 98.683 118.017Z" fill="#CCCCCC"/>
<path d="M76.1973 84.9564C80.3276 84.9564 83.6758 81.6082 83.6758 77.478C83.6758 73.3477 80.3276 69.9995 76.1973 69.9995C72.0671 69.9995 68.7189 73.3477 68.7189 77.478C68.7189 81.6082 72.0671 84.9564 76.1973 84.9564Z" fill="#FFB8B8"/>
<path d="M79.2265 178.376H82.9592L84.7353 163.977H79.2256L79.2265 178.376Z" fill="#FFB8B8"/>
<path d="M88.1875 182.961L76.9464 182.961L76.9462 177.78L83.8441 177.78C84.996 177.78 86.1007 178.326 86.9153 179.297C87.7298 180.269 88.1874 181.587 88.1875 182.961L88.1875 182.961Z" fill="#2F2E41"/>
<path d="M67.0471 178.376H70.7798L72.5559 163.977H67.0462L67.0471 178.376Z" fill="#FFB8B8"/>
<path d="M76.5178 182.961L65.2767 182.961L65.2765 177.78L72.1744 177.78C73.3263 177.78 74.431 178.326 75.2456 179.297C76.0601 180.269 76.5177 181.587 76.5178 182.961L76.5178 182.961Z" fill="#2F2E41"/>
<path d="M65.7436 171.461C65.615 171.314 65.5192 171.141 65.4628 170.954C65.4063 170.767 65.3904 170.571 65.4163 170.377L71.9519 121.359L88.1897 124.117L89.9226 123.077L85.4414 169.585C85.4041 169.899 85.2597 170.191 85.0325 170.411C84.8053 170.631 84.5092 170.765 84.1941 170.792L79.2774 171.202C79.0819 171.218 78.8852 171.193 78.7006 171.126C78.516 171.06 78.3477 170.955 78.2072 170.818C78.0667 170.681 77.9573 170.516 77.8863 170.333C77.8153 170.15 77.7844 169.954 77.7956 169.758L79.0686 147.609C79.0708 147.572 79.059 147.535 79.0355 147.505C79.0119 147.476 78.9783 147.456 78.9411 147.45C78.9039 147.444 78.8658 147.452 78.8341 147.472C78.8024 147.493 78.7794 147.524 78.7696 147.561L72.4719 170.915C72.3932 171.205 72.221 171.462 71.9819 171.645C71.7429 171.828 71.4502 171.928 71.149 171.928H66.7745C66.5792 171.928 66.3862 171.887 66.2084 171.806C66.0306 171.725 65.8722 171.607 65.7436 171.461Z" fill="#2F2E41"/>
<path d="M76.9889 124.79C76.8026 124.622 76.563 124.524 76.3118 124.513C76.0606 124.503 75.8136 124.58 75.6138 124.733L72.3675 127.258C72.1908 127.396 71.983 127.488 71.7623 127.527C71.5417 127.566 71.3148 127.55 71.1018 127.481C70.8887 127.411 70.696 127.291 70.5404 127.129C70.3848 126.968 70.2712 126.771 70.2094 126.556C68.6171 120.979 65.0093 106.942 65.8981 97.0615C66.4019 91.4613 71.2379 87.205 76.6784 87.5621C80.3979 87.8101 82.8448 89.9558 83.9513 93.9394C86.6681 103.72 89.6538 121.661 90.2247 125.158C90.2698 125.43 90.2318 125.708 90.1157 125.958C89.9996 126.207 89.8109 126.415 89.5742 126.556C88.0382 127.478 86.2833 127.972 84.4918 127.986C82.3241 127.986 79.725 127.231 76.9889 124.79Z" fill="#CCCCCC"/>
<path d="M78.2139 128.27C78.2502 127.824 78.1883 127.375 78.0325 126.955C77.8767 126.536 77.6308 126.155 77.3121 125.841C76.9934 125.527 76.6096 125.286 76.1878 125.136C75.7661 124.986 75.3166 124.931 74.871 124.973L70.3427 115.079L67.3461 119.874L72.1057 128.534C72.2268 129.278 72.6166 129.952 73.2011 130.427C73.7857 130.903 74.5244 131.148 75.2773 131.115C76.0302 131.083 76.745 130.775 77.2862 130.25C77.8275 129.726 78.1575 129.021 78.2139 128.27H78.2139Z" fill="#FFB8B8"/>
<path d="M70.056 124.748C69.8688 124.703 69.6932 124.619 69.5404 124.502C69.3877 124.385 69.2614 124.237 69.1696 124.068L64.4016 115.265C62.771 112.256 62.2891 108.757 63.0453 105.419L65.5356 94.4196C65.5378 93.8396 65.6544 93.2657 65.8786 92.7308C66.1027 92.1958 66.4302 91.7103 66.8421 91.302C67.254 90.8937 67.7424 90.5705 68.2793 90.351C68.8162 90.1316 69.3911 90.02 69.9711 90.0229C70.5511 90.0257 71.1248 90.1428 71.6596 90.3675C72.1943 90.5923 72.6795 90.9202 73.0874 91.3325C73.4953 91.7448 73.818 92.2335 74.0369 92.7706C74.2559 93.3077 74.3668 93.8827 74.3634 94.4627L71.3242 112.09L73.8373 121.584C73.9088 121.857 73.8948 122.144 73.7975 122.409C73.7001 122.673 73.5239 122.901 73.2927 123.061L71.1543 124.542C70.9249 124.7 70.6526 124.785 70.3737 124.785C70.2667 124.785 70.1601 124.773 70.056 124.748Z" fill="#CCCCCC"/>
<path opacity="0.2" d="M73.7568 101.897L71.0164 113.467L74.9747 123.211L72.2343 113.772L73.7568 101.897Z" fill="black"/>
<path d="M71.9298 83.6276C71.2645 83.6399 70.6034 83.5203 69.9847 83.2757C69.7125 83.1708 69.4298 83.0845 69.1581 82.9795C66.7583 82.0524 65.1774 79.4965 65.1208 76.9244C65.0641 74.3523 66.3961 71.8558 68.3741 70.2106C70.352 68.5653 72.9139 67.7206 75.4792 67.5253C78.2425 67.3149 81.354 68.0157 82.8981 70.3169C83.3091 70.9295 83.5966 71.6726 83.353 72.4122C83.2801 72.6354 83.1498 72.8356 82.9752 72.9926C82.2856 73.6061 81.5982 73.1448 80.8952 73.104C79.929 73.048 79.0612 73.8301 78.7493 74.7463C78.4374 75.6625 78.5747 76.6711 78.8265 77.6056C79.0184 78.1679 79.1393 78.752 79.1866 79.3442C79.2069 79.6412 79.151 79.9385 79.0243 80.2078C78.8975 80.4772 78.7041 80.7097 78.4623 80.8833C77.8586 81.2483 77.0657 81.0371 76.4616 80.6727C75.8574 80.3083 75.3354 79.8017 74.6829 79.5336C74.0303 79.2655 73.1536 79.3249 72.7738 79.9195C72.6531 80.1358 72.5714 80.3717 72.5325 80.6163C72.192 82.1676 72.2702 82.0763 71.9297 83.6276L71.9298 83.6276Z" fill="#2F2E41"/>
<path d="M133.171 99.7158C133.047 99.5588 132.96 99.3756 132.918 99.1801C132.875 98.9846 132.878 98.782 132.925 98.5876C134.061 93.8309 134.061 88.8736 132.925 84.1169C132.878 83.9226 132.875 83.7199 132.918 83.5244C132.96 83.3289 133.047 83.1457 133.171 82.9888C133.292 82.834 133.448 82.709 133.625 82.6232C133.802 82.5374 133.996 82.4932 134.193 82.4938H146.333C146.643 82.4944 146.943 82.605 147.18 82.8061C147.416 83.0071 147.573 83.2855 147.623 83.5917C148.415 88.7351 148.415 93.9695 147.623 99.1129C147.573 99.419 147.416 99.6974 147.18 99.8985C146.943 100.1 146.643 100.21 146.333 100.211H134.193C133.996 100.211 133.802 100.167 133.625 100.081C133.448 99.9956 133.292 99.8706 133.171 99.7158Z" fill="#444053"/>
<path d="M129.164 57.8094C129.04 57.6524 128.954 57.4693 128.911 57.2738C128.868 57.0783 128.871 56.8757 128.919 56.6814C130.054 51.9247 130.054 46.9674 128.919 42.2107C128.871 42.0164 128.868 41.8137 128.911 41.6183C128.954 41.4228 129.04 41.2396 129.164 41.0827C129.286 40.9279 129.441 40.8028 129.618 40.717C129.795 40.6312 129.989 40.5869 130.186 40.5875H142.327C142.637 40.5882 142.937 40.6988 143.173 40.8999C143.409 41.1009 143.566 41.3793 143.617 41.6854C144.409 46.8289 144.409 52.0632 143.617 57.2067C143.566 57.5128 143.409 57.7911 143.173 57.9922C142.937 58.1932 142.637 58.3039 142.327 58.3045H130.186C129.989 58.3052 129.795 58.2609 129.618 58.1751C129.441 58.0893 129.286 57.9642 129.164 57.8094Z" fill="#444053"/>
<path d="M171.663 61.8629C170.871 56.7195 170.871 51.4851 171.663 46.3417C171.713 46.0355 171.87 45.7572 172.106 45.5561C172.343 45.355 172.643 45.2444 172.953 45.2438H185.093C185.29 45.2432 185.484 45.2874 185.661 45.3732C185.838 45.459 185.994 45.5841 186.115 45.739C186.239 45.8959 186.326 46.0791 186.368 46.2745C186.411 46.47 186.408 46.6726 186.361 46.8669C185.225 51.6237 185.225 56.5809 186.361 61.3376C186.408 61.532 186.411 61.7346 186.368 61.93C186.326 62.1255 186.239 62.3087 186.115 62.4656C185.994 62.6204 185.838 62.7455 185.661 62.8313C185.484 62.9171 185.29 62.9614 185.093 62.9608H172.953C172.643 62.9602 172.343 62.8495 172.106 62.6485C171.87 62.4474 171.713 62.169 171.663 61.8629Z" fill="#20E2D7"/>
<path d="M97.0373 79.971C96.2455 74.8275 96.2455 69.5932 97.0373 64.4498C97.0875 64.1436 97.2448 63.8653 97.481 63.6642C97.7173 63.4632 98.0172 63.3525 98.3274 63.3519H110.468C110.665 63.3512 110.859 63.3955 111.036 63.4813C111.213 63.5671 111.368 63.6922 111.49 63.847C111.614 64.004 111.7 64.1871 111.743 64.3826C111.786 64.5781 111.783 64.7807 111.735 64.975C110.6 69.7317 110.6 74.689 111.735 79.4457C111.783 79.6401 111.786 79.8427 111.743 80.0381C111.7 80.2336 111.614 80.4168 111.49 80.5737C111.368 80.7285 111.213 80.8536 111.036 80.9394C110.859 81.0252 110.665 81.0695 110.468 81.0689H98.3274C98.0172 81.0682 97.7173 80.9576 97.481 80.7565C97.2448 80.5555 97.0875 80.2771 97.0373 79.971Z" fill="#FF6584"/>
<path d="M100.04 115.8C99.914 115.641 99.8259 115.455 99.7826 115.256C99.7393 115.057 99.7419 114.851 99.7902 114.654C100.945 109.819 100.945 104.78 99.7901 99.9452C99.7419 99.7476 99.7393 99.5416 99.7826 99.3429C99.8259 99.1442 99.914 98.958 100.04 98.7985C100.164 98.6412 100.321 98.5141 100.501 98.4269C100.681 98.3397 100.879 98.2947 101.079 98.2954H113.418C113.734 98.2959 114.039 98.4084 114.279 98.6128C114.519 98.8172 114.679 99.1001 114.73 99.4113C115.535 104.639 115.535 109.96 114.73 115.187C114.679 115.499 114.519 115.782 114.279 115.986C114.039 116.19 113.734 116.303 113.418 116.303H101.079C100.879 116.304 100.681 116.259 100.501 116.172C100.321 116.085 100.164 115.958 100.04 115.8Z" fill="#20E2D7"/>
<path d="M111.037 104.94H104.537C104.294 104.94 104.062 104.843 103.891 104.672C103.72 104.501 103.623 104.269 103.623 104.026V103.638C103.623 103.396 103.72 103.164 103.891 102.993C104.062 102.822 104.294 102.725 104.537 102.725H111.037C111.279 102.725 111.512 102.822 111.683 102.993C111.854 103.164 111.95 103.396 111.951 103.638V104.026C111.95 104.269 111.854 104.501 111.683 104.672C111.512 104.843 111.279 104.94 111.037 104.94Z" fill="white"/>
<path d="M111.037 108.76H104.537C104.294 108.76 104.062 108.664 103.891 108.492C103.72 108.321 103.623 108.089 103.623 107.847V107.459C103.623 107.217 103.72 106.985 103.891 106.813C104.062 106.642 104.294 106.546 104.537 106.545H111.037C111.279 106.546 111.512 106.642 111.683 106.813C111.854 106.985 111.95 107.217 111.951 107.459V107.847C111.95 108.089 111.854 108.321 111.683 108.492C111.512 108.664 111.279 108.76 111.037 108.76Z" fill="white"/>
<path d="M106.732 70.8655H100.361C100.119 70.8652 99.8867 70.7689 99.7155 70.5977C99.5442 70.4264 99.4479 70.1942 99.4476 69.952V69.5952C99.4479 69.353 99.5442 69.1208 99.7155 68.9496C99.8867 68.7784 100.119 68.682 100.361 68.6818H106.732C106.974 68.682 107.206 68.7784 107.378 68.9496C107.549 69.1208 107.645 69.353 107.645 69.5952V69.952C107.645 70.1942 107.549 70.4264 107.378 70.5977C107.206 70.7689 106.974 70.8652 106.732 70.8655Z" fill="white"/>
<path d="M143.836 88.4087H137.465C137.223 88.4085 136.991 88.3121 136.82 88.1409C136.648 87.9696 136.552 87.7375 136.552 87.4953V87.1383C136.552 86.8961 136.648 86.6639 136.82 86.4927C136.991 86.3214 137.223 86.2251 137.465 86.2249H143.836C144.078 86.2251 144.31 86.3214 144.482 86.4927C144.653 86.6639 144.749 86.8961 144.75 87.1383V87.4953C144.749 87.7375 144.653 87.9696 144.482 88.1409C144.31 88.3121 144.078 88.4085 143.836 88.4087Z" fill="white"/>
<path d="M143.836 92.9192H137.465C137.223 92.9189 136.991 92.8226 136.82 92.6513C136.648 92.4801 136.552 92.2479 136.552 92.0057V91.6487C136.552 91.4066 136.648 91.1744 136.82 91.0031C136.991 90.8319 137.223 90.7356 137.465 90.7353H143.836C144.078 90.7356 144.31 90.8319 144.482 91.0031C144.653 91.1744 144.749 91.4066 144.75 91.6487V92.0057C144.749 92.2479 144.653 92.4801 144.482 92.6513C144.31 92.8226 144.078 92.9189 143.836 92.9192Z" fill="white"/>
<path d="M143.836 97.4297H137.465C137.223 97.4294 136.991 97.3331 136.82 97.1618C136.648 96.9906 136.552 96.7584 136.552 96.5162V96.1592C136.552 95.9171 136.648 95.6849 136.82 95.5136C136.991 95.3424 137.223 95.2461 137.465 95.2458H143.836C144.078 95.2461 144.31 95.3424 144.482 95.5136C144.653 95.6849 144.749 95.9171 144.75 96.1592V96.5162C144.749 96.7584 144.653 96.9906 144.482 97.1618C144.31 97.3331 144.078 97.4294 143.836 97.4297Z" fill="white"/>
<path d="M106.732 74.6243H100.361C100.119 74.624 99.8867 74.5277 99.7155 74.3565C99.5442 74.1852 99.4479 73.953 99.4476 73.7109V73.3539C99.4479 73.1117 99.5442 72.8795 99.7155 72.7083C99.8867 72.537 100.119 72.4407 100.361 72.4404H106.732C106.974 72.4407 107.206 72.537 107.378 72.7083C107.549 72.8795 107.645 73.1117 107.645 73.3539V73.7109C107.645 73.953 107.549 74.1852 107.378 74.3565C107.206 74.5277 106.974 74.624 106.732 74.6243Z" fill="white"/>
<path d="M139.884 47.2541H133.513C133.271 47.2539 133.039 47.1575 132.867 46.9863C132.696 46.815 132.6 46.5829 132.599 46.3407V45.9837C132.6 45.7415 132.696 45.5093 132.867 45.3381C133.039 45.1668 133.271 45.0705 133.513 45.0703H139.884C140.126 45.0705 140.358 45.1668 140.529 45.3381C140.701 45.5093 140.797 45.7415 140.797 45.9837V46.3407C140.797 46.5829 140.701 46.815 140.529 46.9863C140.358 47.1575 140.126 47.2539 139.884 47.2541Z" fill="white"/>
<path d="M181.579 53.1333H175.208C174.966 53.1331 174.734 53.0368 174.562 52.8655C174.391 52.6943 174.295 52.4621 174.295 52.2199V51.8629C174.295 51.6207 174.391 51.3885 174.562 51.2173C174.734 51.0461 174.966 50.9497 175.208 50.9495H181.579C181.821 50.9497 182.053 51.0461 182.225 51.2173C182.396 51.3885 182.492 51.6207 182.492 51.8629V52.2199C182.492 52.4621 182.396 52.6943 182.225 52.8655C182.053 53.0368 181.821 53.1331 181.579 53.1333Z" fill="white"/>
</g>
<circle cx="194" cy="202" r="3" transform="rotate(-180 194 202)" fill="#96FBC4"/>
<circle cx="182" cy="202" r="3" transform="rotate(-180 182 202)" fill="#C4C4C4"/>
</g>
<defs>
<filter id="filter0_d" x="224" y="128" width="68" height="68" filterUnits="userSpaceOnUse" color-interpolation-filters="sRGB">
<feFlood flood-opacity="0" result="BackgroundImageFix"/>
<feColorMatrix in="SourceAlpha" type="matrix" values="0 0 0 0 0 0 0 0 0 0 0 0 0 0 0 0 0 0 127 0"/>
<feOffset dy="2"/>
<feGaussianBlur stdDeviation="5"/>
<feColorMatrix type="matrix" values="0 0 0 0 0.479236 0 0 0 0 0.858333 0 0 0 0 0.653621 0 0 0 0.56 0"/>
<feBlend mode="normal" in2="BackgroundImageFix" result="effect1_dropShadow"/>
<feBlend mode="normal" in="SourceGraphic" in2="effect1_dropShadow" result="shape"/>
</filter>
<linearGradient id="paint0_linear" x1="258" y1="104.653" x2="258" y2="248.5" gradientUnits="userSpaceOnUse">
<stop offset="0.326645" stop-color="#96FBC4"/>
<stop offset="1" stop-color="#20E2D7"/>
</linearGradient>
<clipPath id="clip0">
<rect width="375" height="220" fill="white"/>
</clipPath>
<clipPath id="clip1">
<rect width="206.738" height="149" fill="white" transform="translate(23 35)"/>
</clipPath>
</defs>
</svg>
