<svg width="242" height="87" viewBox="0 0 242 87" fill="none" xmlns="http://www.w3.org/2000/svg">
<g filter="url(#filter0_d)">
<rect x="16" y="12" width="210" height="55" rx="27.5" fill="white"/>
<path d="M83.3887 46.8086V45.5957H98.6816V46.8086H83.3887ZM94.5859 41.1484V39.6543H87.3262V41.1484H94.5859ZM94.5859 43.5742V42.0801H87.3262V43.5742H94.5859ZM86.0078 38.6875H95.957V44.5234H86.0078V38.6875ZM98.9453 34.416H93.0391C94.3398 35.7637 95.9512 36.8535 97.873 37.6855C98.3535 37.8965 98.8223 38.0723 99.2793 38.2129C98.9863 38.459 98.6934 38.8164 98.4004 39.2852C96.4082 38.5469 94.5977 37.4277 92.9688 35.9277C92.4531 35.4473 92.002 34.9668 91.6152 34.4863V38.1602H90.2969V34.5039C89.1016 36.0742 87.4668 37.4277 85.3926 38.5645C84.7832 38.9043 84.1797 39.1914 83.582 39.4258C83.2539 38.9688 82.9609 38.6172 82.7031 38.3711C84.5664 37.7266 86.2656 36.7422 87.8008 35.418C88.1875 35.0781 88.5332 34.7441 88.8379 34.416H83.0723V33.2207H90.2969V30.9531H91.6152V33.2207H98.9453V34.416ZM113.799 41.2012V39.9531H105.994V41.2012H113.799ZM105.994 45.6484H113.799V44.3125H105.994V45.6484ZM113.799 43.3633V42.1152H105.994V43.3633H113.799ZM116.893 37.6504H106.891C106.645 38.1074 106.398 38.5234 106.152 38.8984H115.117V47.4238H113.799V46.7207H105.994V47.4238H104.711V40.7441C103.715 41.8223 102.648 42.707 101.512 43.3984C101.277 43.0117 101.002 42.666 100.686 42.3613C102.596 41.2363 104.154 39.666 105.361 37.6504H101.107V36.5254H105.994C106.346 35.7988 106.545 35.3652 106.592 35.2246H102.426V34.1348H106.979C107.189 33.502 107.318 33.0859 107.365 32.8867C105.807 32.9688 104.166 33.0098 102.443 33.0098C102.42 32.6699 102.332 32.3242 102.18 31.9727C107.359 31.9258 111.361 31.668 114.186 31.1992C114.42 31.1523 114.631 31.1113 114.818 31.0762L115.662 32.043C114.068 32.3828 111.795 32.6348 108.842 32.7988C108.795 32.9863 108.713 33.2617 108.596 33.625C108.514 33.8477 108.455 34.0176 108.42 34.1348H115.838V35.2246H108.051C107.957 35.459 107.758 35.8926 107.453 36.5254H116.893V37.6504ZM131.746 40.6914H130.604V37.7031C129.936 38.8633 129.133 39.7891 128.195 40.4805C128.125 40.5391 128.061 40.5859 128.002 40.6211C127.803 40.3516 127.545 40.0703 127.229 39.7773C128.131 39.2734 128.957 38.4941 129.707 37.4395C129.777 37.3574 129.836 37.2754 129.883 37.1934H128.178V36.1914H130.604V34.8555C129.994 34.9492 129.303 35.0254 128.529 35.084C128.471 34.8379 128.371 34.5625 128.23 34.2578C130.445 34.0703 132.004 33.7832 132.906 33.3965L133.82 34.0996C133.234 34.334 132.543 34.5215 131.746 34.6621V36.1914H134.682V37.1934H132.449C133.141 38.2598 133.984 39.0449 134.98 39.5488C135.062 39.584 135.139 39.6191 135.209 39.6543C134.893 39.9238 134.635 40.2227 134.436 40.5508C133.404 39.9531 132.531 39.0508 131.816 37.8438C131.781 37.8086 131.758 37.7734 131.746 37.7383V40.6914ZM125.523 40.6914H124.398V38.0723C123.707 39.1973 122.986 40.0469 122.236 40.6211C122.037 40.3047 121.779 40.0293 121.463 39.7949C122.283 39.3027 123.057 38.5 123.783 37.3867C123.83 37.3164 123.871 37.252 123.906 37.1934H122.078V36.1914H124.398V34.8906C123.672 35.0078 123.021 35.0898 122.447 35.1367C122.377 34.8789 122.266 34.6035 122.113 34.3105C124.199 34.0996 125.646 33.8125 126.455 33.4492L127.387 34.1523C126.824 34.375 126.203 34.5566 125.523 34.6973V36.1914H127.615V37.1934H125.523V37.2812C126.238 37.7266 126.889 38.1953 127.475 38.6875C127.51 38.7109 127.533 38.7285 127.545 38.7402L126.859 39.6016C126.719 39.4492 126.273 39.0391 125.523 38.3711V40.6914ZM121.516 33.0273V37.0879C121.516 41.6582 120.936 45.0742 119.775 47.3359C119.436 47.0547 119.066 46.8379 118.668 46.6855C119.711 44.6582 120.244 41.5703 120.268 37.4219C120.268 37.3047 120.268 37.1934 120.268 37.0879V31.7969H134.945V33.0273H121.516ZM128.898 43.5391V45.7363H134.998V46.8789H121.305V45.7363H123.607V41.9395H124.873V45.7363H127.598V40.6562H128.898V42.4492H133.258V43.5391H128.898ZM139.568 35.0488V38.4062H144.35V35.0488H139.568ZM150.502 35.0488H145.703V38.4062H150.502V35.0488ZM151.855 39.707H145.668C145.551 41.5938 145 43.0762 144.016 44.1543C144.004 44.1777 143.992 44.1953 143.98 44.207C145.539 45.0625 147.9 45.6133 151.064 45.8594C151.721 45.9062 152.459 45.9473 153.279 45.9824C152.975 46.3926 152.77 46.8438 152.664 47.3359C148.902 47.1133 146.072 46.5918 144.174 45.7715C143.729 45.5723 143.312 45.3613 142.926 45.1387C141.66 46.0762 139.891 46.8203 137.617 47.3711C137.383 46.9023 137.119 46.5098 136.826 46.1934C139.029 45.7129 140.688 45.0977 141.801 44.3477C140.688 43.4102 139.785 42.209 139.094 40.7441L140.289 40.2871C140.969 41.6465 141.818 42.7129 142.838 43.4863C143.717 42.5605 144.209 41.3008 144.314 39.707H138.25V33.7832H144.35V31.0059H145.703V33.7832H151.855V39.707ZM155.863 41.166L157.076 41.377C156.76 43.3105 156.279 44.8398 155.635 45.9648C155.365 45.7656 155.002 45.584 154.545 45.4199C155.096 44.5059 155.535 43.0879 155.863 41.166ZM160.082 41.4473L161.154 41.043C161.846 42.2734 162.326 43.4336 162.596 44.5234L161.488 44.9629C161.23 43.8965 160.762 42.7246 160.082 41.4473ZM159.59 37.0703L160.609 36.5957C161.699 38.0723 162.42 39.3027 162.771 40.2871L161.682 40.8496C161.576 40.5566 161.406 40.1699 161.172 39.6895L159.344 39.8125V47.3711H158.078V39.8828C156.906 39.9531 155.811 40.0059 154.791 40.041L154.65 38.8281L155.898 38.793C156.32 38.3242 156.748 37.8086 157.182 37.2461C156.619 36.5195 155.811 35.7344 154.756 34.8906L155.406 33.9941C155.523 34.0879 155.693 34.2227 155.916 34.3984C156.596 33.4375 157.246 32.2891 157.867 30.9531L159.098 31.4805C158.195 32.9688 157.398 34.1641 156.707 35.0664C157.223 35.5352 157.621 35.9453 157.902 36.2969C158.781 35.1133 159.537 34 160.17 32.957L161.348 33.5195C159.766 35.7344 158.4 37.4688 157.252 38.7227C157.861 38.6992 158.969 38.6523 160.574 38.582C160.41 38.2773 160.082 37.7734 159.59 37.0703ZM165.584 46.0352H169.012C169.445 46.0352 169.732 45.8711 169.873 45.543C170.014 45.1914 170.107 44.4238 170.154 43.2402C170.436 43.4395 170.846 43.6211 171.385 43.7852C171.291 45.3086 171.062 46.293 170.699 46.7383C170.371 47.1016 169.832 47.2832 169.082 47.2832H165.479C164.424 47.2832 163.744 47.084 163.439 46.6855C163.205 46.3809 163.088 45.8828 163.088 45.1914V37.5098H168.994V33.1855H162.578V31.9199H170.33V39.8125H168.994V38.7578H164.424V45.1914C164.424 45.6016 164.529 45.8477 164.74 45.9297C164.904 46 165.186 46.0352 165.584 46.0352ZM183.197 42.9062L183.566 43.9082C182.184 44.8223 180.971 45.6133 179.928 46.2812L179.365 45.4727C178.697 45.625 177.701 45.8418 176.377 46.123C174.865 46.4512 173.793 46.6855 173.16 46.8262L172.879 45.5781C174.145 45.3672 175.135 45.1855 175.85 45.0332V39.584H173.037V38.4238H175.85V36.5078H174.004V35.6992C173.828 35.875 173.582 36.1094 173.266 36.4023C172.996 36.0391 172.721 35.7578 172.439 35.5586C173.822 34.3867 174.906 32.9336 175.691 31.1992C175.727 31.1172 175.762 31.0352 175.797 30.9531H177.01C178.334 32.1016 179.336 33.1328 180.016 34.0469C180.039 34.0703 180.057 34.0938 180.068 34.1172L179.172 35.1367C178.539 34.1992 177.713 33.2441 176.693 32.2715C176.646 32.2363 176.605 32.2012 176.57 32.166C175.855 33.4316 175.1 34.498 174.303 35.3652H179.014V36.5078H177.027V38.4238H179.594V39.584H177.027V44.8047L179.664 44.2773L179.717 45.0332C180.994 44.2715 182.154 43.5625 183.197 42.9062ZM173.459 40.7617L174.373 40.5508C174.783 41.7109 175.023 42.8359 175.094 43.9258L174.109 44.1895C174.074 43.1934 173.857 42.0508 173.459 40.7617ZM178.557 43.8555L177.678 43.627C178.029 42.373 178.275 41.2949 178.416 40.3926L179.453 40.6562C179.102 42.0156 178.803 43.082 178.557 43.8555ZM180.051 40.1465L180.982 39.584C181.791 40.3926 182.377 41.1484 182.74 41.8516C182.752 41.875 182.758 41.8926 182.758 41.9043L181.791 42.5547C181.439 41.8281 180.859 41.0254 180.051 40.1465ZM182.266 35.084H186.186C186.314 34.1816 186.391 33.5957 186.414 33.3262H182.635C182.471 34.123 182.348 34.709 182.266 35.084ZM185.008 38.793V39.3027C185.676 42.0801 186.924 43.9961 188.752 45.0508C188.963 45.168 189.18 45.2734 189.402 45.3672C189.109 45.625 188.84 45.9707 188.594 46.4043C187.07 45.6426 185.875 44.3066 185.008 42.3965V46C185.008 46.5625 184.879 46.9258 184.621 47.0898C184.574 47.125 184.521 47.1543 184.463 47.1777C184.17 47.3066 183.455 47.3711 182.318 47.3711C182.283 47.0547 182.154 46.6738 181.932 46.2285C182.201 46.2402 182.711 46.2461 183.461 46.2461C183.648 46.2227 183.748 46.1406 183.76 46V38.793H179.664V37.668H185.799C185.822 37.5156 185.857 37.2871 185.904 36.9824C185.975 36.6074 186.021 36.3262 186.045 36.1387H182.02C181.926 36.4902 181.861 36.7422 181.826 36.8945L180.561 36.7715C180.971 35.3184 181.387 33.373 181.809 30.9355L183.092 31.0586L182.846 32.2891H186.678L186.871 32.2188L187.803 32.3242C187.65 33.8242 187.404 35.6055 187.064 37.668H189.191V38.793H185.008ZM187.1 42.4668L186.221 41.9746C186.877 41.2363 187.445 40.4277 187.926 39.5488L189.016 40.1113C188.441 40.9082 187.803 41.6934 187.1 42.4668Z" fill="#20E2D7"/>
<path d="M64.7143 29C67.5714 29 70 29.9722 72 31.9167C74 33.8611 75 36.2222 75 39C75 41.7778 74 44.1389 72 46.0833C70 48.0278 67.5714 49 64.7143 49C61.8929 49 59.4643 48.0278 57.4286 46.0833L59.0893 44.4688C60.625 45.9965 62.5 46.7604 64.7143 46.7604C66.9286 46.7604 68.8125 46.0052 70.3661 44.4948C71.9196 42.9844 72.6964 41.1528 72.6964 39C72.6964 36.8472 71.9196 35.0156 70.3661 33.5052C68.8125 31.9948 66.9286 31.2396 64.7143 31.2396C62.5 31.2396 60.6161 31.9948 59.0625 33.5052C57.5089 35.0156 56.7321 36.8472 56.7321 39H60.1607L55.5 43.4792L55.4464 43.3229L51 39H54.4286C54.4286 36.2222 55.4286 33.8611 57.4286 31.9167C59.4286 29.9722 61.8571 29 64.7143 29ZM63.5893 34.5729H65.3036V39.2604L69.2679 41.6042L68.4643 42.9583L63.5893 40.0938V34.5729Z" fill="#20E2D7"/>
<rect x="16.5" y="12.5" width="209" height="54" rx="27" stroke="#20E2D7"/>
</g>
<defs>
<filter id="filter0_d" x="0" y="0" width="242" height="87" filterUnits="userSpaceOnUse" color-interpolation-filters="sRGB">
<feFlood flood-opacity="0" result="BackgroundImageFix"/>
<feColorMatrix in="SourceAlpha" type="matrix" values="0 0 0 0 0 0 0 0 0 0 0 0 0 0 0 0 0 0 127 0"/>
<feMorphology radius="1" operator="erode" in="SourceAlpha" result="effect1_dropShadow"/>
<feOffset dy="4"/>
<feGaussianBlur stdDeviation="8.5"/>
<feColorMatrix type="matrix" values="0 0 0 0 0.418594 0 0 0 0 0.7125 0 0 0 0 0.695835 0 0 0 0.4 0"/>
<feBlend mode="normal" in2="BackgroundImageFix" result="effect1_dropShadow"/>
<feBlend mode="normal" in="SourceGraphic" in2="effect1_dropShadow" result="shape"/>
</filter>
</defs>
</svg>
