<svg width="327" height="126" viewBox="0 0 327 126" fill="none" xmlns="http://www.w3.org/2000/svg">
<g clip-path="url(#clip0)">
<path d="M144.145 126H65.3219C64.935 126 64.564 125.846 64.2904 125.571C64.0167 125.297 63.8628 124.926 63.8623 124.538V57.0108C63.8628 56.6232 64.0167 56.2515 64.2904 55.9774C64.564 55.7033 64.935 55.5491 65.3219 55.5486H144.145C144.532 55.5491 144.903 55.7033 145.176 55.9774C145.45 56.2515 145.604 56.6232 145.605 57.0108V124.538C145.604 124.925 145.45 125.297 145.177 125.571C144.903 125.845 144.532 126 144.145 126V126ZM65.3219 56.1323C65.09 56.1328 64.8677 56.2254 64.7037 56.3896C64.5398 56.5539 64.4474 56.7766 64.4469 57.0089V124.538C64.4474 124.77 64.5398 124.993 64.7037 125.157C64.8677 125.321 65.09 125.414 65.3219 125.414H144.145C144.377 125.414 144.599 125.321 144.763 125.157C144.927 124.993 145.019 124.77 145.02 124.538V57.0108C145.019 56.7785 144.927 56.5558 144.763 56.3916C144.599 56.2273 144.377 56.1348 144.145 56.1343L65.3219 56.1323Z" fill="#E6E6E6"/>
<path d="M77.5689 119.949C80.8528 119.949 83.5148 117.282 83.5148 113.992C83.5148 110.702 80.8528 108.035 77.5689 108.035C74.2851 108.035 71.623 110.702 71.623 113.992C71.623 117.282 74.2851 119.949 77.5689 119.949Z" fill="#E6E6E6"/>
<path d="M91.3015 110.021C91.0387 110.021 90.7866 110.125 90.6008 110.312C90.4149 110.498 90.3105 110.75 90.3105 111.014C90.3105 111.277 90.4149 111.529 90.6008 111.716C90.7866 111.902 91.0387 112.006 91.3015 112.006H138.02C138.283 112.006 138.535 111.902 138.721 111.716C138.906 111.529 139.011 111.277 139.011 111.014C139.011 110.75 138.906 110.498 138.721 110.312C138.535 110.125 138.283 110.021 138.02 110.021H91.3015Z" fill="#E6E6E6"/>
<path d="M91.3015 115.978C91.0387 115.978 90.7866 116.082 90.6008 116.269C90.4149 116.455 90.3105 116.707 90.3105 116.971C90.3105 117.234 90.4149 117.486 90.6008 117.673C90.7866 117.859 91.0387 117.963 91.3015 117.963H111.405C111.667 117.963 111.919 117.859 112.105 117.673C112.291 117.486 112.396 117.234 112.396 116.971C112.396 116.707 112.291 116.455 112.105 116.269C111.919 116.082 111.667 115.978 111.405 115.978H91.3015Z" fill="#E6E6E6"/>
<path d="M162.872 102.448H84.049C83.662 102.447 83.291 102.293 83.0174 102.019C82.7437 101.745 82.5898 101.373 82.5894 100.985V66.3307C82.5898 65.943 82.7437 65.5713 83.0174 65.2972C83.291 65.023 83.662 64.8688 84.049 64.8684H162.872C163.259 64.8688 163.63 65.023 163.904 65.2972C164.178 65.5713 164.331 65.943 164.332 66.3307V100.985C164.331 101.373 164.178 101.745 163.904 102.019C163.63 102.293 163.259 102.447 162.872 102.448Z" fill="url(#paint0_linear)"/>
<path d="M100.101 76.9473C99.8385 76.9473 99.5864 77.0519 99.4006 77.238C99.2148 77.4242 99.1104 77.6767 99.1104 77.94C99.1104 78.2033 99.2148 78.4558 99.4006 78.642C99.5864 78.8282 99.8385 78.9328 100.101 78.9328H146.82C147.083 78.9328 147.335 78.8282 147.521 78.642C147.707 78.4558 147.811 78.2033 147.811 77.94C147.811 77.6767 147.707 77.4242 147.521 77.238C147.335 77.0519 147.083 76.9473 146.82 76.9473H100.101Z" fill="white"/>
<path d="M100.101 82.6999C99.8385 82.6999 99.5864 82.8045 99.4006 82.9907C99.2148 83.1768 99.1104 83.4294 99.1104 83.6927C99.1104 83.9559 99.2148 84.2085 99.4006 84.3946C99.5864 84.5808 99.8385 84.6854 100.101 84.6854H146.82C147.083 84.6854 147.335 84.5808 147.521 84.3946C147.707 84.2085 147.811 83.9559 147.811 83.6927C147.811 83.4294 147.707 83.1768 147.521 82.9907C147.335 82.8045 147.083 82.6999 146.82 82.6999H100.101Z" fill="white"/>
<path d="M100.101 88.383C99.8385 88.383 99.5864 88.4876 99.4006 88.6738C99.2148 88.8599 99.1104 89.1125 99.1104 89.3758C99.1104 89.639 99.2148 89.8915 99.4006 90.0777C99.5864 90.2639 99.8385 90.3685 100.101 90.3685H120.204C120.467 90.3685 120.719 90.2639 120.905 90.0777C121.091 89.8915 121.195 89.639 121.195 89.3758C121.195 89.1125 121.091 88.8599 120.905 88.6738C120.719 88.4876 120.467 88.383 120.204 88.383H100.101Z" fill="white"/>
<path d="M283 125.336H45V125.884H283V125.336Z" fill="#3F3D56"/>
<path d="M251.605 125.337H172.782C172.395 125.336 172.024 125.182 171.751 124.908C171.477 124.634 171.323 124.262 171.323 123.874V104.286C171.323 103.898 171.477 103.526 171.751 103.252C172.024 102.978 172.395 102.824 172.782 102.823H251.605C251.992 102.824 252.363 102.978 252.637 103.252C252.911 103.526 253.064 103.898 253.065 104.286V123.874C253.065 124.262 252.911 124.633 252.637 124.908C252.363 125.182 251.992 125.336 251.605 125.337ZM172.782 103.407C172.55 103.408 172.328 103.5 172.164 103.665C172 103.829 171.908 104.052 171.907 104.284V123.872C171.908 124.104 172 124.327 172.164 124.491C172.328 124.656 172.55 124.748 172.782 124.749H251.605C251.837 124.748 252.06 124.656 252.224 124.491C252.388 124.327 252.48 124.104 252.48 123.872V104.286C252.48 104.053 252.388 103.831 252.224 103.666C252.06 103.502 251.837 103.41 251.605 103.409L172.782 103.407Z" fill="#E6E6E6"/>
<path d="M185.03 119.285C188.314 119.285 190.976 116.618 190.976 113.328C190.976 110.038 188.314 107.372 185.03 107.372C181.746 107.372 179.084 110.038 179.084 113.328C179.084 116.618 181.746 119.285 185.03 119.285Z" fill="#E6E6E6"/>
<path d="M198.762 109.357C198.5 109.357 198.248 109.462 198.062 109.648C197.876 109.834 197.771 110.087 197.771 110.35C197.771 110.613 197.876 110.866 198.062 111.052C198.248 111.238 198.5 111.343 198.762 111.343H245.481C245.744 111.343 245.996 111.238 246.182 111.052C246.367 110.866 246.472 110.613 246.472 110.35C246.472 110.087 246.367 109.834 246.182 109.648C245.996 109.462 245.744 109.357 245.481 109.357H198.762Z" fill="#E6E6E6"/>
<path d="M198.762 115.314C198.5 115.314 198.248 115.419 198.062 115.605C197.876 115.791 197.771 116.044 197.771 116.307C197.771 116.57 197.876 116.823 198.062 117.009C198.248 117.195 198.5 117.3 198.762 117.3H218.866C219.128 117.3 219.38 117.195 219.566 117.009C219.752 116.823 219.856 116.57 219.856 116.307C219.856 116.044 219.752 115.791 219.566 115.605C219.38 115.419 219.128 115.314 218.866 115.314H198.762Z" fill="#E6E6E6"/>
<path d="M233.784 102.438L165.633 74.3089C165.298 74.1703 165.068 73.8685 164.992 73.4696C164.916 73.0708 165 72.6075 165.227 72.1814L176.697 50.6585C176.925 50.2327 177.276 49.8793 177.673 49.6757C178.07 49.4722 178.481 49.4351 178.816 49.5728L246.967 77.7014C247.302 77.84 247.532 78.1418 247.608 78.5407C247.684 78.9395 247.6 79.4028 247.373 79.8289L235.903 101.351C235.675 101.777 235.325 102.131 234.927 102.334C234.53 102.538 234.119 102.575 233.784 102.437L233.784 102.438ZM178.474 50.2141C178.273 50.1319 178.027 50.1543 177.789 50.2763C177.551 50.3983 177.341 50.61 177.204 50.8651L165.734 72.3876C165.598 72.6431 165.548 72.9207 165.593 73.1597C165.639 73.3987 165.777 73.5797 165.977 73.663L234.129 101.792C234.329 101.874 234.576 101.852 234.814 101.73C235.052 101.608 235.262 101.396 235.398 101.141L246.868 79.6203C247.003 79.3648 247.054 79.0872 247.008 78.8482C246.963 78.6092 246.825 78.4282 246.624 78.3449L178.474 50.2141Z" fill="#E6E6E6"/>
<path d="M178.609 70.188C181.197 71.2501 184.713 69.4491 186.463 66.1653C188.213 62.8815 187.534 59.3585 184.946 58.2965C182.358 57.2344 178.841 59.0354 177.091 62.3192C175.341 65.6029 176.021 69.1259 178.609 70.188Z" fill="#E6E6E6"/>
<path d="M196.357 66.1998C196.119 66.0958 195.826 66.1227 195.542 66.2746C195.259 66.4265 195.008 66.691 194.845 67.0098C194.682 67.3286 194.62 67.6756 194.673 67.9746C194.726 68.2735 194.889 68.4999 195.127 68.6038L237.422 87.0875C237.66 87.1915 237.953 87.1646 238.237 87.0127C238.52 86.8608 238.771 86.5964 238.934 86.2776C239.097 85.9588 239.159 85.6117 239.106 85.3128C239.053 85.0138 238.89 84.7874 238.652 84.6835L196.357 66.1998Z" fill="#E6E6E6"/>
<path d="M193.909 71.633C193.674 71.5321 193.384 71.5584 193.104 71.7063C192.824 71.8542 192.577 72.1114 192.416 72.4215C192.255 72.7315 192.194 73.0689 192.247 73.3595C192.3 73.6501 192.462 73.8701 192.697 73.971L210.702 81.6916C210.937 81.7925 211.227 81.7661 211.507 81.6183C211.787 81.4704 212.035 81.2132 212.196 80.9031C212.356 80.5931 212.417 80.2556 212.364 79.965C212.312 79.6744 212.15 79.4545 211.914 79.3535L193.909 71.633Z" fill="#E6E6E6"/>
<path d="M178.563 50.3924L101.518 54.8478C101.14 54.8691 100.754 54.7193 100.444 54.4313C100.134 54.1432 99.9264 53.7404 99.8661 53.3112L96.8447 31.6222C96.7854 31.193 96.8785 30.7728 97.1037 30.4538C97.3289 30.1348 97.6677 29.9431 98.0458 29.9207L175.09 25.4653C175.469 25.444 175.855 25.5938 176.165 25.8818C176.474 26.1698 176.682 26.5726 176.743 27.0018L179.764 48.6905C179.823 49.1198 179.73 49.5401 179.505 49.8592C179.28 50.1782 178.941 50.37 178.563 50.3924ZM98.1359 30.567C97.9093 30.5807 97.7063 30.6957 97.5713 30.8869C97.4364 31.078 97.3805 31.3298 97.4158 31.5871L100.437 53.2758C100.474 53.533 100.598 53.7743 100.784 53.9469C100.969 54.1196 101.201 54.2094 101.428 54.1969L178.472 49.7415C178.699 49.7279 178.902 49.6129 179.037 49.4218C179.172 49.2306 179.228 48.9787 179.192 48.7215L176.171 27.0349C176.135 26.7776 176.01 26.5363 175.825 26.3636C175.639 26.191 175.407 26.1011 175.181 26.1138L98.1359 30.567Z" fill="#E6E6E6"/>
<path d="M112.058 47.9161C115.132 47.7446 117.232 44.8563 116.75 41.4649C116.267 38.0736 113.384 35.4633 110.31 35.6348C107.236 35.8062 105.136 38.6945 105.618 42.0859C106.101 45.4773 108.984 48.0875 112.058 47.9161Z" fill="#E6E6E6"/>
<path d="M124.513 35.9104C124.252 35.9294 124.019 36.0901 123.865 36.3572C123.711 36.6243 123.648 36.9758 123.691 37.3345C123.734 37.6933 123.879 38.0297 124.094 38.27C124.309 38.5102 124.576 38.6345 124.837 38.6155L171.223 35.2416C171.484 35.2226 171.718 35.0619 171.872 34.7948C172.026 34.5277 172.088 34.1762 172.045 33.8174C172.003 33.4587 171.858 33.1222 171.643 32.882C171.428 32.6418 171.161 32.5175 170.9 32.5365L124.513 35.9104Z" fill="#E6E6E6"/>
<path d="M125.027 42.0862C124.767 42.1032 124.534 42.2497 124.38 42.4933C124.226 42.737 124.163 43.0578 124.205 43.3854C124.247 43.7129 124.39 44.0202 124.604 44.2397C124.817 44.4592 125.083 44.573 125.343 44.556L145.235 43.2519C145.495 43.2348 145.728 43.0884 145.882 42.8447C146.036 42.6011 146.099 42.2802 146.057 41.9527C146.015 41.6252 145.872 41.3179 145.658 41.0983C145.444 40.8788 145.178 40.7651 144.918 40.7821L125.027 42.0862Z" fill="#E6E6E6"/>
<path d="M272.852 113.073C272.743 117.146 272.062 121.184 270.829 125.067C270.801 125.157 270.771 125.246 270.742 125.336H263.191C263.199 125.255 263.207 125.165 263.215 125.067C263.719 119.269 260.843 84.4008 257.372 78.366C257.676 78.8555 273.438 94.6498 272.852 113.073Z" fill="url(#paint1_linear)"/>
<path d="M272.285 125.067C272.222 125.157 272.157 125.247 272.089 125.336H266.425C266.468 125.26 266.517 125.169 266.575 125.067C267.511 123.375 270.281 118.317 272.851 113.073C275.613 107.438 278.149 101.589 277.935 99.4716C278.002 99.9488 279.914 114.504 272.285 125.067Z" fill="url(#paint2_linear)"/>
<path d="M167.642 45.8946C176.884 45.8946 184.376 38.3886 184.376 29.1294C184.376 19.8701 176.884 12.3641 167.642 12.3641C158.399 12.3641 150.907 19.8701 150.907 29.1294C150.907 38.3886 158.399 45.8946 167.642 45.8946Z" fill="#2F2E41"/>
<path d="M167.981 47.3756C174.86 47.3756 180.436 41.789 180.436 34.8976C180.436 28.0062 174.86 22.4197 167.981 22.4197C161.102 22.4197 155.526 28.0062 155.526 34.8976C155.526 41.789 161.102 47.3756 167.981 47.3756Z" fill="#FEB8B8"/>
<path d="M186.912 53.0072C186.912 53.0072 164.092 48.9429 149.385 54.0232L153.696 88.3159L152.682 93.9043L183.108 92.8882L181.08 87.2998L186.912 53.0072Z" fill="#FEB8B8"/>
<path d="M171.054 90.0137C165.8 89.951 160.553 89.618 155.333 89.0159C154.261 88.8978 153.272 88.381 152.562 87.5678C151.852 86.7545 151.473 85.704 151.499 84.6239L151.869 68.5866L151.912 68.5242C156.321 62.1264 154.173 57.4535 152.521 54.9376C152.172 54.4063 151.987 53.7842 151.987 53.1483C151.734 52.7927 151.677 53.3541 151.835 52.9558C151.913 52.7581 152.039 52.5831 152.202 52.4467C152.364 52.3102 152.558 52.2166 152.766 52.1744L155.283 51.6705C155.585 51.61 155.899 51.6618 156.166 51.8162C156.433 51.9705 156.634 52.2169 156.733 52.5092C157.579 55.0377 160.875 63.1735 168.43 63.1715C174.741 63.1715 177.096 54.2244 177.237 52.1566C177.26 51.8363 177.403 51.5366 177.637 51.3177C177.872 51.0988 178.181 50.9771 178.501 50.977H181.645C181.844 50.9723 182.042 51.0125 182.223 51.0947C182.405 51.1768 182.565 51.2987 182.693 51.4515C182.85 51.6459 182.945 51.8826 182.967 52.1314C182.989 52.3803 182.937 52.6301 182.817 52.8491C179.228 59.4587 184.473 69.9192 184.526 70.0208L184.559 70.0869L183.079 85.4769C182.99 86.3798 182.62 87.2318 182.022 87.9132C181.424 88.5946 180.628 89.071 179.746 89.2755C177.458 89.8135 174.366 90.0137 171.054 90.0137Z" fill="#CCCCCC"/>
<path d="M142.094 125.723C138.686 125.723 135.566 125.347 133.087 124.458C130.141 123.402 128.291 121.694 127.588 119.378C127.256 118.394 127.157 117.346 127.298 116.317C127.44 115.288 127.818 114.305 128.403 113.448C132.761 106.909 147.887 105.065 149.916 104.847L150.991 95.8715C151.119 94.8357 151.615 93.8807 152.389 93.182C153.163 92.4833 154.162 92.0879 155.204 92.0683L180.677 91.67C181.701 91.6453 182.699 91.9895 183.49 92.6401C184.281 93.2907 184.813 94.2043 184.988 95.2146L186.435 103.191L169.732 111.307L172.257 118.391L172.092 118.502C167.204 121.766 153.145 125.722 142.094 125.723Z" fill="#2F2E41"/>
<path d="M184.226 101.384C184.226 101.384 207.443 97.931 205.929 111.741C204.415 125.552 186.75 135.334 160 111.741L163.028 104.836C163.028 104.836 178.17 109.44 184.226 105.987V101.384Z" fill="#2F2E41"/>
<path d="M163.331 106.605C163.331 106.605 163.331 100.509 158.26 101.017C153.189 101.525 144.061 102.033 144.061 102.033C144.061 102.033 141.018 104.065 145.075 105.081C149.132 106.097 161.303 111.178 161.303 111.178L163.331 106.605Z" fill="#FEB8B8"/>
<path d="M171.952 105.589C171.952 105.589 171.952 99.4927 177.023 100.001C182.094 100.509 191.223 101.017 191.223 101.017C191.223 101.017 194.265 103.049 190.208 104.065C186.151 105.081 173.981 110.162 173.981 110.162L171.952 105.589Z" fill="#FEB8B8"/>
<path d="M202.339 104.434L194.773 78.155C194.773 78.155 193.251 69.0103 191.73 60.3736C190.209 51.737 184.63 52.7531 184.63 52.7531L183.616 53.2611V66.9781L184.63 79.6791L194.755 107.57C194.457 108.538 194.44 109.57 194.705 110.546C194.971 111.523 195.509 112.404 196.255 113.086C197.002 113.768 197.927 114.223 198.922 114.398C199.917 114.573 200.942 114.461 201.875 114.074C202.809 113.688 203.614 113.043 204.196 112.216C204.778 111.388 205.113 110.412 205.161 109.401C205.21 108.39 204.971 107.386 204.471 106.506C203.971 105.626 203.232 104.907 202.339 104.432V104.434Z" fill="#FEB8B8"/>
<path d="M151.16 53.7692C151.16 53.7692 145.582 52.7531 144.06 61.3898C142.539 70.0265 141.018 79.1712 141.018 79.1712L133.451 105.45C132.559 105.925 131.819 106.644 131.32 107.524C130.82 108.404 130.581 109.408 130.629 110.419C130.678 111.43 131.013 112.406 131.595 113.234C132.176 114.062 132.981 114.706 133.915 115.093C134.849 115.479 135.873 115.591 136.869 115.416C137.864 115.241 138.789 114.786 139.535 114.104C140.282 113.422 140.819 112.541 141.085 111.565C141.351 110.588 141.334 109.556 141.036 108.589L151.16 80.6973L152.174 67.9964V55.4133C152.174 55.0719 152.079 54.7373 151.9 54.4469C151.721 54.1565 151.465 53.9219 151.16 53.7692Z" fill="#FEB8B8"/>
<path d="M155.652 27.2323C160.516 30.2071 166 32.0173 171.677 32.5221L169.988 30.4945C171.217 30.9498 172.512 31.207 173.822 31.2565C174.478 31.2756 175.129 31.1404 175.724 30.8617C176.318 30.5829 176.839 30.1685 177.245 29.6516C177.576 29.115 177.773 28.5059 177.819 27.8765C177.864 27.247 177.757 26.6159 177.507 26.0369C176.992 24.882 176.191 23.8783 175.179 23.1213C173.387 21.7006 171.271 20.7462 169.021 20.3433C166.771 19.9405 164.456 20.1016 162.283 20.8122C160.792 21.2581 159.456 22.1159 158.429 23.2874C157.924 23.8773 157.574 24.5836 157.409 25.3427C157.244 26.1018 157.27 26.8901 157.484 27.6368" fill="#2F2E41"/>
<path d="M169.217 14.225C165.288 10.2341 160.534 7.15441 155.29 5.20273C151.923 3.95346 148.258 3.18125 144.739 3.89098C141.22 4.60071 137.893 7.04082 136.909 10.4996C136.106 13.3283 136.936 16.3745 138.182 19.0376C139.428 21.7008 141.091 24.1688 142.099 26.9326C143.128 29.7513 143.437 32.7828 142.999 35.7518C142.562 38.7208 141.391 41.5333 139.593 43.9339C137.795 46.3344 135.427 48.2471 132.704 49.4982C129.981 50.7493 126.989 51.2992 124 51.0979C127.458 51.5623 130.646 53.1906 134.026 54.0573C137.407 54.924 141.396 54.8651 143.908 52.4392C146.566 49.8726 146.619 45.699 146.49 42.003L145.917 25.5197C145.82 22.7179 145.737 19.8256 146.745 17.2102C147.754 14.5948 150.151 12.3046 152.95 12.3285C155.071 12.3468 156.948 13.6336 158.649 14.9032C160.351 16.1728 162.148 17.5272 164.264 17.7157C166.379 17.9042 168.789 16.3384 168.63 14.2189" fill="#2F2E41"/>
</g>
<defs>
<linearGradient id="paint0_linear" x1="123.461" y1="-15.6585" x2="123.461" y2="112.513" gradientUnits="userSpaceOnUse">
<stop stop-color="#F9FEA5"/>
<stop offset="0.489583" stop-color="#96FBC4"/>
<stop offset="1" stop-color="#20E2D7"/>
</linearGradient>
<linearGradient id="paint1_linear" x1="265.12" y1="-22.2846" x2="265.12" y2="137.918" gradientUnits="userSpaceOnUse">
<stop stop-color="#F9FEA5"/>
<stop offset="0.489583" stop-color="#96FBC4"/>
<stop offset="1" stop-color="#20E2D7"/>
</linearGradient>
<linearGradient id="paint2_linear" x1="272.31" y1="44.0473" x2="272.31" y2="132.264" gradientUnits="userSpaceOnUse">
<stop stop-color="#F9FEA5"/>
<stop offset="0.489583" stop-color="#96FBC4"/>
<stop offset="1" stop-color="#20E2D7"/>
</linearGradient>
<clipPath id="clip0">
<rect width="327" height="126" fill="white"/>
</clipPath>
</defs>
</svg>
