<svg width="29" height="28" viewBox="0 0 29 28" fill="none" xmlns="http://www.w3.org/2000/svg">
<path d="M14.6667 25.3333C21.11 25.3333 26.3333 20.1099 26.3333 13.6666C26.3333 7.22328 21.11 1.99994 14.6667 1.99994C8.22334 1.99994 3 7.22328 3 13.6666C3 20.1099 8.22334 25.3333 14.6667 25.3333Z" fill="url(#paint0_linear)" stroke="url(#paint1_linear)" stroke-width="2.33333" stroke-linecap="round"/>
<path d="M10 10.2249V10.1082" stroke="white" stroke-width="2.33333" stroke-linecap="round"/>
<path d="M19.3335 10.2249V10.1082" stroke="white" stroke-width="2.33333" stroke-linecap="round"/>
<path d="M14.6667 14.8333C15.9043 14.8333 17.0913 15.3249 17.9665 16.2001C18.8417 17.0753 19.3333 18.2622 19.3333 19.4999H10C10 18.2622 10.4917 17.0753 11.3668 16.2001C12.242 15.3249 13.429 14.8333 14.6667 14.8333V14.8333Z" stroke="white" stroke-width="1.8" stroke-linecap="round" stroke-linejoin="round"/>
<defs>
<linearGradient id="paint0_linear" x1="14.6667" y1="-48.0001" x2="14.6667" y2="31.5833" gradientUnits="userSpaceOnUse">
<stop stop-color="#F9FEA5"/>
<stop offset="0.489583" stop-color="#96FBC4"/>
<stop offset="1" stop-color="#20E2D7"/>
</linearGradient>
<linearGradient id="paint1_linear" x1="14.6667" y1="-48.0001" x2="14.6667" y2="31.5833" gradientUnits="userSpaceOnUse">
<stop stop-color="#20E2D7"/>
<stop offset="0.489583" stop-color="#96FBC4"/>
<stop offset="1" stop-color="#20E2D7"/>
</linearGradient>
</defs>
</svg>
