<svg width="152" height="152" viewBox="0 0 152 152" fill="none" xmlns="http://www.w3.org/2000/svg">
<g filter="url(#filter0_d)">
<rect x="8" y="8" width="132" height="132" rx="66" fill="url(#paint0_linear)"/>
<path d="M41.5859 93.9395V95.9258C41.5742 99.3711 41.0527 101.932 40.0215 103.607C39.5762 103.232 39.0547 102.91 38.457 102.641C38.4219 102.617 38.3867 102.6 38.3516 102.588C39.2539 101.146 39.7051 98.9199 39.7051 95.9082V92.4102H54.9805V93.9395H41.5859ZM43.7832 96.4531V96.9102H46.2969V96.4531H43.7832ZM43.7832 95.2227V95.6621H46.2969V95.2227H43.7832ZM47.8438 97.7012H42.3242V94.3965H47.8438V97.7012ZM48.0195 105.611V106.561H55.1035V108.107H38.9844V106.561H45.9805V105.611H40.5488V104.1H45.9805V103.361H48.0195V104.1H53.6621V105.611H48.0195ZM43.6074 100.865H46.5078V100.373H43.6074V100.865ZM46.5078 99.0898H43.6074V99.5645H46.5078V99.0898ZM54.7344 98.2461H52.4492C53.0352 100.016 53.9551 101.211 55.209 101.832C54.6816 102.324 54.2891 102.816 54.0312 103.309C52.9883 102.676 52.168 101.656 51.5703 100.25C51.0898 101.504 50.2227 102.529 48.9688 103.326C48.8047 103.092 48.5059 102.793 48.0723 102.43C47.9902 102.711 47.8145 102.91 47.5449 103.027C47.2051 103.145 46.4844 103.203 45.3828 103.203C45.2656 102.84 45.1074 102.477 44.9082 102.113C45.2832 102.137 45.7285 102.148 46.2441 102.148C46.4082 102.125 46.4961 102.049 46.5078 101.92V101.674H43.6074V103.238H41.9727V98.1758H48.1426V101.902C49.4785 100.977 50.2402 99.7578 50.4277 98.2461H48.4062V96.5938H50.498V94.2734H52.0449V96.5938H53.5566C53.2871 96.0781 52.8594 95.5273 52.2734 94.9414L53.4336 94.2383C54.0664 94.8359 54.5176 95.3633 54.7871 95.8203L53.6094 96.5938H54.7344V98.2461ZM65.1758 95.5039H72.4707C72.4707 95.5156 72.4531 95.8555 72.418 96.5234C72.1602 101.703 71.8262 104.961 71.416 106.297C71.2637 106.742 71.0938 107.082 70.9062 107.316C70.4961 107.855 69.957 108.184 69.2891 108.301C69.2188 108.312 69.1426 108.324 69.0605 108.336C68.4043 108.418 67.4492 108.43 66.1953 108.371C66.1602 107.621 65.9375 106.924 65.5273 106.279C65.5039 106.232 65.4805 106.191 65.457 106.156C66.2305 106.215 67.1152 106.244 68.1113 106.244C68.4746 106.232 68.7559 106.139 68.9551 105.963C69.4824 105.412 69.875 102.729 70.1328 97.9121C70.1445 97.8301 70.1504 97.7598 70.1504 97.7012H65.1055C64.8008 101.732 63.3418 104.867 60.7285 107.105C60.0488 107.68 59.3047 108.195 58.4961 108.652C58.1797 108.148 57.6699 107.604 56.9668 107.018C56.9082 106.971 56.8613 106.936 56.8262 106.912C60.3066 105.014 62.2871 102.072 62.7676 98.0879C62.7793 97.9473 62.791 97.8184 62.8027 97.7012H57.3887V95.5039H62.8906V91.7949H65.1758V95.5039ZM86.6738 93.9922V93.4121H79.2031V93.9922H86.6738ZM86.6738 95.6445V95.0469H79.2031V95.6445H86.6738ZM88.8359 92.2871V96.7344H77.1289V92.2871H88.8359ZM91.1738 97.2793V98.8086H74.8789V97.2793H91.1738ZM78.8164 102.799H81.9629V102.184H78.8164V102.799ZM78.8164 100.479V101.111H81.9629V100.479H78.8164ZM87.166 101.111V100.479H84.002V101.111H87.166ZM87.166 102.799V102.184H84.002V102.799H87.166ZM84.002 106.561H91.209V108.107H74.8438V106.561H81.9629V105.928H76.4434V104.539H81.9629V103.959H76.8125V99.3535H89.2402V103.959H84.002V104.539H89.5918V105.928H84.002V106.561ZM107.117 100.461L108.91 101.797C107.738 102.629 106.549 103.379 105.342 104.047C106.432 105.242 107.838 106.092 109.561 106.596C109.057 107.076 108.611 107.691 108.225 108.441C108.213 108.477 108.201 108.5 108.189 108.512C105.623 107.633 103.695 105.969 102.406 103.52C101.949 102.629 101.551 101.615 101.211 100.479C100.555 101.1 99.7695 101.709 98.8555 102.307V105.646C99.1133 105.588 100.42 105.307 102.775 104.803L102.986 106.754C102.764 106.812 100.156 107.387 95.1641 108.477C95.0703 108.488 94.9824 108.506 94.9004 108.529L94.2676 106.543C94.9707 106.414 95.7852 106.262 96.7109 106.086V103.502C95.7266 103.994 94.7305 104.393 93.7227 104.697C93.3242 104.053 92.8672 103.479 92.3516 102.975C94.6016 102.389 96.5938 101.51 98.3281 100.338C98.3984 100.291 98.457 100.25 98.5039 100.215H93.0195V98.4043H99.8926V97.3848H94.5312V95.6797H99.8926V94.7656H93.6875V92.9375H99.8926V91.7598H102.02V92.9375H108.365V94.7656H102.02V95.6797H107.662V97.3848H102.02V98.4043H108.945V100.215H103.215C103.52 101.152 103.877 101.955 104.287 102.623C105.471 101.826 106.414 101.105 107.117 100.461Z" fill="white"/>
<path d="M86.8 43.1H95V73.85C95 75.4811 94.3521 77.0454 93.1987 78.1987C92.0454 79.3521 90.4811 80 88.85 80H60.15C58.5189 80 56.9546 79.3521 55.8013 78.1987C54.6479 77.0454 54 75.4811 54 73.85V39H86.8V43.1ZM86.8 47.2V73.85C86.8 74.3937 87.016 74.9151 87.4004 75.2996C87.7849 75.684 88.3063 75.9 88.85 75.9C89.3937 75.9 89.9151 75.684 90.2996 75.2996C90.684 74.9151 90.9 74.3937 90.9 73.85V47.2H86.8ZM58.1 43.1V73.85C58.1 74.3937 58.316 74.9151 58.7004 75.2996C59.0849 75.684 59.6063 75.9 60.15 75.9H83.0485C82.816 75.2416 82.6982 74.5482 82.7 73.85V43.1H58.1ZM62.2 59.5H78.6V63.6H62.2V59.5ZM62.2 67.7H78.6V71.8H62.2V67.7ZM62.2 47.2H78.6V55.4H62.2V47.2Z" fill="white"/>
</g>
<defs>
<filter id="filter0_d" x="0" y="0" width="152" height="152" filterUnits="userSpaceOnUse" color-interpolation-filters="sRGB">
<feFlood flood-opacity="0" result="BackgroundImageFix"/>
<feColorMatrix in="SourceAlpha" type="matrix" values="0 0 0 0 0 0 0 0 0 0 0 0 0 0 0 0 0 0 127 0"/>
<feOffset dx="2" dy="2"/>
<feGaussianBlur stdDeviation="5"/>
<feColorMatrix type="matrix" values="0 0 0 0 0.8 0 0 0 0 0.8 0 0 0 0 0.8 0 0 0 0.75 0"/>
<feBlend mode="normal" in2="BackgroundImageFix" result="effect1_dropShadow"/>
<feBlend mode="normal" in="SourceGraphic" in2="effect1_dropShadow" result="shape"/>
</filter>
<linearGradient id="paint0_linear" x1="171" y1="-65" x2="74" y2="197.67" gradientUnits="userSpaceOnUse">
<stop stop-color="#F9FEA5"/>
<stop offset="0.784807" stop-color="#99F9C5"/>
<stop offset="1" stop-color="#20E2D7"/>
</linearGradient>
</defs>
</svg>
