<svg width="184" height="75" viewBox="0 0 184 75" fill="none" xmlns="http://www.w3.org/2000/svg">
<g filter="url(#filter0_d)">
<path d="M16 33.5C16 21.6259 25.6259 12 37.5 12H146.5C158.374 12 168 21.6259 168 33.5C168 45.3741 158.374 55 146.5 55H37.5C25.6259 55 16 45.3741 16 33.5Z" fill="#20E2D7"/>
<path d="M86.9688 29.3125C87.0938 29.125 87.2292 28.9167 87.375 28.6875C87.5208 28.4688 87.6615 28.2344 87.7969 27.9844L88.1719 27.2656C88.2865 27.0365 88.3854 26.8229 88.4688 26.625L89.6875 27.0156C89.4062 27.4844 89.1146 27.9583 88.8125 28.4375C88.5104 28.9167 88.224 29.3229 87.9531 29.6562H90.5469V30.7188H86.4375V32.7188C86.4375 32.7917 86.4323 32.8698 86.4219 32.9531H91.0312V34.0156H86.875C87.2083 35.026 87.7188 35.8646 88.4062 36.5312C89.0938 37.1979 89.9792 37.6823 91.0625 37.9844C90.9167 38.1094 90.776 38.2708 90.6406 38.4688C90.5052 38.6667 90.3958 38.8385 90.3125 38.9844C89.2604 38.6198 88.3958 38.099 87.7188 37.4219C87.0312 36.7448 86.4896 35.8958 86.0938 34.875C85.9688 35.2292 85.8021 35.5885 85.5938 35.9531C85.375 36.3177 85.099 36.6719 84.7656 37.0156C84.4323 37.3594 84.0312 37.6927 83.5625 38.0156C83.0938 38.3385 82.5417 38.6406 81.9062 38.9219C81.8229 38.8073 81.7083 38.6615 81.5625 38.4844C81.4062 38.3073 81.2604 38.1615 81.125 38.0469C81.8229 37.7656 82.4115 37.4583 82.8906 37.125C83.3594 36.8021 83.75 36.4688 84.0625 36.125C84.3646 35.7812 84.599 35.4271 84.7656 35.0625C84.9219 34.7083 85.0365 34.3594 85.1094 34.0156H81V32.9531H85.25C85.2604 32.8698 85.2656 32.7917 85.2656 32.7188V30.7188H81.5156V29.6562H83.5156C83.474 29.4792 83.4062 29.2812 83.3125 29.0625C83.2188 28.8438 83.1094 28.6198 82.9844 28.3906C82.8594 28.1719 82.724 27.9479 82.5781 27.7188C82.4323 27.4896 82.2865 27.276 82.1406 27.0781L83.1406 26.6875C83.4531 27.0729 83.75 27.5 84.0312 27.9688C84.3021 28.4479 84.4948 28.8698 84.6094 29.2344L83.6406 29.6562H87.9531L86.9688 29.3125ZM84.0938 40.9219C82.1042 40.8281 80.6302 40.25 79.6719 39.1875C79.6198 39.1354 79.5729 39.0833 79.5312 39.0312C78.9792 39.5625 78.2083 40.2448 77.2188 41.0781L76.5938 39.9062C77.3333 39.3958 78.099 38.7865 78.8906 38.0781V35.1094H76.7969V34H80.0469V38C80.7865 39.125 82.1302 39.7292 84.0781 39.8125C86.5156 39.875 88.8542 39.8438 91.0938 39.7188C91.1979 39.7188 91.2917 39.7135 91.375 39.7031C91.1771 40.0365 91.0417 40.4271 90.9688 40.875C88.5104 40.9583 86.2188 40.974 84.0938 40.9219ZM80.2812 31.6875C80.3542 31.75 80.4115 31.8021 80.4531 31.8438L79.625 32.6875C79.0625 32.0938 78.2344 31.5052 77.1406 30.9219L76.8594 30.7812L77.6406 30.0156C78.7135 30.5052 79.5938 31.0625 80.2812 31.6875ZM77.75 27.7031C77.6562 27.6406 77.5677 27.5885 77.4844 27.5469L78.2656 26.8125C79.4323 27.4375 80.2917 28.0469 80.8438 28.6406C80.8646 28.6719 80.8854 28.6979 80.9062 28.7188L80.0781 29.5312C79.599 28.9479 78.8229 28.3385 77.75 27.7031ZM105.031 34.625H106.234V41.1875H105.031V40.2188H95.0469V41.2188H93.8594V34.625H95.0469V39.0625H99.3125V33.5938H94.4688V28.125H95.6406V32.4531H99.3125V26.7031H100.531V32.4531H104.375V28.125H105.594V33.5938H100.531V39.0625H105.031V34.625Z" fill="white"/>
</g>
<defs>
<filter id="filter0_d" x="0" y="0" width="184" height="75" filterUnits="userSpaceOnUse" color-interpolation-filters="sRGB">
<feFlood flood-opacity="0" result="BackgroundImageFix"/>
<feColorMatrix in="SourceAlpha" type="matrix" values="0 0 0 0 0 0 0 0 0 0 0 0 0 0 0 0 0 0 127 0"/>
<feMorphology radius="1" operator="erode" in="SourceAlpha" result="effect1_dropShadow"/>
<feOffset dy="4"/>
<feGaussianBlur stdDeviation="8.5"/>
<feColorMatrix type="matrix" values="0 0 0 0 0.418594 0 0 0 0 0.7125 0 0 0 0 0.695835 0 0 0 0.51 0"/>
<feBlend mode="normal" in2="BackgroundImageFix" result="effect1_dropShadow"/>
<feBlend mode="normal" in="SourceGraphic" in2="effect1_dropShadow" result="shape"/>
</filter>
</defs>
</svg>
