<svg width="48" height="49" viewBox="0 0 48 49" fill="none" xmlns="http://www.w3.org/2000/svg">
<g filter="url(#filter0_d)">
<circle cx="24" cy="23" r="15.5789" fill="#8FCBEC" stroke="#48B4F1" stroke-width="0.842105"/>
<path d="M24.0004 14.6279C24.0004 14.6279 18.3162 20.8766 18.3162 25.2976C18.3162 28.7855 20.5125 30.9818 24.0004 30.9818C27.4883 30.9818 29.6846 28.7855 29.6846 25.2976C29.6846 20.8766 24.0004 14.6279 24.0004 14.6279ZM24.632 28.9292V27.9818C25.2599 27.9811 25.8619 27.7313 26.3059 27.2873C26.7499 26.8433 26.9996 26.2413 27.0004 25.6134H27.9477C27.9468 26.4925 27.5972 27.3353 26.9755 27.957C26.3539 28.5786 25.5111 28.9282 24.632 28.9292Z" fill="white"/>
</g>
<defs>
<filter id="filter0_d" x="0.380954" y="0.904763" width="47.2381" height="47.2381" filterUnits="userSpaceOnUse" color-interpolation-filters="sRGB">
<feFlood flood-opacity="0" result="BackgroundImageFix"/>
<feColorMatrix in="SourceAlpha" type="matrix" values="0 0 0 0 0 0 0 0 0 0 0 0 0 0 0 0 0 0 127 0"/>
<feOffset dy="1.52381"/>
<feGaussianBlur stdDeviation="3.80952"/>
<feColorMatrix type="matrix" values="0 0 0 0 0.479236 0 0 0 0 0.858333 0 0 0 0 0.653621 0 0 0 0.56 0"/>
<feBlend mode="normal" in2="BackgroundImageFix" result="effect1_dropShadow"/>
<feBlend mode="normal" in="SourceGraphic" in2="effect1_dropShadow" result="shape"/>
</filter>
</defs>
</svg>
