<svg width="155" height="32" viewBox="0 0 155 32" fill="none" xmlns="http://www.w3.org/2000/svg">
<rect width="155" height="32" rx="16" fill="url(#paint0_linear)"/>
<path d="M54.5449 12.6641H57.9375C57.7266 12.1367 57.3516 11.5156 56.8125 10.8008H56.0918C55.5879 11.5273 55.0723 12.1484 54.5449 12.6641ZM58.5176 15.5293V14.4219H54.9844V15.5293H58.5176ZM52.9277 18.3418V17.2695H49.8164L49.5703 18.3418H52.9277ZM53.5078 10.8008H51.1348C51.4512 11.4102 51.6387 11.8086 51.6973 11.9961L50.2383 12.6641H54.4395C53.8535 12.1953 53.2793 11.8145 52.7168 11.5215C53.0332 11.2637 53.2969 11.0234 53.5078 10.8008ZM62.1562 9.14844V10.8008H59.0977C59.4727 11.3633 59.7188 11.7676 59.8359 12.0137L58.166 12.6641H60.627V17.2695H54.9844V18.3418H61.6641C61.6641 18.3535 61.6523 18.6055 61.6289 19.0977C61.4766 21.1836 61.2363 22.4727 60.9082 22.9648C60.8613 23.0352 60.8145 23.0938 60.7676 23.1406C60.416 23.5039 59.959 23.7148 59.3965 23.7734C58.9512 23.8203 58.1895 23.832 57.1113 23.8086C57.0645 23.1172 56.8652 22.4668 56.5137 21.8574C57.3574 21.9395 57.9727 21.9688 58.3594 21.9453C58.6406 21.9336 58.8457 21.875 58.9746 21.7695C59.1387 21.582 59.2793 21.0312 59.3965 20.1172H54.9844V24.5645H52.9277V20.9961C51.334 22.4609 49.5 23.5625 47.4258 24.3008C47.3438 24.3242 47.2734 24.3477 47.2148 24.3711C46.8984 23.8086 46.4648 23.2637 45.9141 22.7363C45.9023 22.7246 45.8906 22.7129 45.8789 22.7012C47.8594 22.1504 49.6289 21.3008 51.1875 20.1523C51.1992 20.1406 51.2109 20.1289 51.2227 20.1172H49.1133L49.0078 20.5391L46.8457 20.2754C47.3613 18.752 47.7598 17.1699 48.041 15.5293H52.9277V14.4219H47.3906V12.6641H49.8164C49.6758 12.1719 49.3945 11.5508 48.9727 10.8008H48.7441C48.2168 11.5977 47.6719 12.2832 47.1094 12.8574C46.5703 12.4121 45.9961 12.0254 45.3867 11.6973C46.4297 10.8301 47.2969 9.61719 47.9883 8.05859C48.0586 7.89453 48.123 7.74219 48.1816 7.60156L50.168 8.14648C50.0625 8.41602 49.9102 8.75 49.7109 9.14844H53.7363V10.5547C54.4629 9.72266 55.043 8.73828 55.4766 7.60156L57.498 8.11133C57.416 8.33398 57.2695 8.67383 57.0586 9.13086L57.041 9.14844H62.1562ZM64.4766 23V20.8555H67.3418V12.4355H64.9336V10.8008C66.1641 10.5664 67.1953 10.1914 68.0273 9.67578H69.9785V20.8555H72.4922V23H64.4766ZM79.1016 8.44531L80.5078 9.25391C79.6406 12.043 79.125 13.666 78.9609 14.123C79.8164 15.2363 80.2441 16.4492 80.2441 17.7617C80.2559 18.8984 79.998 19.666 79.4707 20.0645C79.2129 20.252 78.873 20.3809 78.4512 20.4512C78.1699 20.4863 77.7949 20.4922 77.3262 20.4688C77.3027 19.8125 77.1445 19.2031 76.8516 18.6406C77.1211 18.6758 77.373 18.6816 77.6074 18.6582C77.8184 18.6465 77.9824 18.6055 78.0996 18.5352C78.2871 18.3828 78.3809 18.0371 78.3809 17.498C78.3457 16.3496 77.9473 15.3008 77.1855 14.3516C77.5488 13.1094 77.877 11.8027 78.1699 10.4316H76.8164V24.5645H74.9707V8.5332H78.8027L79.1016 8.44531ZM85.166 12.9805L85.3418 14.5801C83.7949 14.9434 82.125 15.3301 80.332 15.7402L79.8398 13.9824C79.957 13.959 80.1504 13.9238 80.4199 13.877C80.6426 13.8418 80.8125 13.8125 80.9297 13.7891V7.98828H82.8457V9.88672H85.1133V11.5566H82.8457V13.4199L85.166 12.9805ZM88.1191 19.4844V18.4648H83.1797V19.4844H88.1191ZM83.1797 22.209H88.1191V21.1016H83.1797V22.209ZM86.2734 15.3887L85.7988 16.6895H90.2109V24.459H88.1191V23.9668H83.1797V24.5293H81.1934V16.6895H83.7422C83.9414 15.8926 84.0586 15.3301 84.0938 15.002L86.2734 15.3887ZM87.9961 13.7539H88.998C89.1855 13.7539 89.3027 13.6367 89.3496 13.4023C89.3965 13.2031 89.4316 12.8105 89.4551 12.2246C89.8887 12.5527 90.457 12.7988 91.1602 12.9629C91.0312 14.1934 90.7441 14.9609 90.2988 15.2656C90.0293 15.4297 89.6719 15.5117 89.2266 15.5117H87.6797C86.7773 15.5117 86.1973 15.2891 85.9395 14.8438C85.752 14.5039 85.6582 13.9473 85.6582 13.1738V7.98828H87.5918V10.1504C88.4473 9.70508 89.0859 9.30078 89.5078 8.9375L90.8965 10.3438C90.1465 10.8008 89.0449 11.3047 87.5918 11.8555V13.1738C87.5918 13.502 87.6445 13.6895 87.75 13.7363C87.8086 13.748 87.8906 13.7539 87.9961 13.7539ZM99.7559 18.9922L99.8262 20.9434C99.4512 21.002 98.8828 21.0898 98.1211 21.207C96.9727 21.3828 96.123 21.5117 95.5723 21.5938V24.5117H93.5332V21.8926L92.3906 22.0508L92.0566 19.9766C92.6074 19.918 93.0996 19.8652 93.5332 19.8184V8.95508L94.5352 9.25391C96.1992 8.77344 97.4531 8.28125 98.2969 7.77734L100.055 9.28906C98.9414 9.82812 97.4473 10.332 95.5723 10.8008V12.1895H99.1582V14.1758H95.5723V15.6523H99.3164V17.6387H95.5723V19.5547C97.002 19.3672 98.3965 19.1797 99.7559 18.9922ZM105.627 17.6035H102.551C102.891 18.3887 103.383 19.1328 104.027 19.8359C104.672 19.1797 105.205 18.4355 105.627 17.6035ZM106.963 15.582L108.352 16.1094C107.801 18.1484 106.898 19.8418 105.645 21.1895C106.652 21.834 107.842 22.3086 109.213 22.6133C108.721 23.0703 108.281 23.6738 107.895 24.4238C107.871 24.4707 107.854 24.5117 107.842 24.5469C106.33 24.1016 105.035 23.457 103.957 22.6133C102.785 23.4336 101.355 24.0957 99.668 24.5996C99.4336 23.9902 99.0645 23.375 98.5605 22.7539C98.5488 22.7422 98.5371 22.7305 98.5254 22.7188C99.9316 22.4141 101.232 21.875 102.428 21.1016C101.689 20.2109 101.074 19.1445 100.582 17.9023L101.707 17.6035H99.9316V15.6523H100.389C99.9902 15.1602 99.5625 14.7559 99.1055 14.4395C99.0703 14.416 99.041 14.3984 99.0176 14.3867C100.107 13.7656 100.711 12.8691 100.828 11.6973C100.852 11.4863 100.863 11.2461 100.863 10.9766V8.41016H106.717V12.6816C106.717 12.9863 106.729 13.1621 106.752 13.209C106.822 13.2676 106.881 13.2969 106.928 13.2969H107.227C107.332 13.2852 107.408 13.2617 107.455 13.2266C107.514 13.1797 107.566 13.0566 107.613 12.8574C107.648 12.3184 107.666 11.8203 107.666 11.3633C108.076 11.7266 108.609 12.0195 109.266 12.2422C109.219 13.0859 109.131 13.6953 109.002 14.0703C108.873 14.3984 108.662 14.6387 108.369 14.791C108.123 14.9199 107.795 14.9844 107.385 14.9844H106.418C105.844 14.9727 105.422 14.832 105.152 14.5625C104.871 14.1758 104.725 13.5547 104.713 12.6992V10.2734H102.85V11.0469C102.838 13.1797 102.129 14.7148 100.723 15.6523H106.611L106.963 15.582Z" fill="white"/>
<defs>
<linearGradient id="paint0_linear" x1="77.5" y1="-68.5714" x2="77.5" y2="40.5714" gradientUnits="userSpaceOnUse">
<stop stop-color="#F9FEA5"/>
<stop offset="0.489583" stop-color="#96FBC4"/>
<stop offset="1" stop-color="#20E2D7"/>
</linearGradient>
</defs>
</svg>
