<svg width="183" height="75" viewBox="0 0 183 75" fill="none" xmlns="http://www.w3.org/2000/svg">
<g filter="url(#filter0_d)">
<rect x="16" y="12" width="151" height="43" rx="21.5" fill="white"/>
<path d="M82.2969 30.8438V28.7188H79.1875V30.8438H82.2969ZM79.1875 35.2188V37.625C79.75 37.5521 80.7865 37.4062 82.2969 37.1875V35.2188H79.1875ZM82.2969 34.125V31.9062H79.1875V34.125H82.2969ZM84.5781 28.7188H83.4531V41.1875H82.2969V38.2812C81.4635 38.4271 80.2448 38.625 78.6406 38.875C77.7448 39.0208 77.1042 39.125 76.7188 39.1875L76.5156 37.9844C76.9635 37.9323 77.4792 37.8698 78.0625 37.7969V28.7188H76.8125V27.6094H84.5781V28.7188ZM90.1094 28.75L90.875 28.9688C90.4583 32.2917 89.5938 35 88.2812 37.0938C89.1979 38.4167 90.2969 39.4062 91.5781 40.0625C91.276 40.3229 90.9948 40.651 90.7344 41.0469C89.4844 40.3281 88.4219 39.3594 87.5469 38.1406C86.6302 39.3073 85.5417 40.2552 84.2812 40.9844C84.0729 40.6198 83.8125 40.3021 83.5 40.0312C84.8021 39.3438 85.9219 38.3594 86.8594 37.0781C85.849 35.349 85.0573 33.0677 84.4844 30.2344L85.6094 30.0312C86.0573 32.3438 86.7135 34.3177 87.5781 35.9531C88.5365 34.2552 89.1979 32.2604 89.5625 29.9688H84.1719V28.7969H89.8906L90.1094 28.75ZM106.969 27.4062C106.698 27.9375 106.396 28.474 106.062 29.0156C105.74 29.5573 105.432 30.026 105.141 30.4219L104.109 29.9844C104.255 29.776 104.406 29.5469 104.562 29.2969C104.729 29.0469 104.885 28.7865 105.031 28.5156C105.188 28.2344 105.333 27.9583 105.469 27.6875C105.615 27.4167 105.734 27.1667 105.828 26.9375L106.969 27.4062ZM95.4688 33.6875C95.3229 33.5417 95.1406 33.3854 94.9219 33.2188C94.7031 33.0417 94.4688 32.8698 94.2188 32.7031C93.9688 32.526 93.7083 32.3594 93.4375 32.2031C93.1667 32.0365 92.9062 31.8854 92.6562 31.75L93.3281 30.9219C93.5781 31.0469 93.8385 31.1875 94.1094 31.3438C94.3802 31.4896 94.6406 31.6458 94.8906 31.8125C95.151 31.9688 95.3906 32.125 95.6094 32.2812C95.8385 32.4375 96.0312 32.5885 96.1875 32.7344L95.4688 33.6875ZM93.1406 40.2656C93.3281 39.9531 93.5365 39.5938 93.7656 39.1875C93.9948 38.7812 94.2292 38.349 94.4688 37.8906C94.7188 37.4323 94.9583 36.9635 95.1875 36.4844C95.4271 36.0052 95.651 35.5417 95.8594 35.0938L96.75 35.8125C96.5625 36.2292 96.3646 36.6667 96.1562 37.125C95.9479 37.5833 95.7292 38.0417 95.5 38.5C95.2812 38.9479 95.0573 39.3906 94.8281 39.8281C94.599 40.2552 94.3802 40.6562 94.1719 41.0312L93.1406 40.2656ZM94.1094 26.6719C94.3594 26.7969 94.6146 26.9375 94.875 27.0938C95.1354 27.2396 95.3906 27.3958 95.6406 27.5625C95.8906 27.7188 96.125 27.8802 96.3438 28.0469C96.5625 28.2031 96.7448 28.3542 96.8906 28.5L96.1562 29.4375C96.0104 29.2917 95.8281 29.1354 95.6094 28.9688C95.401 28.7917 95.1719 28.6146 94.9219 28.4375C94.6823 28.2604 94.4323 28.0938 94.1719 27.9375C93.9115 27.7708 93.6562 27.6198 93.4062 27.4844L94.1094 26.6719ZM99.25 30.5C99.1875 30.2917 99.099 30.0625 98.9844 29.8125C98.8802 29.5625 98.7552 29.3021 98.6094 29.0312C98.474 28.7604 98.3229 28.4948 98.1562 28.2344C97.9896 27.9635 97.8177 27.7135 97.6406 27.4844L98.6562 27.0312C98.8333 27.25 99.0052 27.4896 99.1719 27.75C99.349 28.0104 99.5104 28.2708 99.6562 28.5312C99.8021 28.7917 99.9323 29.0469 100.047 29.2969C100.172 29.5365 100.266 29.7604 100.328 29.9688L99.25 30.5ZM105.172 36.6719V34.9375H99.2656V36.6719H105.172ZM99.2656 32.1875V33.8906H105.172V32.1875H99.2656ZM106.344 39.6875C106.344 40.0208 106.297 40.2812 106.203 40.4688C106.12 40.6562 105.958 40.8021 105.719 40.9062C105.469 41.0104 105.141 41.0677 104.734 41.0781C104.339 41.099 103.833 41.1094 103.219 41.1094C103.198 40.9427 103.146 40.75 103.062 40.5312C102.99 40.3229 102.911 40.1354 102.828 39.9688C103.297 39.9896 103.719 40 104.094 40C104.469 40 104.719 40 104.844 40C104.969 39.9896 105.052 39.9635 105.094 39.9219C105.146 39.8698 105.172 39.7865 105.172 39.6719V37.6875H99.2656V41.2031H98.0938V31.0625H101.688V26.5H102.859V31.0625H106.344V39.6875Z" fill="#8E8E8E"/>
<rect x="16.5" y="12.5" width="150" height="42" rx="21" stroke="#20E2D7"/>
</g>
<defs>
<filter id="filter0_d" x="0" y="0" width="183" height="75" filterUnits="userSpaceOnUse" color-interpolation-filters="sRGB">
<feFlood flood-opacity="0" result="BackgroundImageFix"/>
<feColorMatrix in="SourceAlpha" type="matrix" values="0 0 0 0 0 0 0 0 0 0 0 0 0 0 0 0 0 0 127 0"/>
<feMorphology radius="1" operator="erode" in="SourceAlpha" result="effect1_dropShadow"/>
<feOffset dy="4"/>
<feGaussianBlur stdDeviation="8.5"/>
<feColorMatrix type="matrix" values="0 0 0 0 0.418594 0 0 0 0 0.7125 0 0 0 0 0.695835 0 0 0 0.51 0"/>
<feBlend mode="normal" in2="BackgroundImageFix" result="effect1_dropShadow"/>
<feBlend mode="normal" in="SourceGraphic" in2="effect1_dropShadow" result="shape"/>
</filter>
</defs>
</svg>
