<svg width="152" height="152" viewBox="0 0 152 152" fill="none" xmlns="http://www.w3.org/2000/svg">
<g filter="url(#filter0_d)">
<rect x="8" y="8" width="132" height="132" rx="66" fill="url(#paint0_linear)"/>
<path d="M50.4805 98.4395L52.4316 97.4375C53.6855 99.0547 54.6523 100.824 55.332 102.746C55.4844 103.168 55.6074 103.561 55.7012 103.924L53.5215 104.996C53.2402 103.52 52.5488 101.838 51.4473 99.9512C51.1309 99.4004 50.8086 98.8965 50.4805 98.4395ZM40.1621 98.1582L42.2715 98.5977C41.9199 101.867 41.2754 104.193 40.3379 105.576L38.334 104.434C39.2832 103.027 39.8926 100.936 40.1621 98.1582ZM43.4492 93.4824L44.8203 91.8125C46.6953 92.4805 48.4941 93.377 50.2168 94.502C50.4512 94.6543 50.6621 94.8008 50.8496 94.9414L49.4434 96.8223C48.2363 95.8145 46.6074 94.8535 44.5566 93.9395C44.1699 93.7754 43.8008 93.623 43.4492 93.4824ZM43.3789 96.8926H45.6113V105.436C45.6113 105.928 45.6934 106.221 45.8574 106.314C45.998 106.385 46.2383 106.42 46.5781 106.42H49.0566C49.4668 106.42 49.7422 106.244 49.8828 105.893C50.0234 105.494 50.1289 104.545 50.1992 103.045C50.7148 103.443 51.3828 103.754 52.2031 103.977C52.0742 105.816 51.7754 107.029 51.3066 107.615C50.8848 108.131 50.1934 108.389 49.2324 108.389H46.2969C45.0547 108.389 44.2402 108.125 43.8535 107.598C43.5371 107.164 43.3789 106.443 43.3789 105.436V96.8926ZM56.3516 99.9863C56.4453 99.6816 56.5332 99.3359 56.6152 98.9492C56.6973 98.5508 56.7676 98.1465 56.8262 97.7363C56.8848 97.3145 56.9375 96.8926 56.9844 96.4707C57.0312 96.0488 57.0664 95.6562 57.0898 95.293L58.6016 95.4863C58.5898 95.8613 58.5605 96.2715 58.5137 96.7168C58.4785 97.1504 58.4316 97.5898 58.373 98.0352C58.3145 98.4805 58.2441 98.9141 58.1621 99.3359C58.0801 99.7578 57.9922 100.145 57.8984 100.496L56.3516 99.9863ZM70.0977 104.381V103.555H64.7188V104.381H70.0977ZM64.7188 101.199V102.043H70.0977V101.199H64.7188ZM72.1016 106.473C72.1016 106.953 72.043 107.322 71.9258 107.58C71.8203 107.85 71.6035 108.061 71.2754 108.213C70.9707 108.365 70.5898 108.453 70.1328 108.477C69.6758 108.5 69.1367 108.512 68.5156 108.512C68.4805 108.242 68.4043 107.938 68.2871 107.598C68.1816 107.258 68.0645 106.959 67.9355 106.701C68.1582 106.725 68.3809 106.736 68.6035 106.736C68.8379 106.736 69.043 106.736 69.2188 106.736H69.7461C69.9805 106.736 70.0977 106.637 70.0977 106.438V105.857H64.7188V108.547H62.75V99.6348H72.1016V106.473ZM73.3145 97.4199V98.9492H61.5371V97.4199H66.3008V96.6465H62.5918L62.627 96.752L61.2207 97.4199C61.1621 97.1621 61.0742 96.8574 60.957 96.5059C60.8398 96.1543 60.7051 95.8027 60.5527 95.4512V108.512H58.6367V91.7422H60.5527V94.625L61.5723 94.1855C61.7715 94.5723 61.959 94.9941 62.1348 95.4512C62.3223 95.9082 62.4746 96.3008 62.5918 96.6289V95.2227H66.3008V94.502H62.0996V92.9727H66.3008V91.7422H68.4277V92.9727H72.7695V94.502H68.4277V95.2227H72.2949V96.6465H68.4277V97.4199H73.3145ZM79.0098 105.014H86.9902V100.988H79.0098V105.014ZM86.9902 94.9941H79.0098V98.8613H86.9902V94.9941ZM76.7949 92.832H89.293V108.318H86.9902V107.176H79.0098V108.354H76.7949V92.832ZM99.2949 92.3047V93.9395H93.5645V92.3047H99.2949ZM97.3086 103.871H95.252V105.945H97.3086V103.871ZM99.1895 102.184V107.615H95.252V108.318H93.4062V102.184H99.1895ZM93.459 101.287V99.6875H99.2422V101.287H93.459ZM93.459 98.8613V97.2266H99.2422V98.8613H93.459ZM92.5977 96.418V94.7305H99.9629V96.418H92.5977ZM103.865 106.385H106.432C106.83 106.385 107.094 106.232 107.223 105.928C107.352 105.6 107.445 104.867 107.504 103.73C108.008 104.082 108.635 104.352 109.385 104.539C109.42 104.551 109.449 104.557 109.473 104.557C109.332 106.197 109.027 107.264 108.559 107.756C108.16 108.189 107.504 108.406 106.59 108.406H103.637C102.418 108.406 101.609 108.172 101.211 107.703C100.871 107.27 100.701 106.537 100.701 105.506V98.457H106.379V94.6953H100.666V92.6562H108.523V101.357H106.379V100.479H102.863V105.506C102.863 105.951 102.963 106.215 103.162 106.297C103.303 106.355 103.537 106.385 103.865 106.385Z" fill="white"/>
<g clip-path="url(#clip0)">
<path d="M87.3482 36.4022C87.0904 36.1444 86.7407 35.9996 86.3761 35.9996C86.0115 35.9996 85.6618 36.1444 85.404 36.4022L80.8747 40.9315L91.069 51.1257L95.5982 46.5992C95.7263 46.4715 95.8279 46.3198 95.8972 46.1527C95.9665 45.9857 96.0022 45.8066 96.0022 45.6257C96.0022 45.4449 95.9665 45.2658 95.8972 45.0987C95.8279 44.9317 95.7263 44.7799 95.5982 44.6522L87.3482 36.4022ZM89.1247 53.07L78.9305 42.8757L61.0555 60.7507H61.6247C61.9894 60.7507 62.3391 60.8956 62.597 61.1534C62.8548 61.4113 62.9997 61.761 62.9997 62.1257V63.5007H64.3747C64.7394 63.5007 65.0891 63.6456 65.347 63.9034C65.6048 64.1613 65.7497 64.511 65.7497 64.8757V66.2507H67.1247C67.4894 66.2507 67.8391 66.3956 68.097 66.6534C68.3548 66.9113 68.4997 67.261 68.4997 67.6257V69.0007H69.8747C70.2394 69.0007 70.5891 69.1456 70.847 69.4034C71.1048 69.6613 71.2497 70.011 71.2497 70.3757V70.945L89.1247 53.07ZM68.5877 73.607C68.5298 73.4531 68.5 73.2901 68.4997 73.1257V71.7507H67.1247C66.76 71.7507 66.4103 71.6059 66.1524 71.348C65.8946 71.0901 65.7497 70.7404 65.7497 70.3757V69.0007H64.3747C64.01 69.0007 63.6603 68.8559 63.4024 68.598C63.1446 68.3401 62.9997 67.9904 62.9997 67.6257V66.2507H61.6247C61.26 66.2507 60.9103 66.1059 60.6524 65.848C60.3946 65.5901 60.2497 65.2404 60.2497 64.8757V63.5007H58.8747C58.7103 63.5004 58.5473 63.4706 58.3935 63.4127L57.9012 63.9022C57.7702 64.0342 57.6673 64.1913 57.5987 64.3642L52.0987 78.1142C51.9987 78.3641 51.9742 78.6378 52.0283 78.9015C52.0824 79.1652 52.2127 79.4071 52.403 79.5975C52.5933 79.7878 52.8353 79.9181 53.0989 79.9721C53.3626 80.0262 53.6363 80.0017 53.8862 79.9017L67.6362 74.4017C67.8091 74.3332 67.9663 74.2303 68.0982 74.0992L68.5877 73.6097V73.607Z" fill="white"/>
</g>
</g>
<defs>
<filter id="filter0_d" x="0" y="0" width="152" height="152" filterUnits="userSpaceOnUse" color-interpolation-filters="sRGB">
<feFlood flood-opacity="0" result="BackgroundImageFix"/>
<feColorMatrix in="SourceAlpha" type="matrix" values="0 0 0 0 0 0 0 0 0 0 0 0 0 0 0 0 0 0 127 0"/>
<feOffset dx="2" dy="2"/>
<feGaussianBlur stdDeviation="5"/>
<feColorMatrix type="matrix" values="0 0 0 0 0.8 0 0 0 0 0.8 0 0 0 0 0.8 0 0 0 0.75 0"/>
<feBlend mode="normal" in2="BackgroundImageFix" result="effect1_dropShadow"/>
<feBlend mode="normal" in="SourceGraphic" in2="effect1_dropShadow" result="shape"/>
</filter>
<linearGradient id="paint0_linear" x1="74" y1="-274.857" x2="74" y2="175.357" gradientUnits="userSpaceOnUse">
<stop stop-color="#F9FEA5"/>
<stop offset="0.489583" stop-color="#96FBC4"/>
<stop offset="1" stop-color="#20E2D7"/>
</linearGradient>
<clipPath id="clip0">
<rect width="44" height="44" fill="white" transform="translate(52 36)"/>
</clipPath>
</defs>
</svg>
