<svg width="242" height="87" viewBox="0 0 242 87" fill="none" xmlns="http://www.w3.org/2000/svg">
<g filter="url(#filter0_d)">
<rect x="16" y="12" width="210" height="55" rx="27.5" fill="white"/>
<path d="M83.3887 46.8086V45.5957H98.6816V46.8086H83.3887ZM94.5859 41.1484V39.6543H87.3262V41.1484H94.5859ZM94.5859 43.5742V42.0801H87.3262V43.5742H94.5859ZM86.0078 38.6875H95.957V44.5234H86.0078V38.6875ZM98.9453 34.416H93.0391C94.3398 35.7637 95.9512 36.8535 97.873 37.6855C98.3535 37.8965 98.8223 38.0723 99.2793 38.2129C98.9863 38.459 98.6934 38.8164 98.4004 39.2852C96.4082 38.5469 94.5977 37.4277 92.9688 35.9277C92.4531 35.4473 92.002 34.9668 91.6152 34.4863V38.1602H90.2969V34.5039C89.1016 36.0742 87.4668 37.4277 85.3926 38.5645C84.7832 38.9043 84.1797 39.1914 83.582 39.4258C83.2539 38.9688 82.9609 38.6172 82.7031 38.3711C84.5664 37.7266 86.2656 36.7422 87.8008 35.418C88.1875 35.0781 88.5332 34.7441 88.8379 34.416H83.0723V33.2207H90.2969V30.9531H91.6152V33.2207H98.9453V34.416ZM113.799 41.2012V39.9531H105.994V41.2012H113.799ZM105.994 45.6484H113.799V44.3125H105.994V45.6484ZM113.799 43.3633V42.1152H105.994V43.3633H113.799ZM116.893 37.6504H106.891C106.645 38.1074 106.398 38.5234 106.152 38.8984H115.117V47.4238H113.799V46.7207H105.994V47.4238H104.711V40.7441C103.715 41.8223 102.648 42.707 101.512 43.3984C101.277 43.0117 101.002 42.666 100.686 42.3613C102.596 41.2363 104.154 39.666 105.361 37.6504H101.107V36.5254H105.994C106.346 35.7988 106.545 35.3652 106.592 35.2246H102.426V34.1348H106.979C107.189 33.502 107.318 33.0859 107.365 32.8867C105.807 32.9688 104.166 33.0098 102.443 33.0098C102.42 32.6699 102.332 32.3242 102.18 31.9727C107.359 31.9258 111.361 31.668 114.186 31.1992C114.42 31.1523 114.631 31.1113 114.818 31.0762L115.662 32.043C114.068 32.3828 111.795 32.6348 108.842 32.7988C108.795 32.9863 108.713 33.2617 108.596 33.625C108.514 33.8477 108.455 34.0176 108.42 34.1348H115.838V35.2246H108.051C107.957 35.459 107.758 35.8926 107.453 36.5254H116.893V37.6504ZM126.754 32.6055V37.0879H128.512V34.0645H131.729V32.6055H126.754ZM129.514 37.0879H131.729V34.9961H129.514V37.0879ZM125.365 38.1602V44.8398H124.17V37.0879H125.576V31.5684H132.941V37.0879H134.33V43.5391C134.33 44.0781 134.195 44.4238 133.926 44.5762C133.867 44.5996 133.814 44.623 133.768 44.6465C133.463 44.7754 132.73 44.8398 131.57 44.8398C131.512 44.4883 131.395 44.1309 131.219 43.7676C131.723 43.7793 132.256 43.7852 132.818 43.7852C132.994 43.75 133.088 43.668 133.1 43.5391V38.1602H125.365ZM130.498 42.168V40.252H127.914V42.168H130.498ZM131.535 39.3027V43.0996H127.914V43.8027H126.877V39.3027H131.535ZM123.52 33.3086L122.588 34.2227C122.049 33.5664 121.176 32.8809 119.969 32.166C119.863 32.0957 119.764 32.0371 119.67 31.9902L120.549 31.1641C121.861 31.8672 122.828 32.5527 123.449 33.2207C123.473 33.2559 123.496 33.2852 123.52 33.3086ZM123.01 36.8242L122.078 37.7734C121.445 37.1055 120.514 36.4434 119.283 35.7871C119.166 35.7285 119.061 35.6758 118.967 35.6289L119.846 34.7676C121.053 35.3184 122.043 35.9453 122.816 36.6484C122.898 36.7188 122.963 36.7773 123.01 36.8242ZM122.553 39.25V43.75C123.385 45.0156 124.896 45.6953 127.088 45.7891C129.83 45.8594 132.461 45.8242 134.98 45.6836C135.098 45.6836 135.203 45.6777 135.297 45.666C135.074 46.041 134.922 46.4805 134.84 46.9844C132.074 47.0781 129.496 47.0957 127.105 47.0371C124.867 46.9316 123.209 46.2812 122.131 45.0859C122.072 45.0273 122.02 44.9688 121.973 44.9102C121.352 45.5078 120.484 46.2754 119.371 47.2129L118.668 45.8945C119.5 45.3203 120.361 44.6348 121.252 43.8379V40.498H118.896V39.25H122.553ZM153.068 39.6895H144.332C143.348 41.8926 142.463 43.6914 141.678 45.0859C143.576 45.0039 146.289 44.875 149.816 44.6992C149.078 43.6328 148.305 42.6426 147.496 41.7285L148.727 41.1484C150.25 42.8008 151.504 44.4414 152.488 46.0703C152.641 46.3398 152.775 46.5859 152.893 46.8086L151.574 47.5117C151.457 47.2656 151.17 46.7559 150.713 45.9824C148.662 46.0996 144.367 46.3164 137.828 46.6328L137.635 45.2266C138.068 45.2148 138.912 45.1855 140.166 45.1387C141.08 43.498 141.906 41.6816 142.645 39.6895H137.002V38.3711H144.262V34.9609H138.391V33.6602H144.262V30.9355H145.65V33.6602H151.732V34.9609H145.65V38.3711H153.068V39.6895ZM158.588 44.6816H167.518V39.6719H158.588V44.6816ZM167.518 33.4844H158.588V38.3535H167.518V33.4844ZM157.234 32.1836H168.924V47.0898H167.518V46H158.588V47.1777H157.234V32.1836ZM179.26 31.5684V32.6406H173.688V31.5684H179.26ZM177.924 42.2383H174.777V45.2617H177.924V42.2383ZM179.137 41.1484V46.334H174.777V47.1777H173.582V41.1484H179.137ZM173.6 39.8125V38.7227H179.189V39.8125H173.6ZM173.6 37.4219V36.3496H179.189V37.4219H173.6ZM172.756 35.0137V33.9238H179.84V35.0137H172.756ZM183.391 45.9121H186.801C187.258 45.9121 187.557 45.7539 187.697 45.4375C187.85 45.0859 187.955 44.2539 188.014 42.9414C188.354 43.1992 188.775 43.3867 189.279 43.5039C189.174 45.0977 188.934 46.123 188.559 46.5801C188.23 46.9785 187.674 47.1777 186.889 47.1777H183.285C182.219 47.1777 181.533 46.9844 181.229 46.5977C180.994 46.2812 180.877 45.7715 180.877 45.0684V37.7734H186.994V33.2207H180.684V31.9551H188.33V40.041H186.994V39.0566H182.23V45.0684C182.23 45.4785 182.336 45.7246 182.547 45.8066C182.711 45.877 182.992 45.9121 183.391 45.9121Z" fill="#20E2D7"/>
<path d="M64.7143 29C67.5714 29 70 29.9722 72 31.9167C74 33.8611 75 36.2222 75 39C75 41.7778 74 44.1389 72 46.0833C70 48.0278 67.5714 49 64.7143 49C61.8929 49 59.4643 48.0278 57.4286 46.0833L59.0893 44.4688C60.625 45.9965 62.5 46.7604 64.7143 46.7604C66.9286 46.7604 68.8125 46.0052 70.3661 44.4948C71.9196 42.9844 72.6964 41.1528 72.6964 39C72.6964 36.8472 71.9196 35.0156 70.3661 33.5052C68.8125 31.9948 66.9286 31.2396 64.7143 31.2396C62.5 31.2396 60.6161 31.9948 59.0625 33.5052C57.5089 35.0156 56.7321 36.8472 56.7321 39H60.1607L55.5 43.4792L55.4464 43.3229L51 39H54.4286C54.4286 36.2222 55.4286 33.8611 57.4286 31.9167C59.4286 29.9722 61.8571 29 64.7143 29ZM63.5893 34.5729H65.3036V39.2604L69.2679 41.6042L68.4643 42.9583L63.5893 40.0938V34.5729Z" fill="#20E2D7"/>
<rect x="16.5" y="12.5" width="209" height="54" rx="27" stroke="#20E2D7"/>
</g>
<defs>
<filter id="filter0_d" x="0" y="0" width="242" height="87" filterUnits="userSpaceOnUse" color-interpolation-filters="sRGB">
<feFlood flood-opacity="0" result="BackgroundImageFix"/>
<feColorMatrix in="SourceAlpha" type="matrix" values="0 0 0 0 0 0 0 0 0 0 0 0 0 0 0 0 0 0 127 0"/>
<feMorphology radius="1" operator="erode" in="SourceAlpha" result="effect1_dropShadow"/>
<feOffset dy="4"/>
<feGaussianBlur stdDeviation="8.5"/>
<feColorMatrix type="matrix" values="0 0 0 0 0.418594 0 0 0 0 0.7125 0 0 0 0 0.695835 0 0 0 0.4 0"/>
<feBlend mode="normal" in2="BackgroundImageFix" result="effect1_dropShadow"/>
<feBlend mode="normal" in="SourceGraphic" in2="effect1_dropShadow" result="shape"/>
</filter>
</defs>
</svg>
