<svg width="303" height="356" viewBox="0 0 303 356" fill="none" xmlns="http://www.w3.org/2000/svg">
<g clip-path="url(#clip0)">
<path d="M251.522 142.083C250.954 140.596 249.914 139.31 248.546 138.401C247.177 137.491 245.545 137.002 243.872 137H76.1277C75.0608 137 74.0042 137.198 73.0183 137.583C72.0324 137.969 71.1366 138.534 70.3818 139.247C69.6271 139.959 69.0283 140.805 68.6197 141.737C68.211 142.668 68.0004 143.666 68 144.674V266.32C68.0031 268.356 68.8603 270.308 70.3839 271.747C71.9075 273.187 73.973 273.997 76.1277 274H243.872C246.027 273.997 248.093 273.187 249.616 271.747C251.14 270.308 251.997 268.356 252 266.32V144.68C252.002 143.795 251.84 142.916 251.522 142.083Z" fill="white"/>
<path d="M139 151.431V168.569C139 168.683 138.914 168.793 138.76 168.874C138.606 168.954 138.397 169 138.18 169H82.821C82.7816 169 82.7422 168.999 82.7034 168.995C82.5081 168.98 82.3295 168.929 82.2003 168.851C82.0711 168.772 82 168.672 82 168.569V151.431C82 151.375 82.0212 151.319 82.0624 151.266C82.1036 151.214 82.164 151.166 82.2402 151.126C82.3164 151.086 82.4068 151.055 82.5064 151.033C82.606 151.011 82.7127 151 82.8205 151H138.179C138.287 151 138.394 151.011 138.493 151.033C138.593 151.054 138.683 151.086 138.759 151.126C138.836 151.166 138.896 151.214 138.937 151.266C138.979 151.318 139 151.375 139 151.431V151.431Z" fill="#E6E6E6"/>
<path d="M237 151.431V168.569C237 168.683 236.87 168.793 236.638 168.874C236.405 168.954 236.091 169 235.762 169H152.239C152.179 169 152.12 168.999 152.061 168.995C151.767 168.98 151.497 168.929 151.302 168.851C151.107 168.772 151 168.672 151 168.569V151.431C151 151.375 151.032 151.319 151.094 151.266C151.156 151.214 151.247 151.166 151.362 151.126C151.477 151.086 151.614 151.055 151.764 151.033C151.914 151.011 152.075 151 152.238 151H235.761C235.924 151 236.085 151.011 236.235 151.033C236.385 151.054 236.522 151.086 236.637 151.126C236.752 151.166 236.843 151.214 236.906 151.266C236.968 151.318 237 151.375 237 151.431V151.431Z" fill="#E6E6E6"/>
<path d="M237.071 178.283V184.021C237.072 184.06 236.837 184.096 236.42 184.124C236.002 184.151 235.436 184.166 234.845 184.166H84.6003C84.4934 184.166 84.3865 184.165 84.281 184.164C83.751 184.159 83.2663 184.142 82.9157 184.116C82.5651 184.09 82.3721 184.056 82.3721 184.021V178.283C82.372 178.264 82.4295 178.245 82.5413 178.228C82.6532 178.21 82.8172 178.194 83.024 178.181C83.2307 178.168 83.4762 178.157 83.7464 178.15C84.0167 178.142 84.3063 178.139 84.5988 178.139H234.843C235.136 178.139 235.425 178.142 235.696 178.15C235.966 178.157 236.212 178.168 236.418 178.181C236.625 178.194 236.79 178.21 236.902 178.228C237.014 178.245 237.071 178.264 237.071 178.283V178.283Z" fill="#E6E6E6"/>
<path d="M237.071 190.338V196.076C237.072 196.114 236.837 196.151 236.42 196.178C236.002 196.205 235.436 196.22 234.845 196.22H84.6003C84.4934 196.22 84.3865 196.22 84.281 196.219C83.751 196.214 83.2663 196.197 82.9157 196.17C82.5651 196.144 82.3721 196.111 82.3721 196.076V190.338C82.372 190.319 82.4295 190.3 82.5413 190.282C82.6532 190.265 82.8172 190.249 83.024 190.235C83.2307 190.222 83.4762 190.211 83.7464 190.204C84.0167 190.197 84.3063 190.193 84.5988 190.193H234.843C235.136 190.193 235.425 190.197 235.696 190.204C235.966 190.211 236.212 190.222 236.418 190.235C236.625 190.249 236.79 190.265 236.902 190.282C237.014 190.3 237.071 190.319 237.071 190.337V190.338Z" fill="#E6E6E6"/>
<path d="M133.269 203.062V208.8C133.269 208.838 133.192 208.875 133.054 208.902C132.917 208.929 132.731 208.945 132.536 208.945H83.1052C83.07 208.945 83.0348 208.944 83.0001 208.943C82.8257 208.938 82.6663 208.921 82.5509 208.895C82.4356 208.868 82.3721 208.835 82.3721 208.8V203.062C82.372 203.043 82.391 203.024 82.4278 203.007C82.4646 202.989 82.5185 202.973 82.5865 202.96C82.6546 202.946 82.7353 202.936 82.8242 202.928C82.9131 202.921 83.0084 202.917 83.1047 202.917H132.536C132.632 202.917 132.727 202.921 132.816 202.928C132.905 202.936 132.986 202.946 133.054 202.96C133.122 202.973 133.176 202.989 133.213 203.006C133.25 203.024 133.269 203.043 133.269 203.062V203.062Z" fill="#E6E6E6"/>
<path d="M133.269 233.198V238.936C133.269 238.975 133.192 239.011 133.054 239.038C132.917 239.066 132.731 239.081 132.536 239.081H83.1052C83.07 239.081 83.0348 239.08 83.0001 239.079C82.8257 239.074 82.6663 239.057 82.5509 239.031C82.4356 239.005 82.3721 238.971 82.3721 238.936V233.198C82.372 233.179 82.391 233.16 82.4278 233.143C82.4646 233.125 82.5185 233.109 82.5865 233.096C82.6546 233.083 82.7353 233.072 82.8242 233.065C82.9131 233.057 83.0084 233.054 83.1047 233.054H132.536C132.632 233.054 132.727 233.057 132.816 233.065C132.905 233.072 132.986 233.082 133.054 233.096C133.122 233.109 133.176 233.125 133.213 233.143C133.25 233.16 133.269 233.179 133.269 233.198V233.198Z" fill="#E6E6E6"/>
<path d="M220.329 247.262V253C220.329 253.038 220.12 253.075 219.748 253.102C219.375 253.129 218.87 253.144 218.343 253.144H84.3592C84.2638 253.144 84.1685 253.144 84.0744 253.143C83.6018 253.138 83.1695 253.121 82.8569 253.094C82.5442 253.068 82.3721 253.035 82.3721 253V247.262C82.372 247.243 82.4233 247.224 82.523 247.206C82.6228 247.189 82.769 247.173 82.9534 247.16C83.1378 247.146 83.3567 247.135 83.5977 247.128C83.8387 247.121 84.097 247.117 84.3578 247.117H218.342C218.603 247.117 218.861 247.121 219.102 247.128C219.343 247.135 219.562 247.146 219.747 247.159C219.931 247.173 220.078 247.189 220.178 247.206C220.278 247.224 220.329 247.243 220.329 247.262V247.262Z" fill="#E6E6E6"/>
<path d="M172.703 378.332L161.267 296.008C161.235 295.779 161.126 295.569 160.958 295.412C160.789 295.255 160.572 295.16 160.342 295.144C160.112 295.128 159.884 295.191 159.695 295.323C159.507 295.455 159.369 295.648 159.306 295.87L151.644 322.653C151.065 324.672 150.875 326.782 151.085 328.871L157.246 377.276C157.286 377.685 157.243 378.098 157.118 378.49C156.993 378.881 156.79 379.243 156.52 379.553C156.25 379.863 155.92 380.115 155.549 380.293C155.178 380.47 154.775 380.57 154.365 380.587L146.522 380.841C145.801 380.869 145.093 380.638 144.528 380.188C143.963 379.738 143.578 379.101 143.444 378.391L133.512 326.056C132.96 323.15 132.843 320.179 133.164 317.24L140.677 248.321L178.099 249.675L178.188 249.854C189.491 272.557 187.666 323.067 185.901 371.915L185.681 378.024C185.656 378.804 185.328 379.544 184.765 380.087C184.203 380.629 183.452 380.931 182.671 380.929L175.689 380.931H175.687C174.961 380.928 174.259 380.664 173.711 380.187C173.163 379.709 172.805 379.051 172.703 378.332Z" fill="#2F2E41"/>
<path d="M171.212 179.417C180.296 179.417 187.66 172.053 187.66 162.969C187.66 153.885 180.296 146.521 171.212 146.521C162.128 146.521 154.764 153.885 154.764 162.969C154.764 172.053 162.128 179.417 171.212 179.417Z" fill="#FFB8B8"/>
<path d="M140.113 252.321C139.83 251.982 139.625 251.583 139.513 251.155C139.402 250.727 139.386 250.28 139.467 249.845L148.619 200.529L150.788 195.914C152.594 192.065 155.586 188.895 159.324 186.868C163.062 184.842 167.351 184.065 171.562 184.653C174.518 185.057 177.346 186.117 179.839 187.756C182.331 189.395 184.425 191.571 185.967 194.125C187.509 196.679 188.46 199.546 188.749 202.515C189.039 205.484 188.66 208.481 187.641 211.284L177.767 238.443L179.448 249.959C179.511 250.387 179.48 250.824 179.359 251.239C179.238 251.654 179.029 252.038 178.746 252.366C178.463 252.693 178.113 252.955 177.72 253.135C177.326 253.315 176.899 253.408 176.466 253.408H142.43C141.988 253.409 141.551 253.312 141.15 253.124C140.749 252.936 140.395 252.662 140.113 252.321Z" fill="#20E2D7"/>
<path d="M214.279 282.296C213.255 282.058 212.295 281.599 211.467 280.95C210.64 280.301 209.965 279.478 209.489 278.54C209.014 277.602 208.75 276.57 208.716 275.519C208.683 274.468 208.88 273.422 209.294 272.455L182.772 212.537L197.944 208.715L219.243 268.815C220.821 269.619 222.05 270.973 222.696 272.622C223.342 274.27 223.361 276.099 222.749 277.76C222.137 279.422 220.937 280.802 219.376 281.638C217.815 282.474 216.002 282.708 214.279 282.296V282.296Z" fill="#FFB8B8"/>
<path d="M183.676 223.275C183.253 223.085 182.876 222.807 182.57 222.459C182.264 222.11 182.037 221.7 181.905 221.256L177.268 205.744C176.263 203.596 176.152 201.138 176.956 198.908C177.761 196.678 179.417 194.858 181.561 193.847C183.706 192.835 186.163 192.715 188.396 193.512C190.629 194.31 192.454 195.959 193.473 198.1L202.44 211.643C202.696 212.03 202.866 212.467 202.938 212.925C203.009 213.383 202.981 213.851 202.856 214.297C202.731 214.743 202.51 215.157 202.21 215.511C201.911 215.864 201.538 216.149 201.118 216.346L186.363 223.253C185.943 223.449 185.485 223.553 185.022 223.557C184.558 223.561 184.099 223.465 183.676 223.275Z" fill="#20E2D7"/>
<path d="M103.645 128.107C103.325 129.109 103.228 130.168 103.362 131.212C103.496 132.255 103.856 133.256 104.419 134.145C104.981 135.034 105.732 135.788 106.617 136.356C107.503 136.923 108.502 137.289 109.545 137.429L147.429 190.893L158.48 179.819L117.766 130.747C117.885 128.98 117.35 127.232 116.265 125.832C115.18 124.433 113.619 123.48 111.879 123.155C110.138 122.829 108.339 123.154 106.821 124.066C105.304 124.979 104.174 126.417 103.645 128.107Z" fill="#FFB8B8"/>
<path d="M140.063 182.322L153.552 173.185C153.935 172.925 154.371 172.751 154.828 172.674C155.285 172.598 155.753 172.621 156.201 172.741C156.649 172.862 157.065 173.078 157.421 173.374C157.778 173.67 158.067 174.04 158.268 174.457L165.308 189.095C166.627 191.066 167.11 193.48 166.652 195.807C166.194 198.134 164.832 200.185 162.864 201.509C160.897 202.833 158.484 203.324 156.156 202.872C153.828 202.42 151.774 201.064 150.444 199.1L139.495 187.173C139.181 186.832 138.945 186.427 138.803 185.986C138.66 185.545 138.614 185.078 138.668 184.618C138.722 184.157 138.874 183.714 139.115 183.318C139.356 182.921 139.679 182.582 140.063 182.322V182.322Z" fill="#20E2D7"/>
<path d="M166.631 160.804C163.254 164.657 158.616 168.917 153.668 167.005C150.42 165.749 148.624 162.342 148.92 158.872C149.454 152.631 154.31 148.699 159.076 145.416C165.272 141.15 172.207 137.241 179.73 137.229C187.253 137.217 195.247 142.454 195.812 149.955C196.267 155.988 192.056 162.185 194.318 167.795C196.595 173.442 203.959 174.833 210.031 174.389C216.104 173.946 222.685 172.616 227.925 175.715C234.611 179.669 235.72 189.516 232.153 196.415C228.586 203.315 221.683 207.798 214.805 211.406C205.692 216.187 195.508 220.083 185.319 218.641C175.13 217.199 165.333 208.795 165.539 198.507C165.626 194.161 167.402 190.051 169.113 186.055C170.823 182.059 172.527 177.902 172.456 173.556C172.397 169.934 170.777 166.126 167.857 164.147C167.331 163.804 166.926 163.304 166.702 162.717C166.478 162.13 166.445 161.488 166.609 160.881L166.631 160.804Z" fill="#2F2E41"/>
<path d="M263.19 59.3331C273.361 59.3331 281.606 67.7032 281.606 78.0288C281.606 88.3544 273.361 96.7244 263.19 96.7244C253.018 96.7244 244.773 88.3544 244.773 78.0288C244.773 67.7032 253.018 59.3331 263.19 59.3331ZM263.19 62.1375C261.134 62.1375 259.098 62.5485 257.199 63.3471C255.3 64.1457 253.574 65.3163 252.12 66.7919C250.667 68.2676 249.514 70.0194 248.727 71.9474C247.94 73.8754 247.535 75.9419 247.535 78.0288C247.535 80.1156 247.94 82.1821 248.727 84.1101C249.514 86.0381 250.667 87.79 252.12 89.2656C253.574 90.7412 255.3 91.9118 257.199 92.7104C259.098 93.509 261.134 93.92 263.19 93.92C267.341 93.92 271.323 92.2458 274.259 89.2656C277.194 86.2854 278.844 82.2434 278.844 78.0288C278.844 73.8141 277.194 69.7721 274.259 66.7919C271.323 63.8117 267.341 62.1375 263.19 62.1375ZM263.19 79.889C264.289 79.889 265.343 80.3322 266.12 81.121C266.897 81.9099 267.333 82.9799 267.333 84.0955C267.333 85.2111 266.897 86.2811 266.12 87.07C265.343 87.8588 264.289 88.302 263.19 88.302C262.091 88.302 261.037 87.8588 260.259 87.07C259.482 86.2811 259.046 85.2111 259.046 84.0955C259.046 82.9799 259.482 81.9099 260.259 81.121C261.037 80.3322 262.091 79.889 263.19 79.889ZM257.665 71.9452C257.972 71.9364 258.279 71.9903 258.565 72.1037C258.852 72.2171 259.114 72.3877 259.334 72.6055C259.555 72.8233 259.73 73.0838 259.85 73.3717C259.97 73.6595 260.032 73.9688 260.032 74.2812C260.032 74.5937 259.97 74.903 259.85 75.1908C259.73 75.4786 259.555 75.7391 259.334 75.9569C259.114 76.1747 258.852 76.3453 258.565 76.4588C258.279 76.5722 257.972 76.6261 257.665 76.6172C257.054 76.6172 256.468 76.371 256.037 75.9328C255.605 75.4945 255.362 74.9001 255.362 74.2803C255.362 73.6605 255.605 73.0661 256.037 72.6278C256.468 72.1895 257.054 71.9433 257.665 71.9433V71.9452ZM268.715 71.9452C269.022 71.9364 269.328 71.9903 269.615 72.1037C269.902 72.2171 270.164 72.3877 270.384 72.6055C270.605 72.8233 270.78 73.0838 270.9 73.3717C271.02 73.6595 271.082 73.9688 271.082 74.2812C271.082 74.5937 271.02 74.903 270.9 75.1908C270.78 75.4786 270.605 75.7391 270.384 75.9569C270.164 76.1747 269.902 76.3453 269.615 76.4588C269.328 76.5722 269.022 76.6261 268.715 76.6172C268.115 76.6 267.547 76.3464 267.129 75.9102C266.711 75.4739 266.478 74.8896 266.478 74.2812C266.478 73.6729 266.711 73.0885 267.129 72.6523C267.547 72.2161 268.115 71.9624 268.715 71.9452Z" fill="url(#paint0_linear)"/>
<path d="M178.808 78.0176C188.982 78.0176 197.229 86.2645 197.229 96.4379C197.229 106.609 188.982 114.856 178.808 114.856C168.635 114.856 160.388 106.609 160.388 96.4379C160.388 86.2645 168.635 78.0176 178.808 78.0176ZM178.808 80.7801C176.738 80.7576 174.684 81.146 172.765 81.9228C170.845 82.6995 169.099 83.8492 167.627 85.3053C166.155 86.7614 164.987 88.495 164.189 90.4058C163.392 92.3165 162.981 94.3664 162.981 96.4369C162.981 98.5074 163.392 100.557 164.189 102.468C164.987 104.379 166.155 106.112 167.627 107.569C169.099 109.025 170.845 110.174 172.765 110.951C174.684 111.728 176.738 112.116 178.808 112.094C182.919 112.031 186.84 110.354 189.725 107.424C192.609 104.495 194.226 100.549 194.226 96.4379C194.226 92.3267 192.609 88.3806 189.725 85.4514C186.84 82.5222 182.919 80.845 178.808 80.7819V80.7801ZM178.808 99.1948C181.812 99.1948 184.628 100.401 186.693 102.502C186.935 102.766 187.065 103.114 187.055 103.472C187.046 103.83 186.898 104.171 186.642 104.422C186.386 104.673 186.043 104.814 185.685 104.817C185.327 104.82 184.981 104.683 184.722 104.436C183.951 103.65 183.031 103.026 182.015 102.6C181 102.175 179.909 101.957 178.808 101.959C177.705 101.957 176.612 102.177 175.595 102.605C174.578 103.032 173.657 103.659 172.886 104.449C172.759 104.579 172.607 104.682 172.441 104.753C172.274 104.824 172.094 104.862 171.913 104.864C171.731 104.866 171.551 104.832 171.383 104.764C171.215 104.696 171.061 104.596 170.932 104.469C170.802 104.342 170.699 104.191 170.628 104.024C170.556 103.857 170.519 103.678 170.517 103.497C170.515 103.315 170.549 103.135 170.617 102.967C170.684 102.798 170.784 102.645 170.911 102.515C171.94 101.463 173.168 100.627 174.524 100.057C175.881 99.4875 177.337 99.1948 178.808 99.1967V99.1948ZM173.283 90.4525C173.591 90.4438 173.897 90.4968 174.184 90.6086C174.471 90.7203 174.733 90.8884 174.953 91.1029C175.174 91.3175 175.349 91.5741 175.469 91.8576C175.589 92.1412 175.651 92.4458 175.651 92.7536C175.651 93.0614 175.589 93.3661 175.469 93.6496C175.349 93.9331 175.174 94.1897 174.953 94.4043C174.733 94.6188 174.471 94.7869 174.184 94.8987C173.897 95.0104 173.591 95.0635 173.283 95.0548C172.673 95.0548 172.087 94.8122 171.656 94.3805C171.224 93.9488 170.981 93.3632 170.981 92.7527C170.981 92.1421 171.224 91.5566 171.656 91.1249C172.087 90.6932 172.673 90.4506 173.283 90.4506V90.4525ZM184.333 90.4525C184.641 90.4438 184.947 90.4968 185.234 90.6086C185.521 90.7203 185.782 90.8884 186.003 91.1029C186.224 91.3175 186.399 91.5741 186.519 91.8576C186.639 92.1412 186.701 92.4458 186.701 92.7536C186.701 93.0614 186.639 93.3661 186.519 93.6496C186.399 93.9331 186.224 94.1897 186.003 94.4043C185.782 94.6188 185.521 94.7869 185.234 94.8987C184.947 95.0104 184.641 95.0635 184.333 95.0548C183.734 95.0378 183.166 94.7879 182.748 94.3582C182.33 93.9285 182.096 93.3529 182.096 92.7536C182.096 92.1543 182.33 91.5787 182.748 91.149C183.166 90.7193 183.734 90.4694 184.333 90.4525Z" fill="url(#paint1_linear)"/>
<path d="M109.495 30.8177C119.823 30.8177 128.195 39.0647 128.195 49.238C128.195 59.4095 119.823 67.6565 109.495 67.6565C99.1678 67.6565 90.7959 59.4095 90.7959 49.238C90.7959 39.0647 99.1678 30.8177 109.495 30.8177ZM109.495 33.5802C107.394 33.5578 105.308 33.9462 103.36 34.7229C101.411 35.4997 99.6388 36.6494 98.1445 38.1055C96.6502 39.5616 95.464 41.2952 94.6543 43.2059C93.8447 45.1167 93.4279 47.1666 93.4279 49.2371C93.4279 51.3076 93.8447 53.3575 94.6543 55.2683C95.464 57.179 96.6502 58.9126 98.1445 60.3687C99.6388 61.8248 101.411 62.9745 103.36 63.7513C105.308 64.528 107.394 64.9164 109.495 64.894C113.668 64.8309 117.649 63.1537 120.577 60.2245C123.505 57.2953 125.147 53.3491 125.147 49.238C125.147 45.1269 123.505 41.1807 120.577 38.2515C117.649 35.3223 113.668 33.6451 109.495 33.5821V33.5802ZM102.881 54.3634C103.667 55.3505 104.672 56.1484 105.818 56.6966C106.964 57.2447 108.221 57.5288 109.495 57.5273C110.768 57.5287 112.024 57.2453 113.169 56.6985C114.314 56.1516 115.317 55.3557 116.104 54.3707C116.335 54.0833 116.672 53.8978 117.041 53.8552C117.411 53.8125 117.782 53.9162 118.074 54.1433C118.366 54.3704 118.554 54.7024 118.597 55.0663C118.64 55.4301 118.535 55.796 118.305 56.0835C117.255 57.3958 115.917 58.4563 114.391 59.1849C112.865 59.9136 111.191 60.2914 109.495 60.2898C107.797 60.2912 106.121 59.9122 104.594 59.1816C103.066 58.4509 101.727 57.3878 100.678 56.0724C100.458 55.7839 100.361 55.422 100.409 55.064C100.456 54.7061 100.644 54.3806 100.931 54.1572C101.219 53.9338 101.584 53.8303 101.949 53.8689C102.313 53.9074 102.648 54.0849 102.881 54.3634ZM103.887 43.2508C104.199 43.2421 104.51 43.2952 104.801 43.4069C105.092 43.5186 105.358 43.6867 105.582 43.9013C105.806 44.1158 105.984 44.3724 106.105 44.656C106.227 44.9395 106.29 45.2442 106.29 45.5519C106.29 45.8597 106.227 46.1644 106.105 46.4479C105.984 46.7314 105.806 46.9881 105.582 47.2026C105.358 47.4172 105.092 47.5853 104.801 47.697C104.51 47.8087 104.199 47.8618 103.887 47.8531C103.278 47.8361 102.701 47.5863 102.277 47.1566C101.853 46.7269 101.616 46.1512 101.616 45.5519C101.616 44.9527 101.853 44.377 102.277 43.9473C102.701 43.5176 103.278 43.2677 103.887 43.2508ZM115.104 43.2508C115.416 43.2421 115.727 43.2952 116.018 43.4069C116.31 43.5186 116.575 43.6867 116.799 43.9013C117.023 44.1158 117.201 44.3724 117.323 44.656C117.444 44.9395 117.507 45.2442 117.507 45.5519C117.507 45.8597 117.444 46.1644 117.323 46.4479C117.201 46.7314 117.023 46.9881 116.799 47.2026C116.575 47.4172 116.31 47.5853 116.018 47.697C115.727 47.8087 115.416 47.8618 115.104 47.8531C114.496 47.8361 113.918 47.5863 113.494 47.1566C113.07 46.7269 112.833 46.1512 112.833 45.5519C112.833 44.9527 113.07 44.377 113.494 43.9473C113.918 43.5176 114.496 43.2677 115.104 43.2508Z" fill="url(#paint2_linear)"/>
</g>
<defs>
<linearGradient id="paint0_linear" x1="263.19" y1="21.6416" x2="263.19" y2="106.74" gradientUnits="userSpaceOnUse">
<stop stop-color="#F9FEA5"/>
<stop offset="0.489583" stop-color="#96FBC4"/>
<stop offset="1" stop-color="#20E2D7"/>
</linearGradient>
<linearGradient id="paint1_linear" x1="178.808" y1="40.883" x2="178.808" y2="124.724" gradientUnits="userSpaceOnUse">
<stop stop-color="#F9FEA5"/>
<stop offset="0.489583" stop-color="#96FBC4"/>
<stop offset="1" stop-color="#20E2D7"/>
</linearGradient>
<linearGradient id="paint2_linear" x1="109.495" y1="-6.31681" x2="109.495" y2="77.524" gradientUnits="userSpaceOnUse">
<stop stop-color="#F9FEA5"/>
<stop offset="0.489583" stop-color="#96FBC4"/>
<stop offset="1" stop-color="#20E2D7"/>
</linearGradient>
<clipPath id="clip0">
<rect width="302.454" height="399.138" fill="white"/>
</clipPath>
</defs>
</svg>
