<svg width="242" height="89" viewBox="0 0 242 89" fill="none" xmlns="http://www.w3.org/2000/svg">
<g filter="url(#filter0_d)">
<rect x="16" y="12" width="210" height="57" rx="28.5" fill="#20E2D7"/>
<path d="M89.0527 33.8164V34.9414H81.1777V33.8164H84.4824V32.0059H85.7832V33.8164H89.0527ZM86.9785 37.8242L85.9062 37.5781C86.3633 36.5469 86.6621 35.6797 86.8027 34.9766L88.0332 35.2578C87.5645 36.5 87.2129 37.3555 86.9785 37.8242ZM84.0605 37.5605L82.9531 37.877C82.8711 37.0801 82.6367 36.2129 82.25 35.2754L83.2871 35.0117C83.6855 35.8672 83.9434 36.7168 84.0605 37.5605ZM88.6133 44.7852L87.8223 45.7695C87.4355 45.3242 86.7559 44.6562 85.7832 43.7656V48.3359H84.4824V43.5898C83.5449 45.0664 82.543 46.2266 81.4766 47.0703C81.207 46.6953 80.9082 46.373 80.5801 46.1035C81.6465 45.4121 82.6602 44.3691 83.6211 42.9746C83.832 42.6582 84.0254 42.3477 84.2012 42.043H80.9668V40.918H84.4824V39.0195H80.9141V37.8945H89.2637V39.0195H85.7832V40.918H89.123V42.043H85.7832V42.4824C86.7324 43.1855 87.6465 43.9297 88.5254 44.7148C88.5605 44.7383 88.5898 44.7617 88.6133 44.7852ZM97.209 37.9648V39.2305H95.1875V48.2656H93.8867V39.2305H91.1973V39.6699C91.1973 43.3145 90.3945 46.0801 88.7891 47.9668C88.6367 48.1426 88.4844 48.3066 88.332 48.459C88.168 48.1777 87.8926 47.8965 87.5059 47.6152C87.459 47.5801 87.418 47.5508 87.3828 47.5273C88.918 46.0273 89.75 43.8184 89.8789 40.9004C89.9023 40.5254 89.9141 40.1094 89.9141 39.6523V33.3945L90.8984 33.6934C93.1602 33.1895 94.8242 32.6738 95.8906 32.1465L96.9805 33.1484C95.75 33.6992 93.8223 34.2383 91.1973 34.7656V37.9648H97.209ZM107.193 34.5371C107.064 34.2559 106.883 33.916 106.648 33.5176C106.414 33.1309 106.18 32.7793 105.945 32.4629L107.053 31.9883C107.311 32.293 107.562 32.627 107.809 32.9902C108.043 33.3652 108.225 33.6934 108.354 33.9746L107.193 34.5371H110.375C110.516 34.3613 110.656 34.1621 110.797 33.9395C110.938 33.7168 111.078 33.4824 111.219 33.2363L111.605 32.5332C111.723 32.3105 111.822 32.0996 111.904 31.9004L113.275 32.3926C113.029 32.7559 112.777 33.125 112.52 33.5C112.25 33.875 111.998 34.2207 111.764 34.5371H114.225V40.4434H104.68V34.5371H107.193ZM112.098 47.457H106.859V48.3008H105.611V41.5684H113.381V48.3008H112.098V47.457ZM99.2305 45.9277L98.791 44.5918C99.0957 44.498 99.4297 44.3867 99.793 44.2578C100.145 44.1406 100.525 44.0117 100.936 43.8711V37.543H99.002V36.2949H100.936V32.1465H102.166V36.2949H103.941V37.543H102.166V43.4141L103.959 42.7461L104.205 43.9414C103.338 44.293 102.471 44.6387 101.604 44.9785C100.736 45.3301 99.9453 45.6465 99.2305 45.9277ZM108.934 39.4941V35.4863H105.805V39.4941H108.934ZM113.064 39.4941V35.4863H109.988V39.4941H113.064ZM112.098 42.5879H106.859V44.082H112.098V42.5879ZM112.098 45.0664H106.859V46.4199H112.098V45.0664ZM111.131 37.332C111.26 37.0977 111.383 36.8633 111.5 36.6289C111.605 36.4062 111.693 36.2012 111.764 36.0137L112.678 36.3477C112.408 36.793 112.133 37.25 111.852 37.7188C111.57 38.1875 111.301 38.5801 111.043 38.8965L110.357 38.5977C110.475 38.4219 110.604 38.2227 110.744 38C110.873 37.7891 111.002 37.5664 111.131 37.332ZM106.35 36.2949L107.123 36.0137C107.264 36.2012 107.398 36.4062 107.527 36.6289C107.656 36.8516 107.779 37.0742 107.896 37.2969C108.002 37.5195 108.102 37.7305 108.195 37.9297C108.277 38.1406 108.342 38.334 108.389 38.5098L107.58 38.8613C107.533 38.6855 107.469 38.4922 107.387 38.2812C107.305 38.0703 107.211 37.8477 107.105 37.6133C107 37.3906 106.883 37.1621 106.754 36.9277C106.625 36.7051 106.49 36.4941 106.35 36.2949ZM128.955 38.3867L130.133 37.7891C131.41 39.418 132.4 41.1875 133.104 43.0977C133.279 43.5781 133.414 44.0234 133.508 44.4336L132.207 45.0488C131.855 43.5137 131.117 41.8086 129.992 39.9336C129.652 39.3711 129.307 38.8555 128.955 38.3867ZM118.514 38.3867L119.814 38.6328C119.428 41.8789 118.719 44.1992 117.688 45.5938L116.492 44.8555C117.547 43.4844 118.221 41.3281 118.514 38.3867ZM121.66 33.043L122.504 32.0234C124.367 32.6445 126.225 33.5176 128.076 34.6426C128.287 34.7598 128.48 34.877 128.656 34.9941L127.812 36.1719C126.5 35.2227 124.848 34.332 122.855 33.5C122.434 33.3242 122.035 33.1719 121.66 33.043ZM121.52 36.9277H122.873V45.9277C122.873 46.4082 122.99 46.7012 123.225 46.8066C123.4 46.877 123.682 46.9121 124.068 46.9121H127.373C127.865 46.9121 128.193 46.7188 128.357 46.332C128.545 45.8867 128.68 44.8262 128.762 43.1504C129.102 43.4434 129.518 43.6484 130.01 43.7656C129.916 45.6172 129.682 46.8184 129.307 47.3691C128.943 47.8848 128.322 48.1426 127.443 48.1426H123.963C122.885 48.1426 122.188 47.9316 121.871 47.5098C121.637 47.1816 121.52 46.6484 121.52 45.9102V36.9277ZM134.545 39.8984C134.65 39.5938 134.744 39.2539 134.826 38.8789C134.92 38.4922 135.002 38.0938 135.072 37.6836C135.143 37.2617 135.201 36.8457 135.248 36.4355C135.295 36.0254 135.336 35.6387 135.371 35.2754L136.373 35.416C136.361 35.7676 136.332 36.1543 136.285 36.5762C136.238 36.998 136.18 37.4258 136.109 37.8594C136.039 38.2812 135.963 38.7031 135.881 39.125C135.799 39.5352 135.705 39.9102 135.6 40.25L134.545 39.8984ZM136.777 31.8301H138.025V48.3359H136.777V31.8301ZM139.045 34.4668C139.15 34.666 139.25 34.8828 139.344 35.1172C139.449 35.3398 139.543 35.5625 139.625 35.7852C139.719 36.0078 139.801 36.2246 139.871 36.4355C139.953 36.6465 140.012 36.834 140.047 36.998L139.115 37.4727C139.08 37.2969 139.027 37.1035 138.957 36.8926C138.887 36.6699 138.811 36.4414 138.729 36.207C138.646 35.9727 138.553 35.7383 138.447 35.5039C138.354 35.2578 138.26 35.0293 138.166 34.8184L139.045 34.4668ZM148.572 44.5215V43.1328H142.051V44.5215H148.572ZM142.051 40.7598V42.1309H148.572V40.7598H142.051ZM149.855 46.8418C149.855 47.1816 149.809 47.4453 149.715 47.6328C149.633 47.8203 149.463 47.9668 149.205 48.0723C148.994 48.1543 148.73 48.207 148.414 48.2305C148.109 48.2539 147.729 48.2656 147.271 48.2656H146.621C146.586 48.1016 146.533 47.9082 146.463 47.6855C146.404 47.4746 146.328 47.2812 146.234 47.1055C146.504 47.1172 146.762 47.123 147.008 47.123C147.254 47.1348 147.477 47.1406 147.676 47.1406C147.805 47.1406 147.916 47.1348 148.01 47.123C148.115 47.123 148.191 47.123 148.238 47.123C148.367 47.123 148.455 47.0996 148.502 47.0527C148.549 47.0176 148.572 46.9355 148.572 46.8066V45.5059H142.051V48.3359H140.785V39.7227H149.855V46.8418ZM151.262 37.6484V38.6855H139.502V37.6484H144.67V36.3828H140.469V35.416H144.67V34.2734H140.047V33.2363H144.67V31.8301H145.988V33.2363H150.752V34.2734H145.988V35.416H150.295V36.3828H145.988V37.6484H151.262ZM156.588 45.6816H165.518V40.6719H156.588V45.6816ZM165.518 34.4844H156.588V39.3535H165.518V34.4844ZM155.234 33.1836H166.924V48.0898H165.518V47H156.588V48.1777H155.234V33.1836ZM177.26 32.5684V33.6406H171.688V32.5684H177.26ZM175.924 43.2383H172.777V46.2617H175.924V43.2383ZM177.137 42.1484V47.334H172.777V48.1777H171.582V42.1484H177.137ZM171.6 40.8125V39.7227H177.189V40.8125H171.6ZM171.6 38.4219V37.3496H177.189V38.4219H171.6ZM170.756 36.0137V34.9238H177.84V36.0137H170.756ZM181.391 46.9121H184.801C185.258 46.9121 185.557 46.7539 185.697 46.4375C185.85 46.0859 185.955 45.2539 186.014 43.9414C186.354 44.1992 186.775 44.3867 187.279 44.5039C187.174 46.0977 186.934 47.123 186.559 47.5801C186.23 47.9785 185.674 48.1777 184.889 48.1777H181.285C180.219 48.1777 179.533 47.9844 179.229 47.5977C178.994 47.2812 178.877 46.7715 178.877 46.0684V38.7734H184.994V34.2207H178.684V32.9551H186.33V41.041H184.994V40.0566H180.23V46.0684C180.23 46.4785 180.336 46.7246 180.547 46.8066C180.711 46.877 180.992 46.9121 181.391 46.9121Z" fill="white"/>
<path d="M69.2075 35.2463L64.2125 29.6213C64.1073 29.5047 63.9789 29.4115 63.8355 29.3476C63.6922 29.2836 63.537 29.2504 63.38 29.25H54.38C54.0062 29.2456 53.6352 29.3148 53.2882 29.4537C52.9412 29.5926 52.6249 29.7986 52.3575 30.0597C52.09 30.3209 51.8766 30.6322 51.7295 30.9758C51.5824 31.3195 51.5044 31.6887 51.5 32.0625V48.9375C51.5044 49.3113 51.5824 49.6806 51.7295 50.0242C51.8766 50.3678 52.09 50.6791 52.3575 50.9403C52.6249 51.2015 52.9412 51.4074 53.2882 51.5463C53.6352 51.6853 54.0062 51.7545 54.38 51.75H66.62C66.9938 51.7545 67.3648 51.6853 67.7118 51.5463C68.0588 51.4074 68.3751 51.2015 68.6425 50.9403C68.91 50.6791 69.1234 50.3678 69.2705 50.0242C69.4176 49.6806 69.4956 49.3113 69.5 48.9375V36C69.4993 35.7212 69.395 35.4526 69.2075 35.2463ZM62.75 43.875H61.625V45C61.625 45.2984 61.5065 45.5845 61.2955 45.7955C61.0845 46.0065 60.7984 46.125 60.5 46.125C60.2016 46.125 59.9155 46.0065 59.7045 45.7955C59.4935 45.5845 59.375 45.2984 59.375 45V43.875H58.25C57.9516 43.875 57.6655 43.7565 57.4545 43.5455C57.2435 43.3345 57.125 43.0484 57.125 42.75C57.125 42.4517 57.2435 42.1655 57.4545 41.9545C57.6655 41.7435 57.9516 41.625 58.25 41.625H59.375V40.5C59.375 40.2017 59.4935 39.9155 59.7045 39.7045C59.9155 39.4935 60.2016 39.375 60.5 39.375C60.7984 39.375 61.0845 39.4935 61.2955 39.7045C61.5065 39.9155 61.625 40.2017 61.625 40.5V41.625H62.75C63.0484 41.625 63.3345 41.7435 63.5455 41.9545C63.7565 42.1655 63.875 42.4517 63.875 42.75C63.875 43.0484 63.7565 43.3345 63.5455 43.5455C63.3345 43.7565 63.0484 43.875 62.75 43.875ZM63.5487 36C63.3168 35.9772 63.1031 35.8642 62.9537 35.6853C62.8043 35.5064 62.7312 35.2761 62.75 35.0438V31.5L66.9575 36H63.5487Z" fill="white"/>
</g>
<defs>
<filter id="filter0_d" x="0" y="0" width="242" height="89" filterUnits="userSpaceOnUse" color-interpolation-filters="sRGB">
<feFlood flood-opacity="0" result="BackgroundImageFix"/>
<feColorMatrix in="SourceAlpha" type="matrix" values="0 0 0 0 0 0 0 0 0 0 0 0 0 0 0 0 0 0 127 0"/>
<feMorphology radius="1" operator="erode" in="SourceAlpha" result="effect1_dropShadow"/>
<feOffset dy="4"/>
<feGaussianBlur stdDeviation="8.5"/>
<feColorMatrix type="matrix" values="0 0 0 0 0.418594 0 0 0 0 0.7125 0 0 0 0 0.695835 0 0 0 0.51 0"/>
<feBlend mode="normal" in2="BackgroundImageFix" result="effect1_dropShadow"/>
<feBlend mode="normal" in="SourceGraphic" in2="effect1_dropShadow" result="shape"/>
</filter>
</defs>
</svg>
