<svg width="155" height="159" viewBox="0 0 155 159" fill="none" xmlns="http://www.w3.org/2000/svg">
<path d="M126.937 43.8416C126.937 43.8416 124.032 45.5162 124.925 47.8607C124.925 47.8607 127.943 48.7539 129.172 50.9867C130.401 53.2196 139.899 61.2579 139.899 61.2579L146.827 57.7969C146.827 57.7969 144.417 54.5825 136.795 52.338C136.795 52.338 132.301 47.5258 130.736 46.6326C129.172 45.7395 126.937 43.8416 126.937 43.8416Z" fill="#CBCDDA"/>
<path opacity="0.05" d="M126.937 43.8416C126.937 43.8416 124.032 45.5162 124.925 47.8607C124.925 47.8607 127.943 48.7539 129.172 50.9867C130.401 53.2196 139.899 61.2579 139.899 61.2579L146.827 57.7969C146.827 57.7969 144.417 54.5825 136.795 52.338C136.795 52.338 132.301 47.5258 130.736 46.6326C129.172 45.7395 126.937 43.8416 126.937 43.8416Z" fill="black"/>
<path opacity="0.1" d="M26.4886 150.713C24.9968 151.081 23.4363 150.651 21.8998 150.633C20.3632 150.615 18.5706 151.26 18.194 152.749C17.6882 154.748 20.0274 156.255 22.0302 156.753C29.8036 158.686 38.0324 156.177 45.9773 157.2C49.3253 157.632 52.5811 158.687 55.9474 158.938C63.6524 159.514 71.1807 155.853 78.8962 156.266C82.7616 156.473 86.5186 157.699 90.3845 157.896C99.6342 158.367 108.76 152.942 117.815 154.886C120.371 155.434 122.772 156.554 125.306 157.202C131.711 158.84 138.454 157.38 144.902 155.919C146.182 155.628 147.725 155.064 147.883 153.762C148.057 152.325 146.406 151.424 145.032 150.965C130.009 145.945 113.924 143.285 98.2539 145.606C94.6879 146.134 91.1321 146.918 87.5275 146.866C79.5494 146.752 72.2182 142.594 64.3858 141.073C49.5447 138.191 34.706 144.914 21.0817 151.463" fill="#20E2D7"/>
<path d="M47.0583 108.116H42.5149V146.493C42.5149 146.493 71.8401 155.984 100.339 146.493V108.116H47.0583Z" fill="#3F3D56"/>
<path d="M71.0141 112.655C86.7537 112.655 99.5133 110.715 99.5133 108.322C99.5133 105.929 86.7537 103.989 71.0141 103.989C55.2744 103.989 42.5149 105.929 42.5149 108.322C42.5149 110.715 55.2744 112.655 71.0141 112.655Z" fill="#3F3D56"/>
<path opacity="0.1" d="M71.0141 112.655C86.7537 112.655 99.5133 110.715 99.5133 108.322C99.5133 105.929 86.7537 103.989 71.0141 103.989C55.2744 103.989 42.5149 105.929 42.5149 108.322C42.5149 110.715 55.2744 112.655 71.0141 112.655Z" fill="black"/>
<path d="M104.143 62.2639C96.9531 88.816 72.3278 105.26 72.3278 105.26C72.3278 105.26 59.3588 78.6553 66.5482 52.1032C73.7376 25.5511 98.3629 9.10669 98.3629 9.10669C98.3629 9.10669 111.332 35.7118 104.143 62.2639Z" fill="#3F3D56"/>
<path d="M38.739 62.2639C45.9284 88.816 70.5537 105.26 70.5537 105.26C70.5537 105.26 83.5228 78.6553 76.3334 52.1032C69.144 25.5511 44.5186 9.10669 44.5186 9.10669C44.5186 9.10669 31.5496 35.7118 38.739 62.2639Z" fill="#20E2D7"/>
<path d="M49.3033 56.5575C69.0312 75.7443 71.4408 105.239 71.4408 105.239C71.4408 105.239 41.8653 103.625 22.1374 84.4386C2.40961 65.2519 0 35.7574 0 35.7574C0 35.7574 29.5755 37.3708 49.3033 56.5575Z" fill="#3F3D56"/>
<path d="M93.5782 56.5575C73.8504 75.7443 71.4408 105.239 71.4408 105.239C71.4408 105.239 101.016 103.625 120.744 84.4386C140.472 65.2519 142.882 35.7574 142.882 35.7574C142.882 35.7574 113.306 37.3708 93.5782 56.5575Z" fill="#3F3D56"/>
<path d="M71.4271 18.1568C76.4456 18.1568 80.5138 14.0923 80.5138 9.07841C80.5138 4.06454 76.4456 0 71.4271 0C66.4087 0 62.3404 4.06454 62.3404 9.07841C62.3404 14.0923 66.4087 18.1568 71.4271 18.1568Z" fill="#20E2D7"/>
<path d="M17.0136 73.3698C17.6579 75.7056 19.8964 77.1266 19.8964 77.1266C19.8964 77.1266 21.0902 74.7606 20.4459 72.4248C19.8017 70.089 17.5632 68.668 17.5632 68.668C17.5632 68.668 16.3693 71.034 17.0136 73.3698Z" fill="#20E2D7"/>
<path d="M29.0733 86.3784C28.3798 88.7 29.5233 91.0907 29.5233 91.0907C29.5233 91.0907 31.7913 89.7172 32.4848 87.3956C33.1783 85.0739 32.0348 82.6832 32.0348 82.6832C32.0348 82.6832 29.7668 84.0567 29.0733 86.3784Z" fill="#20E2D7"/>
<path d="M116.058 101.313C114.356 103.039 114.244 105.686 114.244 105.686C114.244 105.686 116.892 105.536 118.594 103.81C120.296 102.084 120.408 99.4369 120.408 99.4369C120.408 99.4369 117.761 99.5876 116.058 101.313Z" fill="#20E2D7"/>
<path d="M145.04 139.073C145.04 139.073 145.375 143.985 145.934 144.544C146.492 145.102 140.905 145.437 140.905 145.437L141.687 139.073H145.04Z" fill="#FFB9B9"/>
<path opacity="0.05" d="M145.04 139.073C145.04 139.073 145.375 143.985 145.934 144.544C146.492 145.102 140.905 145.437 140.905 145.437L141.687 139.073H145.04Z" fill="black"/>
<path d="M146.269 142.869C146.269 142.869 145.487 142.869 142.693 144.32C142.693 144.32 140.793 143.985 140.011 141.306C140.011 141.306 137.664 145.325 136.1 145.548C134.536 145.772 131.518 145.995 133.53 148.674C135.541 151.354 147.386 150.126 147.386 150.126C147.386 150.126 147.721 143.65 146.269 142.869Z" fill="#CBCDDA"/>
<path opacity="0.05" d="M146.269 142.869C146.269 142.869 145.487 142.869 142.693 144.32C142.693 144.32 140.793 143.985 140.011 141.306C140.011 141.306 137.664 145.325 136.1 145.548C134.536 145.772 131.518 145.995 133.53 148.674C135.541 151.354 147.386 150.126 147.386 150.126C147.386 150.126 147.721 143.65 146.269 142.869Z" fill="black"/>
<path d="M144.593 146.665L143.81 148.786L138.67 147.335L138.963 145.229L139.033 144.721L139.229 143.316C139.229 143.316 143.587 142.199 143.587 142.757C143.646 143.218 143.741 143.672 143.873 144.117C144.052 144.804 144.276 145.586 144.427 146.101C144.526 146.442 144.593 146.665 144.593 146.665Z" fill="#FFB9B9"/>
<path d="M141.788 117.548C141.436 118.143 141.037 119.26 141.778 120.655C141.997 121.059 142.267 121.433 142.581 121.768C145.04 124.448 145.71 130.477 145.71 130.477V140.19L144.034 140.318L141.352 140.524L137.329 124.001C137.329 124.001 134.983 111.944 136.1 109.823C137.217 107.701 138.223 94.4159 138.223 94.4159L139.151 93.4557L141.352 91.1782H147.721C148.231 91.5435 148.654 92.0161 148.961 92.5626C150.03 94.331 150.99 98.0085 148.057 104.799C143.475 115.405 142.134 117.079 142.134 117.079C142.001 117.222 141.885 117.379 141.788 117.548Z" fill="#4C4C78"/>
<path opacity="0.05" d="M141.788 117.548C141.436 118.143 141.037 119.26 141.778 120.655C141.997 121.059 142.267 121.433 142.581 121.768C145.04 124.448 145.71 130.477 145.71 130.477V140.19L144.034 140.318L141.352 140.524L137.329 124.001C137.329 124.001 134.983 111.944 136.1 109.823C137.217 107.701 138.223 94.4159 138.223 94.4159L139.151 93.4557L141.352 91.1782H147.721C148.231 91.5435 148.654 92.0161 148.961 92.5626C150.03 94.331 150.99 98.0085 148.057 104.799C143.475 115.405 142.134 117.079 142.134 117.079C142.001 117.222 141.885 117.379 141.788 117.548Z" fill="black"/>
<path opacity="0.1" d="M143.873 144.117L139.033 144.721L139.229 143.316C139.229 143.316 143.587 142.199 143.587 142.757C143.646 143.218 143.741 143.672 143.873 144.117Z" fill="black"/>
<path d="M141.464 103.236C141.464 103.236 141.742 112.024 141.788 117.548C141.798 118.798 141.797 119.881 141.778 120.655C141.784 121.065 141.754 121.475 141.687 121.88C141.352 122.885 142.022 125.118 142.022 125.118C144.816 132.486 144.034 138.961 144.034 138.961V143.874L138.67 144.544C138.67 144.544 139.564 143.874 137.106 137.398C135.693 133.678 135.387 130.033 135.383 127.604C135.369 126.274 135.103 124.959 134.598 123.729C134.443 123.314 134.347 122.88 134.312 122.438C134.089 120.205 133.083 117.414 133.083 117.414C133.083 117.414 130.401 109.488 129.73 103.682C129.421 100.919 129.473 98.1269 129.886 95.3771C129.985 94.6781 130.119 93.9846 130.289 93.2994C130.289 93.2994 141.213 86.4311 145.338 91.1782C145.735 91.6426 146.05 92.1711 146.269 92.7412C146.495 93.3043 146.672 93.8864 146.796 94.4806C148.08 100.781 141.464 103.236 141.464 103.236Z" fill="#4C4C78"/>
<path d="M141.129 54.336C144.276 54.336 146.827 51.7868 146.827 48.6422C146.827 45.4976 144.276 42.9484 141.129 42.9484C137.981 42.9484 135.43 45.4976 135.43 48.6422C135.43 51.7868 137.981 54.336 141.129 54.336Z" fill="#FFB9B9"/>
<path d="M138 52.2148C138 52.2148 140.346 58.8017 138 62.2627C135.653 65.7236 145.487 64.6072 145.487 64.6072L149.286 60.0298C149.286 60.0298 144.816 60.0298 144.593 52.2148C144.369 44.3998 138 52.2148 138 52.2148Z" fill="#FFB9B9"/>
<path opacity="0.1" d="M149.286 93.8576C148.476 94.1376 147.643 94.346 146.796 94.4806C145.405 94.695 143.763 94.7028 142.805 93.8576C142.236 93.3564 140.835 93.2949 139.151 93.4557C135.604 93.7951 130.803 95.117 129.886 95.3771C129.985 94.6781 130.119 93.9847 130.289 93.2994C130.289 93.2994 141.213 86.4311 145.338 91.1782H147.721C148.231 91.5434 148.654 92.016 148.961 92.5626C149.166 93.4512 149.286 93.8576 149.286 93.8576Z" fill="black"/>
<path opacity="0.1" d="M144.593 146.665L143.81 148.786L138.67 147.335L138.963 145.229C139.846 147.181 141.352 147.446 141.352 147.446C142.977 146.602 143.921 146.25 144.427 146.101C144.526 146.442 144.593 146.665 144.593 146.665Z" fill="black"/>
<path d="M144.928 146.107C144.928 146.107 144.146 146.107 141.352 147.558C141.352 147.558 139.452 147.223 138.67 144.544C138.67 144.544 136.323 148.563 134.759 148.786C133.195 149.009 130.177 149.233 132.189 151.912C134.2 154.591 146.045 153.363 146.045 153.363C146.045 153.363 146.381 146.888 144.928 146.107Z" fill="#CBCDDA"/>
<path d="M118.417 49.7326C118.417 49.7326 118.635 45.3844 123.209 45.81C123.337 45.8221 123.46 45.8656 123.567 45.9366C123.674 46.0076 123.762 46.1039 123.823 46.217C123.884 46.3302 123.917 46.4566 123.917 46.5851C123.917 46.7136 123.886 46.8402 123.826 46.9537L122.888 48.7173L118.417 49.7326Z" fill="#FFB9B9"/>
<path d="M144.816 61.3694C144.816 61.3694 139.341 60.4763 137.888 59.3598C137.888 59.3598 136.77 61.4811 134.759 60.3646C132.748 59.2482 128.054 59.3598 128.054 59.3598C128.054 59.3598 124.143 57.2386 123.361 52.438C123.361 52.438 122.579 49.5353 122.802 48.7538C122.802 48.7538 119.897 45.7394 118.444 49.7585C119.003 52.5496 119.45 52.3263 119.338 54.5592L121.126 59.4715C121.126 59.4715 121.238 61.1461 124.479 63.379C127.719 65.6119 131.407 69.0728 131.407 69.0728C131.407 69.0728 129.451 70.1334 130.178 74.9899C131.065 80.9258 129.731 89.3918 129.731 89.3918V94.8624C129.731 94.8624 140.905 91.6247 142.805 93.2993C144.704 94.974 149.286 93.2993 149.286 93.2993C149.286 93.2993 148.727 91.4014 147.945 86.8241C147.163 82.2467 148.057 77.781 148.057 77.781C148.057 77.781 150.962 70.0776 152.303 66.9516C153.644 63.8256 151.297 59.5831 148.951 58.0201C146.604 56.4571 145.73 57.3955 145.73 57.3955C145.73 57.3955 149.845 60.3646 144.816 61.3694Z" fill="#CBCDDA"/>
<path opacity="0.1" d="M134.965 47.2497C134.963 47.4821 135.002 47.713 135.081 47.9317C135.211 48.1807 135.389 48.4017 135.605 48.5823C136.442 49.3993 137.176 50.3702 137.47 51.5016C137.67 52.2676 137.659 53.0703 137.647 53.8617C137.598 57.0673 137.464 60.5272 135.482 63.0487C134.754 63.9754 133.818 64.7124 132.938 65.4966C132.815 65.5867 132.722 65.7112 132.67 65.8543C132.646 66.0068 132.675 66.1628 132.753 66.2962C133.161 67.1448 134.023 67.6652 134.838 68.1375C135.211 68.3534 135.603 68.5752 136.034 68.5891C137.05 68.622 137.721 67.5497 138.646 67.1279C139.992 66.5138 141.503 67.3685 142.839 68.004C143.807 68.4642 144.822 68.8179 145.866 69.0587C147.296 69.3883 148.913 69.4693 150.117 68.6307C150.814 68.1408 151.289 67.3972 151.442 66.5603C151.538 66.0147 151.523 65.3815 151.937 65.0121C152.15 64.8218 152.44 64.7428 152.671 64.5741C153.028 64.3125 153.198 63.8723 153.35 63.4566L154.727 59.6964C154.904 59.299 154.996 58.8687 154.996 58.4335C154.93 57.5281 154.094 56.8708 153.255 56.5227C152.416 56.1746 151.488 56.003 150.75 55.4733C149.502 54.5776 149.117 52.9048 149.005 51.3738C148.928 50.3223 148.935 49.2664 149.027 48.2161C149.163 46.6586 149.468 45.0001 148.775 43.5985C148.034 42.1016 146.372 41.3373 144.834 40.6852C144.243 40.4348 143.636 40.1806 142.995 40.1523C142.317 40.1224 141.656 40.3477 141.014 40.57C139.995 40.9232 138.96 41.3806 137.907 41.6202C137.316 41.7548 136.668 41.6541 136.098 41.8678C134.003 42.653 134.965 45.5642 134.965 47.2497Z" fill="black"/>
<path d="M134.965 47.0264C134.963 47.2588 135.002 47.4897 135.081 47.7084C135.211 47.9574 135.389 48.1784 135.605 48.359C136.442 49.176 137.176 50.147 137.47 51.2783C137.67 52.0443 137.659 52.847 137.647 53.6384C137.598 56.844 137.464 60.3039 135.482 62.8254C134.754 63.7521 133.818 64.4891 132.938 65.2733C132.815 65.3634 132.722 65.4879 132.67 65.631C132.646 65.7835 132.675 65.9396 132.753 66.0729C133.161 66.9215 134.023 67.4419 134.838 67.9142C135.211 68.1301 135.603 68.3519 136.034 68.3658C137.05 68.3987 137.721 67.3264 138.646 66.9046C139.992 66.2905 141.503 67.1452 142.839 67.7807C143.807 68.2409 144.822 68.5946 145.866 68.8354C147.296 69.1651 148.913 69.246 150.117 68.4074C150.814 67.9175 151.289 67.174 151.442 66.337C151.538 65.7915 151.523 65.1582 151.937 64.7888C152.15 64.5985 152.44 64.5195 152.671 64.3508C153.028 64.0892 153.198 63.649 153.35 63.2333L154.727 59.4731C154.904 59.0758 154.996 58.6454 154.996 58.2102C154.93 57.3048 154.094 56.6476 153.255 56.2994C152.416 55.9513 151.488 55.7797 150.75 55.25C149.502 54.3543 149.117 52.6815 149.005 51.1505C148.928 50.0991 148.935 49.0431 149.027 47.9928C149.163 46.4353 149.468 44.7768 148.775 43.3752C148.034 41.8784 146.372 41.1141 144.834 40.4619C144.243 40.2115 143.636 39.9574 142.995 39.9291C142.317 39.8992 141.656 40.1244 141.014 40.3467C139.995 40.6999 138.96 41.1573 137.907 41.3969C137.316 41.5315 136.668 41.4308 136.098 41.6445C134.003 42.4297 134.965 45.3409 134.965 47.0264Z" fill="#B96B6B"/>
<path opacity="0.05" d="M130.459 77.4944C130.459 77.4944 131.351 77.2786 135.821 76.6088C140.29 75.9389 148.113 77.5019 148.113 77.5019" fill="black"/>
<path d="M7.63739 95.8524C8.28168 98.1882 10.5201 99.6092 10.5201 99.6092C10.5201 99.6092 11.714 97.2431 11.0697 94.9073C10.4254 92.5715 8.18694 91.1505 8.18694 91.1505C8.18694 91.1505 6.99309 93.5166 7.63739 95.8524Z" fill="#20E2D7"/>
</svg>
