<svg width="176" height="139" viewBox="0 0 176 139" fill="none" xmlns="http://www.w3.org/2000/svg">
<path d="M159.779 0.0908203H0.068573V102.702H159.779V0.0908203Z" fill="#E6E6E6"/>
<path d="M155.212 12.9608H4.63507V96.6311H155.212V12.9608Z" fill="white"/>
<path d="M159.71 0H0V6.80665H159.71V0Z" fill="#20E2D7"/>
<path d="M5.04214 4.7415C5.73667 4.7415 6.2997 4.17668 6.2997 3.47994C6.2997 2.7832 5.73667 2.21838 5.04214 2.21838C4.34761 2.21838 3.78458 2.7832 3.78458 3.47994C3.78458 4.17668 4.34761 4.7415 5.04214 4.7415Z" fill="white"/>
<path d="M9.81551 4.7415C10.51 4.7415 11.0731 4.17668 11.0731 3.47994C11.0731 2.7832 10.51 2.21838 9.81551 2.21838C9.12098 2.21838 8.55795 2.7832 8.55795 3.47994C8.55795 4.17668 9.12098 4.7415 9.81551 4.7415Z" fill="white"/>
<path d="M14.5889 4.7415C15.2834 4.7415 15.8465 4.17668 15.8465 3.47994C15.8465 2.7832 15.2834 2.21838 14.5889 2.21838C13.8944 2.21838 13.3313 2.7832 13.3313 3.47994C13.3313 4.17668 13.8944 4.7415 14.5889 4.7415Z" fill="white"/>
<path d="M57.0081 21.6422H18.317V87.9496H57.0081V21.6422Z" fill="#E6E6E6"/>
<path d="M95.9295 21.6422H63.6869V39.8941H95.9295V21.6422Z" fill="#20E2D7"/>
<path d="M95.9295 44.9769H63.6869V64.615H95.9295V44.9769Z" fill="#E6E6E6"/>
<path d="M95.9295 69.6978H63.6869V87.9496H95.9295V69.6978Z" fill="#E6E6E6"/>
<path d="M141.53 21.6422H102.839V50.5386H141.53V21.6422Z" fill="#E6E6E6"/>
<path d="M141.53 59.0532H102.839V87.9496H141.53V59.0532Z" fill="#E6E6E6"/>
<path d="M126.625 52.6146V46.3936C126.625 44.1827 127.5 42.0624 129.058 40.4991C130.617 38.9358 132.73 38.0575 134.934 38.0575C137.138 38.0575 139.252 38.9358 140.81 40.4991C142.368 42.0624 143.244 44.1827 143.244 46.3936V52.6146C143.244 52.9115 143.126 53.1961 142.917 53.406C142.707 53.6159 142.424 53.734 142.128 53.7344H127.741C127.445 53.734 127.161 53.6159 126.952 53.406C126.743 53.1961 126.625 52.9115 126.625 52.6146Z" fill="#2F2E41"/>
<path d="M147.221 133.573L144.291 134.387L139.767 123.434L144.093 122.233L147.221 133.573Z" fill="#FFB8B8"/>
<path d="M141.965 134.128L147.618 132.559L148.603 136.129L139.391 138.687C139.262 138.218 139.226 137.728 139.285 137.245C139.345 136.762 139.498 136.296 139.737 135.873C139.976 135.449 140.296 135.077 140.678 134.778C141.061 134.479 141.498 134.258 141.965 134.128Z" fill="#2F2E41"/>
<path d="M116.665 135.835H113.624L112.177 124.068H116.666L116.665 135.835Z" fill="#FFB8B8"/>
<path d="M111.452 134.963H117.317V138.668H107.759C107.759 138.181 107.855 137.7 108.04 137.25C108.226 136.801 108.498 136.392 108.841 136.048C109.184 135.704 109.591 135.431 110.039 135.245C110.487 135.059 110.967 134.963 111.452 134.963Z" fill="#2F2E41"/>
<path d="M112.998 70.0726C113.215 70.3666 113.494 70.6092 113.814 70.7834C114.135 70.9576 114.49 71.0592 114.854 71.0809C115.218 71.1027 115.582 71.0441 115.921 70.9094C116.26 70.7746 116.566 70.5669 116.816 70.3009L124.9 73.9484L124.165 69.3868L116.601 66.6224C116.127 66.2301 115.527 66.0257 114.914 66.0478C114.3 66.0698 113.716 66.3169 113.272 66.7422C112.828 67.1675 112.555 67.7414 112.504 68.3552C112.454 68.969 112.629 69.5801 112.998 70.0726H112.998Z" fill="#FFB8B8"/>
<path d="M129.795 97.5042C127.255 97.5042 124.625 97.1246 122.415 95.9958C121.242 95.4084 120.202 94.5844 119.361 93.5754C118.52 92.5664 117.896 91.3941 117.527 90.1318C116.375 86.4741 117.827 82.8806 119.231 79.4056C120.101 77.2522 120.923 75.2184 121.136 73.2136L121.211 72.5018C121.543 69.3048 121.83 66.5438 123.418 65.5082C124.241 64.9714 125.347 64.9408 126.801 65.4144L140.455 69.8639L139.953 95.8652L139.87 95.893C139.799 95.9171 134.985 97.5042 129.795 97.5042Z" fill="#2F2E41"/>
<path d="M126.562 57.3197C126.562 57.3197 133.26 55.3289 138.469 56.0755C138.469 56.0755 135.492 72.4989 136.485 77.9733C137.477 83.4478 119.245 80.0884 122.966 74.8628L124.206 68.6418C124.206 68.6418 121.726 66.1535 123.958 63.1674L126.562 57.3197Z" fill="#20E2D7"/>
<path d="M123.268 97.0112L115.014 95.4586L117.896 73.2107C118.09 72.5896 122.554 58.4936 124.581 57.7309C126.053 57.2109 127.559 56.7913 129.087 56.4751L129.381 56.4161L127.726 58.9067L121.137 74.7464L123.268 97.0112Z" fill="#2F2E41"/>
<path d="M118.967 133.109L108.303 131.326L114.288 106.809L123.193 73.2811L123.281 73.8765C123.288 73.9208 124.12 78.3008 136.465 76.3574L136.574 76.3403L136.604 76.4464L151.525 129.334L139.372 131.366L128.289 92.7791L118.967 133.109Z" fill="#2F2E41"/>
<path d="M133.749 101.175L133.756 100.986C133.763 100.777 134.497 79.9912 134.252 71.6315C134.006 63.2434 136.713 55.9793 136.741 55.9069L136.763 55.8486L136.823 55.8313C140.325 54.8276 143.363 57.8234 143.394 57.8538L143.436 57.8965L142.439 66.1521L146.709 96.1724L133.749 101.175Z" fill="#2F2E41"/>
<path d="M133.227 53.5896C136.591 53.5896 139.319 50.8532 139.319 47.4778C139.319 44.1024 136.591 41.3661 133.227 41.3661C129.862 41.3661 127.134 44.1024 127.134 47.4778C127.134 50.8532 129.862 53.5896 133.227 53.5896Z" fill="#FFB8B8"/>
<path d="M124.659 46.8912C124.661 45.1429 125.354 43.4668 126.586 42.2306C127.818 40.9944 129.489 40.299 131.232 40.297H132.472C134.215 40.299 135.886 40.9944 137.118 42.2306C138.35 43.4668 139.044 45.1429 139.046 46.8912V47.0156H136.424L135.531 44.5044L135.352 47.0156H133.997L133.546 45.7486L133.456 47.0156H124.659V46.8912Z" fill="#2F2E41"/>
<path d="M132.627 54.4339C132.504 54.2667 132.431 54.0681 132.415 53.8609C132.4 53.6536 132.443 53.4462 132.54 53.2626C133.854 50.7547 135.694 46.1208 133.252 43.2631L133.076 43.0577H140.167V53.7379L133.725 54.8781C133.66 54.8896 133.594 54.8955 133.528 54.8956C133.352 54.8956 133.179 54.8537 133.022 54.7734C132.866 54.6932 132.73 54.5768 132.627 54.4339Z" fill="#2F2E41"/>
<path d="M104.077 10.3383C99.1151 6.13799 93.0431 3.47504 86.5999 2.6735C80.1568 1.87197 73.6203 2.96641 67.7859 5.82364C61.9514 8.68087 57.0707 13.1777 53.7374 18.7669C50.4041 24.3562 48.7621 30.7968 49.0112 37.3052C49.2603 43.8135 51.3897 50.109 55.1403 55.4254C58.8909 60.7418 64.101 64.85 70.1366 67.2501C76.1722 69.6502 82.7731 70.2387 89.136 68.944C95.4989 67.6492 101.35 64.5271 105.976 59.9575L147.058 94.7322C147.683 95.2624 148.492 95.5217 149.308 95.4532C150.123 95.3847 150.879 94.9939 151.407 94.3668C151.936 93.7398 152.194 92.9278 152.126 92.1095C152.057 91.2913 151.668 90.5337 151.043 90.0036L151.038 89.9997L109.957 55.225C114.729 48.3538 116.771 39.9424 115.684 31.6392C114.596 23.3359 110.457 15.7394 104.077 10.3383ZM101.429 51.8764C98.2283 55.6814 93.975 58.4489 89.2067 59.8289C84.4383 61.2089 79.3692 61.1394 74.6402 59.6293C69.9113 58.1192 65.7349 55.2362 62.6392 51.345C59.5436 47.4537 57.6676 42.729 57.2487 37.7682C56.8298 32.8074 57.8866 27.8334 60.2856 23.4752C62.6846 19.117 66.318 15.5703 70.7263 13.2836C75.1346 10.9969 80.1199 10.0729 85.0516 10.6285C89.9834 11.1841 94.6402 13.1943 98.4331 16.405H98.4331C100.952 18.5367 103.027 21.1452 104.54 24.0816C106.054 27.0179 106.976 30.2245 107.254 33.5183C107.532 36.8122 107.161 40.1287 106.161 43.2786C105.162 46.4285 103.554 49.35 101.429 51.8764Z" fill="#3F3D56"/>
<path opacity="0.3" d="M66.0696 54.8816C61.2559 50.8065 58.1459 45.0645 57.3571 38.7956C56.5683 32.5267 58.1584 26.1895 61.8117 21.0422C61.3319 21.5269 60.8681 22.0346 60.4202 22.5651C58.2952 25.0915 56.6871 28.0131 55.6875 31.163C54.688 34.3128 54.3168 37.6294 54.5949 40.9232C54.8731 44.2171 55.7953 47.4237 57.3088 50.36C58.8222 53.2963 60.8974 55.9048 63.4158 58.0366C65.9342 60.1684 68.8465 61.7816 71.9865 62.7843C75.1264 63.787 78.4324 64.1595 81.7158 63.8804C84.9992 63.6014 88.1956 62.6763 91.1226 61.158C94.0497 59.6397 96.6499 57.5579 98.7749 55.0315C99.2217 54.5002 99.6425 53.9562 100.037 53.3993C95.5941 57.8779 89.6345 60.5164 83.3418 60.791C77.0491 61.0656 70.8837 58.9562 66.0696 54.8816Z" fill="black"/>
<path d="M135.183 80.7572C135.537 80.8441 135.906 80.852 136.263 80.7804C136.621 80.7087 136.959 80.5593 137.252 80.3427C137.546 80.126 137.789 79.8474 137.964 79.5263C138.139 79.2053 138.241 78.8497 138.264 78.4847L146.806 76.1064L143.334 73.0697L135.755 75.7937C135.141 75.7955 134.549 76.0232 134.091 76.4336C133.634 76.844 133.342 77.4086 133.271 78.0204C133.201 78.6322 133.356 79.2487 133.709 79.7531C134.061 80.2576 134.585 80.6148 135.183 80.7572Z" fill="#FFB8B8"/>
<path d="M138.733 79.4985L138.213 74.545L145.347 70.5961L140.696 64.9475L141.455 58.6022L143.345 57.7896L143.404 57.8654C144.295 59.015 152.112 69.133 152.112 70.3838C152.112 71.6684 150.616 75.441 148.57 76.4672C146.597 77.4571 139.186 79.381 138.872 79.4625L138.733 79.4985Z" fill="#2F2E41"/>
<path d="M175.752 139H81.2447C81.1789 139 81.1158 138.974 81.0693 138.927C81.0228 138.88 80.9966 138.817 80.9966 138.751C80.9966 138.685 81.0228 138.622 81.0693 138.575C81.1158 138.529 81.1789 138.502 81.2447 138.502H175.752C175.818 138.502 175.881 138.529 175.927 138.575C175.974 138.622 176 138.685 176 138.751C176 138.817 175.974 138.88 175.927 138.927C175.881 138.974 175.818 139 175.752 139Z" fill="#CCCCCC"/>
</svg>
