<svg width="22" height="22" viewBox="0 0 22 22" fill="none" xmlns="http://www.w3.org/2000/svg">
<path d="M17.4166 20.1666H4.58329C4.34018 20.1666 4.10702 20.0701 3.93511 19.8982C3.7632 19.7262 3.66663 19.4931 3.66663 19.25V11H0.916626L10.383 2.3943C10.5518 2.24074 10.7718 2.15564 11 2.15564C11.2281 2.15564 11.4481 2.24074 11.6169 2.3943L21.0833 11H18.3333V19.25C18.3333 19.4931 18.2367 19.7262 18.0648 19.8982C17.8929 20.0701 17.6597 20.1666 17.4166 20.1666ZM5.49996 18.3333H16.5V9.31055L11 4.31105L5.49996 9.31055V18.3333Z" fill="url(#paint0_linear)"/>
<defs>
<linearGradient id="paint0_linear" x1="11" y1="-9.60664" x2="11" y2="31.01" gradientUnits="userSpaceOnUse">
<stop offset="0.436593" stop-color="#96FBC4"/>
<stop offset="0.856357" stop-color="#20E2D7"/>
</linearGradient>
</defs>
</svg>
