<svg width="136" height="162" viewBox="0 0 136 162" fill="none" xmlns="http://www.w3.org/2000/svg">
<path d="M135.621 30.8535C135.34 30.0749 134.826 29.4019 134.149 28.9258C133.472 28.4497 132.665 28.1936 131.838 28.1924H48.8666C48.3389 28.1922 47.8163 28.2959 47.3286 28.4978C46.841 28.6996 46.3979 28.9955 46.0246 29.3686C45.6513 29.7417 45.3551 30.1847 45.1529 30.6723C44.9508 31.1599 44.8466 31.6826 44.8464 32.2105V95.9007C44.8479 96.9667 45.272 97.9886 46.0256 98.7424C46.7792 99.4962 47.8009 99.9204 48.8666 99.9219H131.838C132.903 99.9204 133.925 99.4962 134.679 98.7424C135.432 97.9886 135.856 96.9667 135.858 95.9007V32.2136C135.859 31.7499 135.779 31.2896 135.621 30.8535Z" fill="white"/>
<path d="M135.621 30.8535C135.34 30.0749 134.826 29.4019 134.149 28.9258C133.472 28.4497 132.665 28.1936 131.838 28.1924H48.8666C48.3389 28.1922 47.8163 28.2959 47.3286 28.4978C46.841 28.6996 46.3979 28.9955 46.0246 29.3686C45.6513 29.7417 45.3551 30.1847 45.1529 30.6723C44.9508 31.1599 44.8466 31.6826 44.8464 32.2105V95.9007C44.8479 96.9667 45.272 97.9886 46.0256 98.7424C46.7792 99.4962 47.8009 99.9204 48.8666 99.9219H131.838C132.903 99.9204 133.925 99.4962 134.679 98.7424C135.432 97.9886 135.856 96.9667 135.858 95.9007V32.2136C135.859 31.7499 135.779 31.2896 135.621 30.8535ZM135.385 95.9007C135.384 96.8414 135.01 97.7432 134.345 98.4083C133.68 99.0735 132.778 99.4477 131.838 99.4488H48.8666C47.9262 99.4477 47.0246 99.0735 46.3596 98.4083C45.6947 97.7432 45.3206 96.8414 45.3194 95.9007V32.2136C45.3206 31.2729 45.6946 30.3711 46.3596 29.7059C47.0246 29.0408 47.9262 28.6666 48.8666 28.6655H131.838C132.778 28.6666 133.68 29.0408 134.345 29.7059C135.01 30.3711 135.384 31.2729 135.385 32.2136V95.9007Z" fill="#CCCCCC"/>
<path d="M129.459 36.7622V81.2329C129.459 81.5298 129.341 81.8145 129.131 82.0245C128.921 82.2344 128.637 82.3525 128.34 82.3526H52.8667C52.813 82.353 52.7593 82.3488 52.7063 82.3401C52.4401 82.3018 52.1966 82.1687 52.0205 81.9654C51.8443 81.762 51.7474 81.502 51.7474 81.233V36.7622C51.7473 36.6152 51.7762 36.4696 51.8324 36.3338C51.8886 36.198 51.971 36.0746 52.0748 35.9707C52.1787 35.8667 52.302 35.7842 52.4378 35.7279C52.5735 35.6716 52.719 35.6426 52.866 35.6426H128.339C128.486 35.6425 128.632 35.6714 128.768 35.7276C128.903 35.7838 129.027 35.8662 129.131 35.9701C129.235 36.074 129.317 36.1974 129.373 36.3331C129.43 36.4689 129.459 36.6144 129.459 36.7614V36.7622Z" fill="#E6E6E6"/>
<path d="M70.7721 62.0839C76.1955 62.0839 80.5921 57.6863 80.5921 52.2615C80.5921 46.8366 76.1955 42.439 70.7721 42.439C65.3486 42.439 60.9521 46.8366 60.9521 52.2615C60.9521 57.6863 65.3486 62.0839 70.7721 62.0839Z" fill="#20E2D7"/>
<path d="M101.566 82.531H53.3925C53.3322 82.5318 53.272 82.527 53.2125 82.5167L75.9966 43.0414C76.1356 42.7956 76.3374 42.591 76.5814 42.4487C76.8253 42.3064 77.1026 42.2314 77.385 42.2314C77.6674 42.2314 77.9448 42.3064 78.1887 42.4487C78.4326 42.591 78.6344 42.7956 78.7735 43.0414L94.0644 69.5324L94.797 70.8L101.566 82.531Z" fill="#3F3D56"/>
<path opacity="0.2" d="M101.567 82.5308H85.1188L93.1929 70.7996L93.7741 69.9548L94.0648 69.5322L94.7971 70.7996L101.567 82.5308Z" fill="black"/>
<path d="M128.389 82.5309H86.7228L94.797 70.7999L95.378 69.9548L105.899 54.6671C106.589 53.6652 108.249 53.6028 109.06 54.4781C109.114 54.5378 109.165 54.601 109.211 54.6671L128.389 82.5309Z" fill="#3F3D56"/>
<path d="M87.6031 157.775L83.5312 157.774L81.5942 142.065L87.6038 142.065L87.6031 157.775Z" fill="#FFB8B8"/>
<path d="M88.6415 161.723L75.5123 161.722V161.556C75.5123 160.885 75.6444 160.22 75.9012 159.6C76.1581 158.98 76.5345 158.417 77.009 157.942C77.4836 157.467 78.0469 157.091 78.6669 156.834C79.2869 156.577 79.9515 156.445 80.6226 156.445H80.6229L88.6418 156.445L88.6415 161.723Z" fill="#2F2E41"/>
<path d="M102.217 157.775L98.145 157.774L96.208 142.065L102.218 142.065L102.217 157.775Z" fill="#FFB8B8"/>
<path d="M103.255 161.723L90.126 161.722V161.556C90.126 160.885 90.2582 160.22 90.515 159.6C90.7718 158.98 91.1483 158.417 91.6228 157.942C92.0973 157.467 92.6607 157.091 93.2807 156.834C93.9007 156.577 94.5652 156.445 95.2363 156.445H95.2367L103.256 156.445L103.255 161.723Z" fill="#2F2E41"/>
<path d="M96.6506 151.679L90.979 110.84C90.9632 110.727 90.9091 110.623 90.8256 110.545C90.7421 110.467 90.6344 110.42 90.5204 110.412C90.4064 110.404 90.2932 110.435 90.1996 110.501C90.106 110.566 90.0378 110.662 90.0064 110.772L86.2067 124.059C85.9194 125.06 85.8253 126.106 85.9295 127.143L88.9847 151.155C89.0049 151.358 88.9833 151.563 88.9214 151.757C88.8595 151.951 88.7586 152.131 88.6248 152.285C88.491 152.439 88.3271 152.563 88.1433 152.652C87.9595 152.74 87.7597 152.789 87.556 152.797L83.6666 152.924C83.3087 152.938 82.9577 152.823 82.6774 152.6C82.3972 152.377 82.2064 152.06 82.1397 151.708L77.2141 125.746C76.9406 124.305 76.8823 122.831 77.0414 121.373L80.7674 87.1843L99.3269 87.8562L99.3708 87.9448C104.977 99.207 104.071 124.264 103.196 148.496L103.087 151.526C103.075 151.913 102.912 152.28 102.633 152.55C102.354 152.819 101.982 152.968 101.594 152.967L98.1315 152.968H98.1308C97.7704 152.967 97.4225 152.836 97.1508 152.599C96.879 152.362 96.7015 152.036 96.6506 151.679Z" fill="#2F2E41"/>
<path d="M95.9113 53.0034C100.417 53.0034 104.069 49.3503 104.069 44.8439C104.069 40.3375 100.417 36.6843 95.9113 36.6843C91.4061 36.6843 87.7538 40.3375 87.7538 44.8439C87.7538 49.3503 91.4061 53.0034 95.9113 53.0034Z" fill="#FFB8B8"/>
<path d="M80.4881 89.1688C80.3476 89.0003 80.2461 88.8028 80.1907 88.5905C80.1354 88.3781 80.1276 88.1562 80.1679 87.9405L84.7067 63.4761L85.7823 61.1869C86.6781 59.2773 88.1617 57.7048 90.0157 56.6996C91.8696 55.6943 93.9966 55.3092 96.0852 55.6005C97.5512 55.8008 98.9537 56.3268 100.19 57.1399C101.426 57.953 102.465 59.0326 103.229 60.2995C103.994 61.5665 104.465 62.9885 104.609 64.4615C104.753 65.9344 104.565 67.4208 104.059 68.8116L99.1624 82.2841L99.9963 87.997C100.027 88.2093 100.012 88.4258 99.9521 88.6318C99.892 88.8378 99.7882 89.0285 99.6479 89.1908C99.5076 89.3531 99.334 89.4833 99.1389 89.5726C98.9438 89.6618 98.7318 89.708 98.5173 89.708H81.6374C81.418 89.7083 81.2012 89.6601 81.0025 89.5669C80.8038 89.4737 80.6282 89.3378 80.4881 89.1688Z" fill="#20E2D7"/>
<path d="M117.27 104.038C116.762 103.92 116.286 103.692 115.876 103.37C115.465 103.048 115.131 102.64 114.895 102.175C114.659 101.709 114.528 101.198 114.511 100.677C114.495 100.155 114.592 99.6362 114.798 99.1567L101.645 69.4327L109.169 67.5371L119.732 97.3508C120.515 97.7494 121.124 98.4212 121.445 99.2391C121.765 100.057 121.774 100.964 121.471 101.788C121.168 102.613 120.572 103.297 119.798 103.712C119.024 104.126 118.125 104.243 117.27 104.038V104.038Z" fill="#FFB8B8"/>
<path d="M102.093 74.7597C101.883 74.6658 101.696 74.5277 101.544 74.3548C101.393 74.182 101.28 73.9784 101.214 73.7581L98.9147 66.063C98.4167 64.9977 98.3612 63.7783 98.7604 62.6721C99.1595 61.5658 99.9808 60.663 101.044 60.1612C102.108 59.6595 103.326 59.5999 104.434 59.9954C105.541 60.3909 106.446 61.2094 106.952 62.2713L111.399 68.9896C111.526 69.1814 111.61 69.3982 111.646 69.6254C111.681 69.8526 111.667 70.0848 111.605 70.3062C111.543 70.5275 111.434 70.7329 111.285 70.9082C111.136 71.0836 110.951 71.2248 110.743 71.3223L103.425 74.7487C103.217 74.8463 102.99 74.8978 102.76 74.8997C102.53 74.9016 102.303 74.8538 102.093 74.7597Z" fill="#20E2D7"/>
<path d="M62.4022 27.5499C62.2434 28.0468 62.1954 28.5726 62.2616 29.0901C62.3279 29.6076 62.5068 30.1043 62.7858 30.5452C63.0647 30.9861 63.4369 31.3604 63.8761 31.6419C64.3153 31.9233 64.8109 32.105 65.3279 32.1741L84.1161 58.6964L89.5971 53.2027L69.4054 28.8597C69.464 27.9832 69.1991 27.1157 68.6609 26.4215C68.1227 25.7274 67.3487 25.2548 66.4854 25.0934C65.6222 24.9319 64.7297 25.0928 63.9772 25.5456C63.2246 25.9983 62.6642 26.7115 62.4022 27.5499Z" fill="#FFB8B8"/>
<path d="M80.4632 54.4443L87.1529 49.9118C87.3433 49.7828 87.5591 49.6964 87.7859 49.6584C88.0126 49.6205 88.2449 49.6318 88.4669 49.6917C88.6888 49.7516 88.8953 49.8587 89.0721 50.0056C89.249 50.1525 89.3921 50.3358 89.4918 50.543L92.9833 57.8044C93.6374 58.7823 93.8771 59.9797 93.65 61.1341C93.4228 62.2885 92.7473 63.3056 91.7715 63.9626C90.7957 64.6196 89.5993 64.8627 88.4446 64.6387C87.2899 64.4146 86.2711 63.7417 85.6116 62.7675L80.1815 56.8511C80.0261 56.6816 79.909 56.4806 79.8382 56.2618C79.7675 56.0431 79.7447 55.8116 79.7714 55.5832C79.7981 55.3548 79.8738 55.1348 79.9931 54.9383C80.1125 54.7418 80.2728 54.5733 80.4632 54.4443V54.4443Z" fill="#20E2D7"/>
<path d="M56.7809 162H126.86C126.948 162 127.033 161.965 127.095 161.903C127.158 161.84 127.193 161.756 127.193 161.668C127.193 161.58 127.158 161.495 127.095 161.433C127.033 161.37 126.948 161.335 126.86 161.335H56.7809C56.6928 161.335 56.6084 161.37 56.5461 161.433C56.4838 161.495 56.4488 161.58 56.4488 161.668C56.4488 161.756 56.4838 161.84 56.5461 161.903C56.6084 161.965 56.6928 162 56.7809 162Z" fill="#CCCCCC"/>
<path d="M93.6392 43.7698C91.9647 45.6812 89.6645 47.7944 87.2107 46.846C85.5994 46.2232 84.7087 44.533 84.8559 42.8114C85.1207 39.7156 87.5289 37.7648 89.8926 36.1367C92.9653 34.0201 96.4049 32.081 100.136 32.0752C103.867 32.0694 107.831 34.667 108.112 38.3883C108.337 41.3808 106.249 44.4548 107.371 47.2381C108.5 50.0393 112.152 50.7294 115.163 50.5093C118.175 50.2891 121.439 49.6293 124.038 51.1668C127.353 53.1282 127.904 58.013 126.135 61.4357C124.365 64.8583 120.942 67.0823 117.531 68.8722C113.011 71.2437 107.961 73.1763 102.907 72.461C97.8541 71.7457 92.9956 67.577 93.0977 62.4731C93.1408 60.3172 94.0218 58.2785 94.8702 56.2961C95.7185 54.3138 96.5636 52.2517 96.5282 50.0956C96.4988 48.2989 95.6954 46.4102 94.2474 45.4283C93.9863 45.2584 93.7857 45.01 93.6744 44.719C93.5632 44.428 93.547 44.1091 93.6282 43.8083L93.6392 43.7698Z" fill="#2F2E41"/>
<path d="M32.157 65.5315C32.2903 65.7 32.3833 65.8967 32.4291 66.1067C32.4748 66.3166 32.472 66.5342 32.421 66.7429C31.2016 71.8508 31.2016 77.174 32.4211 82.2819C32.4721 82.4906 32.4748 82.7082 32.4291 82.9182C32.3833 83.1281 32.2903 83.3248 32.157 83.4934C32.0266 83.6596 31.86 83.7938 31.6699 83.8859C31.4798 83.978 31.2712 84.0256 31.06 84.0249L18.0232 84.0249C17.6901 84.0243 17.368 83.9054 17.1143 83.6895C16.8606 83.4736 16.6917 83.1747 16.6378 82.846C15.7874 77.3228 15.7874 71.702 16.6378 66.1789C16.6917 65.8501 16.8606 65.5512 17.1143 65.3353C17.368 65.1194 17.6901 65.0006 18.0232 64.9999L31.06 64.9999C31.2712 64.9993 31.4798 65.0468 31.6699 65.1389C31.86 65.231 32.0266 65.3653 32.157 65.5315Z" fill="#444053"/>
<path d="M20.7046 77.6732L27.5458 77.6732C27.8058 77.6735 28.0551 77.7769 28.239 77.9608C28.4229 78.1447 28.5264 78.394 28.5266 78.6541L28.5266 79.0374C28.5264 79.2975 28.4229 79.5468 28.239 79.7307C28.0551 79.9146 27.8058 80.018 27.5458 80.0183L20.7046 80.0183C20.4445 80.018 20.1952 79.9146 20.0113 79.7307C19.8274 79.5468 19.724 79.2975 19.7237 79.0374L19.7237 78.6541C19.724 78.394 19.8274 78.1447 20.0113 77.9608C20.1952 77.7769 20.4445 77.6735 20.7046 77.6732Z" fill="white"/>
<path d="M20.7046 72.8299L27.5458 72.8299C27.8058 72.8302 28.0551 72.9337 28.239 73.1176C28.4229 73.3014 28.5264 73.5508 28.5266 73.8108L28.5266 74.1942C28.5264 74.4542 28.4229 74.7035 28.239 74.8874C28.0551 75.0713 27.8058 75.1748 27.5458 75.175L20.7046 75.175C20.4445 75.1748 20.1952 75.0713 20.0113 74.8874C19.8274 74.7035 19.724 74.4542 19.7237 74.1942L19.7237 73.8108C19.724 73.5508 19.8274 73.3014 20.0113 73.1176C20.1952 72.9337 20.4445 72.8302 20.7046 72.8299Z" fill="white"/>
<path d="M20.7046 67.9864L27.5458 67.9864C27.8058 67.9867 28.0551 68.0902 28.239 68.274C28.4229 68.4579 28.5264 68.7073 28.5266 68.9673L28.5266 69.3507C28.5264 69.6107 28.4229 69.86 28.239 70.0439C28.0551 70.2278 27.8058 70.3313 27.5458 70.3315L20.7046 70.3315C20.4445 70.3313 20.1952 70.2278 20.0113 70.0439C19.8274 69.86 19.724 69.6107 19.7237 69.3507L19.7237 68.9673C19.724 68.7073 19.8274 68.4579 20.0113 68.274C20.1952 68.0902 20.4445 67.9867 20.7046 67.9864Z" fill="white"/>
<path d="M37.3045 18.4934C37.1712 18.3249 37.0782 18.1282 37.0324 17.9182C36.9867 17.7083 36.9894 17.4907 37.0405 17.282C38.2599 12.1741 38.2599 6.85086 37.0404 1.74298C36.9894 1.53426 36.9867 1.31667 37.0324 1.10674C37.0782 0.896815 37.1712 0.700089 37.3045 0.531533C37.4349 0.365342 37.6014 0.231079 37.7916 0.138973C37.9817 0.0468659 38.1903 -0.000657785 38.4015 6.87695e-06H51.4383C51.7714 0.000631578 52.0935 0.119476 52.3472 0.335372C52.6009 0.551269 52.7698 0.850195 52.8237 1.17893C53.6741 6.70209 53.6741 12.3229 52.8237 17.846C52.7698 18.1748 52.6009 18.4737 52.3472 18.6896C52.0935 18.9055 51.7714 19.0243 51.4383 19.025H38.4015C38.1903 19.0256 37.9817 18.9781 37.7916 18.886C37.6014 18.7939 37.4349 18.6596 37.3045 18.4934Z" fill="#444053"/>
<path d="M48.7569 6.3517H41.9157C41.6556 6.35141 41.4063 6.24798 41.2224 6.06409C41.0385 5.88019 40.9351 5.63087 40.9348 5.3708V4.98748C40.9351 4.72742 41.0385 4.47809 41.2224 4.2942C41.4063 4.11031 41.6556 4.00688 41.9157 4.00659H48.7569C49.0169 4.00688 49.2663 4.11031 49.4502 4.2942C49.6341 4.47809 49.7375 4.72742 49.7378 4.98748V5.3708C49.7375 5.63087 49.6341 5.88019 49.4502 6.06409C49.2663 6.24798 49.0169 6.35141 48.7569 6.3517Z" fill="white"/>
<path d="M48.7569 11.1952H41.9157C41.6556 11.1949 41.4063 11.0915 41.2224 10.9076C41.0385 10.7237 40.9351 10.4744 40.9348 10.2143V9.83099C40.9351 9.57093 41.0385 9.3216 41.2224 9.13771C41.4063 8.95382 41.6556 8.85038 41.9157 8.8501H48.7569C49.0169 8.85038 49.2663 8.95382 49.4502 9.13771C49.6341 9.3216 49.7375 9.57093 49.7378 9.83099V10.2143C49.7375 10.4744 49.6341 10.7237 49.4502 10.9076C49.2663 11.0915 49.0169 11.1949 48.7569 11.1952Z" fill="white"/>
<path d="M48.7569 16.0385H41.9157C41.6556 16.0382 41.4063 15.9347 41.2224 15.7509C41.0385 15.567 40.9351 15.3176 40.9348 15.0576V14.6743C40.9351 14.4142 41.0385 14.1649 41.2224 13.981C41.4063 13.7971 41.6556 13.6936 41.9157 13.6934H48.7569C49.0169 13.6936 49.2663 13.7971 49.4502 13.981C49.6341 14.1649 49.7375 14.4142 49.7378 14.6743V15.0576C49.7375 15.3176 49.6341 15.567 49.4502 15.7509C49.2663 15.9347 49.0169 16.0382 48.7569 16.0385Z" fill="white"/>
<path d="M16.157 27.5315C16.2903 27.7 16.3833 27.8967 16.4291 28.1067C16.4748 28.3166 16.472 28.5342 16.421 28.7429C15.2016 33.8508 15.2016 39.174 16.4211 44.2819C16.4721 44.4906 16.4748 44.7082 16.4291 44.9182C16.3833 45.1281 16.2903 45.3248 16.157 45.4934C16.0266 45.6596 15.86 45.7938 15.6699 45.8859C15.4798 45.978 15.2712 46.0256 15.06 46.0249L2.0232 46.0249C1.69007 46.0243 1.36798 45.9054 1.11427 45.6895C0.860572 45.4736 0.691728 45.1747 0.637818 44.846C-0.212581 39.3228 -0.212581 33.702 0.63782 28.1789C0.691729 27.8501 0.860573 27.5512 1.11428 27.3353C1.36798 27.1194 1.69008 27.0006 2.02321 26.9999L15.06 26.9999C15.2712 26.9993 15.4798 27.0468 15.6699 27.1389C15.86 27.231 16.0266 27.3653 16.157 27.5315Z" fill="#20E2D7"/>
<path d="M4.7046 39.6735L11.5458 39.6735C11.8058 39.6737 12.0552 39.7772 12.2391 39.9611C12.423 40.145 12.5264 40.3943 12.5267 40.6543L12.5267 41.0377C12.5264 41.2977 12.423 41.5471 12.2391 41.7309C12.0552 41.9148 11.8058 42.0183 11.5458 42.0186L4.7046 42.0186C4.44454 42.0183 4.19521 41.9148 4.01132 41.7309C3.82743 41.5471 3.724 41.2977 3.72371 41.0377L3.72371 40.6543C3.724 40.3943 3.82743 40.145 4.01132 39.9611C4.19521 39.7772 4.44454 39.6737 4.7046 39.6735Z" fill="white"/>
<path d="M4.7046 34.8302L11.5458 34.8302C11.8058 34.8305 12.0552 34.9339 12.2391 35.1178C12.423 35.3017 12.5264 35.551 12.5267 35.8111L12.5267 36.1944C12.5264 36.4545 12.423 36.7038 12.2391 36.8877C12.0552 37.0716 11.8058 37.175 11.5458 37.1753L4.7046 37.1753C4.44454 37.175 4.19521 37.0716 4.01132 36.8877C3.82743 36.7038 3.724 36.4545 3.72371 36.1944L3.72371 35.8111C3.724 35.551 3.82743 35.3017 4.01132 35.1178C4.19521 34.9339 4.44454 34.8305 4.7046 34.8302Z" fill="white"/>
<path d="M4.7046 29.9867L11.5458 29.9867C11.8058 29.987 12.0552 30.0904 12.2391 30.2743C12.423 30.4582 12.5264 30.7075 12.5267 30.9676L12.5267 31.3509C12.5264 31.611 12.423 31.8603 12.2391 32.0442C12.0552 32.2281 11.8058 32.3315 11.5458 32.3318L4.7046 32.3318C4.44454 32.3315 4.19521 32.2281 4.01132 32.0442C3.82743 31.8603 3.724 31.611 3.72371 31.3509L3.72371 30.9676C3.724 30.7075 3.82743 30.4582 4.01132 30.2743C4.19521 30.0904 4.44454 29.987 4.7046 29.9867Z" fill="white"/>
</svg>
