<svg width="21" height="21" viewBox="0 0 21 21" fill="none" xmlns="http://www.w3.org/2000/svg">
<path d="M10.5 18.375C14.8492 18.375 18.375 14.8492 18.375 10.5C18.375 6.15076 14.8492 2.625 10.5 2.625C6.15076 2.625 2.625 6.15076 2.625 10.5C2.625 14.8492 6.15076 18.375 10.5 18.375Z" fill="#20E2D7" stroke="#20E2D7" stroke-width="2" stroke-linecap="round" stroke-linejoin="round"/>
<path d="M7.875 8.75H7.88455" stroke="white" stroke-width="2" stroke-linecap="round" stroke-linejoin="round"/>
<path d="M13.125 8.75H13.1345" stroke="white" stroke-width="2" stroke-linecap="round" stroke-linejoin="round"/>
<path d="M8.3125 13.125C8.59764 13.416 8.93799 13.6472 9.31361 13.8051C9.68923 13.9629 10.0926 14.0442 10.5 14.0442C10.9074 14.0442 11.3108 13.9629 11.6864 13.8051C12.062 13.6472 12.4024 13.416 12.6875 13.125" stroke="white" stroke-width="2" stroke-linecap="round" stroke-linejoin="round"/>
</svg>
