<svg width="17" height="17" viewBox="0 0 17 17" fill="none" xmlns="http://www.w3.org/2000/svg">
<g clip-path="url(#clip0)">
<path d="M16.4912 3.74127L16.4916 3.74093C16.4945 3.73803 16.4968 3.73458 16.4984 3.73077C16.4999 3.72698 16.5007 3.72291 16.5007 3.7188C16.5007 3.71469 16.4999 3.71062 16.4984 3.70682C16.4968 3.70303 16.4945 3.69958 16.4916 3.69668L16.4911 3.69623L13.3037 0.508784C13.3037 0.508766 13.3036 0.508748 13.3036 0.50873M16.4912 3.74127L12.906 0.155177C13.0056 0.0555826 13.1407 -0.000366211 13.2816 -0.000366211C13.4224 -0.000366211 13.5575 0.0555826 13.6572 0.155177L13.3036 0.50873M16.4912 3.74127L15.0948 5.1368L11.8632 1.90511M16.4912 3.74127L11.8632 1.90511M13.3036 0.50873C13.2978 0.502904 13.2898 0.499634 13.2816 0.499634C13.2733 0.499634 13.2654 0.502905 13.2595 0.50873L13.3036 0.50873ZM11.8632 1.90511L13.2595 0.508783L11.8632 1.90511ZM6.90604 12.2501H6.87479V12.2188C6.87479 11.9453 6.76615 11.683 6.57275 11.4896C6.37935 11.2962 6.11705 11.1876 5.84354 11.1876H5.81229V11.1563C5.81229 10.8828 5.70364 10.6205 5.51025 10.4271C5.31685 10.2337 5.05455 10.1251 4.78104 10.1251H4.74979V10.0938C4.74979 9.8203 4.64115 9.558 4.44775 9.3646C4.44039 9.35724 4.43293 9.35 4.42538 9.34289L10.4049 3.36341L13.6364 6.59499L7.65696 12.5745C7.64984 12.5669 7.64261 12.5595 7.63525 12.5521C7.44185 12.3587 7.17955 12.2501 6.90604 12.2501ZM5.87479 14.3438L5.8748 14.3448C5.8748 14.3491 5.87484 14.3533 5.8749 14.3576L5.86736 14.3651C5.86728 14.3652 5.8672 14.3653 5.86712 14.3654C5.86417 14.3682 5.86068 14.3705 5.85685 14.372L5.85547 14.3726L0.542974 16.4976L0.542867 16.4976C0.537184 16.4999 0.530962 16.5004 0.524972 16.4992C0.518975 16.498 0.513476 16.495 0.509154 16.4907C0.504828 16.4864 0.501867 16.4809 0.500638 16.4749C0.499408 16.4689 0.499965 16.4627 0.502239 16.457L0.502282 16.4569L2.62728 11.1444L2.62783 11.143C2.62931 11.1393 2.6315 11.1358 2.63428 11.1329C2.63442 11.1328 2.63456 11.1326 2.63471 11.1325L2.64231 11.1249C2.64661 11.125 2.65092 11.125 2.65523 11.1251H2.65604H2.68729V11.1563C2.68729 11.4298 2.79594 11.6921 2.98934 11.8855L3.34289 11.532L2.98934 11.8855C3.18274 12.0789 3.44504 12.1876 3.71854 12.1876H3.74979V12.2188C3.74979 12.4923 3.85844 12.7546 4.05184 12.948C4.24524 13.1414 4.50754 13.2501 4.78104 13.2501H4.81229V13.2813C4.81229 13.5548 4.92094 13.8171 5.11434 14.0105C5.30774 14.2039 5.57004 14.3126 5.84354 14.3126H5.87479L5.87479 14.3438Z" fill="#20E2D7" stroke="#20E2D7"/>
</g>
<defs>
<clipPath id="clip0">
<rect width="17" height="17" fill="white"/>
</clipPath>
</defs>
</svg>
