<svg width="20" height="20" viewBox="0 0 20 20" fill="none" xmlns="http://www.w3.org/2000/svg">
<mask id="path-1-inside-1" fill="white">
<path d="M9.99984 11.6667C10.1647 11.6667 10.3258 11.6178 10.4628 11.5262C10.5999 11.4347 10.7067 11.3045 10.7697 11.1523C10.8328 11 10.8493 10.8324 10.8172 10.6708C10.785 10.5091 10.7056 10.3606 10.5891 10.2441C10.4725 10.1276 10.3241 10.0482 10.1624 10.016C10.0008 9.98388 9.83321 10.0004 9.68093 10.0635C9.52866 10.1265 9.39851 10.2333 9.30695 10.3704C9.21538 10.5074 9.1665 10.6685 9.1665 10.8334C9.1665 11.0544 9.2543 11.2663 9.41058 11.4226C9.56686 11.5789 9.77882 11.6667 9.99984 11.6667ZM14.1665 11.6667C14.3313 11.6667 14.4924 11.6178 14.6295 11.5262C14.7665 11.4347 14.8733 11.3045 14.9364 11.1523C14.9995 11 15.016 10.8324 14.9838 10.6708C14.9517 10.5091 14.8723 10.3606 14.7558 10.2441C14.6392 10.1276 14.4907 10.0482 14.3291 10.016C14.1674 9.98388 13.9999 10.0004 13.8476 10.0635C13.6953 10.1265 13.5652 10.2333 13.4736 10.3704C13.382 10.5074 13.3332 10.6685 13.3332 10.8334C13.3332 11.0544 13.421 11.2663 13.5772 11.4226C13.7335 11.5789 13.9455 11.6667 14.1665 11.6667ZM9.99984 15C10.1647 15 10.3258 14.9511 10.4628 14.8596C10.5999 14.768 10.7067 14.6379 10.7697 14.4856C10.8328 14.3333 10.8493 14.1658 10.8172 14.0041C10.785 13.8425 10.7056 13.694 10.5891 13.5774C10.4725 13.4609 10.3241 13.3815 10.1624 13.3494C10.0008 13.3172 9.83321 13.3337 9.68093 13.3968C9.52866 13.4599 9.39851 13.5667 9.30695 13.7037C9.21538 13.8408 9.1665 14.0019 9.1665 14.1667C9.1665 14.3877 9.2543 14.5997 9.41058 14.7559C9.56686 14.9122 9.77882 15 9.99984 15ZM14.1665 15C14.3313 15 14.4924 14.9511 14.6295 14.8596C14.7665 14.768 14.8733 14.6379 14.9364 14.4856C14.9995 14.3333 15.016 14.1658 14.9838 14.0041C14.9517 13.8425 14.8723 13.694 14.7558 13.5774C14.6392 13.4609 14.4907 13.3815 14.3291 13.3494C14.1674 13.3172 13.9999 13.3337 13.8476 13.3968C13.6953 13.4599 13.5652 13.5667 13.4736 13.7037C13.382 13.8408 13.3332 14.0019 13.3332 14.1667C13.3332 14.3877 13.421 14.5997 13.5772 14.7559C13.7335 14.9122 13.9455 15 14.1665 15ZM5.83317 11.6667C5.99799 11.6667 6.1591 11.6178 6.29615 11.5262C6.43319 11.4347 6.54 11.3045 6.60307 11.1523C6.66614 11 6.68265 10.8324 6.65049 10.6708C6.61834 10.5091 6.53897 10.3606 6.42243 10.2441C6.30588 10.1276 6.1574 10.0482 5.99575 10.016C5.8341 9.98388 5.66654 10.0004 5.51427 10.0635C5.362 10.1265 5.23185 10.2333 5.14028 10.3704C5.04871 10.5074 4.99984 10.6685 4.99984 10.8334C4.99984 11.0544 5.08764 11.2663 5.24392 11.4226C5.4002 11.5789 5.61216 11.6667 5.83317 11.6667ZM15.8332 3.33335H14.9998V2.50002C14.9998 2.27901 14.912 2.06704 14.7558 1.91076C14.5995 1.75448 14.3875 1.66669 14.1665 1.66669C13.9455 1.66669 13.7335 1.75448 13.5772 1.91076C13.421 2.06704 13.3332 2.27901 13.3332 2.50002V3.33335H6.6665V2.50002C6.6665 2.27901 6.57871 2.06704 6.42243 1.91076C6.26615 1.75448 6.05418 1.66669 5.83317 1.66669C5.61216 1.66669 5.4002 1.75448 5.24392 1.91076C5.08764 2.06704 4.99984 2.27901 4.99984 2.50002V3.33335H4.1665C3.50346 3.33335 2.86758 3.59675 2.39874 4.06559C1.9299 4.53443 1.6665 5.17031 1.6665 5.83335V15.8334C1.6665 16.4964 1.9299 17.1323 2.39874 17.6011C2.86758 18.07 3.50346 18.3334 4.1665 18.3334H15.8332C16.4962 18.3334 17.1321 18.07 17.6009 17.6011C18.0698 17.1323 18.3332 16.4964 18.3332 15.8334V5.83335C18.3332 5.17031 18.0698 4.53443 17.6009 4.06559C17.1321 3.59675 16.4962 3.33335 15.8332 3.33335ZM16.6665 15.8334C16.6665 16.0544 16.5787 16.2663 16.4224 16.4226C16.2661 16.5789 16.0542 16.6667 15.8332 16.6667H4.1665C3.94549 16.6667 3.73353 16.5789 3.57725 16.4226C3.42097 16.2663 3.33317 16.0544 3.33317 15.8334V8.33335H16.6665V15.8334ZM16.6665 6.66669H3.33317V5.83335C3.33317 5.61234 3.42097 5.40038 3.57725 5.2441C3.73353 5.08782 3.94549 5.00002 4.1665 5.00002H15.8332C16.0542 5.00002 16.2661 5.08782 16.4224 5.2441C16.5787 5.40038 16.6665 5.61234 16.6665 5.83335V6.66669ZM5.83317 15C5.99799 15 6.1591 14.9511 6.29615 14.8596C6.43319 14.768 6.54 14.6379 6.60307 14.4856C6.66614 14.3333 6.68265 14.1658 6.65049 14.0041C6.61834 13.8425 6.53897 13.694 6.42243 13.5774C6.30588 13.4609 6.1574 13.3815 5.99575 13.3494C5.8341 13.3172 5.66654 13.3337 5.51427 13.3968C5.362 13.4599 5.23185 13.5667 5.14028 13.7037C5.04871 13.8408 4.99984 14.0019 4.99984 14.1667C4.99984 14.3877 5.08764 14.5997 5.24392 14.7559C5.4002 14.9122 5.61216 15 5.83317 15Z"/>
</mask>
<path d="M9.99984 11.6667C10.1647 11.6667 10.3258 11.6178 10.4628 11.5262C10.5999 11.4347 10.7067 11.3045 10.7697 11.1523C10.8328 11 10.8493 10.8324 10.8172 10.6708C10.785 10.5091 10.7056 10.3606 10.5891 10.2441C10.4725 10.1276 10.3241 10.0482 10.1624 10.016C10.0008 9.98388 9.83321 10.0004 9.68093 10.0635C9.52866 10.1265 9.39851 10.2333 9.30695 10.3704C9.21538 10.5074 9.1665 10.6685 9.1665 10.8334C9.1665 11.0544 9.2543 11.2663 9.41058 11.4226C9.56686 11.5789 9.77882 11.6667 9.99984 11.6667ZM14.1665 11.6667C14.3313 11.6667 14.4924 11.6178 14.6295 11.5262C14.7665 11.4347 14.8733 11.3045 14.9364 11.1523C14.9995 11 15.016 10.8324 14.9838 10.6708C14.9517 10.5091 14.8723 10.3606 14.7558 10.2441C14.6392 10.1276 14.4907 10.0482 14.3291 10.016C14.1674 9.98388 13.9999 10.0004 13.8476 10.0635C13.6953 10.1265 13.5652 10.2333 13.4736 10.3704C13.382 10.5074 13.3332 10.6685 13.3332 10.8334C13.3332 11.0544 13.421 11.2663 13.5772 11.4226C13.7335 11.5789 13.9455 11.6667 14.1665 11.6667ZM9.99984 15C10.1647 15 10.3258 14.9511 10.4628 14.8596C10.5999 14.768 10.7067 14.6379 10.7697 14.4856C10.8328 14.3333 10.8493 14.1658 10.8172 14.0041C10.785 13.8425 10.7056 13.694 10.5891 13.5774C10.4725 13.4609 10.3241 13.3815 10.1624 13.3494C10.0008 13.3172 9.83321 13.3337 9.68093 13.3968C9.52866 13.4599 9.39851 13.5667 9.30695 13.7037C9.21538 13.8408 9.1665 14.0019 9.1665 14.1667C9.1665 14.3877 9.2543 14.5997 9.41058 14.7559C9.56686 14.9122 9.77882 15 9.99984 15ZM14.1665 15C14.3313 15 14.4924 14.9511 14.6295 14.8596C14.7665 14.768 14.8733 14.6379 14.9364 14.4856C14.9995 14.3333 15.016 14.1658 14.9838 14.0041C14.9517 13.8425 14.8723 13.694 14.7558 13.5774C14.6392 13.4609 14.4907 13.3815 14.3291 13.3494C14.1674 13.3172 13.9999 13.3337 13.8476 13.3968C13.6953 13.4599 13.5652 13.5667 13.4736 13.7037C13.382 13.8408 13.3332 14.0019 13.3332 14.1667C13.3332 14.3877 13.421 14.5997 13.5772 14.7559C13.7335 14.9122 13.9455 15 14.1665 15ZM5.83317 11.6667C5.99799 11.6667 6.1591 11.6178 6.29615 11.5262C6.43319 11.4347 6.54 11.3045 6.60307 11.1523C6.66614 11 6.68265 10.8324 6.65049 10.6708C6.61834 10.5091 6.53897 10.3606 6.42243 10.2441C6.30588 10.1276 6.1574 10.0482 5.99575 10.016C5.8341 9.98388 5.66654 10.0004 5.51427 10.0635C5.362 10.1265 5.23185 10.2333 5.14028 10.3704C5.04871 10.5074 4.99984 10.6685 4.99984 10.8334C4.99984 11.0544 5.08764 11.2663 5.24392 11.4226C5.4002 11.5789 5.61216 11.6667 5.83317 11.6667ZM15.8332 3.33335H14.9998V2.50002C14.9998 2.27901 14.912 2.06704 14.7558 1.91076C14.5995 1.75448 14.3875 1.66669 14.1665 1.66669C13.9455 1.66669 13.7335 1.75448 13.5772 1.91076C13.421 2.06704 13.3332 2.27901 13.3332 2.50002V3.33335H6.6665V2.50002C6.6665 2.27901 6.57871 2.06704 6.42243 1.91076C6.26615 1.75448 6.05418 1.66669 5.83317 1.66669C5.61216 1.66669 5.4002 1.75448 5.24392 1.91076C5.08764 2.06704 4.99984 2.27901 4.99984 2.50002V3.33335H4.1665C3.50346 3.33335 2.86758 3.59675 2.39874 4.06559C1.9299 4.53443 1.6665 5.17031 1.6665 5.83335V15.8334C1.6665 16.4964 1.9299 17.1323 2.39874 17.6011C2.86758 18.07 3.50346 18.3334 4.1665 18.3334H15.8332C16.4962 18.3334 17.1321 18.07 17.6009 17.6011C18.0698 17.1323 18.3332 16.4964 18.3332 15.8334V5.83335C18.3332 5.17031 18.0698 4.53443 17.6009 4.06559C17.1321 3.59675 16.4962 3.33335 15.8332 3.33335ZM16.6665 15.8334C16.6665 16.0544 16.5787 16.2663 16.4224 16.4226C16.2661 16.5789 16.0542 16.6667 15.8332 16.6667H4.1665C3.94549 16.6667 3.73353 16.5789 3.57725 16.4226C3.42097 16.2663 3.33317 16.0544 3.33317 15.8334V8.33335H16.6665V15.8334ZM16.6665 6.66669H3.33317V5.83335C3.33317 5.61234 3.42097 5.40038 3.57725 5.2441C3.73353 5.08782 3.94549 5.00002 4.1665 5.00002H15.8332C16.0542 5.00002 16.2661 5.08782 16.4224 5.2441C16.5787 5.40038 16.6665 5.61234 16.6665 5.83335V6.66669ZM5.83317 15C5.99799 15 6.1591 14.9511 6.29615 14.8596C6.43319 14.768 6.54 14.6379 6.60307 14.4856C6.66614 14.3333 6.68265 14.1658 6.65049 14.0041C6.61834 13.8425 6.53897 13.694 6.42243 13.5774C6.30588 13.4609 6.1574 13.3815 5.99575 13.3494C5.8341 13.3172 5.66654 13.3337 5.51427 13.3968C5.362 13.4599 5.23185 13.5667 5.14028 13.7037C5.04871 13.8408 4.99984 14.0019 4.99984 14.1667C4.99984 14.3877 5.08764 14.5997 5.24392 14.7559C5.4002 14.9122 5.61216 15 5.83317 15Z" fill="#20E2D7" stroke="#20E2D7" stroke-width="2" mask="url(#path-1-inside-1)"/>
</svg>
