<svg width="28" height="28" viewBox="0 0 28 28" fill="none" xmlns="http://www.w3.org/2000/svg">
<path d="M14.0002 25.6667C20.4435 25.6667 25.6668 20.4433 25.6668 14C25.6668 7.55669 20.4435 2.33334 14.0002 2.33334C7.55684 2.33334 2.3335 7.55669 2.3335 14C2.3335 20.4433 7.55684 25.6667 14.0002 25.6667Z" stroke="url(#paint0_linear)" stroke-width="2.33333" stroke-linecap="round"/>
<path d="M9.3335 10.5583V10.4416" stroke="url(#paint1_linear)" stroke-width="2.33333" stroke-linecap="round"/>
<path d="M18.667 10.5583V10.4416" stroke="url(#paint2_linear)" stroke-width="2.33333" stroke-linecap="round"/>
<path d="M18.6668 18.6666C18.0835 16.9166 16.5785 15.1666 14.0002 15.1666C11.4218 15.1666 9.91683 16.9166 9.3335 18.6666" stroke="url(#paint3_linear)" stroke-width="1.8" stroke-linecap="round" stroke-linejoin="round"/>
<defs>
<linearGradient id="paint0_linear" x1="14.0002" y1="-47.6667" x2="14.0002" y2="31.9167" gradientUnits="userSpaceOnUse">
<stop stop-color="#20E2D7"/>
<stop offset="0.489583" stop-color="#96FBC4"/>
<stop offset="1" stop-color="#20E2D7"/>
</linearGradient>
<linearGradient id="paint1_linear" x1="9.8335" y1="7.33334" x2="9.8335" y2="10.5895" gradientUnits="userSpaceOnUse">
<stop stop-color="#96FBC4"/>
<stop offset="1" stop-color="#20E2D7"/>
</linearGradient>
<linearGradient id="paint2_linear" x1="19.167" y1="7.33334" x2="19.167" y2="10.5895" gradientUnits="userSpaceOnUse">
<stop stop-color="#96FBC4"/>
<stop offset="1" stop-color="#20E2D7"/>
</linearGradient>
<linearGradient id="paint3_linear" x1="14.0002" y1="7.66663" x2="14.0002" y2="19.6041" gradientUnits="userSpaceOnUse">
<stop stop-color="#20E2D7"/>
<stop offset="0.489583" stop-color="#96FBC4"/>
<stop offset="1" stop-color="#20E2D7"/>
</linearGradient>
</defs>
</svg>
