<svg width="1464" height="324" viewBox="0 0 1464 324" fill="none" xmlns="http://www.w3.org/2000/svg">
<g clip-path="url(#clip0)">
<path d="M427.634 -0.000610352C426.961 -0.000610352 426.415 0.544962 426.415 1.21796V172.756C426.415 256.305 488.776 323.999 565.653 323.999C642.53 323.999 704.891 256.262 704.891 172.756V1.21796C704.891 0.544962 704.345 -0.000610352 703.672 -0.000610352H427.634Z" fill="url(#paint0_linear)"/>
<path fill-rule="evenodd" clip-rule="evenodd" d="M1046.59 322.092C1047.14 322.901 1046.56 323.999 1045.58 323.999H745.738C745.07 323.999 744.526 323.461 744.519 322.793L743.707 242.136C743.706 241.992 743.589 241.876 743.445 241.876C743.3 241.876 743.183 241.759 743.183 241.614V1.21796C743.183 0.544962 743.728 -0.000610352 744.401 -0.000610352H893.821C966.703 -0.000610352 1021.4 54.1722 1021.4 120.959C1021.4 159.517 1005.98 193.845 975.383 215.99C974.844 216.381 974.707 217.131 975.083 217.68L1046.59 322.092ZM840.997 146.879C840.324 146.879 839.778 146.334 839.778 145.661V78.9777C839.778 78.3047 840.324 77.7591 840.997 77.7591H883.859C905.167 77.7591 922.451 93.2375 922.451 112.319C922.451 131.401 905.178 146.879 883.859 146.879H840.997Z" fill="url(#paint1_linear)"/>
<path d="M28.2233 323.999C27.2845 323.999 26.6983 322.982 27.1688 322.17L225.209 -19.7803C225.679 -20.5908 226.849 -20.5908 227.318 -19.7803L425.359 322.17C425.83 322.982 425.243 323.999 424.305 323.999H285.678C285.244 323.999 284.842 323.767 284.624 323.391L227.318 224.444C226.849 223.633 225.679 223.633 225.209 224.444L167.904 323.391C167.686 323.767 167.284 323.999 166.849 323.999H28.2233Z" fill="url(#paint2_linear)"/>
<path d="M1055.48 323.999C1054.54 323.999 1053.95 322.982 1054.43 322.17L1252.47 -19.7803C1252.94 -20.5908 1254.11 -20.5908 1254.57 -19.7803L1452.62 322.17C1453.09 322.982 1452.5 323.999 1451.56 323.999H1312.93C1312.5 323.999 1312.1 323.767 1311.88 323.391L1254.57 224.444C1254.11 223.633 1252.94 223.633 1252.47 224.444L1195.16 323.391C1194.94 323.767 1194.54 323.999 1194.11 323.999H1055.48Z" fill="url(#paint3_linear)"/>
</g>
<defs>
<linearGradient id="paint0_linear" x1="565.653" y1="-326.603" x2="565.653" y2="410.785" gradientUnits="userSpaceOnUse">
<stop stop-color="#F9FEA5"/>
<stop offset="0.489583" stop-color="#96FBC4"/>
<stop offset="1" stop-color="#20E2D7"/>
</linearGradient>
<linearGradient id="paint1_linear" x1="894.994" y1="-326.603" x2="894.994" y2="410.785" gradientUnits="userSpaceOnUse">
<stop stop-color="#F9FEA5"/>
<stop offset="0.489583" stop-color="#96FBC4"/>
<stop offset="1" stop-color="#20E2D7"/>
</linearGradient>
<linearGradient id="paint2_linear" x1="226.264" y1="-369.977" x2="226.264" y2="416.57" gradientUnits="userSpaceOnUse">
<stop stop-color="#F9FEA5"/>
<stop offset="0.489583" stop-color="#96FBC4"/>
<stop offset="1" stop-color="#20E2D7"/>
</linearGradient>
<linearGradient id="paint3_linear" x1="1253.52" y1="-369.977" x2="1253.52" y2="416.57" gradientUnits="userSpaceOnUse">
<stop stop-color="#F9FEA5"/>
<stop offset="0.489583" stop-color="#96FBC4"/>
<stop offset="1" stop-color="#20E2D7"/>
</linearGradient>
<clipPath id="clip0">
<rect width="1464" height="324" fill="white"/>
</clipPath>
</defs>
</svg>
