<svg width="23" height="22" viewBox="0 0 23 22" fill="none" xmlns="http://www.w3.org/2000/svg">
<path d="M11.5 19.25C16.0079 19.25 19.6622 15.5563 19.6622 11C19.6622 6.44365 16.0079 2.75 11.5 2.75C6.99212 2.75 3.33777 6.44365 3.33777 11C3.33777 15.5563 6.99212 19.25 11.5 19.25Z" stroke="#C7C7C7" stroke-width="2" stroke-linecap="round" stroke-linejoin="round"/>
<path d="M8.7793 9.16663H8.78919" stroke="#C7C7C7" stroke-width="2" stroke-linecap="round" stroke-linejoin="round"/>
<path d="M14.2207 9.16663H14.2306" stroke="#C7C7C7" stroke-width="2" stroke-linecap="round" stroke-linejoin="round"/>
<path d="M9.23267 13.75C9.52821 14.0549 9.88097 14.2971 10.2703 14.4624C10.6596 14.6278 11.0777 14.713 11.5 14.713C11.9222 14.713 12.3403 14.6278 12.7296 14.4624C13.1189 14.2971 13.4717 14.0549 13.7672 13.75" stroke="#C7C7C7" stroke-width="2" stroke-linecap="round" stroke-linejoin="round"/>
</svg>
