<svg width="47" height="101" viewBox="0 0 47 101" fill="none" xmlns="http://www.w3.org/2000/svg">
<path d="M3.5 99.2156C3.5 99.2156 13.7655 92.2752 23.3513 72.1823C27.4242 63.7833 28.993 39.9591 27.1917 30.8056C26.3032 26.4677 25.0177 22.22 23.3513 18.1157" stroke="#535461" stroke-width="2" stroke-miterlimit="10"/>
<path d="M24.363 5.73127C25.5538 8.84328 23.4003 20.0071 23.4003 20.0071C23.4003 20.0071 14.3458 13.136 13.1572 10.0296C12.5851 8.53443 12.6267 6.87404 13.2729 5.41372C13.9191 3.9534 15.1169 2.81278 16.6029 2.24278C18.0889 1.67279 19.7413 1.72009 21.1966 2.37431C22.6519 3.02853 23.7909 4.23606 24.363 5.73127Z" fill="#96FBC4"/>
<path d="M38.8967 23.5734C37.1193 26.3442 27 31.1318 27 31.1318C27 31.1318 27.1837 19.845 28.9611 17.0742C29.3653 16.376 29.9054 15.7679 30.5488 15.2864C31.1923 14.805 31.9257 14.4603 32.7047 14.2732C33.4837 14.0861 34.2921 14.0604 35.0812 14.1977C35.8703 14.335 36.6237 14.6325 37.2958 15.0721C37.9679 15.5118 38.5448 16.0845 38.9916 16.7556C39.4385 17.4268 39.746 18.1825 39.8956 18.977C40.0453 19.7716 40.0339 20.5885 39.8622 21.3785C39.6905 22.1685 39.3621 22.9152 38.8967 23.5734Z" fill="#96FBC4"/>
<path d="M43.1498 50.9385C40.1813 52.6331 28.4123 52.4227 28.4123 52.4227C28.4123 52.4227 33.8444 42.3687 36.8066 40.6744C38.2262 39.9388 39.8838 39.7559 41.4334 40.164C42.983 40.5721 44.305 41.5396 45.1234 42.8646C45.9419 44.1896 46.1935 45.7697 45.8258 47.2752C45.4581 48.7807 44.4996 50.0952 43.1502 50.9445L43.1498 50.9385Z" fill="#96FBC4"/>
<path d="M34.0752 78.8221C31.2075 80.53 20.0002 80.0889 20.0002 80.0889C20.0002 80.0889 25.4068 69.7421 28.2746 68.0342C29.6429 67.307 31.2205 67.1554 32.6803 67.6109C34.1402 68.0665 35.3705 69.0942 36.1162 70.481C36.8619 71.8679 37.0659 73.5077 36.6859 75.0605C36.306 76.6133 35.3712 77.9602 34.0752 78.8221Z" fill="#96FBC4"/>
<path d="M13.9824 35.955C16.3692 38.4807 27.6809 41.4514 27.6809 41.4514C27.6809 41.4514 25.3355 29.7627 22.9735 27.2379C22.424 26.5911 21.7513 26.0649 20.9961 25.691C20.2409 25.3171 19.4189 25.1034 18.5799 25.0628C17.7408 25.0222 16.9022 25.1555 16.1147 25.4547C15.3272 25.7538 14.6073 26.2127 13.9984 26.8034C13.3896 27.3941 12.9045 28.1044 12.5725 28.8913C12.2405 29.6783 12.0686 30.5254 12.067 31.3816C12.0655 32.2377 12.2345 33.085 12.5636 33.8722C12.8928 34.6594 13.3754 35.3701 13.9821 35.9614L13.9824 35.955Z" fill="#96FBC4"/>
<path d="M14.9358 60.0776C16.4725 62.9607 26.1425 68.4619 26.1425 68.4619C26.1425 68.4619 26.9207 57.2365 25.3889 54.3567C24.6155 53.042 23.3633 52.0854 21.8936 51.6865C20.424 51.2876 18.8504 51.4773 17.5013 52.2161C16.1522 52.9548 15.1319 54.1854 14.6532 55.6512C14.1746 57.1169 14.2746 58.7045 14.9324 60.0825L14.9358 60.0776Z" fill="#96FBC4"/>
<path d="M3.6487 78.6766C4.12773 81.9737 11.5064 90.3906 11.5064 90.3906C11.5064 90.3906 16.1058 79.6778 15.6439 76.3971C15.3592 74.8664 14.4892 73.5327 13.2161 72.6755C11.9429 71.8182 10.3656 71.5041 8.81466 71.7988C7.2637 72.0935 5.85956 72.9743 4.89651 74.2564C3.93347 75.5386 3.48627 77.1226 3.6487 78.6766Z" fill="#96FBC4"/>
</svg>
