<svg width="24" height="24" viewBox="0 0 24 24" fill="none" xmlns="http://www.w3.org/2000/svg">
<path d="M21 6.25C21 5.38805 20.6576 4.5614 20.0481 3.9519C19.4386 3.34241 18.612 3 17.75 3H6.25C5.38805 3 4.5614 3.34241 3.9519 3.9519C3.34241 4.5614 3 5.38805 3 6.25V17.75C3 18.612 3.34241 19.4386 3.9519 20.0481C4.5614 20.6576 5.38805 21 6.25 21H12.022C11.7223 20.5325 11.484 20.0284 11.313 19.5H6.25C5.78587 19.5 5.34075 19.3156 5.01256 18.9874C4.68437 18.6592 4.5 18.2141 4.5 17.75V8.5H19.5V11.313C20.0284 11.484 20.5325 11.7223 21 12.022V6.25ZM6.25 4.5H17.75C18.716 4.5 19.5 5.284 19.5 6.25V7H4.5V6.25C4.5 5.284 5.284 4.5 6.25 4.5Z" fill="url(#paint0_linear)"/>
<path d="M23 17.5C23 16.0413 22.4205 14.6424 21.3891 13.6109C20.3576 12.5795 18.9587 12 17.5 12C16.0413 12 14.6424 12.5795 13.6109 13.6109C12.5795 14.6424 12 16.0413 12 17.5C12 18.9587 12.5795 20.3576 13.6109 21.3891C14.6424 22.4205 16.0413 23 17.5 23C18.9587 23 20.3576 22.4205 21.3891 21.3891C22.4205 20.3576 23 18.9587 23 17.5ZM17.5 17.5H19.5C19.6326 17.5 19.7598 17.5527 19.8536 17.6464C19.9473 17.7402 20 17.8674 20 18C20 18.1326 19.9473 18.2598 19.8536 18.3536C19.7598 18.4473 19.6326 18.5 19.5 18.5H17C16.8689 18.5 16.7431 18.4486 16.6496 18.3568C16.5561 18.2649 16.5024 18.14 16.5 18.009V14.999C16.5 14.8664 16.5527 14.7392 16.6464 14.6454C16.7402 14.5517 16.8674 14.499 17 14.499C17.1326 14.499 17.2598 14.5517 17.3536 14.6454C17.4473 14.7392 17.5 14.8664 17.5 14.999V17.5Z" fill="url(#paint1_linear)"/>
<defs>
<linearGradient id="paint0_linear" x1="12" y1="-15.1446" x2="12" y2="25.8214" gradientUnits="userSpaceOnUse">
<stop stop-color="#F9FEA5"/>
<stop offset="0.489583" stop-color="#96FBC4"/>
<stop offset="1" stop-color="#20E2D7"/>
</linearGradient>
<linearGradient id="paint1_linear" x1="17.5" y1="0.91166" x2="17.5" y2="25.9464" gradientUnits="userSpaceOnUse">
<stop stop-color="#F9FEA5"/>
<stop offset="0.489583" stop-color="#96FBC4"/>
<stop offset="1" stop-color="#20E2D7"/>
</linearGradient>
</defs>
</svg>
