<svg width="33" height="13" viewBox="0 0 33 13" fill="none" xmlns="http://www.w3.org/2000/svg">
<path opacity="0.1" d="M30.6662 4.19097H27.6692C27.9527 4.20388 28.2359 4.15927 28.5016 4.05984C28.7673 3.9604 29.0101 3.80821 29.2153 3.61246C29.4205 3.4167 29.5838 3.18145 29.6953 2.92091C29.8069 2.66037 29.8644 2.37994 29.8644 2.09658C29.8644 1.81321 29.8069 1.53279 29.6953 1.27225C29.5838 1.0117 29.4205 0.776445 29.2153 0.580692C29.0101 0.384938 28.7673 0.232752 28.5016 0.133319C28.2359 0.0338857 27.9527 -0.0107286 27.6692 0.00217491H3.39312C2.85338 0.0267429 2.34391 0.258132 1.97066 0.648218C1.59741 1.0383 1.38912 1.55706 1.38912 2.09658C1.38912 2.6361 1.59741 3.15484 1.97066 3.54493C2.34391 3.93502 2.85338 4.1664 3.39312 4.19097H6.39006C6.10658 4.17807 5.82342 4.22268 5.55769 4.32212C5.29196 4.42155 5.04918 4.57374 4.844 4.7695C4.63882 4.96525 4.47552 5.2005 4.36394 5.46104C4.25237 5.72159 4.19485 6.00201 4.19485 6.28538C4.19485 6.56874 4.25237 6.84916 4.36394 7.10971C4.47552 7.37025 4.63882 7.60551 4.844 7.80126C5.04918 7.99701 5.29196 8.1492 5.55769 8.24863C5.82342 8.34807 6.10658 8.39268 6.39006 8.37978H2.19521C1.91173 8.36687 1.62857 8.41149 1.36284 8.51092C1.09711 8.61035 0.854325 8.76255 0.649149 8.9583C0.443973 9.15405 0.280668 9.38931 0.169094 9.64985C0.0575196 9.91039 0 10.1908 0 10.4742C0 10.7575 0.0575196 11.038 0.169094 11.2985C0.280668 11.5591 0.443973 11.7943 0.649149 11.9901C0.854325 12.1858 1.09711 12.338 1.36284 12.4374C1.62857 12.5369 1.91173 12.5815 2.19521 12.5686H26.4713C26.7548 12.5815 27.038 12.5369 27.3037 12.4374C27.5694 12.338 27.8122 12.1858 28.0174 11.9901C28.2225 11.7943 28.3859 11.5591 28.4974 11.2985C28.609 11.038 28.6665 10.7575 28.6665 10.4742C28.6665 10.1908 28.609 9.91039 28.4974 9.64985C28.3859 9.38931 28.2225 9.15405 28.0174 8.9583C27.8122 8.76255 27.5694 8.61035 27.3037 8.51092C27.038 8.41149 26.7548 8.36687 26.4713 8.37978H30.6662C30.9496 8.39268 31.2328 8.34807 31.4985 8.24863C31.7643 8.1492 32.007 7.99701 32.2122 7.80126C32.4174 7.60551 32.5807 7.37025 32.6923 7.10971C32.8039 6.84916 32.8614 6.56874 32.8614 6.28538C32.8614 6.00201 32.8039 5.72159 32.6923 5.46104C32.5807 5.2005 32.4174 4.96525 32.2122 4.7695C32.007 4.57374 31.7643 4.42155 31.4985 4.32212C31.2328 4.22268 30.9496 4.17807 30.6662 4.19097Z" fill="#252223"/>
</svg>
