<svg width="122" height="86" viewBox="0 0 122 86" fill="none" xmlns="http://www.w3.org/2000/svg">
<path d="M13.2574 41.6841L7.79938 67.9469L25.4269 56.9486L24.3707 53.9674L13.2574 41.6841Z" fill="#776056"/>
<path d="M59.4656 29.8416C57.0318 26.0254 58.2179 20.3047 62.4912 16.4534C66.7429 12.6049 72.5639 11.9798 76.1003 14.8014L80.2739 11.0284C75.0376 6.38166 66.0157 7.19151 59.4588 13.1076C52.9019 19.0237 51.1989 27.9461 55.2921 33.6145L59.4656 29.8416Z" fill="#776056"/>
<path d="M78.6976 57.0893L23.9651 53.5362L22.228 58.8878L87.9275 69.742L78.6976 57.0893Z" fill="#AA9B95"/>
<path d="M104.593 44.17L82.4373 18.081L83.0858 16.4419C83.1826 16.1665 85.7551 9.78829 90.4409 5.55593C95.5796 0.915468 101.547 0.403519 107.219 4.1618C121.6 13.6639 107.283 39.4219 106.656 40.5319L104.593 44.17ZM89.216 17.0499L103.46 33.8071C106.437 27.1585 111.22 13.7898 103.994 9.02126C100.523 6.71779 97.5303 6.98592 94.3408 9.86695C91.9009 12.0831 90.1233 15.2026 89.216 17.0499Z" fill="#776056"/>
<path d="M81.4858 8.99123L53.1177 34.6226L90.011 75.4552L118.379 49.8238L81.4858 8.99123Z" fill="#A3948D"/>
<path d="M81.4446 8.95728L53.0808 34.5919L56.5095 38.3856L84.8733 12.751L81.4446 8.95728Z" fill="#A3948D"/>
<path d="M112.987 43.8244L84.6145 69.4524L89.9968 75.4111L118.369 49.7831L112.987 43.8244Z" fill="#776056"/>
</svg>
