<svg width="50" height="79" viewBox="0 0 50 79" fill="none" xmlns="http://www.w3.org/2000/svg">
<path d="M19.8619 37.6016C25.9722 42.85 27.4041 48.911 27.4144 54.2785L27.3871 55.6646C27.1649 62.7264 26.5088 77.977 26.4404 78.3658C26.2696 79.3193 22.5207 79.0461 21.7347 78.5321C21.2699 78.2274 23.2144 53.1481 23.2178 53.0229C23.6142 43.012 15.3441 35.4993 15.0297 35.2191C14.8076 35.0221 15.8943 34.9047 16.1984 35.1009C17.497 35.9327 18.8606 36.7409 19.8619 37.6016Z" fill="#8E8E96"/>
<path d="M15.4159 22.8096C19.5436 27.4088 21.2986 33.6065 20.7397 39.6669C15.1805 40.1474 9.55268 38.088 5.42495 33.4888C1.29722 28.8896 -0.457727 22.6918 0.101134 16.6413C5.66033 16.151 11.298 18.2104 15.4159 22.8096Z" fill="#87BE00"/>
<path d="M36.8582 21.8977C34.4365 29.8409 28.5341 36.1661 21.1905 39.7258C16.7784 33.6753 15.2292 25.7713 17.6607 17.8281C20.0923 9.88493 25.9849 3.55973 33.3286 0C37.7308 6.06037 39.2799 13.9643 36.8582 21.8977Z" fill="#ABEE04"/>
</svg>
