<svg width="72" height="28" viewBox="0 0 72 28" fill="none" xmlns="http://www.w3.org/2000/svg">
<path d="M8.36454 13.8804C10.6661 12.1184 11.7501 9.66208 14.5416 9.5067C16.3502 9.40752 18.2686 9.39427 19.801 8.31984C21.9006 6.8487 24.4872 5.77759 26.4057 4.02875C27.9767 2.59728 30.0941 2.22042 32.1017 1.89313C35.3832 1.35757 38.6677 0.822016 41.9493 0.289762C43.155 0.0947118 44.3756 -0.103665 45.5842 0.0616315C50.021 0.663311 52.9314 5.76767 57.2197 7.16938C59.245 7.83057 61.4931 7.62559 63.373 8.6901C65.8052 10.0621 66.9901 13.1796 67.5841 16.145C67.9464 17.9599 71.2339 19.0112 71.9763 22.6114C72.2614 23.3188 69.8886 22.2775 69.2917 22.6775C68.6948 23.0775 67.9642 23.1304 67.2693 23.1701C50.3393 28.1486 41.5203 28.3692 24.0256 27.7576C21.9111 27.6849 1.5995 25.0941 0.212631 22.942C-1.39994 20.4361 6.63319 15.2028 8.36454 13.8804Z" fill="#3F3D56"/>
</svg>
