<svg width="28" height="28" viewBox="0 0 28 28" fill="none" xmlns="http://www.w3.org/2000/svg">
<path d="M5.6001 6.24162V22.575C5.6001 23.1165 5.8152 23.6358 6.19809 24.0187C6.58098 24.4016 7.10028 24.6167 7.64177 24.6167H19.8918C20.4333 24.6167 20.9526 24.4016 21.3355 24.0187C21.7184 23.6358 21.9335 23.1165 21.9335 22.575V10.6741C21.9334 10.4021 21.8791 10.1329 21.7735 9.88217C21.668 9.63149 21.5134 9.40442 21.3189 9.21429L16.7864 4.78183C16.405 4.40887 15.8927 4.20002 15.3593 4.19995H7.64177C7.10028 4.19995 6.58098 4.41506 6.19809 4.79794C5.8152 5.18083 5.6001 5.70014 5.6001 6.24162V6.24162Z" stroke="#979797" stroke-width="1.8375" stroke-linecap="round" stroke-linejoin="round"/>
<path d="M15.8083 4.19995V8.28329C15.8083 8.82478 16.0235 9.34408 16.4063 9.72697C16.7892 10.1099 17.3085 10.325 17.85 10.325H21.9334" stroke="#979797" stroke-width="1.8375" stroke-linejoin="round"/>
<line x1="10.0916" y1="13.2417" x2="14.4083" y2="13.2417" stroke="#979797" stroke-width="1.51667" stroke-linecap="round" stroke-linejoin="bevel"/>
<line x1="10.0916" y1="16.7417" x2="15.5749" y2="16.7417" stroke="#979797" stroke-width="1.51667" stroke-linecap="round" stroke-linejoin="bevel"/>
<line x1="10.0916" y1="20.2417" x2="14.4083" y2="20.2417" stroke="#979797" stroke-width="1.51667" stroke-linecap="round" stroke-linejoin="bevel"/>
</svg>
