<svg width="22" height="22" viewBox="0 0 22 22" fill="none" xmlns="http://www.w3.org/2000/svg">
<path d="M11 12.8334C11.1813 12.8334 11.3586 12.7796 11.5093 12.6789C11.6601 12.5782 11.7776 12.435 11.8469 12.2675C11.9163 12.1 11.9345 11.9157 11.8991 11.7379C11.8637 11.5601 11.7764 11.3967 11.6482 11.2685C11.52 11.1403 11.3567 11.053 11.1789 11.0177C11.0011 10.9823 10.8167 11.0004 10.6492 11.0698C10.4817 11.1392 10.3386 11.2567 10.2379 11.4074C10.1371 11.5582 10.0834 11.7354 10.0834 11.9167C10.0834 12.1598 10.18 12.393 10.3519 12.5649C10.5238 12.7368 10.7569 12.8334 11 12.8334ZM15.5834 12.8334C15.7647 12.8334 15.9419 12.7796 16.0926 12.6789C16.2434 12.5782 16.3609 12.435 16.4303 12.2675C16.4996 12.1 16.5178 11.9157 16.4824 11.7379C16.4471 11.5601 16.3598 11.3967 16.2316 11.2685C16.1034 11.1403 15.94 11.053 15.7622 11.0177C15.5844 10.9823 15.4001 11.0004 15.2326 11.0698C15.0651 11.1392 14.9219 11.2567 14.8212 11.4074C14.7205 11.5582 14.6667 11.7354 14.6667 11.9167C14.6667 12.1598 14.7633 12.393 14.9352 12.5649C15.1071 12.7368 15.3403 12.8334 15.5834 12.8334ZM11 16.5C11.1813 16.5 11.3586 16.4463 11.5093 16.3456C11.6601 16.2448 11.7776 16.1017 11.8469 15.9342C11.9163 15.7667 11.9345 15.5824 11.8991 15.4045C11.8637 15.2267 11.7764 15.0634 11.6482 14.9352C11.52 14.807 11.3567 14.7197 11.1789 14.6843C11.0011 14.649 10.8167 14.6671 10.6492 14.7365C10.4817 14.8059 10.3386 14.9234 10.2379 15.0741C10.1371 15.2248 10.0834 15.4021 10.0834 15.5834C10.0834 15.8265 10.18 16.0596 10.3519 16.2316C10.5238 16.4035 10.7569 16.5 11 16.5ZM15.5834 16.5C15.7647 16.5 15.9419 16.4463 16.0926 16.3456C16.2434 16.2448 16.3609 16.1017 16.4303 15.9342C16.4996 15.7667 16.5178 15.5824 16.4824 15.4045C16.4471 15.2267 16.3598 15.0634 16.2316 14.9352C16.1034 14.807 15.94 14.7197 15.7622 14.6843C15.5844 14.649 15.4001 14.6671 15.2326 14.7365C15.0651 14.8059 14.9219 14.9234 14.8212 15.0741C14.7205 15.2248 14.6667 15.4021 14.6667 15.5834C14.6667 15.8265 14.7633 16.0596 14.9352 16.2316C15.1071 16.4035 15.3403 16.5 15.5834 16.5ZM6.41671 12.8334C6.59801 12.8334 6.77524 12.7796 6.92598 12.6789C7.07673 12.5782 7.19422 12.435 7.2636 12.2675C7.33298 12.1 7.35113 11.9157 7.31576 11.7379C7.28039 11.5601 7.19309 11.3967 7.06489 11.2685C6.93669 11.1403 6.77336 11.053 6.59554 11.0177C6.41772 10.9823 6.23341 11.0004 6.06591 11.0698C5.89842 11.1392 5.75525 11.2567 5.65453 11.4074C5.5538 11.5582 5.50004 11.7354 5.50004 11.9167C5.50004 12.1598 5.59662 12.393 5.76853 12.5649C5.94043 12.7368 6.17359 12.8334 6.41671 12.8334ZM17.4167 3.66671H16.5V2.75004C16.5 2.50693 16.4035 2.27377 16.2316 2.10186C16.0596 1.92995 15.8265 1.83337 15.5834 1.83337C15.3403 1.83337 15.1071 1.92995 14.9352 2.10186C14.7633 2.27377 14.6667 2.50693 14.6667 2.75004V3.66671H7.33337V2.75004C7.33337 2.50693 7.2368 2.27377 7.06489 2.10186C6.89298 1.92995 6.65982 1.83337 6.41671 1.83337C6.17359 1.83337 5.94043 1.92995 5.76853 2.10186C5.59662 2.27377 5.50004 2.50693 5.50004 2.75004V3.66671H4.58337C3.85403 3.66671 3.15456 3.95644 2.63883 4.47216C2.12311 4.98789 1.83337 5.68736 1.83337 6.41671V17.4167C1.83337 18.1461 2.12311 18.8455 2.63883 19.3613C3.15456 19.877 3.85403 20.1667 4.58337 20.1667H17.4167C18.1461 20.1667 18.8455 19.877 19.3613 19.3613C19.877 18.8455 20.1667 18.1461 20.1667 17.4167V6.41671C20.1667 5.68736 19.877 4.98789 19.3613 4.47216C18.8455 3.95644 18.1461 3.66671 17.4167 3.66671ZM18.3334 17.4167C18.3334 17.6598 18.2368 17.893 18.0649 18.0649C17.893 18.2368 17.6598 18.3334 17.4167 18.3334H4.58337C4.34026 18.3334 4.1071 18.2368 3.93519 18.0649C3.76328 17.893 3.66671 17.6598 3.66671 17.4167V9.16671H18.3334V17.4167ZM18.3334 7.33337H3.66671V6.41671C3.66671 6.17359 3.76328 5.94043 3.93519 5.76853C4.1071 5.59662 4.34026 5.50004 4.58337 5.50004H17.4167C17.6598 5.50004 17.893 5.59662 18.0649 5.76853C18.2368 5.94043 18.3334 6.17359 18.3334 6.41671V7.33337ZM6.41671 16.5C6.59801 16.5 6.77524 16.4463 6.92598 16.3456C7.07673 16.2448 7.19422 16.1017 7.2636 15.9342C7.33298 15.7667 7.35113 15.5824 7.31576 15.4045C7.28039 15.2267 7.19309 15.0634 7.06489 14.9352C6.93669 14.807 6.77336 14.7197 6.59554 14.6843C6.41772 14.649 6.23341 14.6671 6.06591 14.7365C5.89842 14.8059 5.75525 14.9234 5.65453 15.0741C5.5538 15.2248 5.50004 15.4021 5.50004 15.5834C5.50004 15.8265 5.59662 16.0596 5.76853 16.2316C5.94043 16.4035 6.17359 16.5 6.41671 16.5Z" fill="#C7C7C7"/>
</svg>
