<svg width="22" height="22" viewBox="0 0 22 22" fill="none" xmlns="http://www.w3.org/2000/svg">
<path d="M10.9999 12.8333C11.1812 12.8333 11.3584 12.7796 11.5092 12.6788C11.6599 12.5781 11.7774 12.4349 11.8468 12.2674C11.9162 12.0999 11.9343 11.9156 11.899 11.7378C11.8636 11.56 11.7763 11.3967 11.6481 11.2685C11.5199 11.1403 11.3566 11.053 11.1788 11.0176C11.0009 10.9822 10.8166 11.0004 10.6491 11.0698C10.4816 11.1391 10.3385 11.2566 10.2377 11.4074C10.137 11.5581 10.0833 11.7353 10.0833 11.9166C10.0833 12.1598 10.1798 12.3929 10.3517 12.5648C10.5236 12.7367 10.7568 12.8333 10.9999 12.8333ZM15.5833 12.8333C15.7646 12.8333 15.9418 12.7796 16.0925 12.6788C16.2433 12.5781 16.3608 12.4349 16.4301 12.2674C16.4995 12.0999 16.5177 11.9156 16.4823 11.7378C16.4469 11.56 16.3596 11.3967 16.2314 11.2685C16.1032 11.1403 15.9399 11.053 15.7621 11.0176C15.5843 10.9822 15.4 11.0004 15.2325 11.0698C15.065 11.1391 14.9218 11.2566 14.8211 11.4074C14.7203 11.5581 14.6666 11.7353 14.6666 11.9166C14.6666 12.1598 14.7632 12.3929 14.9351 12.5648C15.107 12.7367 15.3401 12.8333 15.5833 12.8333ZM10.9999 16.5C11.1812 16.5 11.3584 16.4462 11.5092 16.3455C11.6599 16.2448 11.7774 16.1016 11.8468 15.9341C11.9162 15.7666 11.9343 15.5823 11.899 15.4045C11.8636 15.2267 11.7763 15.0633 11.6481 14.9351C11.5199 14.8069 11.3566 14.7196 11.1788 14.6843C11.0009 14.6489 10.8166 14.667 10.6491 14.7364C10.4816 14.8058 10.3385 14.9233 10.2377 15.074C10.137 15.2248 10.0833 15.402 10.0833 15.5833C10.0833 15.8264 10.1798 16.0596 10.3517 16.2315C10.5236 16.4034 10.7568 16.5 10.9999 16.5ZM15.5833 16.5C15.7646 16.5 15.9418 16.4462 16.0925 16.3455C16.2433 16.2448 16.3608 16.1016 16.4301 15.9341C16.4995 15.7666 16.5177 15.5823 16.4823 15.4045C16.4469 15.2267 16.3596 15.0633 16.2314 14.9351C16.1032 14.8069 15.9399 14.7196 15.7621 14.6843C15.5843 14.6489 15.4 14.667 15.2325 14.7364C15.065 14.8058 14.9218 14.9233 14.8211 15.074C14.7203 15.2248 14.6666 15.402 14.6666 15.5833C14.6666 15.8264 14.7632 16.0596 14.9351 16.2315C15.107 16.4034 15.3401 16.5 15.5833 16.5ZM6.41659 12.8333C6.59789 12.8333 6.77511 12.7796 6.92586 12.6788C7.0766 12.5781 7.19409 12.4349 7.26347 12.2674C7.33286 12.0999 7.35101 11.9156 7.31564 11.7378C7.28027 11.56 7.19296 11.3967 7.06477 11.2685C6.93657 11.1403 6.77323 11.053 6.59542 11.0176C6.4176 10.9822 6.23329 11.0004 6.06579 11.0698C5.89829 11.1391 5.75513 11.2566 5.6544 11.4074C5.55368 11.5581 5.49992 11.7353 5.49992 11.9166C5.49992 12.1598 5.5965 12.3929 5.7684 12.5648C5.94031 12.7367 6.17347 12.8333 6.41659 12.8333ZM17.4166 3.66665H16.4999V2.74998C16.4999 2.50686 16.4033 2.27371 16.2314 2.1018C16.0595 1.92989 15.8264 1.83331 15.5833 1.83331C15.3401 1.83331 15.107 1.92989 14.9351 2.1018C14.7632 2.27371 14.6666 2.50686 14.6666 2.74998V3.66665H7.33325V2.74998C7.33325 2.50686 7.23667 2.27371 7.06477 2.1018C6.89286 1.92989 6.6597 1.83331 6.41659 1.83331C6.17347 1.83331 5.94031 1.92989 5.7684 2.1018C5.5965 2.27371 5.49992 2.50686 5.49992 2.74998V3.66665H4.58325C3.85391 3.66665 3.15443 3.95638 2.63871 4.4721C2.12298 4.98783 1.83325 5.6873 1.83325 6.41665V17.4166C1.83325 18.146 2.12298 18.8455 2.63871 19.3612C3.15443 19.8769 3.85391 20.1666 4.58325 20.1666H17.4166C18.1459 20.1666 18.8454 19.8769 19.3611 19.3612C19.8769 18.8455 20.1666 18.146 20.1666 17.4166V6.41665C20.1666 5.6873 19.8769 4.98783 19.3611 4.4721C18.8454 3.95638 18.1459 3.66665 17.4166 3.66665ZM18.3333 17.4166C18.3333 17.6598 18.2367 17.8929 18.0648 18.0648C17.8929 18.2367 17.6597 18.3333 17.4166 18.3333H4.58325C4.34014 18.3333 4.10698 18.2367 3.93507 18.0648C3.76316 17.8929 3.66659 17.6598 3.66659 17.4166V9.16665H18.3333V17.4166ZM18.3333 7.33331H3.66659V6.41665C3.66659 6.17353 3.76316 5.94037 3.93507 5.76847C4.10698 5.59656 4.34014 5.49998 4.58325 5.49998H17.4166C17.6597 5.49998 17.8929 5.59656 18.0648 5.76847C18.2367 5.94037 18.3333 6.17353 18.3333 6.41665V7.33331ZM6.41659 16.5C6.59789 16.5 6.77511 16.4462 6.92586 16.3455C7.0766 16.2448 7.19409 16.1016 7.26347 15.9341C7.33286 15.7666 7.35101 15.5823 7.31564 15.4045C7.28027 15.2267 7.19296 15.0633 7.06477 14.9351C6.93657 14.8069 6.77323 14.7196 6.59542 14.6843C6.4176 14.6489 6.23329 14.667 6.06579 14.7364C5.89829 14.8058 5.75513 14.9233 5.6544 15.074C5.55368 15.2248 5.49992 15.402 5.49992 15.5833C5.49992 15.8264 5.5965 16.0596 5.7684 16.2315C5.94031 16.4034 6.17347 16.5 6.41659 16.5Z" fill="url(#paint0_linear)"/>
<defs>
<linearGradient id="paint0_linear" x1="10.9999" y1="-10.1395" x2="10.9999" y2="31.2041" gradientUnits="userSpaceOnUse">
<stop offset="0.436593" stop-color="#96FBC4"/>
<stop offset="0.856357" stop-color="#20E2D7"/>
</linearGradient>
</defs>
</svg>
