<svg width="197" height="215" viewBox="0 0 197 215" fill="none" xmlns="http://www.w3.org/2000/svg">
<path d="M169.697 114.719H186.536C188.156 111.384 188.485 107.517 188.579 103.759C188.665 100.354 188.579 96.8859 187.546 93.6449C186.199 89.4913 183.318 86.0084 179.49 83.9075C175.662 81.8066 171.177 81.2462 166.949 82.3408C165.902 81.1207 164.501 80.2563 162.941 79.867C161.446 79.5461 157.007 79.9766 156.96 81.5031C156.98 81.9815 157.125 82.4462 157.383 82.8496C158.91 85.7148 161.297 88.032 163.176 90.678C167.599 96.7606 168.351 106.358 169.697 114.719Z" fill="#FFB8B8"/>
<path d="M188.157 80.9082C190.263 79.2408 192.282 77.3776 194.748 76.3286C194.949 76.2181 195.178 76.1691 195.406 76.1877C195.621 76.2395 195.812 76.364 195.946 76.54C196.25 76.9243 196.457 77.3756 196.551 77.8563C196.645 78.3369 196.623 78.833 196.486 79.3034C196.204 80.2421 195.741 81.1168 195.124 81.8789C193.543 84.0365 191.682 85.974 189.59 87.6406C188.223 88.841 186.592 89.7019 184.83 90.1535C182.419 90.6467 176.876 88.2747 179.35 85.0416C180.055 84.1178 181.699 84.2587 182.669 84.0004C184.684 83.3412 186.549 82.2903 188.157 80.9082Z" fill="white"/>
<path d="M64.5598 63.9833C63.3073 58.3625 61.6398 52.7966 61.1388 47.0584C60.6378 41.3202 61.4206 35.2375 64.6772 30.4935C65.9039 28.5117 67.7669 27.0047 69.9614 26.2192C71.8872 25.6321 75.1907 26.7124 75.1907 26.7124C76.7887 25.5442 78.4481 24.4624 80.1618 23.4715C83.8176 21.6475 87.9901 20.9821 92.0061 20.5907C97.7756 20.0348 104.461 20.3323 108.125 24.818C110.818 28.1137 111.052 32.709 111.162 36.9598L111.452 47.8569" fill="#2F2E41"/>
<path d="M129.178 214.069C125.263 141.969 131.463 115.118 128.395 107.697C121.122 90.224 78.5045 84.5014 78.5045 84.5014C78.5045 84.5014 32.3876 84.2666 22.1403 108.683C19.5726 114.821 1.78652 157.423 0.0407987 183.71C-0.843807 196.854 12.8245 194.2 24.7236 195.304V214.092L129.178 214.069Z" fill="url(#paint0_linear)"/>
<path d="M100.222 101.435L96.7228 106.242L110.383 163.561L102.297 179.836L90.4288 163.561L92.0963 106.672L87 100.809L94.3352 95L100.222 101.435Z" fill="white"/>
<path d="M108.447 88.4999L102.947 91.4999C102.947 91.4999 93.4468 92.9999 87.9468 91.4999C84.0502 90.4372 81.0449 89.4936 77.9468 86.9999C74.8487 84.5063 73.6563 82.5908 71.9468 78.9999L69.2495 67.686C69.2495 67.686 79.0115 62.3549 75.9271 41.0696C75.9271 41.0696 90.7071 48.2169 110.372 45.5318C110.372 45.5318 115.069 67.4512 113.597 77.7142C112.552 84.9999 108.447 88.4999 108.447 88.4999Z" fill="#FFB8B8"/>
<path d="M77.7508 62.2062C76.5774 60.2033 75.0308 58.4441 73.1947 57.0238C72.2428 56.188 71.0565 55.6658 69.7972 55.5286C68.7639 55.5379 67.7544 55.8391 66.885 56.3975C65.5815 57.1663 64.4542 58.2006 63.5762 59.4333C62.6982 60.6659 62.0892 62.0694 61.7888 63.5526C61.4995 64.9275 61.5533 66.3525 61.9453 67.7017C62.7016 69.7898 64.1636 71.5481 66.0787 72.6727C67.9825 73.7732 70.008 74.648 72.1144 75.2795" fill="#FFB8B8"/>
<path d="M185.951 92.8074L186.142 92.5307C186.554 91.9368 187.052 91.439 187.528 91.147C188.003 90.855 188.417 90.7926 188.679 90.9735L194.683 98.0456L193.929 98.6868L185.387 95.7312C185.126 95.5502 185.039 95.1408 185.145 94.5928C185.251 94.0449 185.542 93.4033 185.953 92.8094L185.951 92.8074Z" fill="#C7C7C7"/>
<path d="M145.727 71.9578L150.681 64.0128L146.216 61.2288L141.262 69.1738L145.727 71.9578Z" fill="white"/>
<path d="M152.446 67.7093L150.877 69.9746C149.84 71.4709 150.45 73.6882 152.239 74.9272L181.895 95.4691C183.683 96.708 185.974 96.4994 187.01 95.0031L188.579 92.7379C189.616 91.2416 189.006 89.0242 187.217 87.7853L157.561 67.2434C155.772 66.0044 153.482 66.213 152.446 67.7093Z" fill="#C7C7C7"/>
<path d="M173.131 4.58188C177.565 7.37694 181.071 11.4243 183.205 16.212C185.339 20.9998 186.005 26.3128 185.119 31.4791C184.233 36.6455 181.835 41.433 178.227 45.2362C174.62 49.0394 169.966 51.6874 164.854 52.8453C159.742 54.0033 154.401 53.619 149.507 51.7413C144.613 49.8635 140.386 46.5766 137.36 42.2962C134.335 38.0159 132.646 32.9344 132.509 27.6944C132.372 22.4545 133.791 17.2915 136.589 12.8585C140.338 6.91656 146.294 2.7068 153.146 1.15475C159.999 -0.397301 167.187 0.835419 173.131 4.58188Z" stroke="#C7C7C7"/>
<path d="M174.379 86.0984C175.224 85.707 175.459 84.6267 175.49 83.6873C175.543 81.9182 175.242 80.1563 174.606 78.5049L177.69 85.2921C178.204 86.65 178.978 87.8945 179.968 88.9557C180.474 89.4764 181.117 89.8421 181.823 90.0099C182.528 90.1777 183.267 90.1406 183.953 89.903C185.871 89.0419 186.192 86.4585 185.926 84.3762C185.686 82.4295 185.172 80.5266 184.399 78.7241C183.806 77.0992 182.733 75.6931 181.323 74.6925C179.859 73.7844 177.776 73.7139 176.547 74.9038C175.201 72.845 172.422 69.1421 169.447 69.878C167.498 70.3555 167.725 71.4437 168.116 73.2364C168.656 75.6553 170.95 87.7032 174.379 86.0984Z" fill="#FFB8B8"/>
<path d="M121.819 99.6024C121.819 99.6024 161.008 136.396 161.415 133.985C164.006 118.899 166.065 105.998 166.065 105.998L191.632 107.039C191.632 107.039 191.632 179.06 174.41 180.806C161.368 182.121 115.909 139.558 115.909 139.558L121.819 99.6024Z" fill="url(#paint1_linear)"/>
<path d="M102.843 141.163L150.62 149.907L136.998 214.069L87.249 208.299L102.843 141.163Z" fill="#2F2E41"/>
<path d="M137.006 214.46H136.959L87.2021 208.698C87.1478 208.691 87.0957 208.672 87.0487 208.644C87.0016 208.616 86.9607 208.578 86.9281 208.534C86.8975 208.489 86.8762 208.438 86.8655 208.384C86.8547 208.33 86.8547 208.275 86.8655 208.221L102.46 141.077C102.482 140.978 102.542 140.892 102.627 140.837C102.711 140.781 102.814 140.761 102.914 140.78L150.667 149.532C150.718 149.54 150.766 149.559 150.809 149.587C150.853 149.616 150.889 149.653 150.917 149.696C150.976 149.786 150.999 149.895 150.98 150.001L137.358 214.155C137.34 214.237 137.296 214.311 137.233 214.366C137.169 214.421 137.09 214.454 137.006 214.46ZM87.7266 207.963L136.693 213.638L150.15 150.228L103.141 141.617L87.7266 207.963Z" fill="#231F20"/>
<path d="M108.753 170.911C108.385 166.723 94.7953 172.422 94.7953 172.422C94.7953 172.422 98.6312 163.685 96.5724 162.096C94.5135 160.507 87.5932 171.013 87.5932 171.013C81.7827 171.912 75.9138 172.383 70.0342 172.422L68.813 191.914C88.3056 190.505 100.948 189.95 101.551 188.697C102.741 186.2 109.121 175.099 108.753 170.911Z" fill="#FFB8B8"/>
<path d="M143 27.5083C143.211 27.2254 143.439 26.9566 143.684 26.7038L146.269 24.3882C146.367 24.2447 146.498 24.1275 146.651 24.0466C146.803 23.9656 146.972 23.9234 147.144 23.9234C147.316 23.9234 147.486 23.9656 147.638 24.0466C147.791 24.1275 147.922 24.2447 148.02 24.3882L154.632 31.2371C154.725 31.4044 154.86 31.5436 155.024 31.6404C155.187 31.7372 155.373 31.7882 155.562 31.7882C155.75 31.7882 155.936 31.7372 156.099 31.6404C156.263 31.5436 156.398 31.4044 156.491 31.2371L171.968 15.5608C172.061 15.3909 172.196 15.2493 172.361 15.1506C172.525 15.052 172.712 15 172.903 15C173.094 15 173.281 15.052 173.446 15.1506C173.61 15.2493 173.745 15.3909 173.838 15.5608L176.551 18.3438C176.69 18.4444 176.803 18.5772 176.881 18.7314C176.959 18.8855 177 19.0564 177 19.2299C177 19.4033 176.959 19.5742 176.881 19.7284C176.803 19.8825 176.69 20.0154 176.551 20.1159L156.405 40.5863C156.305 40.7153 156.178 40.8195 156.033 40.8911C155.888 40.9628 155.728 41 155.567 41C155.405 41 155.246 40.9628 155.101 40.8911C154.956 40.8195 154.828 40.7153 154.728 40.5863C150.947 36.6147 147.169 32.6286 143.395 28.628C143.245 28.438 143.113 28.2342 143 28.0192V27.5083Z" fill="url(#paint2_linear)"/>
<path d="M115.932 145.344L118.155 140.216L138.877 143.88V149.289L115.932 145.344Z" fill="#231F20"/>
<path d="M138.877 149.68H138.814L115.869 145.766C115.809 145.759 115.753 145.737 115.703 145.703C115.654 145.669 115.613 145.624 115.585 145.571C115.556 145.518 115.541 145.459 115.54 145.399C115.539 145.339 115.553 145.28 115.579 145.226L117.795 140.098C117.829 140.016 117.89 139.948 117.969 139.905C118.047 139.863 118.138 139.848 118.225 139.864L138.947 143.527C139.038 143.544 139.121 143.592 139.179 143.664C139.238 143.736 139.27 143.826 139.268 143.919V149.312C139.268 149.369 139.255 149.426 139.231 149.477C139.207 149.529 139.171 149.574 139.127 149.61C139.053 149.66 138.965 149.684 138.877 149.68ZM116.495 145.046L138.485 148.819V144.201L118.398 140.654L116.495 145.046Z" fill="#2F2E41"/>
<defs>
<linearGradient id="paint0_linear" x1="64.6407" y1="-0.12944" x2="64.6407" y2="292.111" gradientUnits="userSpaceOnUse">
<stop offset="0.436593" stop-color="#96FBC4"/>
<stop offset="0.856357" stop-color="#20E2D7"/>
</linearGradient>
<linearGradient id="paint1_linear" x1="153.771" y1="46.5519" x2="153.771" y2="229.742" gradientUnits="userSpaceOnUse">
<stop offset="0.436593" stop-color="#96FBC4"/>
<stop offset="0.856357" stop-color="#20E2D7"/>
</linearGradient>
<linearGradient id="paint2_linear" x1="160" y1="-1.97959" x2="160" y2="56.6531" gradientUnits="userSpaceOnUse">
<stop offset="0.436593" stop-color="#96FBC4"/>
<stop offset="0.856357" stop-color="#20E2D7"/>
</linearGradient>
</defs>
</svg>
