<svg width="28" height="28" viewBox="0 0 28 28" fill="none" xmlns="http://www.w3.org/2000/svg">
<path d="M14 14.125C15.4255 14.125 16.7927 13.5587 17.8007 12.5507C18.8087 11.5427 19.375 10.1755 19.375 8.75C19.375 7.32446 18.8087 5.95731 17.8007 4.9493C16.7927 3.94129 15.4255 3.375 14 3.375C12.5745 3.375 11.2073 3.94129 10.1993 4.9493C9.19129 5.95731 8.625 7.32446 8.625 8.75C8.625 10.1755 9.19129 11.5427 10.1993 12.5507C11.2073 13.5587 12.5745 14.125 14 14.125ZM17.375 8.75C17.375 9.64511 17.0194 10.5036 16.3865 11.1365C15.7535 11.7694 14.8951 12.125 14 12.125C13.1049 12.125 12.2464 11.7694 11.6135 11.1365C10.9806 10.5036 10.625 9.64511 10.625 8.75C10.625 7.85489 10.9806 6.99645 11.6135 6.36351C12.2464 5.73058 13.1049 5.375 14 5.375C14.8951 5.375 15.7535 5.73058 16.3865 6.36351C17.0194 6.99645 17.375 7.85489 17.375 8.75ZM22.75 24.5C22.75 24.625 22.7501 24.625 22.7501 24.625H22.7503L22.7508 24.625L22.7523 24.625L22.757 24.6249L22.7738 24.6245C22.7881 24.624 22.8085 24.6231 22.8341 24.6213C22.8853 24.6176 22.9576 24.6104 23.044 24.596C23.2162 24.5672 23.4478 24.5096 23.6809 24.3931C23.9145 24.2763 24.1519 24.0991 24.3306 23.8311C24.5098 23.5622 24.625 23.2094 24.625 22.75C24.625 21.8429 24.1751 20.0608 22.6196 18.5054C21.0605 16.9463 18.4014 15.625 14 15.625C9.59864 15.625 6.93945 16.9463 5.38036 18.5054C3.82493 20.0608 3.375 21.8429 3.375 22.75C3.375 23.2094 3.4902 23.5622 3.66943 23.8311C3.84814 24.0991 4.08552 24.2763 4.3191 24.3931C4.55219 24.5096 4.78376 24.5672 4.95601 24.596C5.04243 24.6104 5.11472 24.6176 5.1659 24.6213C5.19151 24.6231 5.21189 24.624 5.22618 24.6245L5.24296 24.6249L5.24774 24.625L5.24919 24.625L5.24968 24.625H5.24986C5.24993 24.625 5.25 24.625 5.25 24.5V24.625H22.75V24.5ZM21.2056 19.9194C22.2652 20.9789 22.5711 22.1221 22.6182 22.618H5.38224C5.43046 22.1214 5.73526 20.9785 6.79439 19.9194C7.90759 18.8062 10.0189 17.625 14 17.625C17.9793 17.625 20.0924 18.8062 21.2056 19.9194Z" fill="#979797" stroke="#5C5C5C" stroke-width="0.25"/>
</svg>
