<svg width="69" height="73" viewBox="0 0 69 73" fill="none" xmlns="http://www.w3.org/2000/svg">
<path d="M42.8955 61.8717L45.1817 71.3857" stroke="#5C5C5C" stroke-width="0.75"/>
<path d="M25.9664 22.8786C25.9664 22.8786 33.281 1 42.7291 1C50.0437 1 52.7867 3.53665 54.9202 10.1953C55.8121 13.2111 56.0514 18.8151 55.8621 25.005C55.5338 35.7365 53.9168 48.2293 52.1772 52.05C49.1294 58.0745 40.5956 69.4895 25.6616 64.0991C13.7753 59.977 13.7753 56.4891 15.2992 49.1963C16.2135 42.5376 25.9664 22.8786 25.9664 22.8786Z" fill="#B1C3F2"/>
<path d="M26.7102 20.8427C35.3387 27.3835 50.2321 28.8106 55.8621 25.005M55.8621 25.005C56.0514 18.8151 55.8121 13.2111 54.9201 10.1953C52.7867 3.53665 50.0437 1 42.7291 1C33.281 1 25.9664 22.8786 25.9664 22.8786C25.9664 22.8786 16.2135 42.5376 15.2992 49.1963C13.7753 56.4891 13.7753 59.977 25.6616 64.0991C40.5956 69.4895 49.1294 58.0745 52.1772 52.05C53.9168 48.2293 55.5338 35.7365 55.8621 25.005Z" stroke="#5C5C5C" stroke-width="0.5" stroke-miterlimit="10"/>
<path d="M54.9199 9.56045L66.1967 6.38964C66.1967 6.38964 69.5492 5.75548 67.111 7.97505C64.6728 10.5117 55.5295 13.3654 55.5295 13.3654" fill="#F8FAAD"/>
<path d="M54.9199 9.56045L66.1967 6.38964C66.1967 6.38964 69.5492 5.75548 67.111 7.97505C64.6728 10.5117 55.5295 13.3654 55.5295 13.3654" stroke="#5C5C5C" stroke-width="0.5" stroke-miterlimit="10"/>
<path d="M47.3001 12.7318C47.9734 12.7318 48.5192 12.164 48.5192 11.4635C48.5192 10.763 47.9734 10.1952 47.3001 10.1952C46.6268 10.1952 46.0811 10.763 46.0811 11.4635C46.0811 12.164 46.6268 12.7318 47.3001 12.7318Z" fill="#1E1E1E"/>
<path d="M34.3203 64.1248L35.4666 72.7001" stroke="#5C5C5C" stroke-width="0.75"/>
<path d="M25.9741 21.1761C26.8918 19.6533 28.035 19.0587 30.3212 19.0585C34.1756 19.0579 37.1797 20.8425 38.1593 26.0207C38.0808 29.3905 37.2979 43.9425 28.6472 55.6375C21.0536 65.9815 7.82984 67.7307 2.3179 68.0359C1.0833 68.2796 0.258022 66.6422 0.919096 65.7289L25.9741 21.1761Z" fill="#B1C3F2" stroke="#5C5C5C" stroke-width="0.5" stroke-miterlimit="10"/>
<path d="M32.0353 19.0588C32.0353 19.0588 15.4604 58.8986 5.51973 67.5461L32.0353 19.0588Z" fill="#B1C3F2"/>
<path d="M32.0353 19.0588C32.0353 19.0588 15.4604 58.8986 5.51973 67.5461" stroke="#5C5C5C" stroke-width="0.5" stroke-miterlimit="10"/>
<path d="M34.9387 20.0063C34.9387 20.0063 25.8239 52.2391 16.6039 64.3914L34.9387 20.0063Z" fill="#B1C3F2"/>
<path d="M34.9387 20.0063C34.9387 20.0063 25.8239 52.2391 16.6039 64.3914" stroke="#5C5C5C" stroke-width="0.5" stroke-miterlimit="10"/>
</svg>
