<svg width="122" height="86" viewBox="0 0 122 86" fill="none" xmlns="http://www.w3.org/2000/svg">
<path d="M13.2567 41.6841L7.79865 67.9469L25.4262 56.9486L24.3699 53.9674L13.2567 41.6841Z" fill="#928078"/>
<path d="M59.4656 29.8416C57.0318 26.0254 58.2179 20.3047 62.4912 16.4534C66.7429 12.6049 72.5639 11.9798 76.1003 14.8014L80.2739 11.0284C75.0376 6.38166 66.0157 7.19151 59.4588 13.1076C52.9019 19.0237 51.1989 27.9461 55.2921 33.6145L59.4656 29.8416Z" fill="#FDCD71"/>
<path d="M78.6971 57.0893L23.9646 53.5362L22.2275 58.8878L87.927 69.742L78.6971 57.0893Z" fill="#FDCD71"/>
<path d="M104.592 44.17L82.4368 18.081L83.0853 16.4419C83.1821 16.1665 85.7546 9.78829 90.4404 5.55593C95.5792 0.915468 101.546 0.403519 107.219 4.1618C121.6 13.6639 107.283 39.4219 106.655 40.5319L104.592 44.17ZM89.2155 17.0499L103.46 33.8071C106.437 27.1585 111.219 13.7898 103.994 9.02126C100.523 6.71779 97.5298 6.98592 94.3403 9.86695C91.9004 12.0831 90.1228 15.2026 89.2155 17.0499Z" fill="#FDCD71"/>
<path d="M79.2593 11.0024L55.3431 32.6114C54.1138 33.7221 54.0176 35.6191 55.1284 36.8485L87.9993 73.2292C89.1101 74.4586 91.0071 74.5547 92.2365 73.444L116.153 51.835C117.382 50.7243 117.478 48.8272 116.367 47.5979L83.4965 11.2172C82.3857 9.98783 80.4887 9.89168 79.2593 11.0024Z" fill="#FDCD71"/>
</svg>
