<svg width="358" height="75" viewBox="0 0 358 75" fill="none" xmlns="http://www.w3.org/2000/svg">
<g filter="url(#filter0_d)">
<path d="M16 33.5C16 21.6259 25.6259 12 37.5 12H320.5C332.374 12 342 21.6259 342 33.5C342 45.3741 332.374 55 320.5 55H37.5C25.6259 55 16 45.3741 16 33.5Z" fill="#20E2D7"/>
<path d="M103.203 29.3281H99.5469C99.9219 30.2135 100.151 31.0781 100.234 31.9219L99.7969 32.0312H102.688L102.312 31.9688C102.688 31.0521 102.984 30.1719 103.203 29.3281ZM103.125 35.6562H100.047C99.901 35.9688 99.625 36.5208 99.2188 37.3125C100.115 37.5729 100.964 37.8698 101.766 38.2031C102.411 37.5469 102.865 36.6979 103.125 35.6562ZM106.281 33.0781H101.25C101.167 33.276 101.026 33.5781 100.828 33.9844C100.693 34.2865 100.589 34.5104 100.516 34.6562H106.219V35.6562H104.312C104.021 36.9062 103.536 37.9115 102.859 38.6719C104.141 39.2344 105.161 39.7812 105.922 40.3125L105.172 41.2344C104.37 40.651 103.302 40.0573 101.969 39.4531C100.74 40.3177 98.9271 40.9062 96.5312 41.2188C96.4167 40.8021 96.2604 40.4688 96.0625 40.2188C98.1354 40.0104 99.7188 39.5833 100.812 38.9375C99.8958 38.5833 99.2188 38.3333 98.7812 38.1875L98.5312 38.6406L97.5 38.2656C97.8438 37.651 98.2865 36.7812 98.8281 35.6562H96.4531V34.7812L95.0625 35.2188V39.7812C95.0625 40.3646 94.9115 40.75 94.6094 40.9375C94.5677 40.9583 94.5365 40.974 94.5156 40.9844C94.1406 41.1406 93.4375 41.2135 92.4062 41.2031C92.3333 40.7552 92.2188 40.375 92.0625 40.0625C92.8125 40.0938 93.3385 40.099 93.6406 40.0781C93.7969 40.0156 93.8854 39.9167 93.9062 39.7812V35.5625L91.7656 36.2188L91.5 35.0781C91.9167 34.974 92.7188 34.75 93.9062 34.4062V30.9062H91.7656V29.8281H93.9062V26.625H95.0625V29.8281H96.6094V30.9062H95.0625V34.0625L96.5938 33.6094L96.75 34.6562H99.2812C99.5625 34.0417 99.7917 33.5156 99.9688 33.0781H96.375V32.0312H99.1562C99.0417 31.1667 98.8281 30.3177 98.5156 29.4844L99.2812 29.3281H97.0156V28.3125H100.797V26.6094H101.953V28.3125H105.828V29.3281H103.812L104.391 29.4062C103.974 30.5938 103.641 31.4688 103.391 32.0312H106.281V33.0781ZM120.094 26.5625L120.922 27.5156C117.932 28.1406 113.833 28.5521 108.625 28.75C108.604 28.4792 108.516 28.1458 108.359 27.75C113.182 27.5521 116.948 27.1875 119.656 26.6562C119.812 26.625 119.958 26.5938 120.094 26.5625ZM115.828 30.8281L114.719 31.1094C114.604 30.3802 114.333 29.5938 113.906 28.75L114.984 28.5156C115.411 29.3281 115.693 30.099 115.828 30.8281ZM109.312 32.25V34.4531H108.203V31.2031H110.75C110.542 30.5885 110.188 29.8854 109.688 29.0938L110.719 28.7969C111.26 29.5573 111.635 30.2552 111.844 30.8906L110.906 31.2031H117.859C118.453 30.3177 118.953 29.4115 119.359 28.4844L120.547 28.8438C120.089 29.6562 119.599 30.4427 119.078 31.2031H121.812V34.4531H120.641V32.25H109.312ZM118.094 35.1719H111.906C112.646 36.2344 113.693 37.151 115.047 37.9219C116.401 37.1406 117.417 36.224 118.094 35.1719ZM119.078 34.0156L119.859 34.5156C119.078 36.1198 117.859 37.4583 116.203 38.5312C117.901 39.2917 119.875 39.8073 122.125 40.0781C121.865 40.349 121.625 40.7188 121.406 41.1875C118.958 40.8333 116.828 40.1719 115.016 39.2031C113.234 40.1094 111.083 40.7708 108.562 41.1875C108.365 40.7708 108.13 40.4167 107.859 40.125C110.234 39.8021 112.24 39.2708 113.875 38.5312C112.521 37.6042 111.443 36.5052 110.641 35.2344L110.812 35.1719H110.125V34.0625H118.844L119.078 34.0156ZM131.094 39.2812H138.141V40.4688H123.875V39.2812H129.844V26.8594H131.094V31.7656H137.047V32.9375H131.094V39.2812ZM151.078 31.6875H152.125V36.1875C152.135 36.3021 152.161 36.3802 152.203 36.4219C152.286 36.4844 152.391 36.5156 152.516 36.5156H152.953C153.141 36.5156 153.271 36.4896 153.344 36.4375C153.427 36.375 153.484 36.2708 153.516 36.125C153.557 35.75 153.573 35.25 153.562 34.625C153.812 34.8333 154.104 34.9948 154.438 35.1094C154.417 35.9635 154.365 36.5365 154.281 36.8281C154.188 37.0885 154.031 37.2917 153.812 37.4375C153.615 37.5417 153.359 37.5938 153.047 37.5938H152.25C151.854 37.5833 151.557 37.4896 151.359 37.3125C151.182 37.1667 151.089 36.8646 151.078 36.4062C151.078 36.3229 151.078 36.2396 151.078 36.1562V31.6875ZM153.531 28.4219L152.766 29.0938C152.307 28.5104 151.589 27.875 150.609 27.1875L151.359 26.6094C152.328 27.2344 153.052 27.8385 153.531 28.4219ZM148.266 38.9375V30.5H144.219V29.3906H148.266V26.6719H149.453V29.3906H154.078V30.5H149.453V38.9375H148.266ZM145.734 31.625L146.875 31.75C146.656 34.5312 145.99 36.5521 144.875 37.8125C144.542 37.5104 144.224 37.2865 143.922 37.1406C144.964 36.0677 145.568 34.2604 145.734 31.7188C145.734 31.6875 145.734 31.6562 145.734 31.625ZM143.906 28.7188L143.078 29.5312C142.599 28.9479 141.823 28.3385 140.75 27.7031C140.656 27.6406 140.568 27.5885 140.484 27.5469L141.266 26.8125C142.432 27.4375 143.292 28.0469 143.844 28.6406C143.865 28.6719 143.885 28.6979 143.906 28.7188ZM143.453 31.8438L142.625 32.6875C142.062 32.0938 141.234 31.5052 140.141 30.9219C140.036 30.8698 139.943 30.8229 139.859 30.7812L140.641 30.0156C141.714 30.5052 142.594 31.0625 143.281 31.6875C143.354 31.75 143.411 31.8021 143.453 31.8438ZM143.047 34V38C143.786 39.125 145.13 39.7292 147.078 39.8125C149.516 39.875 151.854 39.8438 154.094 39.7188C154.198 39.7188 154.292 39.7135 154.375 39.7031C154.177 40.0365 154.042 40.4271 153.969 40.875C151.51 40.9583 149.219 40.974 147.094 40.9219C145.104 40.8281 143.63 40.25 142.672 39.1875C142.62 39.1354 142.573 39.0833 142.531 39.0312C141.979 39.5625 141.208 40.2448 140.219 41.0781L139.594 39.9062C140.333 39.3958 141.099 38.7865 141.891 38.0781V35.1094H139.797V34H143.047ZM169.281 30.1562V39.6562C169.281 40.3125 169.115 40.7344 168.781 40.9219C168.719 40.9635 168.656 40.9948 168.594 41.0156C168.188 41.1406 167.25 41.2031 165.781 41.2031C165.719 40.7656 165.589 40.3646 165.391 40C166.495 40.0312 167.276 40.0365 167.734 40.0156C167.953 39.9427 168.073 39.8229 168.094 39.6562V31.3281H164.016C164.661 33.901 165.958 35.6042 167.906 36.4375C167.562 36.7917 167.286 37.1354 167.078 37.4688C165.12 36.4792 163.781 34.7344 163.062 32.2344C162.375 34.7135 161.005 36.4844 158.953 37.5469C158.714 37.1823 158.448 36.8698 158.156 36.6094C160.281 35.5573 161.615 33.7969 162.156 31.3281H157.984V41.2188H156.812V30.1562H162.625C162.542 29.5208 162.484 28.9323 162.453 28.3906H159.578V27.3281H163.469C163.521 28.3385 163.615 29.2812 163.75 30.1562H169.281ZM173.531 29.1719V30.9531H172.375V28.0781H178.359V26.6094H179.562V28.0781H185.641V30.9531H184.422V29.1719H173.531ZM180.375 30.6094L181.188 29.9062C182.865 30.9062 184.182 31.849 185.141 32.7344C185.224 32.8177 185.302 32.8958 185.375 32.9688L184.5 33.7812C183.719 32.9583 182.583 32.0521 181.094 31.0625C180.844 30.8958 180.604 30.7448 180.375 30.6094ZM176.328 29.9219L177.469 30.2812C176.531 31.5104 175.328 32.599 173.859 33.5469C173.682 33.6615 173.51 33.7656 173.344 33.8594C173.062 33.474 172.776 33.1615 172.484 32.9219C173.974 32.1823 175.167 31.2917 176.062 30.25C176.156 30.1354 176.245 30.026 176.328 29.9219ZM175.672 35.8906H182.594C181.052 34.8385 179.859 33.8021 179.016 32.7812C178.245 33.7917 177.13 34.8281 175.672 35.8906ZM175.766 39.6094H182.219V36.9531H175.766V39.6094ZM178.359 31.6875H179.547C180.807 33.1979 182.432 34.5156 184.422 35.6406C185.099 36.026 185.76 36.349 186.406 36.6094C186.125 36.9219 185.875 37.2812 185.656 37.6875C184.854 37.2917 184.104 36.8698 183.406 36.4219V41.1719H182.219V40.6875H175.766V41.2344H174.625V36.5938C173.99 37 173.266 37.4115 172.453 37.8281C172.307 37.5052 172.083 37.1719 171.781 36.8281C173.688 35.9635 175.396 34.8021 176.906 33.3438C177.5 32.7708 177.984 32.2188 178.359 31.6875ZM195.297 34.5312H194.094V32.4688H196.188V34.1406C196.188 35.2552 195.734 36.099 194.828 36.6719C194.661 36.776 194.562 36.8281 194.531 36.8281L194.141 36.1875C194.911 35.7917 195.297 35.2396 195.297 34.5312ZM216.531 32.3906V30.8281H211.859V32.3906H216.531ZM216.531 34.7969V33.2344H211.859V34.7969H216.531ZM216.531 37.2656V35.7031H211.859V37.2656H216.531ZM210.766 29.9062H213.172C213.339 29.1771 213.443 28.6719 213.484 28.3906H210.156V27.3594H218.219V28.3906H214.797C214.776 28.4531 214.625 28.9583 214.344 29.9062H217.656V38.1875H210.766V29.9062ZM209.125 36.0625L208.25 35.8281C208.542 35.1719 208.828 34.3906 209.109 33.4844H207.438V39.8281C207.438 40.3906 207.286 40.75 206.984 40.9062C206.932 40.9271 206.885 40.9479 206.844 40.9688C206.479 41.1146 205.724 41.1875 204.578 41.1875C204.516 40.7812 204.396 40.4062 204.219 40.0625C205.146 40.0833 205.729 40.0833 205.969 40.0625C206.167 40.0417 206.271 39.9583 206.281 39.8125V33.4844H203.656V32.4375H207.734C206.797 31.5833 205.703 30.8177 204.453 30.1406L205.094 29.375C205.594 29.6354 206.135 29.9479 206.719 30.3125C207.271 29.7812 207.797 29.1615 208.297 28.4531H204.016V27.3906H209.047L209.281 27.3125L210.031 27.8281C209.344 28.9427 208.516 29.9635 207.547 30.8906C208.089 31.276 208.505 31.625 208.797 31.9375L208.406 32.4375H209.578L209.75 32.3906L210.484 32.5781C209.828 34.4219 209.375 35.5833 209.125 36.0625ZM212.344 38.5L213.391 39.1094C212.589 39.8698 211.531 40.526 210.219 41.0781C210.052 41.151 209.896 41.2135 209.75 41.2656C209.604 41.0885 209.344 40.8229 208.969 40.4688C210.177 40.0312 211.188 39.4792 212 38.8125C212.135 38.6979 212.25 38.5938 212.344 38.5ZM214.812 39.1719L215.703 38.5625C216.901 39.2708 217.844 39.9427 218.531 40.5781L217.609 41.2656C216.953 40.6302 216.021 39.9323 214.812 39.1719ZM220.5 35.6875L221.531 35.875C221.281 37.5938 220.901 38.9479 220.391 39.9375C220.141 39.75 219.833 39.599 219.469 39.4844C219.958 38.5885 220.302 37.3229 220.5 35.6875ZM223.969 35.9062L224.875 35.6094C225.427 36.7552 225.781 37.7812 225.938 38.6875L225 39.0156C224.854 38.1615 224.51 37.125 223.969 35.9062ZM223.578 32.1094L224.453 31.7344C225.297 33.026 225.828 34.1042 226.047 34.9688L225.094 35.4219C225.021 35.1302 224.922 34.8281 224.797 34.5156L223.422 34.5938V41.25H222.328V34.6562L219.719 34.7812L219.625 33.7188C219.844 33.7188 220.198 33.7083 220.688 33.6875C220.917 33.4167 221.271 32.9375 221.75 32.25C221.271 31.5417 220.573 30.776 219.656 29.9531L220.266 29.1875C220.464 29.3542 220.625 29.4896 220.75 29.5938C221.25 28.75 221.724 27.7604 222.172 26.625L223.219 27.0312C222.448 28.5417 221.844 29.6094 221.406 30.2344C221.802 30.6302 222.125 31 222.375 31.3438C223.052 30.2917 223.625 29.3229 224.094 28.4375L225.109 28.875C223.974 30.7188 222.87 32.3073 221.797 33.6406C222.026 33.6302 222.385 33.6146 222.875 33.5938C223.542 33.5625 224.036 33.5417 224.359 33.5312C224.172 33.125 223.911 32.651 223.578 32.1094ZM233.969 29.4844V30.0938C233.771 35.0521 233.547 38.125 233.297 39.3125C233.161 39.8958 233 40.3021 232.812 40.5312C232.542 40.8646 232.182 41.0677 231.734 41.1406C231.651 41.151 231.568 41.1615 231.484 41.1719C230.911 41.224 230.089 41.2135 229.016 41.1406C228.964 40.6719 228.833 40.2812 228.625 39.9688C229.344 40.0312 230.161 40.0625 231.078 40.0625C231.401 40.0521 231.63 39.974 231.766 39.8281C232.151 39.4323 232.438 37.6875 232.625 34.5938C232.688 33.5 232.75 32.1719 232.812 30.6094H227.562C227.083 31.4948 226.589 32.2396 226.078 32.8438C225.807 32.6146 225.458 32.3802 225.031 32.1406C226.167 30.9219 227.068 29.2344 227.734 27.0781C227.786 26.9115 227.833 26.7552 227.875 26.6094L229.078 26.875C228.776 27.8854 228.453 28.7552 228.109 29.4844H233.969ZM230.391 36.5938L229.359 37.1406C228.964 36.1302 228.333 35.0104 227.469 33.7812C227.365 33.6458 227.271 33.5208 227.188 33.4062L228.156 32.9375C229.125 34.1667 229.839 35.3125 230.297 36.375C230.339 36.4583 230.37 36.5312 230.391 36.5938ZM241.922 36.0625L241.203 36.9531C240.766 36.349 240.167 35.6094 239.406 34.7344V41.2188H238.234V35.2969C237.547 36.0677 236.849 36.724 236.141 37.2656C235.943 36.8385 235.724 36.4948 235.484 36.2344C236.828 35.276 238.042 34 239.125 32.4062C239.542 31.8021 239.891 31.2083 240.172 30.625H235.922V29.5312H238.234V26.625H239.406V29.5312H240.766L240.969 29.4688L241.641 29.9375C241.151 31.1562 240.464 32.3854 239.578 33.625L240.172 34.2188C240.661 33.6354 241.062 33.0677 241.375 32.5156L242.156 33.1562C242.042 33.2917 241.865 33.4948 241.625 33.7656C241.208 34.2552 240.906 34.5938 240.719 34.7812C241.312 35.3958 241.714 35.8229 241.922 36.0625ZM249.969 28.0781V28.7344C249.844 34.3073 249.672 37.7292 249.453 39C249.349 39.6562 249.203 40.1042 249.016 40.3438C248.755 40.7292 248.396 40.9583 247.938 41.0312C247.885 41.0312 247.839 41.0365 247.797 41.0469C247.432 41.0885 246.677 41.0885 245.531 41.0469C245.51 40.6615 245.38 40.2552 245.141 39.8281C245.766 39.8802 246.484 39.9062 247.297 39.9062C247.557 39.9062 247.766 39.8125 247.922 39.625C248.255 39.2292 248.49 37.4323 248.625 34.2344C248.688 32.9219 248.74 31.2448 248.781 29.2031H245.547C245.464 32.224 245.188 34.5521 244.719 36.1875C244.062 38.4271 242.948 40.1094 241.375 41.2344C241.073 40.849 240.766 40.5521 240.453 40.3438C242.318 39.1042 243.495 37.0104 243.984 34.0625C244.172 32.875 244.286 31.2552 244.328 29.2031H241.625V28.0781H249.969ZM264.828 27.5938L265.938 28C265.177 29.3021 264.646 30.151 264.344 30.5469L263.469 30.1719C264.042 29.3281 264.495 28.4688 264.828 27.5938ZM259.141 27.7031L260.141 27.8906C259.953 29.151 259.516 30.0938 258.828 30.7188C258.818 30.7292 258.807 30.7396 258.797 30.75L257.875 30.2969C258.5 29.7865 258.911 28.9688 259.109 27.8438C259.12 27.7917 259.13 27.7448 259.141 27.7031ZM266.266 32.8125L265.484 33.7188C264.661 32.9792 263.438 32.099 261.812 31.0781C261.229 32.2448 260.203 33.1146 258.734 33.6875C258.578 33.7396 258.427 33.7917 258.281 33.8438C258.125 33.4896 257.901 33.1771 257.609 32.9062C259.13 32.4375 260.161 31.6979 260.703 30.6875C261.13 29.9062 261.391 28.6406 261.484 26.8906C261.495 26.8073 261.5 26.7188 261.5 26.625H262.641C262.568 28.125 262.422 29.2708 262.203 30.0625C264.057 31.1771 265.411 32.0938 266.266 32.8125ZM264.391 37.5625L263.5 37.1875C264.042 36.4167 264.536 35.4896 264.984 34.4062L266.141 34.7969C265.391 36.1094 264.807 37.0312 264.391 37.5625ZM258.438 37.8594L257.5 37.2969C258.229 36.7656 258.724 35.849 258.984 34.5469C258.984 34.5365 258.984 34.526 258.984 34.5156L260.047 34.7344C259.776 36.151 259.24 37.1927 258.438 37.8594ZM257.016 27.1719V28.125H252.469V27.1719H257.016ZM257.594 29.2656V30.2344H251.672V29.2656H257.594ZM257.047 31.4219V32.375H252.406V31.4219H257.047ZM252.406 34.5V33.5312H257.047V34.5H252.406ZM256.047 36.6562H253.438V39.3438H256.047V36.6562ZM257.062 35.6875V40.2969H253.438V41.0469H252.391V35.6875H257.062ZM262.562 33.2188V35.5C262.562 36.2812 262.828 37.0781 263.359 37.8906C264.057 38.9323 265.083 39.7083 266.438 40.2188C266.156 40.5625 265.917 40.901 265.719 41.2344C264.292 40.6719 263.203 39.724 262.453 38.3906C262.214 37.974 262.052 37.5885 261.969 37.2344C261.771 38.0365 261.281 38.8177 260.5 39.5781C259.76 40.2969 258.865 40.849 257.812 41.2344C257.583 40.8385 257.349 40.5156 257.109 40.2656C259.12 39.5781 260.443 38.4688 261.078 36.9375C261.286 36.4271 261.391 35.9479 261.391 35.5V33.2188H262.562Z" fill="white"/>
</g>
<defs>
<filter id="filter0_d" x="0" y="0" width="358" height="75" filterUnits="userSpaceOnUse" color-interpolation-filters="sRGB">
<feFlood flood-opacity="0" result="BackgroundImageFix"/>
<feColorMatrix in="SourceAlpha" type="matrix" values="0 0 0 0 0 0 0 0 0 0 0 0 0 0 0 0 0 0 127 0"/>
<feMorphology radius="1" operator="erode" in="SourceAlpha" result="effect1_dropShadow"/>
<feOffset dy="4"/>
<feGaussianBlur stdDeviation="8.5"/>
<feColorMatrix type="matrix" values="0 0 0 0 0.418594 0 0 0 0 0.7125 0 0 0 0 0.695835 0 0 0 0.51 0"/>
<feBlend mode="normal" in2="BackgroundImageFix" result="effect1_dropShadow"/>
<feBlend mode="normal" in="SourceGraphic" in2="effect1_dropShadow" result="shape"/>
</filter>
</defs>
</svg>
