<svg width="143" height="62" viewBox="0 0 143 62" fill="none" xmlns="http://www.w3.org/2000/svg">
<g filter="url(#filter0_d)">
<rect x="8" y="8" width="123" height="42" rx="10" fill="white"/>
<path d="M47.6006 34.5898H53.6797V35.6738H40.3789V34.5898H46.458V30.7812H42.0049V29.7119H46.458V26.4307H42.9277C42.4199 27.4268 41.8975 28.2422 41.3604 28.877C41.0771 28.6328 40.7402 28.4131 40.3496 28.2178C41.502 26.9873 42.4102 25.2197 43.0742 22.915C43.0938 22.8369 43.1133 22.7637 43.1328 22.6953L44.2607 22.9443C43.9971 23.8525 43.7139 24.6533 43.4111 25.3467H46.458V22.4609H47.6006V25.3467H52.9766V26.4307H47.6006V29.7119H52.4199V30.7812H47.6006V34.5898ZM59.0703 24.1895L58.4111 25.0684C57.8838 24.541 57.1123 24.0186 56.0967 23.501C56.0186 23.4521 55.9453 23.4131 55.877 23.3838L56.5068 22.5781C57.6299 23.0957 58.4697 23.6182 59.0264 24.1455C59.0459 24.165 59.0605 24.1797 59.0703 24.1895ZM58.3232 28.0566L57.6787 28.9648C57.1416 28.457 56.2871 27.9346 55.1152 27.3975L55.7451 26.5771C56.917 27.085 57.7764 27.5781 58.3232 28.0566ZM57.752 30.459L58.6602 31.0889C58.0059 32.7393 57.2783 34.3604 56.4775 35.9521L55.4668 35.293C56.3164 33.7793 57.0781 32.168 57.752 30.459ZM60.7842 24.1602V27.3535C60.7744 31.3379 60.1445 34.2676 58.8945 36.1426C58.6309 35.918 58.3232 35.7471 57.9717 35.6299C59.0752 33.9795 59.6562 31.499 59.7148 28.1885C59.7148 27.9346 59.7148 27.6562 59.7148 27.3535V23.1641H68.7676V24.1602H60.7842ZM65.3545 34.7363H68.8408V35.6885H60.3594V34.7363H64.3291V32.5537H61.3262V31.6162H64.3291V29.7266H61.0771V28.7744H64.3291V26.8994H61.6631V25.9766H64.3291V24.4971H65.3545V25.9766H68.1523V26.8994H65.3545V28.7744H68.665V29.7266H65.3545V31.6162H68.4014V32.5537H65.3545V34.7363ZM76.165 33.0811L75.3887 33.9014C74.9688 33.2666 74.3145 32.4316 73.4258 31.3965C73.0059 33.3887 72.1514 34.917 70.8623 35.9814C70.6865 35.6982 70.4375 35.4248 70.1152 35.1611C71.6387 34.0186 72.4785 32.0947 72.6348 29.3896H70.2031V28.3789H72.6787V25.918H70.5254V24.9365H72.6787V22.6074H73.7188V24.9365H75.8281V25.918H73.7188V28.3789H76.1064V29.3896H73.6748C73.665 29.624 73.6406 29.9121 73.6016 30.2539C74.168 30.8203 75.0225 31.7627 76.165 33.0811ZM77.6885 28.8184V30.3271H81.9658V28.8184H77.6885ZM77.6885 26.4307V27.9102H81.9658V26.4307H77.6885ZM77.6885 24.043V25.5078H81.9658V24.043H77.6885ZM81.6289 34.8975H82.5811C82.7471 34.8975 82.8545 34.7998 82.9033 34.6045C82.9619 34.3604 83.001 33.7988 83.0205 32.9199C83.2158 33.0762 83.5234 33.2129 83.9434 33.3301C83.8848 34.5801 83.7139 35.3516 83.4307 35.6445C83.2549 35.8008 83.0107 35.8789 82.6982 35.8789H81.4824C80.8965 35.8789 80.5303 35.7373 80.3838 35.4541C80.2861 35.249 80.2373 34.9316 80.2373 34.502V31.3232H78.9043C78.7188 32.915 78.2256 34.1064 77.4248 34.8975C76.8877 35.415 76.1846 35.8252 75.3154 36.1279C75.1885 35.835 74.9883 35.5615 74.7148 35.3076C74.7051 35.2979 74.6953 35.2881 74.6855 35.2783C76.0625 34.8389 76.9805 34.0771 77.4395 32.9932C77.625 32.5342 77.7617 31.9775 77.8496 31.3232H76.6484V23.0322H83.0498V31.3232H81.2627V34.502C81.2627 34.7266 81.3115 34.8535 81.4092 34.8828C81.4678 34.8926 81.541 34.8975 81.6289 34.8975ZM85.2471 35.7764L85.1592 34.8828C85.3057 34.873 88.1719 34.7412 93.7578 34.4873L93.7285 35.3516C89.1777 35.5859 86.3506 35.7275 85.2471 35.7764ZM91.8975 31.9678V31.25H89.9785V31.9678H91.8975ZM91.8975 33.3008V32.583H89.9785V33.3008H91.8975ZM87.0781 32.583V33.3008H89.0117V32.583H87.0781ZM87.0781 31.25V31.9678H89.0117V31.25H87.0781ZM86.1699 30.6348H92.835V33.9307H86.1699V30.6348ZM91.8828 26.4307V25.625H89.9199V26.4307H91.8828ZM89.9199 24.1309V24.8633H91.8828V24.1309H89.9199ZM92.8496 23.4131V24.8633H93.7871V25.625H92.8496V27.1338H89.9199V27.8223H93.0693V28.5254H89.9199V29.2139H93.6992V29.9902H85.2617V29.2139H88.8945V28.5254H85.9648V27.8223H88.8945V27.1338H86.082V26.4307H88.8945V25.625H85.1738V24.8633H88.8945V24.1309H86.1406V23.4131H88.8945V22.4609H89.9199V23.4131H92.8496ZM95.3545 24.248V32.4951H94.3438V24.248H95.3545ZM97.1709 22.7393H98.2256V34.751C98.2256 35.3271 98.0693 35.7031 97.7568 35.8789C97.708 35.9082 97.6641 35.9326 97.625 35.9521C97.2734 36.0791 96.4971 36.1426 95.2959 36.1426C95.2568 35.8008 95.1445 35.4395 94.959 35.0586C95.8867 35.0879 96.5068 35.0928 96.8193 35.0732C97.0439 35.0244 97.1611 34.917 97.1709 34.751V22.7393Z" fill="#5C5C5C"/>
<rect x="8.5" y="8.5" width="122" height="41" rx="9.5" stroke="url(#paint0_linear)"/>
</g>
<defs>
<filter id="filter0_d" x="0" y="0" width="143" height="62" filterUnits="userSpaceOnUse" color-interpolation-filters="sRGB">
<feFlood flood-opacity="0" result="BackgroundImageFix"/>
<feColorMatrix in="SourceAlpha" type="matrix" values="0 0 0 0 0 0 0 0 0 0 0 0 0 0 0 0 0 0 127 0"/>
<feOffset dx="2" dy="2"/>
<feGaussianBlur stdDeviation="5"/>
<feColorMatrix type="matrix" values="0 0 0 0 0.8 0 0 0 0 0.8 0 0 0 0 0.8 0 0 0 0.75 0"/>
<feBlend mode="normal" in2="BackgroundImageFix" result="effect1_dropShadow"/>
<feBlend mode="normal" in="SourceGraphic" in2="effect1_dropShadow" result="shape"/>
</filter>
<linearGradient id="paint0_linear" x1="69.5" y1="-19.4286" x2="69.5" y2="75.2857" gradientUnits="userSpaceOnUse">
<stop offset="0.436593" stop-color="#96FBC4"/>
<stop offset="0.856357" stop-color="#20E2D7"/>
</linearGradient>
</defs>
</svg>
